M48
; DRILL file {KiCad 5.1.10-88a1d61d58~88~ubuntu20.04.1} date Mon May 10 19:00:37 2021
; FORMAT={-:-/ absolute / inch / decimal}
; #@! TF.CreationDate,2021-05-10T19:00:37+02:00
; #@! TF.GenerationSoftware,Kicad,Pcbnew,5.1.10-88a1d61d58~88~ubuntu20.04.1
; #@! TF.FileFunction,Plated,1,4,PTH
FMAT,2
INCH
T1C0.0079
T2C0.0118
T3C0.0197
T4C0.0374
T5C0.0591
T6C0.1260
%
G90
G05
T1
X5.7008Y-4.0591
X5.7008Y-4.0984
X5.7008Y-4.1378
X5.7402Y-4.0591
X5.7402Y-4.0984
X5.7402Y-4.1378
X5.7795Y-4.0591
X5.7795Y-4.0984
X5.7795Y-4.1378
T2
X5.3425Y-3.9724
X5.3425Y-4.2244
X5.4882Y-3.9882
X5.4882Y-4.0157
X5.4882Y-4.0433
X5.4882Y-4.1535
X5.4882Y-4.1811
X5.4882Y-4.2087
X5.4921Y-4.0787
X5.5315Y-4.1142
X5.5709Y-4.0787
X5.5945Y-4.1142
X5.6063Y-4.8494
X5.6339Y-4.2047
X5.6378Y-3.9882
X5.6457Y-4.1811
X5.6457Y-4.8622
X5.6535Y-4.0197
X5.6535Y-4.3543
X5.6535Y-4.3819
X5.6535Y-4.4094
X5.6929Y-3.9528
X5.6969Y-3.9173
X5.6969Y-4.2323
X5.6969Y-4.2677
X5.7244Y-4.252
X5.7441Y-3.8583
X5.8139Y-4.3724
X5.815Y-3.8189
X5.815Y-4.7559
X5.8268Y-4.7047
X5.8469Y-3.7712
X5.8622Y-4.5906
X5.9055Y-4.1772
X5.9094Y-4.2103
X5.9134Y-4.3532
X5.9488Y-3.937
X6.0118Y-4.0523
X6.0197Y-3.8583
X6.0236Y-4.5079
X6.0313Y-4.5667
X6.0315Y-4.0276
X6.0394Y-4.437
X6.0665Y-4.2442
X6.0709Y-3.9134
X6.0945Y-3.5354
X6.0945Y-4.4541
X6.1024Y-4.2126
X6.1024Y-4.5079
X6.1024Y-4.5551
X6.1142Y-4.009
X6.122Y-4.3886
X6.1378Y-4.0472
X6.138Y-4.2006
X6.1535Y-4.0197
X6.1535Y-4.3701
X6.1693Y-3.7323
X6.1811Y-4.0512
X6.2047Y-4.3858
X6.248Y-3.9882
X6.2579Y-4.124
X6.2638Y-4.6614
X6.2638Y-4.7087
X6.2677Y-4.5
X6.2717Y-4.2323
X6.2717Y-4.2638
X6.2749Y-4.1881
X6.302Y-4.3689
X6.3039Y-4.5035
X6.315Y-4.1772
X6.3228Y-3.9331
X6.3268Y-3.8425
X6.3362Y-4.3786
X6.3525Y-3.9333
X6.378Y-4.1102
X6.3798Y-4.3788
X6.3858Y-3.9291
X6.3957Y-4.0433
X6.4055Y-3.9055
X6.428Y-4.2785
X6.4291Y-4.0433
X6.4291Y-4.3268
X6.4518Y-4.3045
X6.484Y-4.0454
X6.4843Y-4.3425
X6.5197Y-4.0433
X6.5276Y-4.3465
X6.5315Y-4.4956
X6.5433Y-3.9331
X6.5531Y-4.3165
X6.5551Y-4.185
X6.5709Y-4.2835
X6.5787Y-3.937
X6.5827Y-4.3425
X6.5867Y-4.0675
X6.5906Y-4.1024
X6.594Y-4.2098
X6.5945Y-4.2559
X6.5946Y-4.1803
X6.5961Y-4.3733
X6.6616Y-4.5907
T3
X5.374Y-4.4449
X5.374Y-4.4941
X5.3976Y-3.6909
X5.3976Y-4.7146
X5.4253Y-3.6241
X5.4253Y-3.7578
X5.4253Y-4.6478
X5.4253Y-4.7814
X5.4921Y-3.5965
X5.4921Y-3.7854
X5.4921Y-4.6201
X5.4921Y-4.8091
X5.5589Y-3.6241
X5.5589Y-3.7578
X5.5589Y-4.6478
X5.5589Y-4.7814
X5.5866Y-3.6909
X5.5866Y-4.7146
X5.8406Y-3.7008
X5.8898Y-3.7008
X5.939Y-3.7008
X5.9803Y-4.6713
X5.9803Y-4.7205
X5.9803Y-4.7697
X5.9803Y-4.8189
X5.9882Y-3.7008
X6.1457Y-4.6713
X6.1457Y-4.7205
X6.1457Y-4.7697
X6.1457Y-4.8189
X6.311Y-4.5728
X6.311Y-4.622
X6.311Y-4.6713
X6.311Y-4.7205
X6.311Y-4.7697
X6.311Y-4.8189
X6.4213Y-3.6909
X6.4213Y-4.7146
X6.4489Y-3.6241
X6.4489Y-3.7578
X6.4489Y-4.6478
X6.4489Y-4.7814
X6.5157Y-3.5965
X6.5157Y-3.7854
X6.5157Y-4.6201
X6.5157Y-4.8091
X6.5826Y-3.6241
X6.5826Y-3.7578
X6.5826Y-4.6478
X6.5826Y-4.7814
X6.6102Y-3.6909
X6.6102Y-4.7146
T4
X5.4213Y-3.9488
X5.4213Y-4.0472
X5.4213Y-4.1457
X5.4213Y-4.2441
T5
X5.752Y-4.6535
X5.752Y-4.8189
T6
X5.4921Y-3.6909
X5.4921Y-4.7146
X6.5157Y-3.6909
X6.5157Y-4.7146
T0
M30
