%TF.GenerationSoftware,KiCad,Pcbnew,5.1.10-88a1d61d58~88~ubuntu20.04.1*%
%TF.CreationDate,2021-05-10T19:00:39+02:00*%
%TF.ProjectId,StepperServo,53746570-7065-4725-9365-72766f2e6b69,rev?*%
%TF.SameCoordinates,Original*%
%TF.FileFunction,Soldermask,Bot*%
%TF.FilePolarity,Negative*%
%FSLAX46Y46*%
G04 Gerber Fmt 4.6, Leading zero omitted, Abs format (unit mm)*
G04 Created by KiCad (PCBNEW 5.1.10-88a1d61d58~88~ubuntu20.04.1) date 2021-05-10 19:00:39*
%MOMM*%
%LPD*%
G01*
G04 APERTURE LIST*
%ADD10O,1.300000X0.800000*%
%ADD11O,0.800000X1.300000*%
%ADD12C,0.800000*%
%ADD13C,6.400000*%
%ADD14R,3.350000X3.350000*%
%ADD15R,2.400000X1.400000*%
%ADD16C,0.100000*%
%ADD17O,1.950000X1.700000*%
%ADD18C,3.000000*%
G04 APERTURE END LIST*
%TO.C,R20*%
G36*
G01*
X138025000Y-115125000D02*
X138575000Y-115125000D01*
G75*
G02*
X138775000Y-115325000I0J-200000D01*
G01*
X138775000Y-115725000D01*
G75*
G02*
X138575000Y-115925000I-200000J0D01*
G01*
X138025000Y-115925000D01*
G75*
G02*
X137825000Y-115725000I0J200000D01*
G01*
X137825000Y-115325000D01*
G75*
G02*
X138025000Y-115125000I200000J0D01*
G01*
G37*
G36*
G01*
X138025000Y-113475000D02*
X138575000Y-113475000D01*
G75*
G02*
X138775000Y-113675000I0J-200000D01*
G01*
X138775000Y-114075000D01*
G75*
G02*
X138575000Y-114275000I-200000J0D01*
G01*
X138025000Y-114275000D01*
G75*
G02*
X137825000Y-114075000I0J200000D01*
G01*
X137825000Y-113675000D01*
G75*
G02*
X138025000Y-113475000I200000J0D01*
G01*
G37*
%TD*%
%TO.C,R16*%
G36*
G01*
X155250000Y-91075000D02*
X155250000Y-90525000D01*
G75*
G02*
X155450000Y-90325000I200000J0D01*
G01*
X155850000Y-90325000D01*
G75*
G02*
X156050000Y-90525000I0J-200000D01*
G01*
X156050000Y-91075000D01*
G75*
G02*
X155850000Y-91275000I-200000J0D01*
G01*
X155450000Y-91275000D01*
G75*
G02*
X155250000Y-91075000I0J200000D01*
G01*
G37*
G36*
G01*
X153600000Y-91075000D02*
X153600000Y-90525000D01*
G75*
G02*
X153800000Y-90325000I200000J0D01*
G01*
X154200000Y-90325000D01*
G75*
G02*
X154400000Y-90525000I0J-200000D01*
G01*
X154400000Y-91075000D01*
G75*
G02*
X154200000Y-91275000I-200000J0D01*
G01*
X153800000Y-91275000D01*
G75*
G02*
X153600000Y-91075000I0J200000D01*
G01*
G37*
%TD*%
%TO.C,R11*%
G36*
G01*
X147025000Y-109425000D02*
X147575000Y-109425000D01*
G75*
G02*
X147775000Y-109625000I0J-200000D01*
G01*
X147775000Y-110025000D01*
G75*
G02*
X147575000Y-110225000I-200000J0D01*
G01*
X147025000Y-110225000D01*
G75*
G02*
X146825000Y-110025000I0J200000D01*
G01*
X146825000Y-109625000D01*
G75*
G02*
X147025000Y-109425000I200000J0D01*
G01*
G37*
G36*
G01*
X147025000Y-107775000D02*
X147575000Y-107775000D01*
G75*
G02*
X147775000Y-107975000I0J-200000D01*
G01*
X147775000Y-108375000D01*
G75*
G02*
X147575000Y-108575000I-200000J0D01*
G01*
X147025000Y-108575000D01*
G75*
G02*
X146825000Y-108375000I0J200000D01*
G01*
X146825000Y-107975000D01*
G75*
G02*
X147025000Y-107775000I200000J0D01*
G01*
G37*
%TD*%
%TO.C,R7*%
G36*
G01*
X147375000Y-111625000D02*
X147375000Y-112175000D01*
G75*
G02*
X147175000Y-112375000I-200000J0D01*
G01*
X146775000Y-112375000D01*
G75*
G02*
X146575000Y-112175000I0J200000D01*
G01*
X146575000Y-111625000D01*
G75*
G02*
X146775000Y-111425000I200000J0D01*
G01*
X147175000Y-111425000D01*
G75*
G02*
X147375000Y-111625000I0J-200000D01*
G01*
G37*
G36*
G01*
X149025000Y-111625000D02*
X149025000Y-112175000D01*
G75*
G02*
X148825000Y-112375000I-200000J0D01*
G01*
X148425000Y-112375000D01*
G75*
G02*
X148225000Y-112175000I0J200000D01*
G01*
X148225000Y-111625000D01*
G75*
G02*
X148425000Y-111425000I200000J0D01*
G01*
X148825000Y-111425000D01*
G75*
G02*
X149025000Y-111625000I0J-200000D01*
G01*
G37*
%TD*%
D10*
%TO.C,J6*%
X136500000Y-114150000D03*
G36*
G01*
X136050000Y-112500000D02*
X136950000Y-112500000D01*
G75*
G02*
X137150000Y-112700000I0J-200000D01*
G01*
X137150000Y-113100000D01*
G75*
G02*
X136950000Y-113300000I-200000J0D01*
G01*
X136050000Y-113300000D01*
G75*
G02*
X135850000Y-113100000I0J200000D01*
G01*
X135850000Y-112700000D01*
G75*
G02*
X136050000Y-112500000I200000J0D01*
G01*
G37*
%TD*%
D11*
%TO.C,J4*%
X152100000Y-94000000D03*
X150850000Y-94000000D03*
X149600000Y-94000000D03*
G36*
G01*
X147950000Y-94450000D02*
X147950000Y-93550000D01*
G75*
G02*
X148150000Y-93350000I200000J0D01*
G01*
X148550000Y-93350000D01*
G75*
G02*
X148750000Y-93550000I0J-200000D01*
G01*
X148750000Y-94450000D01*
G75*
G02*
X148550000Y-94650000I-200000J0D01*
G01*
X148150000Y-94650000D01*
G75*
G02*
X147950000Y-94450000I0J200000D01*
G01*
G37*
%TD*%
D12*
%TO.C,H4*%
X167197056Y-118052944D03*
X165500000Y-117350000D03*
X163802944Y-118052944D03*
X163100000Y-119750000D03*
X163802944Y-121447056D03*
X165500000Y-122150000D03*
X167197056Y-121447056D03*
X167900000Y-119750000D03*
D13*
X165500000Y-119750000D03*
%TD*%
D12*
%TO.C,H3*%
X141197056Y-118052944D03*
X139500000Y-117350000D03*
X137802944Y-118052944D03*
X137100000Y-119750000D03*
X137802944Y-121447056D03*
X139500000Y-122150000D03*
X141197056Y-121447056D03*
X141900000Y-119750000D03*
D13*
X139500000Y-119750000D03*
%TD*%
D12*
%TO.C,H2*%
X167197056Y-92052944D03*
X165500000Y-91350000D03*
X163802944Y-92052944D03*
X163100000Y-93750000D03*
X163802944Y-95447056D03*
X165500000Y-96150000D03*
X167197056Y-95447056D03*
X167900000Y-93750000D03*
D13*
X165500000Y-93750000D03*
%TD*%
D12*
%TO.C,H1*%
X141197056Y-92052944D03*
X139500000Y-91350000D03*
X137802944Y-92052944D03*
X137100000Y-93750000D03*
X137802944Y-95447056D03*
X139500000Y-96150000D03*
X141197056Y-95447056D03*
X141900000Y-93750000D03*
D13*
X139500000Y-93750000D03*
%TD*%
%TO.C,U6*%
G36*
G01*
X154555000Y-105250000D02*
X154255000Y-105250000D01*
G75*
G02*
X154105000Y-105100000I0J150000D01*
G01*
X154105000Y-103450000D01*
G75*
G02*
X154255000Y-103300000I150000J0D01*
G01*
X154555000Y-103300000D01*
G75*
G02*
X154705000Y-103450000I0J-150000D01*
G01*
X154705000Y-105100000D01*
G75*
G02*
X154555000Y-105250000I-150000J0D01*
G01*
G37*
G36*
G01*
X153285000Y-105250000D02*
X152985000Y-105250000D01*
G75*
G02*
X152835000Y-105100000I0J150000D01*
G01*
X152835000Y-103450000D01*
G75*
G02*
X152985000Y-103300000I150000J0D01*
G01*
X153285000Y-103300000D01*
G75*
G02*
X153435000Y-103450000I0J-150000D01*
G01*
X153435000Y-105100000D01*
G75*
G02*
X153285000Y-105250000I-150000J0D01*
G01*
G37*
G36*
G01*
X152015000Y-105250000D02*
X151715000Y-105250000D01*
G75*
G02*
X151565000Y-105100000I0J150000D01*
G01*
X151565000Y-103450000D01*
G75*
G02*
X151715000Y-103300000I150000J0D01*
G01*
X152015000Y-103300000D01*
G75*
G02*
X152165000Y-103450000I0J-150000D01*
G01*
X152165000Y-105100000D01*
G75*
G02*
X152015000Y-105250000I-150000J0D01*
G01*
G37*
G36*
G01*
X150745000Y-105250000D02*
X150445000Y-105250000D01*
G75*
G02*
X150295000Y-105100000I0J150000D01*
G01*
X150295000Y-103450000D01*
G75*
G02*
X150445000Y-103300000I150000J0D01*
G01*
X150745000Y-103300000D01*
G75*
G02*
X150895000Y-103450000I0J-150000D01*
G01*
X150895000Y-105100000D01*
G75*
G02*
X150745000Y-105250000I-150000J0D01*
G01*
G37*
G36*
G01*
X150745000Y-110200000D02*
X150445000Y-110200000D01*
G75*
G02*
X150295000Y-110050000I0J150000D01*
G01*
X150295000Y-108400000D01*
G75*
G02*
X150445000Y-108250000I150000J0D01*
G01*
X150745000Y-108250000D01*
G75*
G02*
X150895000Y-108400000I0J-150000D01*
G01*
X150895000Y-110050000D01*
G75*
G02*
X150745000Y-110200000I-150000J0D01*
G01*
G37*
G36*
G01*
X152015000Y-110200000D02*
X151715000Y-110200000D01*
G75*
G02*
X151565000Y-110050000I0J150000D01*
G01*
X151565000Y-108400000D01*
G75*
G02*
X151715000Y-108250000I150000J0D01*
G01*
X152015000Y-108250000D01*
G75*
G02*
X152165000Y-108400000I0J-150000D01*
G01*
X152165000Y-110050000D01*
G75*
G02*
X152015000Y-110200000I-150000J0D01*
G01*
G37*
G36*
G01*
X153285000Y-110200000D02*
X152985000Y-110200000D01*
G75*
G02*
X152835000Y-110050000I0J150000D01*
G01*
X152835000Y-108400000D01*
G75*
G02*
X152985000Y-108250000I150000J0D01*
G01*
X153285000Y-108250000D01*
G75*
G02*
X153435000Y-108400000I0J-150000D01*
G01*
X153435000Y-110050000D01*
G75*
G02*
X153285000Y-110200000I-150000J0D01*
G01*
G37*
G36*
G01*
X154555000Y-110200000D02*
X154255000Y-110200000D01*
G75*
G02*
X154105000Y-110050000I0J150000D01*
G01*
X154105000Y-108400000D01*
G75*
G02*
X154255000Y-108250000I150000J0D01*
G01*
X154555000Y-108250000D01*
G75*
G02*
X154705000Y-108400000I0J-150000D01*
G01*
X154705000Y-110050000D01*
G75*
G02*
X154555000Y-110200000I-150000J0D01*
G01*
G37*
%TD*%
%TO.C,U5*%
G36*
G01*
X156875000Y-103100000D02*
X158275000Y-103100000D01*
G75*
G02*
X158350000Y-103175000I0J-75000D01*
G01*
X158350000Y-103325000D01*
G75*
G02*
X158275000Y-103400000I-75000J0D01*
G01*
X156875000Y-103400000D01*
G75*
G02*
X156800000Y-103325000I0J75000D01*
G01*
X156800000Y-103175000D01*
G75*
G02*
X156875000Y-103100000I75000J0D01*
G01*
G37*
G36*
G01*
X156875000Y-103600000D02*
X158275000Y-103600000D01*
G75*
G02*
X158350000Y-103675000I0J-75000D01*
G01*
X158350000Y-103825000D01*
G75*
G02*
X158275000Y-103900000I-75000J0D01*
G01*
X156875000Y-103900000D01*
G75*
G02*
X156800000Y-103825000I0J75000D01*
G01*
X156800000Y-103675000D01*
G75*
G02*
X156875000Y-103600000I75000J0D01*
G01*
G37*
G36*
G01*
X156875000Y-104100000D02*
X158275000Y-104100000D01*
G75*
G02*
X158350000Y-104175000I0J-75000D01*
G01*
X158350000Y-104325000D01*
G75*
G02*
X158275000Y-104400000I-75000J0D01*
G01*
X156875000Y-104400000D01*
G75*
G02*
X156800000Y-104325000I0J75000D01*
G01*
X156800000Y-104175000D01*
G75*
G02*
X156875000Y-104100000I75000J0D01*
G01*
G37*
G36*
G01*
X156875000Y-104600000D02*
X158275000Y-104600000D01*
G75*
G02*
X158350000Y-104675000I0J-75000D01*
G01*
X158350000Y-104825000D01*
G75*
G02*
X158275000Y-104900000I-75000J0D01*
G01*
X156875000Y-104900000D01*
G75*
G02*
X156800000Y-104825000I0J75000D01*
G01*
X156800000Y-104675000D01*
G75*
G02*
X156875000Y-104600000I75000J0D01*
G01*
G37*
G36*
G01*
X156875000Y-105100000D02*
X158275000Y-105100000D01*
G75*
G02*
X158350000Y-105175000I0J-75000D01*
G01*
X158350000Y-105325000D01*
G75*
G02*
X158275000Y-105400000I-75000J0D01*
G01*
X156875000Y-105400000D01*
G75*
G02*
X156800000Y-105325000I0J75000D01*
G01*
X156800000Y-105175000D01*
G75*
G02*
X156875000Y-105100000I75000J0D01*
G01*
G37*
G36*
G01*
X156875000Y-105600000D02*
X158275000Y-105600000D01*
G75*
G02*
X158350000Y-105675000I0J-75000D01*
G01*
X158350000Y-105825000D01*
G75*
G02*
X158275000Y-105900000I-75000J0D01*
G01*
X156875000Y-105900000D01*
G75*
G02*
X156800000Y-105825000I0J75000D01*
G01*
X156800000Y-105675000D01*
G75*
G02*
X156875000Y-105600000I75000J0D01*
G01*
G37*
G36*
G01*
X156875000Y-106100000D02*
X158275000Y-106100000D01*
G75*
G02*
X158350000Y-106175000I0J-75000D01*
G01*
X158350000Y-106325000D01*
G75*
G02*
X158275000Y-106400000I-75000J0D01*
G01*
X156875000Y-106400000D01*
G75*
G02*
X156800000Y-106325000I0J75000D01*
G01*
X156800000Y-106175000D01*
G75*
G02*
X156875000Y-106100000I75000J0D01*
G01*
G37*
G36*
G01*
X156875000Y-106600000D02*
X158275000Y-106600000D01*
G75*
G02*
X158350000Y-106675000I0J-75000D01*
G01*
X158350000Y-106825000D01*
G75*
G02*
X158275000Y-106900000I-75000J0D01*
G01*
X156875000Y-106900000D01*
G75*
G02*
X156800000Y-106825000I0J75000D01*
G01*
X156800000Y-106675000D01*
G75*
G02*
X156875000Y-106600000I75000J0D01*
G01*
G37*
G36*
G01*
X156875000Y-107100000D02*
X158275000Y-107100000D01*
G75*
G02*
X158350000Y-107175000I0J-75000D01*
G01*
X158350000Y-107325000D01*
G75*
G02*
X158275000Y-107400000I-75000J0D01*
G01*
X156875000Y-107400000D01*
G75*
G02*
X156800000Y-107325000I0J75000D01*
G01*
X156800000Y-107175000D01*
G75*
G02*
X156875000Y-107100000I75000J0D01*
G01*
G37*
G36*
G01*
X156875000Y-107600000D02*
X158275000Y-107600000D01*
G75*
G02*
X158350000Y-107675000I0J-75000D01*
G01*
X158350000Y-107825000D01*
G75*
G02*
X158275000Y-107900000I-75000J0D01*
G01*
X156875000Y-107900000D01*
G75*
G02*
X156800000Y-107825000I0J75000D01*
G01*
X156800000Y-107675000D01*
G75*
G02*
X156875000Y-107600000I75000J0D01*
G01*
G37*
G36*
G01*
X156875000Y-108100000D02*
X158275000Y-108100000D01*
G75*
G02*
X158350000Y-108175000I0J-75000D01*
G01*
X158350000Y-108325000D01*
G75*
G02*
X158275000Y-108400000I-75000J0D01*
G01*
X156875000Y-108400000D01*
G75*
G02*
X156800000Y-108325000I0J75000D01*
G01*
X156800000Y-108175000D01*
G75*
G02*
X156875000Y-108100000I75000J0D01*
G01*
G37*
G36*
G01*
X156875000Y-108600000D02*
X158275000Y-108600000D01*
G75*
G02*
X158350000Y-108675000I0J-75000D01*
G01*
X158350000Y-108825000D01*
G75*
G02*
X158275000Y-108900000I-75000J0D01*
G01*
X156875000Y-108900000D01*
G75*
G02*
X156800000Y-108825000I0J75000D01*
G01*
X156800000Y-108675000D01*
G75*
G02*
X156875000Y-108600000I75000J0D01*
G01*
G37*
G36*
G01*
X156875000Y-109100000D02*
X158275000Y-109100000D01*
G75*
G02*
X158350000Y-109175000I0J-75000D01*
G01*
X158350000Y-109325000D01*
G75*
G02*
X158275000Y-109400000I-75000J0D01*
G01*
X156875000Y-109400000D01*
G75*
G02*
X156800000Y-109325000I0J75000D01*
G01*
X156800000Y-109175000D01*
G75*
G02*
X156875000Y-109100000I75000J0D01*
G01*
G37*
G36*
G01*
X156875000Y-109600000D02*
X158275000Y-109600000D01*
G75*
G02*
X158350000Y-109675000I0J-75000D01*
G01*
X158350000Y-109825000D01*
G75*
G02*
X158275000Y-109900000I-75000J0D01*
G01*
X156875000Y-109900000D01*
G75*
G02*
X156800000Y-109825000I0J75000D01*
G01*
X156800000Y-109675000D01*
G75*
G02*
X156875000Y-109600000I75000J0D01*
G01*
G37*
G36*
G01*
X156875000Y-110100000D02*
X158275000Y-110100000D01*
G75*
G02*
X158350000Y-110175000I0J-75000D01*
G01*
X158350000Y-110325000D01*
G75*
G02*
X158275000Y-110400000I-75000J0D01*
G01*
X156875000Y-110400000D01*
G75*
G02*
X156800000Y-110325000I0J75000D01*
G01*
X156800000Y-110175000D01*
G75*
G02*
X156875000Y-110100000I75000J0D01*
G01*
G37*
G36*
G01*
X156875000Y-110600000D02*
X158275000Y-110600000D01*
G75*
G02*
X158350000Y-110675000I0J-75000D01*
G01*
X158350000Y-110825000D01*
G75*
G02*
X158275000Y-110900000I-75000J0D01*
G01*
X156875000Y-110900000D01*
G75*
G02*
X156800000Y-110825000I0J75000D01*
G01*
X156800000Y-110675000D01*
G75*
G02*
X156875000Y-110600000I75000J0D01*
G01*
G37*
G36*
G01*
X159425000Y-111900000D02*
X159575000Y-111900000D01*
G75*
G02*
X159650000Y-111975000I0J-75000D01*
G01*
X159650000Y-113375000D01*
G75*
G02*
X159575000Y-113450000I-75000J0D01*
G01*
X159425000Y-113450000D01*
G75*
G02*
X159350000Y-113375000I0J75000D01*
G01*
X159350000Y-111975000D01*
G75*
G02*
X159425000Y-111900000I75000J0D01*
G01*
G37*
G36*
G01*
X159925000Y-111900000D02*
X160075000Y-111900000D01*
G75*
G02*
X160150000Y-111975000I0J-75000D01*
G01*
X160150000Y-113375000D01*
G75*
G02*
X160075000Y-113450000I-75000J0D01*
G01*
X159925000Y-113450000D01*
G75*
G02*
X159850000Y-113375000I0J75000D01*
G01*
X159850000Y-111975000D01*
G75*
G02*
X159925000Y-111900000I75000J0D01*
G01*
G37*
G36*
G01*
X160425000Y-111900000D02*
X160575000Y-111900000D01*
G75*
G02*
X160650000Y-111975000I0J-75000D01*
G01*
X160650000Y-113375000D01*
G75*
G02*
X160575000Y-113450000I-75000J0D01*
G01*
X160425000Y-113450000D01*
G75*
G02*
X160350000Y-113375000I0J75000D01*
G01*
X160350000Y-111975000D01*
G75*
G02*
X160425000Y-111900000I75000J0D01*
G01*
G37*
G36*
G01*
X160925000Y-111900000D02*
X161075000Y-111900000D01*
G75*
G02*
X161150000Y-111975000I0J-75000D01*
G01*
X161150000Y-113375000D01*
G75*
G02*
X161075000Y-113450000I-75000J0D01*
G01*
X160925000Y-113450000D01*
G75*
G02*
X160850000Y-113375000I0J75000D01*
G01*
X160850000Y-111975000D01*
G75*
G02*
X160925000Y-111900000I75000J0D01*
G01*
G37*
G36*
G01*
X161425000Y-111900000D02*
X161575000Y-111900000D01*
G75*
G02*
X161650000Y-111975000I0J-75000D01*
G01*
X161650000Y-113375000D01*
G75*
G02*
X161575000Y-113450000I-75000J0D01*
G01*
X161425000Y-113450000D01*
G75*
G02*
X161350000Y-113375000I0J75000D01*
G01*
X161350000Y-111975000D01*
G75*
G02*
X161425000Y-111900000I75000J0D01*
G01*
G37*
G36*
G01*
X161925000Y-111900000D02*
X162075000Y-111900000D01*
G75*
G02*
X162150000Y-111975000I0J-75000D01*
G01*
X162150000Y-113375000D01*
G75*
G02*
X162075000Y-113450000I-75000J0D01*
G01*
X161925000Y-113450000D01*
G75*
G02*
X161850000Y-113375000I0J75000D01*
G01*
X161850000Y-111975000D01*
G75*
G02*
X161925000Y-111900000I75000J0D01*
G01*
G37*
G36*
G01*
X162425000Y-111900000D02*
X162575000Y-111900000D01*
G75*
G02*
X162650000Y-111975000I0J-75000D01*
G01*
X162650000Y-113375000D01*
G75*
G02*
X162575000Y-113450000I-75000J0D01*
G01*
X162425000Y-113450000D01*
G75*
G02*
X162350000Y-113375000I0J75000D01*
G01*
X162350000Y-111975000D01*
G75*
G02*
X162425000Y-111900000I75000J0D01*
G01*
G37*
G36*
G01*
X162925000Y-111900000D02*
X163075000Y-111900000D01*
G75*
G02*
X163150000Y-111975000I0J-75000D01*
G01*
X163150000Y-113375000D01*
G75*
G02*
X163075000Y-113450000I-75000J0D01*
G01*
X162925000Y-113450000D01*
G75*
G02*
X162850000Y-113375000I0J75000D01*
G01*
X162850000Y-111975000D01*
G75*
G02*
X162925000Y-111900000I75000J0D01*
G01*
G37*
G36*
G01*
X163425000Y-111900000D02*
X163575000Y-111900000D01*
G75*
G02*
X163650000Y-111975000I0J-75000D01*
G01*
X163650000Y-113375000D01*
G75*
G02*
X163575000Y-113450000I-75000J0D01*
G01*
X163425000Y-113450000D01*
G75*
G02*
X163350000Y-113375000I0J75000D01*
G01*
X163350000Y-111975000D01*
G75*
G02*
X163425000Y-111900000I75000J0D01*
G01*
G37*
G36*
G01*
X163925000Y-111900000D02*
X164075000Y-111900000D01*
G75*
G02*
X164150000Y-111975000I0J-75000D01*
G01*
X164150000Y-113375000D01*
G75*
G02*
X164075000Y-113450000I-75000J0D01*
G01*
X163925000Y-113450000D01*
G75*
G02*
X163850000Y-113375000I0J75000D01*
G01*
X163850000Y-111975000D01*
G75*
G02*
X163925000Y-111900000I75000J0D01*
G01*
G37*
G36*
G01*
X164425000Y-111900000D02*
X164575000Y-111900000D01*
G75*
G02*
X164650000Y-111975000I0J-75000D01*
G01*
X164650000Y-113375000D01*
G75*
G02*
X164575000Y-113450000I-75000J0D01*
G01*
X164425000Y-113450000D01*
G75*
G02*
X164350000Y-113375000I0J75000D01*
G01*
X164350000Y-111975000D01*
G75*
G02*
X164425000Y-111900000I75000J0D01*
G01*
G37*
G36*
G01*
X164925000Y-111900000D02*
X165075000Y-111900000D01*
G75*
G02*
X165150000Y-111975000I0J-75000D01*
G01*
X165150000Y-113375000D01*
G75*
G02*
X165075000Y-113450000I-75000J0D01*
G01*
X164925000Y-113450000D01*
G75*
G02*
X164850000Y-113375000I0J75000D01*
G01*
X164850000Y-111975000D01*
G75*
G02*
X164925000Y-111900000I75000J0D01*
G01*
G37*
G36*
G01*
X165425000Y-111900000D02*
X165575000Y-111900000D01*
G75*
G02*
X165650000Y-111975000I0J-75000D01*
G01*
X165650000Y-113375000D01*
G75*
G02*
X165575000Y-113450000I-75000J0D01*
G01*
X165425000Y-113450000D01*
G75*
G02*
X165350000Y-113375000I0J75000D01*
G01*
X165350000Y-111975000D01*
G75*
G02*
X165425000Y-111900000I75000J0D01*
G01*
G37*
G36*
G01*
X165925000Y-111900000D02*
X166075000Y-111900000D01*
G75*
G02*
X166150000Y-111975000I0J-75000D01*
G01*
X166150000Y-113375000D01*
G75*
G02*
X166075000Y-113450000I-75000J0D01*
G01*
X165925000Y-113450000D01*
G75*
G02*
X165850000Y-113375000I0J75000D01*
G01*
X165850000Y-111975000D01*
G75*
G02*
X165925000Y-111900000I75000J0D01*
G01*
G37*
G36*
G01*
X166425000Y-111900000D02*
X166575000Y-111900000D01*
G75*
G02*
X166650000Y-111975000I0J-75000D01*
G01*
X166650000Y-113375000D01*
G75*
G02*
X166575000Y-113450000I-75000J0D01*
G01*
X166425000Y-113450000D01*
G75*
G02*
X166350000Y-113375000I0J75000D01*
G01*
X166350000Y-111975000D01*
G75*
G02*
X166425000Y-111900000I75000J0D01*
G01*
G37*
G36*
G01*
X166925000Y-111900000D02*
X167075000Y-111900000D01*
G75*
G02*
X167150000Y-111975000I0J-75000D01*
G01*
X167150000Y-113375000D01*
G75*
G02*
X167075000Y-113450000I-75000J0D01*
G01*
X166925000Y-113450000D01*
G75*
G02*
X166850000Y-113375000I0J75000D01*
G01*
X166850000Y-111975000D01*
G75*
G02*
X166925000Y-111900000I75000J0D01*
G01*
G37*
G36*
G01*
X168225000Y-110600000D02*
X169625000Y-110600000D01*
G75*
G02*
X169700000Y-110675000I0J-75000D01*
G01*
X169700000Y-110825000D01*
G75*
G02*
X169625000Y-110900000I-75000J0D01*
G01*
X168225000Y-110900000D01*
G75*
G02*
X168150000Y-110825000I0J75000D01*
G01*
X168150000Y-110675000D01*
G75*
G02*
X168225000Y-110600000I75000J0D01*
G01*
G37*
G36*
G01*
X168225000Y-110100000D02*
X169625000Y-110100000D01*
G75*
G02*
X169700000Y-110175000I0J-75000D01*
G01*
X169700000Y-110325000D01*
G75*
G02*
X169625000Y-110400000I-75000J0D01*
G01*
X168225000Y-110400000D01*
G75*
G02*
X168150000Y-110325000I0J75000D01*
G01*
X168150000Y-110175000D01*
G75*
G02*
X168225000Y-110100000I75000J0D01*
G01*
G37*
G36*
G01*
X168225000Y-109600000D02*
X169625000Y-109600000D01*
G75*
G02*
X169700000Y-109675000I0J-75000D01*
G01*
X169700000Y-109825000D01*
G75*
G02*
X169625000Y-109900000I-75000J0D01*
G01*
X168225000Y-109900000D01*
G75*
G02*
X168150000Y-109825000I0J75000D01*
G01*
X168150000Y-109675000D01*
G75*
G02*
X168225000Y-109600000I75000J0D01*
G01*
G37*
G36*
G01*
X168225000Y-109100000D02*
X169625000Y-109100000D01*
G75*
G02*
X169700000Y-109175000I0J-75000D01*
G01*
X169700000Y-109325000D01*
G75*
G02*
X169625000Y-109400000I-75000J0D01*
G01*
X168225000Y-109400000D01*
G75*
G02*
X168150000Y-109325000I0J75000D01*
G01*
X168150000Y-109175000D01*
G75*
G02*
X168225000Y-109100000I75000J0D01*
G01*
G37*
G36*
G01*
X168225000Y-108600000D02*
X169625000Y-108600000D01*
G75*
G02*
X169700000Y-108675000I0J-75000D01*
G01*
X169700000Y-108825000D01*
G75*
G02*
X169625000Y-108900000I-75000J0D01*
G01*
X168225000Y-108900000D01*
G75*
G02*
X168150000Y-108825000I0J75000D01*
G01*
X168150000Y-108675000D01*
G75*
G02*
X168225000Y-108600000I75000J0D01*
G01*
G37*
G36*
G01*
X168225000Y-108100000D02*
X169625000Y-108100000D01*
G75*
G02*
X169700000Y-108175000I0J-75000D01*
G01*
X169700000Y-108325000D01*
G75*
G02*
X169625000Y-108400000I-75000J0D01*
G01*
X168225000Y-108400000D01*
G75*
G02*
X168150000Y-108325000I0J75000D01*
G01*
X168150000Y-108175000D01*
G75*
G02*
X168225000Y-108100000I75000J0D01*
G01*
G37*
G36*
G01*
X168225000Y-107600000D02*
X169625000Y-107600000D01*
G75*
G02*
X169700000Y-107675000I0J-75000D01*
G01*
X169700000Y-107825000D01*
G75*
G02*
X169625000Y-107900000I-75000J0D01*
G01*
X168225000Y-107900000D01*
G75*
G02*
X168150000Y-107825000I0J75000D01*
G01*
X168150000Y-107675000D01*
G75*
G02*
X168225000Y-107600000I75000J0D01*
G01*
G37*
G36*
G01*
X168225000Y-107100000D02*
X169625000Y-107100000D01*
G75*
G02*
X169700000Y-107175000I0J-75000D01*
G01*
X169700000Y-107325000D01*
G75*
G02*
X169625000Y-107400000I-75000J0D01*
G01*
X168225000Y-107400000D01*
G75*
G02*
X168150000Y-107325000I0J75000D01*
G01*
X168150000Y-107175000D01*
G75*
G02*
X168225000Y-107100000I75000J0D01*
G01*
G37*
G36*
G01*
X168225000Y-106600000D02*
X169625000Y-106600000D01*
G75*
G02*
X169700000Y-106675000I0J-75000D01*
G01*
X169700000Y-106825000D01*
G75*
G02*
X169625000Y-106900000I-75000J0D01*
G01*
X168225000Y-106900000D01*
G75*
G02*
X168150000Y-106825000I0J75000D01*
G01*
X168150000Y-106675000D01*
G75*
G02*
X168225000Y-106600000I75000J0D01*
G01*
G37*
G36*
G01*
X168225000Y-106100000D02*
X169625000Y-106100000D01*
G75*
G02*
X169700000Y-106175000I0J-75000D01*
G01*
X169700000Y-106325000D01*
G75*
G02*
X169625000Y-106400000I-75000J0D01*
G01*
X168225000Y-106400000D01*
G75*
G02*
X168150000Y-106325000I0J75000D01*
G01*
X168150000Y-106175000D01*
G75*
G02*
X168225000Y-106100000I75000J0D01*
G01*
G37*
G36*
G01*
X168225000Y-105600000D02*
X169625000Y-105600000D01*
G75*
G02*
X169700000Y-105675000I0J-75000D01*
G01*
X169700000Y-105825000D01*
G75*
G02*
X169625000Y-105900000I-75000J0D01*
G01*
X168225000Y-105900000D01*
G75*
G02*
X168150000Y-105825000I0J75000D01*
G01*
X168150000Y-105675000D01*
G75*
G02*
X168225000Y-105600000I75000J0D01*
G01*
G37*
G36*
G01*
X168225000Y-105100000D02*
X169625000Y-105100000D01*
G75*
G02*
X169700000Y-105175000I0J-75000D01*
G01*
X169700000Y-105325000D01*
G75*
G02*
X169625000Y-105400000I-75000J0D01*
G01*
X168225000Y-105400000D01*
G75*
G02*
X168150000Y-105325000I0J75000D01*
G01*
X168150000Y-105175000D01*
G75*
G02*
X168225000Y-105100000I75000J0D01*
G01*
G37*
G36*
G01*
X168225000Y-104600000D02*
X169625000Y-104600000D01*
G75*
G02*
X169700000Y-104675000I0J-75000D01*
G01*
X169700000Y-104825000D01*
G75*
G02*
X169625000Y-104900000I-75000J0D01*
G01*
X168225000Y-104900000D01*
G75*
G02*
X168150000Y-104825000I0J75000D01*
G01*
X168150000Y-104675000D01*
G75*
G02*
X168225000Y-104600000I75000J0D01*
G01*
G37*
G36*
G01*
X168225000Y-104100000D02*
X169625000Y-104100000D01*
G75*
G02*
X169700000Y-104175000I0J-75000D01*
G01*
X169700000Y-104325000D01*
G75*
G02*
X169625000Y-104400000I-75000J0D01*
G01*
X168225000Y-104400000D01*
G75*
G02*
X168150000Y-104325000I0J75000D01*
G01*
X168150000Y-104175000D01*
G75*
G02*
X168225000Y-104100000I75000J0D01*
G01*
G37*
G36*
G01*
X168225000Y-103600000D02*
X169625000Y-103600000D01*
G75*
G02*
X169700000Y-103675000I0J-75000D01*
G01*
X169700000Y-103825000D01*
G75*
G02*
X169625000Y-103900000I-75000J0D01*
G01*
X168225000Y-103900000D01*
G75*
G02*
X168150000Y-103825000I0J75000D01*
G01*
X168150000Y-103675000D01*
G75*
G02*
X168225000Y-103600000I75000J0D01*
G01*
G37*
G36*
G01*
X168225000Y-103100000D02*
X169625000Y-103100000D01*
G75*
G02*
X169700000Y-103175000I0J-75000D01*
G01*
X169700000Y-103325000D01*
G75*
G02*
X169625000Y-103400000I-75000J0D01*
G01*
X168225000Y-103400000D01*
G75*
G02*
X168150000Y-103325000I0J75000D01*
G01*
X168150000Y-103175000D01*
G75*
G02*
X168225000Y-103100000I75000J0D01*
G01*
G37*
G36*
G01*
X166925000Y-100550000D02*
X167075000Y-100550000D01*
G75*
G02*
X167150000Y-100625000I0J-75000D01*
G01*
X167150000Y-102025000D01*
G75*
G02*
X167075000Y-102100000I-75000J0D01*
G01*
X166925000Y-102100000D01*
G75*
G02*
X166850000Y-102025000I0J75000D01*
G01*
X166850000Y-100625000D01*
G75*
G02*
X166925000Y-100550000I75000J0D01*
G01*
G37*
G36*
G01*
X166425000Y-100550000D02*
X166575000Y-100550000D01*
G75*
G02*
X166650000Y-100625000I0J-75000D01*
G01*
X166650000Y-102025000D01*
G75*
G02*
X166575000Y-102100000I-75000J0D01*
G01*
X166425000Y-102100000D01*
G75*
G02*
X166350000Y-102025000I0J75000D01*
G01*
X166350000Y-100625000D01*
G75*
G02*
X166425000Y-100550000I75000J0D01*
G01*
G37*
G36*
G01*
X165925000Y-100550000D02*
X166075000Y-100550000D01*
G75*
G02*
X166150000Y-100625000I0J-75000D01*
G01*
X166150000Y-102025000D01*
G75*
G02*
X166075000Y-102100000I-75000J0D01*
G01*
X165925000Y-102100000D01*
G75*
G02*
X165850000Y-102025000I0J75000D01*
G01*
X165850000Y-100625000D01*
G75*
G02*
X165925000Y-100550000I75000J0D01*
G01*
G37*
G36*
G01*
X165425000Y-100550000D02*
X165575000Y-100550000D01*
G75*
G02*
X165650000Y-100625000I0J-75000D01*
G01*
X165650000Y-102025000D01*
G75*
G02*
X165575000Y-102100000I-75000J0D01*
G01*
X165425000Y-102100000D01*
G75*
G02*
X165350000Y-102025000I0J75000D01*
G01*
X165350000Y-100625000D01*
G75*
G02*
X165425000Y-100550000I75000J0D01*
G01*
G37*
G36*
G01*
X164925000Y-100550000D02*
X165075000Y-100550000D01*
G75*
G02*
X165150000Y-100625000I0J-75000D01*
G01*
X165150000Y-102025000D01*
G75*
G02*
X165075000Y-102100000I-75000J0D01*
G01*
X164925000Y-102100000D01*
G75*
G02*
X164850000Y-102025000I0J75000D01*
G01*
X164850000Y-100625000D01*
G75*
G02*
X164925000Y-100550000I75000J0D01*
G01*
G37*
G36*
G01*
X164425000Y-100550000D02*
X164575000Y-100550000D01*
G75*
G02*
X164650000Y-100625000I0J-75000D01*
G01*
X164650000Y-102025000D01*
G75*
G02*
X164575000Y-102100000I-75000J0D01*
G01*
X164425000Y-102100000D01*
G75*
G02*
X164350000Y-102025000I0J75000D01*
G01*
X164350000Y-100625000D01*
G75*
G02*
X164425000Y-100550000I75000J0D01*
G01*
G37*
G36*
G01*
X163925000Y-100550000D02*
X164075000Y-100550000D01*
G75*
G02*
X164150000Y-100625000I0J-75000D01*
G01*
X164150000Y-102025000D01*
G75*
G02*
X164075000Y-102100000I-75000J0D01*
G01*
X163925000Y-102100000D01*
G75*
G02*
X163850000Y-102025000I0J75000D01*
G01*
X163850000Y-100625000D01*
G75*
G02*
X163925000Y-100550000I75000J0D01*
G01*
G37*
G36*
G01*
X163425000Y-100550000D02*
X163575000Y-100550000D01*
G75*
G02*
X163650000Y-100625000I0J-75000D01*
G01*
X163650000Y-102025000D01*
G75*
G02*
X163575000Y-102100000I-75000J0D01*
G01*
X163425000Y-102100000D01*
G75*
G02*
X163350000Y-102025000I0J75000D01*
G01*
X163350000Y-100625000D01*
G75*
G02*
X163425000Y-100550000I75000J0D01*
G01*
G37*
G36*
G01*
X162925000Y-100550000D02*
X163075000Y-100550000D01*
G75*
G02*
X163150000Y-100625000I0J-75000D01*
G01*
X163150000Y-102025000D01*
G75*
G02*
X163075000Y-102100000I-75000J0D01*
G01*
X162925000Y-102100000D01*
G75*
G02*
X162850000Y-102025000I0J75000D01*
G01*
X162850000Y-100625000D01*
G75*
G02*
X162925000Y-100550000I75000J0D01*
G01*
G37*
G36*
G01*
X162425000Y-100550000D02*
X162575000Y-100550000D01*
G75*
G02*
X162650000Y-100625000I0J-75000D01*
G01*
X162650000Y-102025000D01*
G75*
G02*
X162575000Y-102100000I-75000J0D01*
G01*
X162425000Y-102100000D01*
G75*
G02*
X162350000Y-102025000I0J75000D01*
G01*
X162350000Y-100625000D01*
G75*
G02*
X162425000Y-100550000I75000J0D01*
G01*
G37*
G36*
G01*
X161925000Y-100550000D02*
X162075000Y-100550000D01*
G75*
G02*
X162150000Y-100625000I0J-75000D01*
G01*
X162150000Y-102025000D01*
G75*
G02*
X162075000Y-102100000I-75000J0D01*
G01*
X161925000Y-102100000D01*
G75*
G02*
X161850000Y-102025000I0J75000D01*
G01*
X161850000Y-100625000D01*
G75*
G02*
X161925000Y-100550000I75000J0D01*
G01*
G37*
G36*
G01*
X161425000Y-100550000D02*
X161575000Y-100550000D01*
G75*
G02*
X161650000Y-100625000I0J-75000D01*
G01*
X161650000Y-102025000D01*
G75*
G02*
X161575000Y-102100000I-75000J0D01*
G01*
X161425000Y-102100000D01*
G75*
G02*
X161350000Y-102025000I0J75000D01*
G01*
X161350000Y-100625000D01*
G75*
G02*
X161425000Y-100550000I75000J0D01*
G01*
G37*
G36*
G01*
X160925000Y-100550000D02*
X161075000Y-100550000D01*
G75*
G02*
X161150000Y-100625000I0J-75000D01*
G01*
X161150000Y-102025000D01*
G75*
G02*
X161075000Y-102100000I-75000J0D01*
G01*
X160925000Y-102100000D01*
G75*
G02*
X160850000Y-102025000I0J75000D01*
G01*
X160850000Y-100625000D01*
G75*
G02*
X160925000Y-100550000I75000J0D01*
G01*
G37*
G36*
G01*
X160425000Y-100550000D02*
X160575000Y-100550000D01*
G75*
G02*
X160650000Y-100625000I0J-75000D01*
G01*
X160650000Y-102025000D01*
G75*
G02*
X160575000Y-102100000I-75000J0D01*
G01*
X160425000Y-102100000D01*
G75*
G02*
X160350000Y-102025000I0J75000D01*
G01*
X160350000Y-100625000D01*
G75*
G02*
X160425000Y-100550000I75000J0D01*
G01*
G37*
G36*
G01*
X159925000Y-100550000D02*
X160075000Y-100550000D01*
G75*
G02*
X160150000Y-100625000I0J-75000D01*
G01*
X160150000Y-102025000D01*
G75*
G02*
X160075000Y-102100000I-75000J0D01*
G01*
X159925000Y-102100000D01*
G75*
G02*
X159850000Y-102025000I0J75000D01*
G01*
X159850000Y-100625000D01*
G75*
G02*
X159925000Y-100550000I75000J0D01*
G01*
G37*
G36*
G01*
X159425000Y-100550000D02*
X159575000Y-100550000D01*
G75*
G02*
X159650000Y-100625000I0J-75000D01*
G01*
X159650000Y-102025000D01*
G75*
G02*
X159575000Y-102100000I-75000J0D01*
G01*
X159425000Y-102100000D01*
G75*
G02*
X159350000Y-102025000I0J75000D01*
G01*
X159350000Y-100625000D01*
G75*
G02*
X159425000Y-100550000I75000J0D01*
G01*
G37*
%TD*%
D14*
%TO.C,U3*%
X145800000Y-104100000D03*
G36*
G01*
X143012500Y-102475000D02*
X143687500Y-102475000D01*
G75*
G02*
X143750000Y-102537500I0J-62500D01*
G01*
X143750000Y-102662500D01*
G75*
G02*
X143687500Y-102725000I-62500J0D01*
G01*
X143012500Y-102725000D01*
G75*
G02*
X142950000Y-102662500I0J62500D01*
G01*
X142950000Y-102537500D01*
G75*
G02*
X143012500Y-102475000I62500J0D01*
G01*
G37*
G36*
G01*
X143012500Y-102975000D02*
X143687500Y-102975000D01*
G75*
G02*
X143750000Y-103037500I0J-62500D01*
G01*
X143750000Y-103162500D01*
G75*
G02*
X143687500Y-103225000I-62500J0D01*
G01*
X143012500Y-103225000D01*
G75*
G02*
X142950000Y-103162500I0J62500D01*
G01*
X142950000Y-103037500D01*
G75*
G02*
X143012500Y-102975000I62500J0D01*
G01*
G37*
G36*
G01*
X143012500Y-103475000D02*
X143687500Y-103475000D01*
G75*
G02*
X143750000Y-103537500I0J-62500D01*
G01*
X143750000Y-103662500D01*
G75*
G02*
X143687500Y-103725000I-62500J0D01*
G01*
X143012500Y-103725000D01*
G75*
G02*
X142950000Y-103662500I0J62500D01*
G01*
X142950000Y-103537500D01*
G75*
G02*
X143012500Y-103475000I62500J0D01*
G01*
G37*
G36*
G01*
X143012500Y-103975000D02*
X143687500Y-103975000D01*
G75*
G02*
X143750000Y-104037500I0J-62500D01*
G01*
X143750000Y-104162500D01*
G75*
G02*
X143687500Y-104225000I-62500J0D01*
G01*
X143012500Y-104225000D01*
G75*
G02*
X142950000Y-104162500I0J62500D01*
G01*
X142950000Y-104037500D01*
G75*
G02*
X143012500Y-103975000I62500J0D01*
G01*
G37*
G36*
G01*
X143012500Y-104475000D02*
X143687500Y-104475000D01*
G75*
G02*
X143750000Y-104537500I0J-62500D01*
G01*
X143750000Y-104662500D01*
G75*
G02*
X143687500Y-104725000I-62500J0D01*
G01*
X143012500Y-104725000D01*
G75*
G02*
X142950000Y-104662500I0J62500D01*
G01*
X142950000Y-104537500D01*
G75*
G02*
X143012500Y-104475000I62500J0D01*
G01*
G37*
G36*
G01*
X143012500Y-104975000D02*
X143687500Y-104975000D01*
G75*
G02*
X143750000Y-105037500I0J-62500D01*
G01*
X143750000Y-105162500D01*
G75*
G02*
X143687500Y-105225000I-62500J0D01*
G01*
X143012500Y-105225000D01*
G75*
G02*
X142950000Y-105162500I0J62500D01*
G01*
X142950000Y-105037500D01*
G75*
G02*
X143012500Y-104975000I62500J0D01*
G01*
G37*
G36*
G01*
X143012500Y-105475000D02*
X143687500Y-105475000D01*
G75*
G02*
X143750000Y-105537500I0J-62500D01*
G01*
X143750000Y-105662500D01*
G75*
G02*
X143687500Y-105725000I-62500J0D01*
G01*
X143012500Y-105725000D01*
G75*
G02*
X142950000Y-105662500I0J62500D01*
G01*
X142950000Y-105537500D01*
G75*
G02*
X143012500Y-105475000I62500J0D01*
G01*
G37*
G36*
G01*
X144237500Y-106150000D02*
X144362500Y-106150000D01*
G75*
G02*
X144425000Y-106212500I0J-62500D01*
G01*
X144425000Y-106887500D01*
G75*
G02*
X144362500Y-106950000I-62500J0D01*
G01*
X144237500Y-106950000D01*
G75*
G02*
X144175000Y-106887500I0J62500D01*
G01*
X144175000Y-106212500D01*
G75*
G02*
X144237500Y-106150000I62500J0D01*
G01*
G37*
G36*
G01*
X144737500Y-106150000D02*
X144862500Y-106150000D01*
G75*
G02*
X144925000Y-106212500I0J-62500D01*
G01*
X144925000Y-106887500D01*
G75*
G02*
X144862500Y-106950000I-62500J0D01*
G01*
X144737500Y-106950000D01*
G75*
G02*
X144675000Y-106887500I0J62500D01*
G01*
X144675000Y-106212500D01*
G75*
G02*
X144737500Y-106150000I62500J0D01*
G01*
G37*
G36*
G01*
X145237500Y-106150000D02*
X145362500Y-106150000D01*
G75*
G02*
X145425000Y-106212500I0J-62500D01*
G01*
X145425000Y-106887500D01*
G75*
G02*
X145362500Y-106950000I-62500J0D01*
G01*
X145237500Y-106950000D01*
G75*
G02*
X145175000Y-106887500I0J62500D01*
G01*
X145175000Y-106212500D01*
G75*
G02*
X145237500Y-106150000I62500J0D01*
G01*
G37*
G36*
G01*
X145737500Y-106150000D02*
X145862500Y-106150000D01*
G75*
G02*
X145925000Y-106212500I0J-62500D01*
G01*
X145925000Y-106887500D01*
G75*
G02*
X145862500Y-106950000I-62500J0D01*
G01*
X145737500Y-106950000D01*
G75*
G02*
X145675000Y-106887500I0J62500D01*
G01*
X145675000Y-106212500D01*
G75*
G02*
X145737500Y-106150000I62500J0D01*
G01*
G37*
G36*
G01*
X146237500Y-106150000D02*
X146362500Y-106150000D01*
G75*
G02*
X146425000Y-106212500I0J-62500D01*
G01*
X146425000Y-106887500D01*
G75*
G02*
X146362500Y-106950000I-62500J0D01*
G01*
X146237500Y-106950000D01*
G75*
G02*
X146175000Y-106887500I0J62500D01*
G01*
X146175000Y-106212500D01*
G75*
G02*
X146237500Y-106150000I62500J0D01*
G01*
G37*
G36*
G01*
X146737500Y-106150000D02*
X146862500Y-106150000D01*
G75*
G02*
X146925000Y-106212500I0J-62500D01*
G01*
X146925000Y-106887500D01*
G75*
G02*
X146862500Y-106950000I-62500J0D01*
G01*
X146737500Y-106950000D01*
G75*
G02*
X146675000Y-106887500I0J62500D01*
G01*
X146675000Y-106212500D01*
G75*
G02*
X146737500Y-106150000I62500J0D01*
G01*
G37*
G36*
G01*
X147237500Y-106150000D02*
X147362500Y-106150000D01*
G75*
G02*
X147425000Y-106212500I0J-62500D01*
G01*
X147425000Y-106887500D01*
G75*
G02*
X147362500Y-106950000I-62500J0D01*
G01*
X147237500Y-106950000D01*
G75*
G02*
X147175000Y-106887500I0J62500D01*
G01*
X147175000Y-106212500D01*
G75*
G02*
X147237500Y-106150000I62500J0D01*
G01*
G37*
G36*
G01*
X147912500Y-105475000D02*
X148587500Y-105475000D01*
G75*
G02*
X148650000Y-105537500I0J-62500D01*
G01*
X148650000Y-105662500D01*
G75*
G02*
X148587500Y-105725000I-62500J0D01*
G01*
X147912500Y-105725000D01*
G75*
G02*
X147850000Y-105662500I0J62500D01*
G01*
X147850000Y-105537500D01*
G75*
G02*
X147912500Y-105475000I62500J0D01*
G01*
G37*
G36*
G01*
X147912500Y-104975000D02*
X148587500Y-104975000D01*
G75*
G02*
X148650000Y-105037500I0J-62500D01*
G01*
X148650000Y-105162500D01*
G75*
G02*
X148587500Y-105225000I-62500J0D01*
G01*
X147912500Y-105225000D01*
G75*
G02*
X147850000Y-105162500I0J62500D01*
G01*
X147850000Y-105037500D01*
G75*
G02*
X147912500Y-104975000I62500J0D01*
G01*
G37*
G36*
G01*
X147912500Y-104475000D02*
X148587500Y-104475000D01*
G75*
G02*
X148650000Y-104537500I0J-62500D01*
G01*
X148650000Y-104662500D01*
G75*
G02*
X148587500Y-104725000I-62500J0D01*
G01*
X147912500Y-104725000D01*
G75*
G02*
X147850000Y-104662500I0J62500D01*
G01*
X147850000Y-104537500D01*
G75*
G02*
X147912500Y-104475000I62500J0D01*
G01*
G37*
G36*
G01*
X147912500Y-103975000D02*
X148587500Y-103975000D01*
G75*
G02*
X148650000Y-104037500I0J-62500D01*
G01*
X148650000Y-104162500D01*
G75*
G02*
X148587500Y-104225000I-62500J0D01*
G01*
X147912500Y-104225000D01*
G75*
G02*
X147850000Y-104162500I0J62500D01*
G01*
X147850000Y-104037500D01*
G75*
G02*
X147912500Y-103975000I62500J0D01*
G01*
G37*
G36*
G01*
X147912500Y-103475000D02*
X148587500Y-103475000D01*
G75*
G02*
X148650000Y-103537500I0J-62500D01*
G01*
X148650000Y-103662500D01*
G75*
G02*
X148587500Y-103725000I-62500J0D01*
G01*
X147912500Y-103725000D01*
G75*
G02*
X147850000Y-103662500I0J62500D01*
G01*
X147850000Y-103537500D01*
G75*
G02*
X147912500Y-103475000I62500J0D01*
G01*
G37*
G36*
G01*
X147912500Y-102975000D02*
X148587500Y-102975000D01*
G75*
G02*
X148650000Y-103037500I0J-62500D01*
G01*
X148650000Y-103162500D01*
G75*
G02*
X148587500Y-103225000I-62500J0D01*
G01*
X147912500Y-103225000D01*
G75*
G02*
X147850000Y-103162500I0J62500D01*
G01*
X147850000Y-103037500D01*
G75*
G02*
X147912500Y-102975000I62500J0D01*
G01*
G37*
G36*
G01*
X147912500Y-102475000D02*
X148587500Y-102475000D01*
G75*
G02*
X148650000Y-102537500I0J-62500D01*
G01*
X148650000Y-102662500D01*
G75*
G02*
X148587500Y-102725000I-62500J0D01*
G01*
X147912500Y-102725000D01*
G75*
G02*
X147850000Y-102662500I0J62500D01*
G01*
X147850000Y-102537500D01*
G75*
G02*
X147912500Y-102475000I62500J0D01*
G01*
G37*
G36*
G01*
X147237500Y-101250000D02*
X147362500Y-101250000D01*
G75*
G02*
X147425000Y-101312500I0J-62500D01*
G01*
X147425000Y-101987500D01*
G75*
G02*
X147362500Y-102050000I-62500J0D01*
G01*
X147237500Y-102050000D01*
G75*
G02*
X147175000Y-101987500I0J62500D01*
G01*
X147175000Y-101312500D01*
G75*
G02*
X147237500Y-101250000I62500J0D01*
G01*
G37*
G36*
G01*
X146737500Y-101250000D02*
X146862500Y-101250000D01*
G75*
G02*
X146925000Y-101312500I0J-62500D01*
G01*
X146925000Y-101987500D01*
G75*
G02*
X146862500Y-102050000I-62500J0D01*
G01*
X146737500Y-102050000D01*
G75*
G02*
X146675000Y-101987500I0J62500D01*
G01*
X146675000Y-101312500D01*
G75*
G02*
X146737500Y-101250000I62500J0D01*
G01*
G37*
G36*
G01*
X146237500Y-101250000D02*
X146362500Y-101250000D01*
G75*
G02*
X146425000Y-101312500I0J-62500D01*
G01*
X146425000Y-101987500D01*
G75*
G02*
X146362500Y-102050000I-62500J0D01*
G01*
X146237500Y-102050000D01*
G75*
G02*
X146175000Y-101987500I0J62500D01*
G01*
X146175000Y-101312500D01*
G75*
G02*
X146237500Y-101250000I62500J0D01*
G01*
G37*
G36*
G01*
X145737500Y-101250000D02*
X145862500Y-101250000D01*
G75*
G02*
X145925000Y-101312500I0J-62500D01*
G01*
X145925000Y-101987500D01*
G75*
G02*
X145862500Y-102050000I-62500J0D01*
G01*
X145737500Y-102050000D01*
G75*
G02*
X145675000Y-101987500I0J62500D01*
G01*
X145675000Y-101312500D01*
G75*
G02*
X145737500Y-101250000I62500J0D01*
G01*
G37*
G36*
G01*
X145237500Y-101250000D02*
X145362500Y-101250000D01*
G75*
G02*
X145425000Y-101312500I0J-62500D01*
G01*
X145425000Y-101987500D01*
G75*
G02*
X145362500Y-102050000I-62500J0D01*
G01*
X145237500Y-102050000D01*
G75*
G02*
X145175000Y-101987500I0J62500D01*
G01*
X145175000Y-101312500D01*
G75*
G02*
X145237500Y-101250000I62500J0D01*
G01*
G37*
G36*
G01*
X144737500Y-101250000D02*
X144862500Y-101250000D01*
G75*
G02*
X144925000Y-101312500I0J-62500D01*
G01*
X144925000Y-101987500D01*
G75*
G02*
X144862500Y-102050000I-62500J0D01*
G01*
X144737500Y-102050000D01*
G75*
G02*
X144675000Y-101987500I0J62500D01*
G01*
X144675000Y-101312500D01*
G75*
G02*
X144737500Y-101250000I62500J0D01*
G01*
G37*
G36*
G01*
X144237500Y-101250000D02*
X144362500Y-101250000D01*
G75*
G02*
X144425000Y-101312500I0J-62500D01*
G01*
X144425000Y-101987500D01*
G75*
G02*
X144362500Y-102050000I-62500J0D01*
G01*
X144237500Y-102050000D01*
G75*
G02*
X144175000Y-101987500I0J62500D01*
G01*
X144175000Y-101312500D01*
G75*
G02*
X144237500Y-101250000I62500J0D01*
G01*
G37*
%TD*%
%TO.C,U2*%
G36*
G01*
X152600000Y-113045000D02*
X152600000Y-113345000D01*
G75*
G02*
X152450000Y-113495000I-150000J0D01*
G01*
X150800000Y-113495000D01*
G75*
G02*
X150650000Y-113345000I0J150000D01*
G01*
X150650000Y-113045000D01*
G75*
G02*
X150800000Y-112895000I150000J0D01*
G01*
X152450000Y-112895000D01*
G75*
G02*
X152600000Y-113045000I0J-150000D01*
G01*
G37*
G36*
G01*
X152600000Y-114315000D02*
X152600000Y-114615000D01*
G75*
G02*
X152450000Y-114765000I-150000J0D01*
G01*
X150800000Y-114765000D01*
G75*
G02*
X150650000Y-114615000I0J150000D01*
G01*
X150650000Y-114315000D01*
G75*
G02*
X150800000Y-114165000I150000J0D01*
G01*
X152450000Y-114165000D01*
G75*
G02*
X152600000Y-114315000I0J-150000D01*
G01*
G37*
G36*
G01*
X152600000Y-115585000D02*
X152600000Y-115885000D01*
G75*
G02*
X152450000Y-116035000I-150000J0D01*
G01*
X150800000Y-116035000D01*
G75*
G02*
X150650000Y-115885000I0J150000D01*
G01*
X150650000Y-115585000D01*
G75*
G02*
X150800000Y-115435000I150000J0D01*
G01*
X152450000Y-115435000D01*
G75*
G02*
X152600000Y-115585000I0J-150000D01*
G01*
G37*
G36*
G01*
X152600000Y-116855000D02*
X152600000Y-117155000D01*
G75*
G02*
X152450000Y-117305000I-150000J0D01*
G01*
X150800000Y-117305000D01*
G75*
G02*
X150650000Y-117155000I0J150000D01*
G01*
X150650000Y-116855000D01*
G75*
G02*
X150800000Y-116705000I150000J0D01*
G01*
X152450000Y-116705000D01*
G75*
G02*
X152600000Y-116855000I0J-150000D01*
G01*
G37*
G36*
G01*
X157550000Y-116855000D02*
X157550000Y-117155000D01*
G75*
G02*
X157400000Y-117305000I-150000J0D01*
G01*
X155750000Y-117305000D01*
G75*
G02*
X155600000Y-117155000I0J150000D01*
G01*
X155600000Y-116855000D01*
G75*
G02*
X155750000Y-116705000I150000J0D01*
G01*
X157400000Y-116705000D01*
G75*
G02*
X157550000Y-116855000I0J-150000D01*
G01*
G37*
G36*
G01*
X157550000Y-115585000D02*
X157550000Y-115885000D01*
G75*
G02*
X157400000Y-116035000I-150000J0D01*
G01*
X155750000Y-116035000D01*
G75*
G02*
X155600000Y-115885000I0J150000D01*
G01*
X155600000Y-115585000D01*
G75*
G02*
X155750000Y-115435000I150000J0D01*
G01*
X157400000Y-115435000D01*
G75*
G02*
X157550000Y-115585000I0J-150000D01*
G01*
G37*
G36*
G01*
X157550000Y-114315000D02*
X157550000Y-114615000D01*
G75*
G02*
X157400000Y-114765000I-150000J0D01*
G01*
X155750000Y-114765000D01*
G75*
G02*
X155600000Y-114615000I0J150000D01*
G01*
X155600000Y-114315000D01*
G75*
G02*
X155750000Y-114165000I150000J0D01*
G01*
X157400000Y-114165000D01*
G75*
G02*
X157550000Y-114315000I0J-150000D01*
G01*
G37*
G36*
G01*
X157550000Y-113045000D02*
X157550000Y-113345000D01*
G75*
G02*
X157400000Y-113495000I-150000J0D01*
G01*
X155750000Y-113495000D01*
G75*
G02*
X155600000Y-113345000I0J150000D01*
G01*
X155600000Y-113045000D01*
G75*
G02*
X155750000Y-112895000I150000J0D01*
G01*
X157400000Y-112895000D01*
G75*
G02*
X157550000Y-113045000I0J-150000D01*
G01*
G37*
%TD*%
D15*
%TO.C,SW4*%
X151000000Y-91000000D03*
X144400000Y-91000000D03*
%TD*%
%TO.C,R10*%
G36*
G01*
X141400000Y-102750000D02*
X141400000Y-99850000D01*
G75*
G02*
X141650000Y-99600000I250000J0D01*
G01*
X142150000Y-99600000D01*
G75*
G02*
X142400000Y-99850000I0J-250000D01*
G01*
X142400000Y-102750000D01*
G75*
G02*
X142150000Y-103000000I-250000J0D01*
G01*
X141650000Y-103000000D01*
G75*
G02*
X141400000Y-102750000I0J250000D01*
G01*
G37*
G36*
G01*
X139900000Y-102750000D02*
X139900000Y-99850000D01*
G75*
G02*
X140150000Y-99600000I250000J0D01*
G01*
X140650000Y-99600000D01*
G75*
G02*
X140900000Y-99850000I0J-250000D01*
G01*
X140900000Y-102750000D01*
G75*
G02*
X140650000Y-103000000I-250000J0D01*
G01*
X140150000Y-103000000D01*
G75*
G02*
X139900000Y-102750000I0J250000D01*
G01*
G37*
%TD*%
%TO.C,R9*%
G36*
G01*
X141400000Y-108250000D02*
X141400000Y-105350000D01*
G75*
G02*
X141650000Y-105100000I250000J0D01*
G01*
X142150000Y-105100000D01*
G75*
G02*
X142400000Y-105350000I0J-250000D01*
G01*
X142400000Y-108250000D01*
G75*
G02*
X142150000Y-108500000I-250000J0D01*
G01*
X141650000Y-108500000D01*
G75*
G02*
X141400000Y-108250000I0J250000D01*
G01*
G37*
G36*
G01*
X139900000Y-108250000D02*
X139900000Y-105350000D01*
G75*
G02*
X140150000Y-105100000I250000J0D01*
G01*
X140650000Y-105100000D01*
G75*
G02*
X140900000Y-105350000I0J-250000D01*
G01*
X140900000Y-108250000D01*
G75*
G02*
X140650000Y-108500000I-250000J0D01*
G01*
X140150000Y-108500000D01*
G75*
G02*
X139900000Y-108250000I0J250000D01*
G01*
G37*
%TD*%
%TO.C,R5*%
G36*
G01*
X149975000Y-95825000D02*
X149975000Y-96375000D01*
G75*
G02*
X149775000Y-96575000I-200000J0D01*
G01*
X149375000Y-96575000D01*
G75*
G02*
X149175000Y-96375000I0J200000D01*
G01*
X149175000Y-95825000D01*
G75*
G02*
X149375000Y-95625000I200000J0D01*
G01*
X149775000Y-95625000D01*
G75*
G02*
X149975000Y-95825000I0J-200000D01*
G01*
G37*
G36*
G01*
X151625000Y-95825000D02*
X151625000Y-96375000D01*
G75*
G02*
X151425000Y-96575000I-200000J0D01*
G01*
X151025000Y-96575000D01*
G75*
G02*
X150825000Y-96375000I0J200000D01*
G01*
X150825000Y-95825000D01*
G75*
G02*
X151025000Y-95625000I200000J0D01*
G01*
X151425000Y-95625000D01*
G75*
G02*
X151625000Y-95825000I0J-200000D01*
G01*
G37*
%TD*%
D16*
%TO.C,OPT1*%
G36*
X154658352Y-96802563D02*
G01*
X155578857Y-97193294D01*
X154797394Y-99034303D01*
X153876889Y-98643572D01*
X154658352Y-96802563D01*
G37*
G36*
X155947058Y-97349586D02*
G01*
X156867563Y-97740317D01*
X156086100Y-99581326D01*
X155165595Y-99190595D01*
X155947058Y-97349586D01*
G37*
G36*
X157235765Y-97896610D02*
G01*
X158156270Y-98287341D01*
X157374807Y-100128350D01*
X156454302Y-99737619D01*
X157235765Y-97896610D01*
G37*
G36*
X160361614Y-90532571D02*
G01*
X161282119Y-90923302D01*
X160500656Y-92764311D01*
X159580151Y-92373580D01*
X160361614Y-90532571D01*
G37*
G36*
X157784201Y-89438524D02*
G01*
X158704706Y-89829255D01*
X157923243Y-91670264D01*
X157002738Y-91279533D01*
X157784201Y-89438524D01*
G37*
%TD*%
D10*
%TO.C,J_SWD1*%
X160300000Y-116150000D03*
X160300000Y-117400000D03*
X160300000Y-118650000D03*
X160300000Y-119900000D03*
X160300000Y-121150000D03*
G36*
G01*
X160750000Y-122800000D02*
X159850000Y-122800000D01*
G75*
G02*
X159650000Y-122600000I0J200000D01*
G01*
X159650000Y-122200000D01*
G75*
G02*
X159850000Y-122000000I200000J0D01*
G01*
X160750000Y-122000000D01*
G75*
G02*
X160950000Y-122200000I0J-200000D01*
G01*
X160950000Y-122600000D01*
G75*
G02*
X160750000Y-122800000I-200000J0D01*
G01*
G37*
%TD*%
%TO.C,J_CAN2*%
X151900000Y-118650000D03*
X151900000Y-119900000D03*
X151900000Y-121150000D03*
G36*
G01*
X152350000Y-122800000D02*
X151450000Y-122800000D01*
G75*
G02*
X151250000Y-122600000I0J200000D01*
G01*
X151250000Y-122200000D01*
G75*
G02*
X151450000Y-122000000I200000J0D01*
G01*
X152350000Y-122000000D01*
G75*
G02*
X152550000Y-122200000I0J-200000D01*
G01*
X152550000Y-122600000D01*
G75*
G02*
X152350000Y-122800000I-200000J0D01*
G01*
G37*
%TD*%
%TO.C,J_CAN1*%
X156100000Y-118650000D03*
X156100000Y-119900000D03*
X156100000Y-121150000D03*
G36*
G01*
X156550000Y-122800000D02*
X155650000Y-122800000D01*
G75*
G02*
X155450000Y-122600000I0J200000D01*
G01*
X155450000Y-122200000D01*
G75*
G02*
X155650000Y-122000000I200000J0D01*
G01*
X156550000Y-122000000D01*
G75*
G02*
X156750000Y-122200000I0J-200000D01*
G01*
X156750000Y-122600000D01*
G75*
G02*
X156550000Y-122800000I-200000J0D01*
G01*
G37*
%TD*%
D17*
%TO.C,J3*%
X137700000Y-100300000D03*
X137700000Y-102800000D03*
X137700000Y-105300000D03*
G36*
G01*
X138425000Y-108650000D02*
X136975000Y-108650000D01*
G75*
G02*
X136725000Y-108400000I0J250000D01*
G01*
X136725000Y-107200000D01*
G75*
G02*
X136975000Y-106950000I250000J0D01*
G01*
X138425000Y-106950000D01*
G75*
G02*
X138675000Y-107200000I0J-250000D01*
G01*
X138675000Y-108400000D01*
G75*
G02*
X138425000Y-108650000I-250000J0D01*
G01*
G37*
%TD*%
D18*
%TO.C,J2*%
X146100000Y-122400000D03*
%TD*%
%TO.C,J1*%
X146100000Y-118200000D03*
%TD*%
%TO.C,C22*%
G36*
G01*
X135450000Y-99500000D02*
X135950000Y-99500000D01*
G75*
G02*
X136175000Y-99725000I0J-225000D01*
G01*
X136175000Y-100175000D01*
G75*
G02*
X135950000Y-100400000I-225000J0D01*
G01*
X135450000Y-100400000D01*
G75*
G02*
X135225000Y-100175000I0J225000D01*
G01*
X135225000Y-99725000D01*
G75*
G02*
X135450000Y-99500000I225000J0D01*
G01*
G37*
G36*
G01*
X135450000Y-97950000D02*
X135950000Y-97950000D01*
G75*
G02*
X136175000Y-98175000I0J-225000D01*
G01*
X136175000Y-98625000D01*
G75*
G02*
X135950000Y-98850000I-225000J0D01*
G01*
X135450000Y-98850000D01*
G75*
G02*
X135225000Y-98625000I0J225000D01*
G01*
X135225000Y-98175000D01*
G75*
G02*
X135450000Y-97950000I225000J0D01*
G01*
G37*
%TD*%
%TO.C,C21*%
G36*
G01*
X140800000Y-98350000D02*
X140800000Y-98850000D01*
G75*
G02*
X140575000Y-99075000I-225000J0D01*
G01*
X140125000Y-99075000D01*
G75*
G02*
X139900000Y-98850000I0J225000D01*
G01*
X139900000Y-98350000D01*
G75*
G02*
X140125000Y-98125000I225000J0D01*
G01*
X140575000Y-98125000D01*
G75*
G02*
X140800000Y-98350000I0J-225000D01*
G01*
G37*
G36*
G01*
X142350000Y-98350000D02*
X142350000Y-98850000D01*
G75*
G02*
X142125000Y-99075000I-225000J0D01*
G01*
X141675000Y-99075000D01*
G75*
G02*
X141450000Y-98850000I0J225000D01*
G01*
X141450000Y-98350000D01*
G75*
G02*
X141675000Y-98125000I225000J0D01*
G01*
X142125000Y-98125000D01*
G75*
G02*
X142350000Y-98350000I0J-225000D01*
G01*
G37*
%TD*%
%TO.C,C20*%
G36*
G01*
X135950000Y-102300000D02*
X135450000Y-102300000D01*
G75*
G02*
X135225000Y-102075000I0J225000D01*
G01*
X135225000Y-101625000D01*
G75*
G02*
X135450000Y-101400000I225000J0D01*
G01*
X135950000Y-101400000D01*
G75*
G02*
X136175000Y-101625000I0J-225000D01*
G01*
X136175000Y-102075000D01*
G75*
G02*
X135950000Y-102300000I-225000J0D01*
G01*
G37*
G36*
G01*
X135950000Y-103850000D02*
X135450000Y-103850000D01*
G75*
G02*
X135225000Y-103625000I0J225000D01*
G01*
X135225000Y-103175000D01*
G75*
G02*
X135450000Y-102950000I225000J0D01*
G01*
X135950000Y-102950000D01*
G75*
G02*
X136175000Y-103175000I0J-225000D01*
G01*
X136175000Y-103625000D01*
G75*
G02*
X135950000Y-103850000I-225000J0D01*
G01*
G37*
%TD*%
%TO.C,C19*%
G36*
G01*
X135450000Y-105950000D02*
X135950000Y-105950000D01*
G75*
G02*
X136175000Y-106175000I0J-225000D01*
G01*
X136175000Y-106625000D01*
G75*
G02*
X135950000Y-106850000I-225000J0D01*
G01*
X135450000Y-106850000D01*
G75*
G02*
X135225000Y-106625000I0J225000D01*
G01*
X135225000Y-106175000D01*
G75*
G02*
X135450000Y-105950000I225000J0D01*
G01*
G37*
G36*
G01*
X135450000Y-104400000D02*
X135950000Y-104400000D01*
G75*
G02*
X136175000Y-104625000I0J-225000D01*
G01*
X136175000Y-105075000D01*
G75*
G02*
X135950000Y-105300000I-225000J0D01*
G01*
X135450000Y-105300000D01*
G75*
G02*
X135225000Y-105075000I0J225000D01*
G01*
X135225000Y-104625000D01*
G75*
G02*
X135450000Y-104400000I225000J0D01*
G01*
G37*
%TD*%
%TO.C,C18*%
G36*
G01*
X140900000Y-109250000D02*
X140900000Y-109750000D01*
G75*
G02*
X140675000Y-109975000I-225000J0D01*
G01*
X140225000Y-109975000D01*
G75*
G02*
X140000000Y-109750000I0J225000D01*
G01*
X140000000Y-109250000D01*
G75*
G02*
X140225000Y-109025000I225000J0D01*
G01*
X140675000Y-109025000D01*
G75*
G02*
X140900000Y-109250000I0J-225000D01*
G01*
G37*
G36*
G01*
X142450000Y-109250000D02*
X142450000Y-109750000D01*
G75*
G02*
X142225000Y-109975000I-225000J0D01*
G01*
X141775000Y-109975000D01*
G75*
G02*
X141550000Y-109750000I0J225000D01*
G01*
X141550000Y-109250000D01*
G75*
G02*
X141775000Y-109025000I225000J0D01*
G01*
X142225000Y-109025000D01*
G75*
G02*
X142450000Y-109250000I0J-225000D01*
G01*
G37*
%TD*%
%TO.C,C17*%
G36*
G01*
X135950000Y-108650000D02*
X135450000Y-108650000D01*
G75*
G02*
X135225000Y-108425000I0J225000D01*
G01*
X135225000Y-107975000D01*
G75*
G02*
X135450000Y-107750000I225000J0D01*
G01*
X135950000Y-107750000D01*
G75*
G02*
X136175000Y-107975000I0J-225000D01*
G01*
X136175000Y-108425000D01*
G75*
G02*
X135950000Y-108650000I-225000J0D01*
G01*
G37*
G36*
G01*
X135950000Y-110200000D02*
X135450000Y-110200000D01*
G75*
G02*
X135225000Y-109975000I0J225000D01*
G01*
X135225000Y-109525000D01*
G75*
G02*
X135450000Y-109300000I225000J0D01*
G01*
X135950000Y-109300000D01*
G75*
G02*
X136175000Y-109525000I0J-225000D01*
G01*
X136175000Y-109975000D01*
G75*
G02*
X135950000Y-110200000I-225000J0D01*
G01*
G37*
%TD*%
%TO.C,C16*%
G36*
G01*
X150725000Y-101350000D02*
X150725000Y-100850000D01*
G75*
G02*
X150950000Y-100625000I225000J0D01*
G01*
X151400000Y-100625000D01*
G75*
G02*
X151625000Y-100850000I0J-225000D01*
G01*
X151625000Y-101350000D01*
G75*
G02*
X151400000Y-101575000I-225000J0D01*
G01*
X150950000Y-101575000D01*
G75*
G02*
X150725000Y-101350000I0J225000D01*
G01*
G37*
G36*
G01*
X149175000Y-101350000D02*
X149175000Y-100850000D01*
G75*
G02*
X149400000Y-100625000I225000J0D01*
G01*
X149850000Y-100625000D01*
G75*
G02*
X150075000Y-100850000I0J-225000D01*
G01*
X150075000Y-101350000D01*
G75*
G02*
X149850000Y-101575000I-225000J0D01*
G01*
X149400000Y-101575000D01*
G75*
G02*
X149175000Y-101350000I0J225000D01*
G01*
G37*
%TD*%
%TO.C,C15*%
G36*
G01*
X146850000Y-99350000D02*
X146850000Y-99850000D01*
G75*
G02*
X146625000Y-100075000I-225000J0D01*
G01*
X146175000Y-100075000D01*
G75*
G02*
X145950000Y-99850000I0J225000D01*
G01*
X145950000Y-99350000D01*
G75*
G02*
X146175000Y-99125000I225000J0D01*
G01*
X146625000Y-99125000D01*
G75*
G02*
X146850000Y-99350000I0J-225000D01*
G01*
G37*
G36*
G01*
X148400000Y-99350000D02*
X148400000Y-99850000D01*
G75*
G02*
X148175000Y-100075000I-225000J0D01*
G01*
X147725000Y-100075000D01*
G75*
G02*
X147500000Y-99850000I0J225000D01*
G01*
X147500000Y-99350000D01*
G75*
G02*
X147725000Y-99125000I225000J0D01*
G01*
X148175000Y-99125000D01*
G75*
G02*
X148400000Y-99350000I0J-225000D01*
G01*
G37*
%TD*%
%TO.C,C14*%
G36*
G01*
X144525000Y-109750000D02*
X144525000Y-109250000D01*
G75*
G02*
X144750000Y-109025000I225000J0D01*
G01*
X145200000Y-109025000D01*
G75*
G02*
X145425000Y-109250000I0J-225000D01*
G01*
X145425000Y-109750000D01*
G75*
G02*
X145200000Y-109975000I-225000J0D01*
G01*
X144750000Y-109975000D01*
G75*
G02*
X144525000Y-109750000I0J225000D01*
G01*
G37*
G36*
G01*
X142975000Y-109750000D02*
X142975000Y-109250000D01*
G75*
G02*
X143200000Y-109025000I225000J0D01*
G01*
X143650000Y-109025000D01*
G75*
G02*
X143875000Y-109250000I0J-225000D01*
G01*
X143875000Y-109750000D01*
G75*
G02*
X143650000Y-109975000I-225000J0D01*
G01*
X143200000Y-109975000D01*
G75*
G02*
X142975000Y-109750000I0J225000D01*
G01*
G37*
%TD*%
%TO.C,C13*%
G36*
G01*
X144450000Y-98650000D02*
X144450000Y-98150000D01*
G75*
G02*
X144675000Y-97925000I225000J0D01*
G01*
X145125000Y-97925000D01*
G75*
G02*
X145350000Y-98150000I0J-225000D01*
G01*
X145350000Y-98650000D01*
G75*
G02*
X145125000Y-98875000I-225000J0D01*
G01*
X144675000Y-98875000D01*
G75*
G02*
X144450000Y-98650000I0J225000D01*
G01*
G37*
G36*
G01*
X142900000Y-98650000D02*
X142900000Y-98150000D01*
G75*
G02*
X143125000Y-97925000I225000J0D01*
G01*
X143575000Y-97925000D01*
G75*
G02*
X143800000Y-98150000I0J-225000D01*
G01*
X143800000Y-98650000D01*
G75*
G02*
X143575000Y-98875000I-225000J0D01*
G01*
X143125000Y-98875000D01*
G75*
G02*
X142900000Y-98650000I0J225000D01*
G01*
G37*
%TD*%
%TO.C,C12*%
G36*
G01*
X149150000Y-99125000D02*
X149650000Y-99125000D01*
G75*
G02*
X149875000Y-99350000I0J-225000D01*
G01*
X149875000Y-99800000D01*
G75*
G02*
X149650000Y-100025000I-225000J0D01*
G01*
X149150000Y-100025000D01*
G75*
G02*
X148925000Y-99800000I0J225000D01*
G01*
X148925000Y-99350000D01*
G75*
G02*
X149150000Y-99125000I225000J0D01*
G01*
G37*
G36*
G01*
X149150000Y-97575000D02*
X149650000Y-97575000D01*
G75*
G02*
X149875000Y-97800000I0J-225000D01*
G01*
X149875000Y-98250000D01*
G75*
G02*
X149650000Y-98475000I-225000J0D01*
G01*
X149150000Y-98475000D01*
G75*
G02*
X148925000Y-98250000I0J225000D01*
G01*
X148925000Y-97800000D01*
G75*
G02*
X149150000Y-97575000I225000J0D01*
G01*
G37*
%TD*%
%TO.C,C11*%
G36*
G01*
X144300000Y-112050001D02*
X144300000Y-110749999D01*
G75*
G02*
X144549999Y-110500000I249999J0D01*
G01*
X145200001Y-110500000D01*
G75*
G02*
X145450000Y-110749999I0J-249999D01*
G01*
X145450000Y-112050001D01*
G75*
G02*
X145200001Y-112300000I-249999J0D01*
G01*
X144549999Y-112300000D01*
G75*
G02*
X144300000Y-112050001I0J249999D01*
G01*
G37*
G36*
G01*
X141350000Y-112050001D02*
X141350000Y-110749999D01*
G75*
G02*
X141599999Y-110500000I249999J0D01*
G01*
X142250001Y-110500000D01*
G75*
G02*
X142500000Y-110749999I0J-249999D01*
G01*
X142500000Y-112050001D01*
G75*
G02*
X142250001Y-112300000I-249999J0D01*
G01*
X141599999Y-112300000D01*
G75*
G02*
X141350000Y-112050001I0J249999D01*
G01*
G37*
%TD*%
%TO.C,C10*%
G36*
G01*
X145825000Y-97150001D02*
X145825000Y-95849999D01*
G75*
G02*
X146074999Y-95600000I249999J0D01*
G01*
X146725001Y-95600000D01*
G75*
G02*
X146975000Y-95849999I0J-249999D01*
G01*
X146975000Y-97150001D01*
G75*
G02*
X146725001Y-97400000I-249999J0D01*
G01*
X146074999Y-97400000D01*
G75*
G02*
X145825000Y-97150001I0J249999D01*
G01*
G37*
G36*
G01*
X142875000Y-97150001D02*
X142875000Y-95849999D01*
G75*
G02*
X143124999Y-95600000I249999J0D01*
G01*
X143775001Y-95600000D01*
G75*
G02*
X144025000Y-95849999I0J-249999D01*
G01*
X144025000Y-97150001D01*
G75*
G02*
X143775001Y-97400000I-249999J0D01*
G01*
X143124999Y-97400000D01*
G75*
G02*
X142875000Y-97150001I0J249999D01*
G01*
G37*
%TD*%
%TO.C,C8*%
G36*
G01*
X148750000Y-109025000D02*
X149250000Y-109025000D01*
G75*
G02*
X149475000Y-109250000I0J-225000D01*
G01*
X149475000Y-109700000D01*
G75*
G02*
X149250000Y-109925000I-225000J0D01*
G01*
X148750000Y-109925000D01*
G75*
G02*
X148525000Y-109700000I0J225000D01*
G01*
X148525000Y-109250000D01*
G75*
G02*
X148750000Y-109025000I225000J0D01*
G01*
G37*
G36*
G01*
X148750000Y-107475000D02*
X149250000Y-107475000D01*
G75*
G02*
X149475000Y-107700000I0J-225000D01*
G01*
X149475000Y-108150000D01*
G75*
G02*
X149250000Y-108375000I-225000J0D01*
G01*
X148750000Y-108375000D01*
G75*
G02*
X148525000Y-108150000I0J225000D01*
G01*
X148525000Y-107700000D01*
G75*
G02*
X148750000Y-107475000I225000J0D01*
G01*
G37*
%TD*%
M02*
