%TF.GenerationSoftware,KiCad,Pcbnew,5.1.10-88a1d61d58~88~ubuntu20.04.1*%
%TF.CreationDate,2021-05-10T19:00:39+02:00*%
%TF.ProjectId,StepperServo,53746570-7065-4725-9365-72766f2e6b69,rev?*%
%TF.SameCoordinates,Original*%
%TF.FileFunction,Copper,L4,Bot*%
%TF.FilePolarity,Positive*%
%FSLAX46Y46*%
G04 Gerber Fmt 4.6, Leading zero omitted, Abs format (unit mm)*
G04 Created by KiCad (PCBNEW 5.1.10-88a1d61d58~88~ubuntu20.04.1) date 2021-05-10 19:00:39*
%MOMM*%
%LPD*%
G01*
G04 APERTURE LIST*
%TA.AperFunction,ComponentPad*%
%ADD10O,1.300000X0.800000*%
%TD*%
%TA.AperFunction,ComponentPad*%
%ADD11O,0.800000X1.300000*%
%TD*%
%TA.AperFunction,ComponentPad*%
%ADD12C,0.800000*%
%TD*%
%TA.AperFunction,ComponentPad*%
%ADD13C,6.400000*%
%TD*%
%TA.AperFunction,ComponentPad*%
%ADD14C,0.500000*%
%TD*%
%TA.AperFunction,SMDPad,CuDef*%
%ADD15R,3.350000X3.350000*%
%TD*%
%TA.AperFunction,SMDPad,CuDef*%
%ADD16R,2.400000X1.400000*%
%TD*%
%TA.AperFunction,SMDPad,CuDef*%
%ADD17C,0.100000*%
%TD*%
%TA.AperFunction,ComponentPad*%
%ADD18O,1.950000X1.700000*%
%TD*%
%TA.AperFunction,ComponentPad*%
%ADD19C,3.000000*%
%TD*%
%TA.AperFunction,ViaPad*%
%ADD20C,0.600000*%
%TD*%
%TA.AperFunction,Conductor*%
%ADD21C,0.250000*%
%TD*%
%TA.AperFunction,Conductor*%
%ADD22C,0.150000*%
%TD*%
%TA.AperFunction,Conductor*%
%ADD23C,0.500000*%
%TD*%
%TA.AperFunction,Conductor*%
%ADD24C,0.170000*%
%TD*%
%TA.AperFunction,Conductor*%
%ADD25C,0.100000*%
%TD*%
G04 APERTURE END LIST*
%TO.P,R20,2*%
%TO.N,GND*%
%TA.AperFunction,SMDPad,CuDef*%
G36*
G01*
X138025000Y-115125000D02*
X138575000Y-115125000D01*
G75*
G02*
X138775000Y-115325000I0J-200000D01*
G01*
X138775000Y-115725000D01*
G75*
G02*
X138575000Y-115925000I-200000J0D01*
G01*
X138025000Y-115925000D01*
G75*
G02*
X137825000Y-115725000I0J200000D01*
G01*
X137825000Y-115325000D01*
G75*
G02*
X138025000Y-115125000I200000J0D01*
G01*
G37*
%TD.AperFunction*%
%TO.P,R20,1*%
%TO.N,/MCU/tempMotor*%
%TA.AperFunction,SMDPad,CuDef*%
G36*
G01*
X138025000Y-113475000D02*
X138575000Y-113475000D01*
G75*
G02*
X138775000Y-113675000I0J-200000D01*
G01*
X138775000Y-114075000D01*
G75*
G02*
X138575000Y-114275000I-200000J0D01*
G01*
X138025000Y-114275000D01*
G75*
G02*
X137825000Y-114075000I0J200000D01*
G01*
X137825000Y-113675000D01*
G75*
G02*
X138025000Y-113475000I200000J0D01*
G01*
G37*
%TD.AperFunction*%
%TD*%
%TO.P,R16,2*%
%TO.N,Net-(OPT1-Pad1)*%
%TA.AperFunction,SMDPad,CuDef*%
G36*
G01*
X155250000Y-91075000D02*
X155250000Y-90525000D01*
G75*
G02*
X155450000Y-90325000I200000J0D01*
G01*
X155850000Y-90325000D01*
G75*
G02*
X156050000Y-90525000I0J-200000D01*
G01*
X156050000Y-91075000D01*
G75*
G02*
X155850000Y-91275000I-200000J0D01*
G01*
X155450000Y-91275000D01*
G75*
G02*
X155250000Y-91075000I0J200000D01*
G01*
G37*
%TD.AperFunction*%
%TO.P,R16,1*%
%TO.N,+5V*%
%TA.AperFunction,SMDPad,CuDef*%
G36*
G01*
X153600000Y-91075000D02*
X153600000Y-90525000D01*
G75*
G02*
X153800000Y-90325000I200000J0D01*
G01*
X154200000Y-90325000D01*
G75*
G02*
X154400000Y-90525000I0J-200000D01*
G01*
X154400000Y-91075000D01*
G75*
G02*
X154200000Y-91275000I-200000J0D01*
G01*
X153800000Y-91275000D01*
G75*
G02*
X153600000Y-91075000I0J200000D01*
G01*
G37*
%TD.AperFunction*%
%TD*%
%TO.P,R11,2*%
%TO.N,GND*%
%TA.AperFunction,SMDPad,CuDef*%
G36*
G01*
X147025000Y-109425000D02*
X147575000Y-109425000D01*
G75*
G02*
X147775000Y-109625000I0J-200000D01*
G01*
X147775000Y-110025000D01*
G75*
G02*
X147575000Y-110225000I-200000J0D01*
G01*
X147025000Y-110225000D01*
G75*
G02*
X146825000Y-110025000I0J200000D01*
G01*
X146825000Y-109625000D01*
G75*
G02*
X147025000Y-109425000I200000J0D01*
G01*
G37*
%TD.AperFunction*%
%TO.P,R11,1*%
%TO.N,/StepperDriver/Vref*%
%TA.AperFunction,SMDPad,CuDef*%
G36*
G01*
X147025000Y-107775000D02*
X147575000Y-107775000D01*
G75*
G02*
X147775000Y-107975000I0J-200000D01*
G01*
X147775000Y-108375000D01*
G75*
G02*
X147575000Y-108575000I-200000J0D01*
G01*
X147025000Y-108575000D01*
G75*
G02*
X146825000Y-108375000I0J200000D01*
G01*
X146825000Y-107975000D01*
G75*
G02*
X147025000Y-107775000I200000J0D01*
G01*
G37*
%TD.AperFunction*%
%TD*%
%TO.P,R7,2*%
%TO.N,/StepperDriver/Vref*%
%TA.AperFunction,SMDPad,CuDef*%
G36*
G01*
X147375000Y-111625000D02*
X147375000Y-112175000D01*
G75*
G02*
X147175000Y-112375000I-200000J0D01*
G01*
X146775000Y-112375000D01*
G75*
G02*
X146575000Y-112175000I0J200000D01*
G01*
X146575000Y-111625000D01*
G75*
G02*
X146775000Y-111425000I200000J0D01*
G01*
X147175000Y-111425000D01*
G75*
G02*
X147375000Y-111625000I0J-200000D01*
G01*
G37*
%TD.AperFunction*%
%TO.P,R7,1*%
%TO.N,+3V3*%
%TA.AperFunction,SMDPad,CuDef*%
G36*
G01*
X149025000Y-111625000D02*
X149025000Y-112175000D01*
G75*
G02*
X148825000Y-112375000I-200000J0D01*
G01*
X148425000Y-112375000D01*
G75*
G02*
X148225000Y-112175000I0J200000D01*
G01*
X148225000Y-111625000D01*
G75*
G02*
X148425000Y-111425000I200000J0D01*
G01*
X148825000Y-111425000D01*
G75*
G02*
X149025000Y-111625000I0J-200000D01*
G01*
G37*
%TD.AperFunction*%
%TD*%
D10*
%TO.P,J6,2*%
%TO.N,/MCU/tempMotor*%
X136500000Y-114150000D03*
%TO.P,J6,1*%
%TO.N,+3V3*%
%TA.AperFunction,ComponentPad*%
G36*
G01*
X136050000Y-112500000D02*
X136950000Y-112500000D01*
G75*
G02*
X137150000Y-112700000I0J-200000D01*
G01*
X137150000Y-113100000D01*
G75*
G02*
X136950000Y-113300000I-200000J0D01*
G01*
X136050000Y-113300000D01*
G75*
G02*
X135850000Y-113100000I0J200000D01*
G01*
X135850000Y-112700000D01*
G75*
G02*
X136050000Y-112500000I200000J0D01*
G01*
G37*
%TD.AperFunction*%
%TD*%
D11*
%TO.P,J4,4*%
%TO.N,/MCU/I2C2_SCL*%
X152100000Y-94000000D03*
%TO.P,J4,3*%
%TO.N,GND*%
X150850000Y-94000000D03*
%TO.P,J4,2*%
%TO.N,/MCU/I2C2_SDA*%
X149600000Y-94000000D03*
%TO.P,J4,1*%
%TO.N,+3V3*%
%TA.AperFunction,ComponentPad*%
G36*
G01*
X147950000Y-94450000D02*
X147950000Y-93550000D01*
G75*
G02*
X148150000Y-93350000I200000J0D01*
G01*
X148550000Y-93350000D01*
G75*
G02*
X148750000Y-93550000I0J-200000D01*
G01*
X148750000Y-94450000D01*
G75*
G02*
X148550000Y-94650000I-200000J0D01*
G01*
X148150000Y-94650000D01*
G75*
G02*
X147950000Y-94450000I0J200000D01*
G01*
G37*
%TD.AperFunction*%
%TD*%
D12*
%TO.P,H4,1*%
%TO.N,GND*%
X167197056Y-118052944D03*
X165500000Y-117350000D03*
X163802944Y-118052944D03*
X163100000Y-119750000D03*
X163802944Y-121447056D03*
X165500000Y-122150000D03*
X167197056Y-121447056D03*
X167900000Y-119750000D03*
D13*
X165500000Y-119750000D03*
%TD*%
D12*
%TO.P,H3,1*%
%TO.N,GND*%
X141197056Y-118052944D03*
X139500000Y-117350000D03*
X137802944Y-118052944D03*
X137100000Y-119750000D03*
X137802944Y-121447056D03*
X139500000Y-122150000D03*
X141197056Y-121447056D03*
X141900000Y-119750000D03*
D13*
X139500000Y-119750000D03*
%TD*%
D12*
%TO.P,H2,1*%
%TO.N,GND*%
X167197056Y-92052944D03*
X165500000Y-91350000D03*
X163802944Y-92052944D03*
X163100000Y-93750000D03*
X163802944Y-95447056D03*
X165500000Y-96150000D03*
X167197056Y-95447056D03*
X167900000Y-93750000D03*
D13*
X165500000Y-93750000D03*
%TD*%
D12*
%TO.P,H1,1*%
%TO.N,GND*%
X141197056Y-92052944D03*
X139500000Y-91350000D03*
X137802944Y-92052944D03*
X137100000Y-93750000D03*
X137802944Y-95447056D03*
X139500000Y-96150000D03*
X141197056Y-95447056D03*
X141900000Y-93750000D03*
D13*
X139500000Y-93750000D03*
%TD*%
%TO.P,U6,8*%
%TO.N,GND*%
%TA.AperFunction,SMDPad,CuDef*%
G36*
G01*
X154555000Y-105250000D02*
X154255000Y-105250000D01*
G75*
G02*
X154105000Y-105100000I0J150000D01*
G01*
X154105000Y-103450000D01*
G75*
G02*
X154255000Y-103300000I150000J0D01*
G01*
X154555000Y-103300000D01*
G75*
G02*
X154705000Y-103450000I0J-150000D01*
G01*
X154705000Y-105100000D01*
G75*
G02*
X154555000Y-105250000I-150000J0D01*
G01*
G37*
%TD.AperFunction*%
%TO.P,U6,7*%
%TO.N,/MCU/I2C1_SCL*%
%TA.AperFunction,SMDPad,CuDef*%
G36*
G01*
X153285000Y-105250000D02*
X152985000Y-105250000D01*
G75*
G02*
X152835000Y-105100000I0J150000D01*
G01*
X152835000Y-103450000D01*
G75*
G02*
X152985000Y-103300000I150000J0D01*
G01*
X153285000Y-103300000D01*
G75*
G02*
X153435000Y-103450000I0J-150000D01*
G01*
X153435000Y-105100000D01*
G75*
G02*
X153285000Y-105250000I-150000J0D01*
G01*
G37*
%TD.AperFunction*%
%TO.P,U6,6*%
%TO.N,/MCU/I2C1_SDA*%
%TA.AperFunction,SMDPad,CuDef*%
G36*
G01*
X152015000Y-105250000D02*
X151715000Y-105250000D01*
G75*
G02*
X151565000Y-105100000I0J150000D01*
G01*
X151565000Y-103450000D01*
G75*
G02*
X151715000Y-103300000I150000J0D01*
G01*
X152015000Y-103300000D01*
G75*
G02*
X152165000Y-103450000I0J-150000D01*
G01*
X152165000Y-105100000D01*
G75*
G02*
X152015000Y-105250000I-150000J0D01*
G01*
G37*
%TD.AperFunction*%
%TO.P,U6,5*%
%TO.N,GND*%
%TA.AperFunction,SMDPad,CuDef*%
G36*
G01*
X150745000Y-105250000D02*
X150445000Y-105250000D01*
G75*
G02*
X150295000Y-105100000I0J150000D01*
G01*
X150295000Y-103450000D01*
G75*
G02*
X150445000Y-103300000I150000J0D01*
G01*
X150745000Y-103300000D01*
G75*
G02*
X150895000Y-103450000I0J-150000D01*
G01*
X150895000Y-105100000D01*
G75*
G02*
X150745000Y-105250000I-150000J0D01*
G01*
G37*
%TD.AperFunction*%
%TO.P,U6,4*%
%TA.AperFunction,SMDPad,CuDef*%
G36*
G01*
X150745000Y-110200000D02*
X150445000Y-110200000D01*
G75*
G02*
X150295000Y-110050000I0J150000D01*
G01*
X150295000Y-108400000D01*
G75*
G02*
X150445000Y-108250000I150000J0D01*
G01*
X150745000Y-108250000D01*
G75*
G02*
X150895000Y-108400000I0J-150000D01*
G01*
X150895000Y-110050000D01*
G75*
G02*
X150745000Y-110200000I-150000J0D01*
G01*
G37*
%TD.AperFunction*%
%TO.P,U6,3*%
%TO.N,N/C*%
%TA.AperFunction,SMDPad,CuDef*%
G36*
G01*
X152015000Y-110200000D02*
X151715000Y-110200000D01*
G75*
G02*
X151565000Y-110050000I0J150000D01*
G01*
X151565000Y-108400000D01*
G75*
G02*
X151715000Y-108250000I150000J0D01*
G01*
X152015000Y-108250000D01*
G75*
G02*
X152165000Y-108400000I0J-150000D01*
G01*
X152165000Y-110050000D01*
G75*
G02*
X152015000Y-110200000I-150000J0D01*
G01*
G37*
%TD.AperFunction*%
%TO.P,U6,2*%
%TO.N,+3V3*%
%TA.AperFunction,SMDPad,CuDef*%
G36*
G01*
X153285000Y-110200000D02*
X152985000Y-110200000D01*
G75*
G02*
X152835000Y-110050000I0J150000D01*
G01*
X152835000Y-108400000D01*
G75*
G02*
X152985000Y-108250000I150000J0D01*
G01*
X153285000Y-108250000D01*
G75*
G02*
X153435000Y-108400000I0J-150000D01*
G01*
X153435000Y-110050000D01*
G75*
G02*
X153285000Y-110200000I-150000J0D01*
G01*
G37*
%TD.AperFunction*%
%TO.P,U6,1*%
%TA.AperFunction,SMDPad,CuDef*%
G36*
G01*
X154555000Y-110200000D02*
X154255000Y-110200000D01*
G75*
G02*
X154105000Y-110050000I0J150000D01*
G01*
X154105000Y-108400000D01*
G75*
G02*
X154255000Y-108250000I150000J0D01*
G01*
X154555000Y-108250000D01*
G75*
G02*
X154705000Y-108400000I0J-150000D01*
G01*
X154705000Y-110050000D01*
G75*
G02*
X154555000Y-110200000I-150000J0D01*
G01*
G37*
%TD.AperFunction*%
%TD*%
%TO.P,U5,64*%
%TO.N,+3V3*%
%TA.AperFunction,SMDPad,CuDef*%
G36*
G01*
X156875000Y-103100000D02*
X158275000Y-103100000D01*
G75*
G02*
X158350000Y-103175000I0J-75000D01*
G01*
X158350000Y-103325000D01*
G75*
G02*
X158275000Y-103400000I-75000J0D01*
G01*
X156875000Y-103400000D01*
G75*
G02*
X156800000Y-103325000I0J75000D01*
G01*
X156800000Y-103175000D01*
G75*
G02*
X156875000Y-103100000I75000J0D01*
G01*
G37*
%TD.AperFunction*%
%TO.P,U5,63*%
%TO.N,GND*%
%TA.AperFunction,SMDPad,CuDef*%
G36*
G01*
X156875000Y-103600000D02*
X158275000Y-103600000D01*
G75*
G02*
X158350000Y-103675000I0J-75000D01*
G01*
X158350000Y-103825000D01*
G75*
G02*
X158275000Y-103900000I-75000J0D01*
G01*
X156875000Y-103900000D01*
G75*
G02*
X156800000Y-103825000I0J75000D01*
G01*
X156800000Y-103675000D01*
G75*
G02*
X156875000Y-103600000I75000J0D01*
G01*
G37*
%TD.AperFunction*%
%TO.P,U5,62*%
%TO.N,N/C*%
%TA.AperFunction,SMDPad,CuDef*%
G36*
G01*
X156875000Y-104100000D02*
X158275000Y-104100000D01*
G75*
G02*
X158350000Y-104175000I0J-75000D01*
G01*
X158350000Y-104325000D01*
G75*
G02*
X158275000Y-104400000I-75000J0D01*
G01*
X156875000Y-104400000D01*
G75*
G02*
X156800000Y-104325000I0J75000D01*
G01*
X156800000Y-104175000D01*
G75*
G02*
X156875000Y-104100000I75000J0D01*
G01*
G37*
%TD.AperFunction*%
%TO.P,U5,61*%
%TA.AperFunction,SMDPad,CuDef*%
G36*
G01*
X156875000Y-104600000D02*
X158275000Y-104600000D01*
G75*
G02*
X158350000Y-104675000I0J-75000D01*
G01*
X158350000Y-104825000D01*
G75*
G02*
X158275000Y-104900000I-75000J0D01*
G01*
X156875000Y-104900000D01*
G75*
G02*
X156800000Y-104825000I0J75000D01*
G01*
X156800000Y-104675000D01*
G75*
G02*
X156875000Y-104600000I75000J0D01*
G01*
G37*
%TD.AperFunction*%
%TO.P,U5,60*%
%TO.N,GND*%
%TA.AperFunction,SMDPad,CuDef*%
G36*
G01*
X156875000Y-105100000D02*
X158275000Y-105100000D01*
G75*
G02*
X158350000Y-105175000I0J-75000D01*
G01*
X158350000Y-105325000D01*
G75*
G02*
X158275000Y-105400000I-75000J0D01*
G01*
X156875000Y-105400000D01*
G75*
G02*
X156800000Y-105325000I0J75000D01*
G01*
X156800000Y-105175000D01*
G75*
G02*
X156875000Y-105100000I75000J0D01*
G01*
G37*
%TD.AperFunction*%
%TO.P,U5,59*%
%TO.N,/MCU/I2C1_SDA*%
%TA.AperFunction,SMDPad,CuDef*%
G36*
G01*
X156875000Y-105600000D02*
X158275000Y-105600000D01*
G75*
G02*
X158350000Y-105675000I0J-75000D01*
G01*
X158350000Y-105825000D01*
G75*
G02*
X158275000Y-105900000I-75000J0D01*
G01*
X156875000Y-105900000D01*
G75*
G02*
X156800000Y-105825000I0J75000D01*
G01*
X156800000Y-105675000D01*
G75*
G02*
X156875000Y-105600000I75000J0D01*
G01*
G37*
%TD.AperFunction*%
%TO.P,U5,58*%
%TO.N,/MCU/I2C1_SCL*%
%TA.AperFunction,SMDPad,CuDef*%
G36*
G01*
X156875000Y-106100000D02*
X158275000Y-106100000D01*
G75*
G02*
X158350000Y-106175000I0J-75000D01*
G01*
X158350000Y-106325000D01*
G75*
G02*
X158275000Y-106400000I-75000J0D01*
G01*
X156875000Y-106400000D01*
G75*
G02*
X156800000Y-106325000I0J75000D01*
G01*
X156800000Y-106175000D01*
G75*
G02*
X156875000Y-106100000I75000J0D01*
G01*
G37*
%TD.AperFunction*%
%TO.P,U5,57*%
%TO.N,N/C*%
%TA.AperFunction,SMDPad,CuDef*%
G36*
G01*
X156875000Y-106600000D02*
X158275000Y-106600000D01*
G75*
G02*
X158350000Y-106675000I0J-75000D01*
G01*
X158350000Y-106825000D01*
G75*
G02*
X158275000Y-106900000I-75000J0D01*
G01*
X156875000Y-106900000D01*
G75*
G02*
X156800000Y-106825000I0J75000D01*
G01*
X156800000Y-106675000D01*
G75*
G02*
X156875000Y-106600000I75000J0D01*
G01*
G37*
%TD.AperFunction*%
%TO.P,U5,56*%
%TA.AperFunction,SMDPad,CuDef*%
G36*
G01*
X156875000Y-107100000D02*
X158275000Y-107100000D01*
G75*
G02*
X158350000Y-107175000I0J-75000D01*
G01*
X158350000Y-107325000D01*
G75*
G02*
X158275000Y-107400000I-75000J0D01*
G01*
X156875000Y-107400000D01*
G75*
G02*
X156800000Y-107325000I0J75000D01*
G01*
X156800000Y-107175000D01*
G75*
G02*
X156875000Y-107100000I75000J0D01*
G01*
G37*
%TD.AperFunction*%
%TO.P,U5,55*%
%TO.N,/MCU/SWO*%
%TA.AperFunction,SMDPad,CuDef*%
G36*
G01*
X156875000Y-107600000D02*
X158275000Y-107600000D01*
G75*
G02*
X158350000Y-107675000I0J-75000D01*
G01*
X158350000Y-107825000D01*
G75*
G02*
X158275000Y-107900000I-75000J0D01*
G01*
X156875000Y-107900000D01*
G75*
G02*
X156800000Y-107825000I0J75000D01*
G01*
X156800000Y-107675000D01*
G75*
G02*
X156875000Y-107600000I75000J0D01*
G01*
G37*
%TD.AperFunction*%
%TO.P,U5,54*%
%TO.N,N/C*%
%TA.AperFunction,SMDPad,CuDef*%
G36*
G01*
X156875000Y-108100000D02*
X158275000Y-108100000D01*
G75*
G02*
X158350000Y-108175000I0J-75000D01*
G01*
X158350000Y-108325000D01*
G75*
G02*
X158275000Y-108400000I-75000J0D01*
G01*
X156875000Y-108400000D01*
G75*
G02*
X156800000Y-108325000I0J75000D01*
G01*
X156800000Y-108175000D01*
G75*
G02*
X156875000Y-108100000I75000J0D01*
G01*
G37*
%TD.AperFunction*%
%TO.P,U5,53*%
%TO.N,/MCU/Stepper_UART*%
%TA.AperFunction,SMDPad,CuDef*%
G36*
G01*
X156875000Y-108600000D02*
X158275000Y-108600000D01*
G75*
G02*
X158350000Y-108675000I0J-75000D01*
G01*
X158350000Y-108825000D01*
G75*
G02*
X158275000Y-108900000I-75000J0D01*
G01*
X156875000Y-108900000D01*
G75*
G02*
X156800000Y-108825000I0J75000D01*
G01*
X156800000Y-108675000D01*
G75*
G02*
X156875000Y-108600000I75000J0D01*
G01*
G37*
%TD.AperFunction*%
%TO.P,U5,52*%
%TO.N,N/C*%
%TA.AperFunction,SMDPad,CuDef*%
G36*
G01*
X156875000Y-109100000D02*
X158275000Y-109100000D01*
G75*
G02*
X158350000Y-109175000I0J-75000D01*
G01*
X158350000Y-109325000D01*
G75*
G02*
X158275000Y-109400000I-75000J0D01*
G01*
X156875000Y-109400000D01*
G75*
G02*
X156800000Y-109325000I0J75000D01*
G01*
X156800000Y-109175000D01*
G75*
G02*
X156875000Y-109100000I75000J0D01*
G01*
G37*
%TD.AperFunction*%
%TO.P,U5,51*%
%TO.N,/StepperDriver/Direction*%
%TA.AperFunction,SMDPad,CuDef*%
G36*
G01*
X156875000Y-109600000D02*
X158275000Y-109600000D01*
G75*
G02*
X158350000Y-109675000I0J-75000D01*
G01*
X158350000Y-109825000D01*
G75*
G02*
X158275000Y-109900000I-75000J0D01*
G01*
X156875000Y-109900000D01*
G75*
G02*
X156800000Y-109825000I0J75000D01*
G01*
X156800000Y-109675000D01*
G75*
G02*
X156875000Y-109600000I75000J0D01*
G01*
G37*
%TD.AperFunction*%
%TO.P,U5,50*%
%TO.N,/StepperDriver/Step*%
%TA.AperFunction,SMDPad,CuDef*%
G36*
G01*
X156875000Y-110100000D02*
X158275000Y-110100000D01*
G75*
G02*
X158350000Y-110175000I0J-75000D01*
G01*
X158350000Y-110325000D01*
G75*
G02*
X158275000Y-110400000I-75000J0D01*
G01*
X156875000Y-110400000D01*
G75*
G02*
X156800000Y-110325000I0J75000D01*
G01*
X156800000Y-110175000D01*
G75*
G02*
X156875000Y-110100000I75000J0D01*
G01*
G37*
%TD.AperFunction*%
%TO.P,U5,49*%
%TO.N,/MCU/SWCLK*%
%TA.AperFunction,SMDPad,CuDef*%
G36*
G01*
X156875000Y-110600000D02*
X158275000Y-110600000D01*
G75*
G02*
X158350000Y-110675000I0J-75000D01*
G01*
X158350000Y-110825000D01*
G75*
G02*
X158275000Y-110900000I-75000J0D01*
G01*
X156875000Y-110900000D01*
G75*
G02*
X156800000Y-110825000I0J75000D01*
G01*
X156800000Y-110675000D01*
G75*
G02*
X156875000Y-110600000I75000J0D01*
G01*
G37*
%TD.AperFunction*%
%TO.P,U5,48*%
%TO.N,+3V3*%
%TA.AperFunction,SMDPad,CuDef*%
G36*
G01*
X159425000Y-111900000D02*
X159575000Y-111900000D01*
G75*
G02*
X159650000Y-111975000I0J-75000D01*
G01*
X159650000Y-113375000D01*
G75*
G02*
X159575000Y-113450000I-75000J0D01*
G01*
X159425000Y-113450000D01*
G75*
G02*
X159350000Y-113375000I0J75000D01*
G01*
X159350000Y-111975000D01*
G75*
G02*
X159425000Y-111900000I75000J0D01*
G01*
G37*
%TD.AperFunction*%
%TO.P,U5,47*%
%TO.N,GND*%
%TA.AperFunction,SMDPad,CuDef*%
G36*
G01*
X159925000Y-111900000D02*
X160075000Y-111900000D01*
G75*
G02*
X160150000Y-111975000I0J-75000D01*
G01*
X160150000Y-113375000D01*
G75*
G02*
X160075000Y-113450000I-75000J0D01*
G01*
X159925000Y-113450000D01*
G75*
G02*
X159850000Y-113375000I0J75000D01*
G01*
X159850000Y-111975000D01*
G75*
G02*
X159925000Y-111900000I75000J0D01*
G01*
G37*
%TD.AperFunction*%
%TO.P,U5,46*%
%TO.N,/MCU/SWDIO*%
%TA.AperFunction,SMDPad,CuDef*%
G36*
G01*
X160425000Y-111900000D02*
X160575000Y-111900000D01*
G75*
G02*
X160650000Y-111975000I0J-75000D01*
G01*
X160650000Y-113375000D01*
G75*
G02*
X160575000Y-113450000I-75000J0D01*
G01*
X160425000Y-113450000D01*
G75*
G02*
X160350000Y-113375000I0J75000D01*
G01*
X160350000Y-111975000D01*
G75*
G02*
X160425000Y-111900000I75000J0D01*
G01*
G37*
%TD.AperFunction*%
%TO.P,U5,45*%
%TO.N,/CAN_TX*%
%TA.AperFunction,SMDPad,CuDef*%
G36*
G01*
X160925000Y-111900000D02*
X161075000Y-111900000D01*
G75*
G02*
X161150000Y-111975000I0J-75000D01*
G01*
X161150000Y-113375000D01*
G75*
G02*
X161075000Y-113450000I-75000J0D01*
G01*
X160925000Y-113450000D01*
G75*
G02*
X160850000Y-113375000I0J75000D01*
G01*
X160850000Y-111975000D01*
G75*
G02*
X160925000Y-111900000I75000J0D01*
G01*
G37*
%TD.AperFunction*%
%TO.P,U5,44*%
%TO.N,/CAN_RX*%
%TA.AperFunction,SMDPad,CuDef*%
G36*
G01*
X161425000Y-111900000D02*
X161575000Y-111900000D01*
G75*
G02*
X161650000Y-111975000I0J-75000D01*
G01*
X161650000Y-113375000D01*
G75*
G02*
X161575000Y-113450000I-75000J0D01*
G01*
X161425000Y-113450000D01*
G75*
G02*
X161350000Y-113375000I0J75000D01*
G01*
X161350000Y-111975000D01*
G75*
G02*
X161425000Y-111900000I75000J0D01*
G01*
G37*
%TD.AperFunction*%
%TO.P,U5,43*%
%TO.N,N/C*%
%TA.AperFunction,SMDPad,CuDef*%
G36*
G01*
X161925000Y-111900000D02*
X162075000Y-111900000D01*
G75*
G02*
X162150000Y-111975000I0J-75000D01*
G01*
X162150000Y-113375000D01*
G75*
G02*
X162075000Y-113450000I-75000J0D01*
G01*
X161925000Y-113450000D01*
G75*
G02*
X161850000Y-113375000I0J75000D01*
G01*
X161850000Y-111975000D01*
G75*
G02*
X161925000Y-111900000I75000J0D01*
G01*
G37*
%TD.AperFunction*%
%TO.P,U5,42*%
%TA.AperFunction,SMDPad,CuDef*%
G36*
G01*
X162425000Y-111900000D02*
X162575000Y-111900000D01*
G75*
G02*
X162650000Y-111975000I0J-75000D01*
G01*
X162650000Y-113375000D01*
G75*
G02*
X162575000Y-113450000I-75000J0D01*
G01*
X162425000Y-113450000D01*
G75*
G02*
X162350000Y-113375000I0J75000D01*
G01*
X162350000Y-111975000D01*
G75*
G02*
X162425000Y-111900000I75000J0D01*
G01*
G37*
%TD.AperFunction*%
%TO.P,U5,41*%
%TA.AperFunction,SMDPad,CuDef*%
G36*
G01*
X162925000Y-111900000D02*
X163075000Y-111900000D01*
G75*
G02*
X163150000Y-111975000I0J-75000D01*
G01*
X163150000Y-113375000D01*
G75*
G02*
X163075000Y-113450000I-75000J0D01*
G01*
X162925000Y-113450000D01*
G75*
G02*
X162850000Y-113375000I0J75000D01*
G01*
X162850000Y-111975000D01*
G75*
G02*
X162925000Y-111900000I75000J0D01*
G01*
G37*
%TD.AperFunction*%
%TO.P,U5,40*%
%TA.AperFunction,SMDPad,CuDef*%
G36*
G01*
X163425000Y-111900000D02*
X163575000Y-111900000D01*
G75*
G02*
X163650000Y-111975000I0J-75000D01*
G01*
X163650000Y-113375000D01*
G75*
G02*
X163575000Y-113450000I-75000J0D01*
G01*
X163425000Y-113450000D01*
G75*
G02*
X163350000Y-113375000I0J75000D01*
G01*
X163350000Y-111975000D01*
G75*
G02*
X163425000Y-111900000I75000J0D01*
G01*
G37*
%TD.AperFunction*%
%TO.P,U5,39*%
%TA.AperFunction,SMDPad,CuDef*%
G36*
G01*
X163925000Y-111900000D02*
X164075000Y-111900000D01*
G75*
G02*
X164150000Y-111975000I0J-75000D01*
G01*
X164150000Y-113375000D01*
G75*
G02*
X164075000Y-113450000I-75000J0D01*
G01*
X163925000Y-113450000D01*
G75*
G02*
X163850000Y-113375000I0J75000D01*
G01*
X163850000Y-111975000D01*
G75*
G02*
X163925000Y-111900000I75000J0D01*
G01*
G37*
%TD.AperFunction*%
%TO.P,U5,38*%
%TA.AperFunction,SMDPad,CuDef*%
G36*
G01*
X164425000Y-111900000D02*
X164575000Y-111900000D01*
G75*
G02*
X164650000Y-111975000I0J-75000D01*
G01*
X164650000Y-113375000D01*
G75*
G02*
X164575000Y-113450000I-75000J0D01*
G01*
X164425000Y-113450000D01*
G75*
G02*
X164350000Y-113375000I0J75000D01*
G01*
X164350000Y-111975000D01*
G75*
G02*
X164425000Y-111900000I75000J0D01*
G01*
G37*
%TD.AperFunction*%
%TO.P,U5,37*%
%TA.AperFunction,SMDPad,CuDef*%
G36*
G01*
X164925000Y-111900000D02*
X165075000Y-111900000D01*
G75*
G02*
X165150000Y-111975000I0J-75000D01*
G01*
X165150000Y-113375000D01*
G75*
G02*
X165075000Y-113450000I-75000J0D01*
G01*
X164925000Y-113450000D01*
G75*
G02*
X164850000Y-113375000I0J75000D01*
G01*
X164850000Y-111975000D01*
G75*
G02*
X164925000Y-111900000I75000J0D01*
G01*
G37*
%TD.AperFunction*%
%TO.P,U5,36*%
%TA.AperFunction,SMDPad,CuDef*%
G36*
G01*
X165425000Y-111900000D02*
X165575000Y-111900000D01*
G75*
G02*
X165650000Y-111975000I0J-75000D01*
G01*
X165650000Y-113375000D01*
G75*
G02*
X165575000Y-113450000I-75000J0D01*
G01*
X165425000Y-113450000D01*
G75*
G02*
X165350000Y-113375000I0J75000D01*
G01*
X165350000Y-111975000D01*
G75*
G02*
X165425000Y-111900000I75000J0D01*
G01*
G37*
%TD.AperFunction*%
%TO.P,U5,35*%
%TA.AperFunction,SMDPad,CuDef*%
G36*
G01*
X165925000Y-111900000D02*
X166075000Y-111900000D01*
G75*
G02*
X166150000Y-111975000I0J-75000D01*
G01*
X166150000Y-113375000D01*
G75*
G02*
X166075000Y-113450000I-75000J0D01*
G01*
X165925000Y-113450000D01*
G75*
G02*
X165850000Y-113375000I0J75000D01*
G01*
X165850000Y-111975000D01*
G75*
G02*
X165925000Y-111900000I75000J0D01*
G01*
G37*
%TD.AperFunction*%
%TO.P,U5,34*%
%TA.AperFunction,SMDPad,CuDef*%
G36*
G01*
X166425000Y-111900000D02*
X166575000Y-111900000D01*
G75*
G02*
X166650000Y-111975000I0J-75000D01*
G01*
X166650000Y-113375000D01*
G75*
G02*
X166575000Y-113450000I-75000J0D01*
G01*
X166425000Y-113450000D01*
G75*
G02*
X166350000Y-113375000I0J75000D01*
G01*
X166350000Y-111975000D01*
G75*
G02*
X166425000Y-111900000I75000J0D01*
G01*
G37*
%TD.AperFunction*%
%TO.P,U5,33*%
%TA.AperFunction,SMDPad,CuDef*%
G36*
G01*
X166925000Y-111900000D02*
X167075000Y-111900000D01*
G75*
G02*
X167150000Y-111975000I0J-75000D01*
G01*
X167150000Y-113375000D01*
G75*
G02*
X167075000Y-113450000I-75000J0D01*
G01*
X166925000Y-113450000D01*
G75*
G02*
X166850000Y-113375000I0J75000D01*
G01*
X166850000Y-111975000D01*
G75*
G02*
X166925000Y-111900000I75000J0D01*
G01*
G37*
%TD.AperFunction*%
%TO.P,U5,32*%
%TO.N,+3V3*%
%TA.AperFunction,SMDPad,CuDef*%
G36*
G01*
X168225000Y-110600000D02*
X169625000Y-110600000D01*
G75*
G02*
X169700000Y-110675000I0J-75000D01*
G01*
X169700000Y-110825000D01*
G75*
G02*
X169625000Y-110900000I-75000J0D01*
G01*
X168225000Y-110900000D01*
G75*
G02*
X168150000Y-110825000I0J75000D01*
G01*
X168150000Y-110675000D01*
G75*
G02*
X168225000Y-110600000I75000J0D01*
G01*
G37*
%TD.AperFunction*%
%TO.P,U5,31*%
%TO.N,GND*%
%TA.AperFunction,SMDPad,CuDef*%
G36*
G01*
X168225000Y-110100000D02*
X169625000Y-110100000D01*
G75*
G02*
X169700000Y-110175000I0J-75000D01*
G01*
X169700000Y-110325000D01*
G75*
G02*
X169625000Y-110400000I-75000J0D01*
G01*
X168225000Y-110400000D01*
G75*
G02*
X168150000Y-110325000I0J75000D01*
G01*
X168150000Y-110175000D01*
G75*
G02*
X168225000Y-110100000I75000J0D01*
G01*
G37*
%TD.AperFunction*%
%TO.P,U5,30*%
%TO.N,/MCU/I2C2_SDA*%
%TA.AperFunction,SMDPad,CuDef*%
G36*
G01*
X168225000Y-109600000D02*
X169625000Y-109600000D01*
G75*
G02*
X169700000Y-109675000I0J-75000D01*
G01*
X169700000Y-109825000D01*
G75*
G02*
X169625000Y-109900000I-75000J0D01*
G01*
X168225000Y-109900000D01*
G75*
G02*
X168150000Y-109825000I0J75000D01*
G01*
X168150000Y-109675000D01*
G75*
G02*
X168225000Y-109600000I75000J0D01*
G01*
G37*
%TD.AperFunction*%
%TO.P,U5,29*%
%TO.N,/MCU/I2C2_SCL*%
%TA.AperFunction,SMDPad,CuDef*%
G36*
G01*
X168225000Y-109100000D02*
X169625000Y-109100000D01*
G75*
G02*
X169700000Y-109175000I0J-75000D01*
G01*
X169700000Y-109325000D01*
G75*
G02*
X169625000Y-109400000I-75000J0D01*
G01*
X168225000Y-109400000D01*
G75*
G02*
X168150000Y-109325000I0J75000D01*
G01*
X168150000Y-109175000D01*
G75*
G02*
X168225000Y-109100000I75000J0D01*
G01*
G37*
%TD.AperFunction*%
%TO.P,U5,28*%
%TO.N,N/C*%
%TA.AperFunction,SMDPad,CuDef*%
G36*
G01*
X168225000Y-108600000D02*
X169625000Y-108600000D01*
G75*
G02*
X169700000Y-108675000I0J-75000D01*
G01*
X169700000Y-108825000D01*
G75*
G02*
X169625000Y-108900000I-75000J0D01*
G01*
X168225000Y-108900000D01*
G75*
G02*
X168150000Y-108825000I0J75000D01*
G01*
X168150000Y-108675000D01*
G75*
G02*
X168225000Y-108600000I75000J0D01*
G01*
G37*
%TD.AperFunction*%
%TO.P,U5,27*%
%TA.AperFunction,SMDPad,CuDef*%
G36*
G01*
X168225000Y-108100000D02*
X169625000Y-108100000D01*
G75*
G02*
X169700000Y-108175000I0J-75000D01*
G01*
X169700000Y-108325000D01*
G75*
G02*
X169625000Y-108400000I-75000J0D01*
G01*
X168225000Y-108400000D01*
G75*
G02*
X168150000Y-108325000I0J75000D01*
G01*
X168150000Y-108175000D01*
G75*
G02*
X168225000Y-108100000I75000J0D01*
G01*
G37*
%TD.AperFunction*%
%TO.P,U5,26*%
%TA.AperFunction,SMDPad,CuDef*%
G36*
G01*
X168225000Y-107600000D02*
X169625000Y-107600000D01*
G75*
G02*
X169700000Y-107675000I0J-75000D01*
G01*
X169700000Y-107825000D01*
G75*
G02*
X169625000Y-107900000I-75000J0D01*
G01*
X168225000Y-107900000D01*
G75*
G02*
X168150000Y-107825000I0J75000D01*
G01*
X168150000Y-107675000D01*
G75*
G02*
X168225000Y-107600000I75000J0D01*
G01*
G37*
%TD.AperFunction*%
%TO.P,U5,25*%
%TA.AperFunction,SMDPad,CuDef*%
G36*
G01*
X168225000Y-107100000D02*
X169625000Y-107100000D01*
G75*
G02*
X169700000Y-107175000I0J-75000D01*
G01*
X169700000Y-107325000D01*
G75*
G02*
X169625000Y-107400000I-75000J0D01*
G01*
X168225000Y-107400000D01*
G75*
G02*
X168150000Y-107325000I0J75000D01*
G01*
X168150000Y-107175000D01*
G75*
G02*
X168225000Y-107100000I75000J0D01*
G01*
G37*
%TD.AperFunction*%
%TO.P,U5,24*%
%TO.N,/MCU/tempMotor*%
%TA.AperFunction,SMDPad,CuDef*%
G36*
G01*
X168225000Y-106600000D02*
X169625000Y-106600000D01*
G75*
G02*
X169700000Y-106675000I0J-75000D01*
G01*
X169700000Y-106825000D01*
G75*
G02*
X169625000Y-106900000I-75000J0D01*
G01*
X168225000Y-106900000D01*
G75*
G02*
X168150000Y-106825000I0J75000D01*
G01*
X168150000Y-106675000D01*
G75*
G02*
X168225000Y-106600000I75000J0D01*
G01*
G37*
%TD.AperFunction*%
%TO.P,U5,23*%
%TO.N,/inputCurrent*%
%TA.AperFunction,SMDPad,CuDef*%
G36*
G01*
X168225000Y-106100000D02*
X169625000Y-106100000D01*
G75*
G02*
X169700000Y-106175000I0J-75000D01*
G01*
X169700000Y-106325000D01*
G75*
G02*
X169625000Y-106400000I-75000J0D01*
G01*
X168225000Y-106400000D01*
G75*
G02*
X168150000Y-106325000I0J75000D01*
G01*
X168150000Y-106175000D01*
G75*
G02*
X168225000Y-106100000I75000J0D01*
G01*
G37*
%TD.AperFunction*%
%TO.P,U5,22*%
%TO.N,N/C*%
%TA.AperFunction,SMDPad,CuDef*%
G36*
G01*
X168225000Y-105600000D02*
X169625000Y-105600000D01*
G75*
G02*
X169700000Y-105675000I0J-75000D01*
G01*
X169700000Y-105825000D01*
G75*
G02*
X169625000Y-105900000I-75000J0D01*
G01*
X168225000Y-105900000D01*
G75*
G02*
X168150000Y-105825000I0J75000D01*
G01*
X168150000Y-105675000D01*
G75*
G02*
X168225000Y-105600000I75000J0D01*
G01*
G37*
%TD.AperFunction*%
%TO.P,U5,21*%
%TA.AperFunction,SMDPad,CuDef*%
G36*
G01*
X168225000Y-105100000D02*
X169625000Y-105100000D01*
G75*
G02*
X169700000Y-105175000I0J-75000D01*
G01*
X169700000Y-105325000D01*
G75*
G02*
X169625000Y-105400000I-75000J0D01*
G01*
X168225000Y-105400000D01*
G75*
G02*
X168150000Y-105325000I0J75000D01*
G01*
X168150000Y-105175000D01*
G75*
G02*
X168225000Y-105100000I75000J0D01*
G01*
G37*
%TD.AperFunction*%
%TO.P,U5,20*%
%TA.AperFunction,SMDPad,CuDef*%
G36*
G01*
X168225000Y-104600000D02*
X169625000Y-104600000D01*
G75*
G02*
X169700000Y-104675000I0J-75000D01*
G01*
X169700000Y-104825000D01*
G75*
G02*
X169625000Y-104900000I-75000J0D01*
G01*
X168225000Y-104900000D01*
G75*
G02*
X168150000Y-104825000I0J75000D01*
G01*
X168150000Y-104675000D01*
G75*
G02*
X168225000Y-104600000I75000J0D01*
G01*
G37*
%TD.AperFunction*%
%TO.P,U5,19*%
%TO.N,+3V3*%
%TA.AperFunction,SMDPad,CuDef*%
G36*
G01*
X168225000Y-104100000D02*
X169625000Y-104100000D01*
G75*
G02*
X169700000Y-104175000I0J-75000D01*
G01*
X169700000Y-104325000D01*
G75*
G02*
X169625000Y-104400000I-75000J0D01*
G01*
X168225000Y-104400000D01*
G75*
G02*
X168150000Y-104325000I0J75000D01*
G01*
X168150000Y-104175000D01*
G75*
G02*
X168225000Y-104100000I75000J0D01*
G01*
G37*
%TD.AperFunction*%
%TO.P,U5,18*%
%TO.N,GND*%
%TA.AperFunction,SMDPad,CuDef*%
G36*
G01*
X168225000Y-103600000D02*
X169625000Y-103600000D01*
G75*
G02*
X169700000Y-103675000I0J-75000D01*
G01*
X169700000Y-103825000D01*
G75*
G02*
X169625000Y-103900000I-75000J0D01*
G01*
X168225000Y-103900000D01*
G75*
G02*
X168150000Y-103825000I0J75000D01*
G01*
X168150000Y-103675000D01*
G75*
G02*
X168225000Y-103600000I75000J0D01*
G01*
G37*
%TD.AperFunction*%
%TO.P,U5,17*%
%TO.N,N/C*%
%TA.AperFunction,SMDPad,CuDef*%
G36*
G01*
X168225000Y-103100000D02*
X169625000Y-103100000D01*
G75*
G02*
X169700000Y-103175000I0J-75000D01*
G01*
X169700000Y-103325000D01*
G75*
G02*
X169625000Y-103400000I-75000J0D01*
G01*
X168225000Y-103400000D01*
G75*
G02*
X168150000Y-103325000I0J75000D01*
G01*
X168150000Y-103175000D01*
G75*
G02*
X168225000Y-103100000I75000J0D01*
G01*
G37*
%TD.AperFunction*%
%TO.P,U5,16*%
%TO.N,/MCU/LED_RED*%
%TA.AperFunction,SMDPad,CuDef*%
G36*
G01*
X166925000Y-100550000D02*
X167075000Y-100550000D01*
G75*
G02*
X167150000Y-100625000I0J-75000D01*
G01*
X167150000Y-102025000D01*
G75*
G02*
X167075000Y-102100000I-75000J0D01*
G01*
X166925000Y-102100000D01*
G75*
G02*
X166850000Y-102025000I0J75000D01*
G01*
X166850000Y-100625000D01*
G75*
G02*
X166925000Y-100550000I75000J0D01*
G01*
G37*
%TD.AperFunction*%
%TO.P,U5,15*%
%TO.N,/MCU/LED_GREEN*%
%TA.AperFunction,SMDPad,CuDef*%
G36*
G01*
X166425000Y-100550000D02*
X166575000Y-100550000D01*
G75*
G02*
X166650000Y-100625000I0J-75000D01*
G01*
X166650000Y-102025000D01*
G75*
G02*
X166575000Y-102100000I-75000J0D01*
G01*
X166425000Y-102100000D01*
G75*
G02*
X166350000Y-102025000I0J75000D01*
G01*
X166350000Y-100625000D01*
G75*
G02*
X166425000Y-100550000I75000J0D01*
G01*
G37*
%TD.AperFunction*%
%TO.P,U5,14*%
%TO.N,N/C*%
%TA.AperFunction,SMDPad,CuDef*%
G36*
G01*
X165925000Y-100550000D02*
X166075000Y-100550000D01*
G75*
G02*
X166150000Y-100625000I0J-75000D01*
G01*
X166150000Y-102025000D01*
G75*
G02*
X166075000Y-102100000I-75000J0D01*
G01*
X165925000Y-102100000D01*
G75*
G02*
X165850000Y-102025000I0J75000D01*
G01*
X165850000Y-100625000D01*
G75*
G02*
X165925000Y-100550000I75000J0D01*
G01*
G37*
%TD.AperFunction*%
%TO.P,U5,13*%
%TO.N,+3V3*%
%TA.AperFunction,SMDPad,CuDef*%
G36*
G01*
X165425000Y-100550000D02*
X165575000Y-100550000D01*
G75*
G02*
X165650000Y-100625000I0J-75000D01*
G01*
X165650000Y-102025000D01*
G75*
G02*
X165575000Y-102100000I-75000J0D01*
G01*
X165425000Y-102100000D01*
G75*
G02*
X165350000Y-102025000I0J75000D01*
G01*
X165350000Y-100625000D01*
G75*
G02*
X165425000Y-100550000I75000J0D01*
G01*
G37*
%TD.AperFunction*%
%TO.P,U5,12*%
%TO.N,GND*%
%TA.AperFunction,SMDPad,CuDef*%
G36*
G01*
X164925000Y-100550000D02*
X165075000Y-100550000D01*
G75*
G02*
X165150000Y-100625000I0J-75000D01*
G01*
X165150000Y-102025000D01*
G75*
G02*
X165075000Y-102100000I-75000J0D01*
G01*
X164925000Y-102100000D01*
G75*
G02*
X164850000Y-102025000I0J75000D01*
G01*
X164850000Y-100625000D01*
G75*
G02*
X164925000Y-100550000I75000J0D01*
G01*
G37*
%TD.AperFunction*%
%TO.P,U5,11*%
%TO.N,N/C*%
%TA.AperFunction,SMDPad,CuDef*%
G36*
G01*
X164425000Y-100550000D02*
X164575000Y-100550000D01*
G75*
G02*
X164650000Y-100625000I0J-75000D01*
G01*
X164650000Y-102025000D01*
G75*
G02*
X164575000Y-102100000I-75000J0D01*
G01*
X164425000Y-102100000D01*
G75*
G02*
X164350000Y-102025000I0J75000D01*
G01*
X164350000Y-100625000D01*
G75*
G02*
X164425000Y-100550000I75000J0D01*
G01*
G37*
%TD.AperFunction*%
%TO.P,U5,10*%
%TA.AperFunction,SMDPad,CuDef*%
G36*
G01*
X163925000Y-100550000D02*
X164075000Y-100550000D01*
G75*
G02*
X164150000Y-100625000I0J-75000D01*
G01*
X164150000Y-102025000D01*
G75*
G02*
X164075000Y-102100000I-75000J0D01*
G01*
X163925000Y-102100000D01*
G75*
G02*
X163850000Y-102025000I0J75000D01*
G01*
X163850000Y-100625000D01*
G75*
G02*
X163925000Y-100550000I75000J0D01*
G01*
G37*
%TD.AperFunction*%
%TO.P,U5,9*%
%TA.AperFunction,SMDPad,CuDef*%
G36*
G01*
X163425000Y-100550000D02*
X163575000Y-100550000D01*
G75*
G02*
X163650000Y-100625000I0J-75000D01*
G01*
X163650000Y-102025000D01*
G75*
G02*
X163575000Y-102100000I-75000J0D01*
G01*
X163425000Y-102100000D01*
G75*
G02*
X163350000Y-102025000I0J75000D01*
G01*
X163350000Y-100625000D01*
G75*
G02*
X163425000Y-100550000I75000J0D01*
G01*
G37*
%TD.AperFunction*%
%TO.P,U5,8*%
%TA.AperFunction,SMDPad,CuDef*%
G36*
G01*
X162925000Y-100550000D02*
X163075000Y-100550000D01*
G75*
G02*
X163150000Y-100625000I0J-75000D01*
G01*
X163150000Y-102025000D01*
G75*
G02*
X163075000Y-102100000I-75000J0D01*
G01*
X162925000Y-102100000D01*
G75*
G02*
X162850000Y-102025000I0J75000D01*
G01*
X162850000Y-100625000D01*
G75*
G02*
X162925000Y-100550000I75000J0D01*
G01*
G37*
%TD.AperFunction*%
%TO.P,U5,7*%
%TO.N,/MCU/~RST*%
%TA.AperFunction,SMDPad,CuDef*%
G36*
G01*
X162425000Y-100550000D02*
X162575000Y-100550000D01*
G75*
G02*
X162650000Y-100625000I0J-75000D01*
G01*
X162650000Y-102025000D01*
G75*
G02*
X162575000Y-102100000I-75000J0D01*
G01*
X162425000Y-102100000D01*
G75*
G02*
X162350000Y-102025000I0J75000D01*
G01*
X162350000Y-100625000D01*
G75*
G02*
X162425000Y-100550000I75000J0D01*
G01*
G37*
%TD.AperFunction*%
%TO.P,U5,6*%
%TO.N,Net-(C34-Pad2)*%
%TA.AperFunction,SMDPad,CuDef*%
G36*
G01*
X161925000Y-100550000D02*
X162075000Y-100550000D01*
G75*
G02*
X162150000Y-100625000I0J-75000D01*
G01*
X162150000Y-102025000D01*
G75*
G02*
X162075000Y-102100000I-75000J0D01*
G01*
X161925000Y-102100000D01*
G75*
G02*
X161850000Y-102025000I0J75000D01*
G01*
X161850000Y-100625000D01*
G75*
G02*
X161925000Y-100550000I75000J0D01*
G01*
G37*
%TD.AperFunction*%
%TO.P,U5,5*%
%TO.N,Net-(R19-Pad1)*%
%TA.AperFunction,SMDPad,CuDef*%
G36*
G01*
X161425000Y-100550000D02*
X161575000Y-100550000D01*
G75*
G02*
X161650000Y-100625000I0J-75000D01*
G01*
X161650000Y-102025000D01*
G75*
G02*
X161575000Y-102100000I-75000J0D01*
G01*
X161425000Y-102100000D01*
G75*
G02*
X161350000Y-102025000I0J75000D01*
G01*
X161350000Y-100625000D01*
G75*
G02*
X161425000Y-100550000I75000J0D01*
G01*
G37*
%TD.AperFunction*%
%TO.P,U5,4*%
%TO.N,/StepperDriver/~EN*%
%TA.AperFunction,SMDPad,CuDef*%
G36*
G01*
X160925000Y-100550000D02*
X161075000Y-100550000D01*
G75*
G02*
X161150000Y-100625000I0J-75000D01*
G01*
X161150000Y-102025000D01*
G75*
G02*
X161075000Y-102100000I-75000J0D01*
G01*
X160925000Y-102100000D01*
G75*
G02*
X160850000Y-102025000I0J75000D01*
G01*
X160850000Y-100625000D01*
G75*
G02*
X160925000Y-100550000I75000J0D01*
G01*
G37*
%TD.AperFunction*%
%TO.P,U5,3*%
%TO.N,/StepperDriver/Diag*%
%TA.AperFunction,SMDPad,CuDef*%
G36*
G01*
X160425000Y-100550000D02*
X160575000Y-100550000D01*
G75*
G02*
X160650000Y-100625000I0J-75000D01*
G01*
X160650000Y-102025000D01*
G75*
G02*
X160575000Y-102100000I-75000J0D01*
G01*
X160425000Y-102100000D01*
G75*
G02*
X160350000Y-102025000I0J75000D01*
G01*
X160350000Y-100625000D01*
G75*
G02*
X160425000Y-100550000I75000J0D01*
G01*
G37*
%TD.AperFunction*%
%TO.P,U5,2*%
%TO.N,/MCU/endstopRight*%
%TA.AperFunction,SMDPad,CuDef*%
G36*
G01*
X159925000Y-100550000D02*
X160075000Y-100550000D01*
G75*
G02*
X160150000Y-100625000I0J-75000D01*
G01*
X160150000Y-102025000D01*
G75*
G02*
X160075000Y-102100000I-75000J0D01*
G01*
X159925000Y-102100000D01*
G75*
G02*
X159850000Y-102025000I0J75000D01*
G01*
X159850000Y-100625000D01*
G75*
G02*
X159925000Y-100550000I75000J0D01*
G01*
G37*
%TD.AperFunction*%
%TO.P,U5,1*%
%TO.N,+3V3*%
%TA.AperFunction,SMDPad,CuDef*%
G36*
G01*
X159425000Y-100550000D02*
X159575000Y-100550000D01*
G75*
G02*
X159650000Y-100625000I0J-75000D01*
G01*
X159650000Y-102025000D01*
G75*
G02*
X159575000Y-102100000I-75000J0D01*
G01*
X159425000Y-102100000D01*
G75*
G02*
X159350000Y-102025000I0J75000D01*
G01*
X159350000Y-100625000D01*
G75*
G02*
X159425000Y-100550000I75000J0D01*
G01*
G37*
%TD.AperFunction*%
%TD*%
D14*
%TO.P,U3,29*%
%TO.N,GND*%
X146800000Y-105100000D03*
X146800000Y-104100000D03*
X146800000Y-103100000D03*
X145800000Y-105100000D03*
X145800000Y-104100000D03*
X145800000Y-103100000D03*
X144800000Y-105100000D03*
X144800000Y-104100000D03*
X144800000Y-103100000D03*
D15*
X145800000Y-104100000D03*
%TO.P,U3,28*%
%TO.N,VCC*%
%TA.AperFunction,SMDPad,CuDef*%
G36*
G01*
X143012500Y-102475000D02*
X143687500Y-102475000D01*
G75*
G02*
X143750000Y-102537500I0J-62500D01*
G01*
X143750000Y-102662500D01*
G75*
G02*
X143687500Y-102725000I-62500J0D01*
G01*
X143012500Y-102725000D01*
G75*
G02*
X142950000Y-102662500I0J62500D01*
G01*
X142950000Y-102537500D01*
G75*
G02*
X143012500Y-102475000I62500J0D01*
G01*
G37*
%TD.AperFunction*%
%TO.P,U3,27*%
%TO.N,/StepperDriver/senseCoilB*%
%TA.AperFunction,SMDPad,CuDef*%
G36*
G01*
X143012500Y-102975000D02*
X143687500Y-102975000D01*
G75*
G02*
X143750000Y-103037500I0J-62500D01*
G01*
X143750000Y-103162500D01*
G75*
G02*
X143687500Y-103225000I-62500J0D01*
G01*
X143012500Y-103225000D01*
G75*
G02*
X142950000Y-103162500I0J62500D01*
G01*
X142950000Y-103037500D01*
G75*
G02*
X143012500Y-102975000I62500J0D01*
G01*
G37*
%TD.AperFunction*%
%TO.P,U3,26*%
%TO.N,/StepperDriver/coilB_1*%
%TA.AperFunction,SMDPad,CuDef*%
G36*
G01*
X143012500Y-103475000D02*
X143687500Y-103475000D01*
G75*
G02*
X143750000Y-103537500I0J-62500D01*
G01*
X143750000Y-103662500D01*
G75*
G02*
X143687500Y-103725000I-62500J0D01*
G01*
X143012500Y-103725000D01*
G75*
G02*
X142950000Y-103662500I0J62500D01*
G01*
X142950000Y-103537500D01*
G75*
G02*
X143012500Y-103475000I62500J0D01*
G01*
G37*
%TD.AperFunction*%
%TO.P,U3,25*%
%TO.N,N/C*%
%TA.AperFunction,SMDPad,CuDef*%
G36*
G01*
X143012500Y-103975000D02*
X143687500Y-103975000D01*
G75*
G02*
X143750000Y-104037500I0J-62500D01*
G01*
X143750000Y-104162500D01*
G75*
G02*
X143687500Y-104225000I-62500J0D01*
G01*
X143012500Y-104225000D01*
G75*
G02*
X142950000Y-104162500I0J62500D01*
G01*
X142950000Y-104037500D01*
G75*
G02*
X143012500Y-103975000I62500J0D01*
G01*
G37*
%TD.AperFunction*%
%TO.P,U3,24*%
%TO.N,/StepperDriver/coilA_1*%
%TA.AperFunction,SMDPad,CuDef*%
G36*
G01*
X143012500Y-104475000D02*
X143687500Y-104475000D01*
G75*
G02*
X143750000Y-104537500I0J-62500D01*
G01*
X143750000Y-104662500D01*
G75*
G02*
X143687500Y-104725000I-62500J0D01*
G01*
X143012500Y-104725000D01*
G75*
G02*
X142950000Y-104662500I0J62500D01*
G01*
X142950000Y-104537500D01*
G75*
G02*
X143012500Y-104475000I62500J0D01*
G01*
G37*
%TD.AperFunction*%
%TO.P,U3,23*%
%TO.N,/StepperDriver/senseCoilA*%
%TA.AperFunction,SMDPad,CuDef*%
G36*
G01*
X143012500Y-104975000D02*
X143687500Y-104975000D01*
G75*
G02*
X143750000Y-105037500I0J-62500D01*
G01*
X143750000Y-105162500D01*
G75*
G02*
X143687500Y-105225000I-62500J0D01*
G01*
X143012500Y-105225000D01*
G75*
G02*
X142950000Y-105162500I0J62500D01*
G01*
X142950000Y-105037500D01*
G75*
G02*
X143012500Y-104975000I62500J0D01*
G01*
G37*
%TD.AperFunction*%
%TO.P,U3,22*%
%TO.N,VCC*%
%TA.AperFunction,SMDPad,CuDef*%
G36*
G01*
X143012500Y-105475000D02*
X143687500Y-105475000D01*
G75*
G02*
X143750000Y-105537500I0J-62500D01*
G01*
X143750000Y-105662500D01*
G75*
G02*
X143687500Y-105725000I-62500J0D01*
G01*
X143012500Y-105725000D01*
G75*
G02*
X142950000Y-105662500I0J62500D01*
G01*
X142950000Y-105537500D01*
G75*
G02*
X143012500Y-105475000I62500J0D01*
G01*
G37*
%TD.AperFunction*%
%TO.P,U3,21*%
%TO.N,/StepperDriver/coilA_2*%
%TA.AperFunction,SMDPad,CuDef*%
G36*
G01*
X144237500Y-106150000D02*
X144362500Y-106150000D01*
G75*
G02*
X144425000Y-106212500I0J-62500D01*
G01*
X144425000Y-106887500D01*
G75*
G02*
X144362500Y-106950000I-62500J0D01*
G01*
X144237500Y-106950000D01*
G75*
G02*
X144175000Y-106887500I0J62500D01*
G01*
X144175000Y-106212500D01*
G75*
G02*
X144237500Y-106150000I62500J0D01*
G01*
G37*
%TD.AperFunction*%
%TO.P,U3,20*%
%TO.N,GND*%
%TA.AperFunction,SMDPad,CuDef*%
G36*
G01*
X144737500Y-106150000D02*
X144862500Y-106150000D01*
G75*
G02*
X144925000Y-106212500I0J-62500D01*
G01*
X144925000Y-106887500D01*
G75*
G02*
X144862500Y-106950000I-62500J0D01*
G01*
X144737500Y-106950000D01*
G75*
G02*
X144675000Y-106887500I0J62500D01*
G01*
X144675000Y-106212500D01*
G75*
G02*
X144737500Y-106150000I62500J0D01*
G01*
G37*
%TD.AperFunction*%
%TO.P,U3,19*%
%TO.N,/StepperDriver/Direction*%
%TA.AperFunction,SMDPad,CuDef*%
G36*
G01*
X145237500Y-106150000D02*
X145362500Y-106150000D01*
G75*
G02*
X145425000Y-106212500I0J-62500D01*
G01*
X145425000Y-106887500D01*
G75*
G02*
X145362500Y-106950000I-62500J0D01*
G01*
X145237500Y-106950000D01*
G75*
G02*
X145175000Y-106887500I0J62500D01*
G01*
X145175000Y-106212500D01*
G75*
G02*
X145237500Y-106150000I62500J0D01*
G01*
G37*
%TD.AperFunction*%
%TO.P,U3,18*%
%TO.N,GND*%
%TA.AperFunction,SMDPad,CuDef*%
G36*
G01*
X145737500Y-106150000D02*
X145862500Y-106150000D01*
G75*
G02*
X145925000Y-106212500I0J-62500D01*
G01*
X145925000Y-106887500D01*
G75*
G02*
X145862500Y-106950000I-62500J0D01*
G01*
X145737500Y-106950000D01*
G75*
G02*
X145675000Y-106887500I0J62500D01*
G01*
X145675000Y-106212500D01*
G75*
G02*
X145737500Y-106150000I62500J0D01*
G01*
G37*
%TD.AperFunction*%
%TO.P,U3,17*%
%TO.N,/StepperDriver/Vref*%
%TA.AperFunction,SMDPad,CuDef*%
G36*
G01*
X146237500Y-106150000D02*
X146362500Y-106150000D01*
G75*
G02*
X146425000Y-106212500I0J-62500D01*
G01*
X146425000Y-106887500D01*
G75*
G02*
X146362500Y-106950000I-62500J0D01*
G01*
X146237500Y-106950000D01*
G75*
G02*
X146175000Y-106887500I0J62500D01*
G01*
X146175000Y-106212500D01*
G75*
G02*
X146237500Y-106150000I62500J0D01*
G01*
G37*
%TD.AperFunction*%
%TO.P,U3,16*%
%TO.N,/StepperDriver/Step*%
%TA.AperFunction,SMDPad,CuDef*%
G36*
G01*
X146737500Y-106150000D02*
X146862500Y-106150000D01*
G75*
G02*
X146925000Y-106212500I0J-62500D01*
G01*
X146925000Y-106887500D01*
G75*
G02*
X146862500Y-106950000I-62500J0D01*
G01*
X146737500Y-106950000D01*
G75*
G02*
X146675000Y-106887500I0J62500D01*
G01*
X146675000Y-106212500D01*
G75*
G02*
X146737500Y-106150000I62500J0D01*
G01*
G37*
%TD.AperFunction*%
%TO.P,U3,15*%
%TO.N,+3V3*%
%TA.AperFunction,SMDPad,CuDef*%
G36*
G01*
X147237500Y-106150000D02*
X147362500Y-106150000D01*
G75*
G02*
X147425000Y-106212500I0J-62500D01*
G01*
X147425000Y-106887500D01*
G75*
G02*
X147362500Y-106950000I-62500J0D01*
G01*
X147237500Y-106950000D01*
G75*
G02*
X147175000Y-106887500I0J62500D01*
G01*
X147175000Y-106212500D01*
G75*
G02*
X147237500Y-106150000I62500J0D01*
G01*
G37*
%TD.AperFunction*%
%TO.P,U3,14*%
%TO.N,Net-(R4-Pad1)*%
%TA.AperFunction,SMDPad,CuDef*%
G36*
G01*
X147912500Y-105475000D02*
X148587500Y-105475000D01*
G75*
G02*
X148650000Y-105537500I0J-62500D01*
G01*
X148650000Y-105662500D01*
G75*
G02*
X148587500Y-105725000I-62500J0D01*
G01*
X147912500Y-105725000D01*
G75*
G02*
X147850000Y-105662500I0J62500D01*
G01*
X147850000Y-105537500D01*
G75*
G02*
X147912500Y-105475000I62500J0D01*
G01*
G37*
%TD.AperFunction*%
%TO.P,U3,13*%
%TO.N,GND*%
%TA.AperFunction,SMDPad,CuDef*%
G36*
G01*
X147912500Y-104975000D02*
X148587500Y-104975000D01*
G75*
G02*
X148650000Y-105037500I0J-62500D01*
G01*
X148650000Y-105162500D01*
G75*
G02*
X148587500Y-105225000I-62500J0D01*
G01*
X147912500Y-105225000D01*
G75*
G02*
X147850000Y-105162500I0J62500D01*
G01*
X147850000Y-105037500D01*
G75*
G02*
X147912500Y-104975000I62500J0D01*
G01*
G37*
%TD.AperFunction*%
%TO.P,U3,12*%
%TO.N,N/C*%
%TA.AperFunction,SMDPad,CuDef*%
G36*
G01*
X147912500Y-104475000D02*
X148587500Y-104475000D01*
G75*
G02*
X148650000Y-104537500I0J-62500D01*
G01*
X148650000Y-104662500D01*
G75*
G02*
X148587500Y-104725000I-62500J0D01*
G01*
X147912500Y-104725000D01*
G75*
G02*
X147850000Y-104662500I0J62500D01*
G01*
X147850000Y-104537500D01*
G75*
G02*
X147912500Y-104475000I62500J0D01*
G01*
G37*
%TD.AperFunction*%
%TO.P,U3,11*%
%TO.N,/StepperDriver/Diag*%
%TA.AperFunction,SMDPad,CuDef*%
G36*
G01*
X147912500Y-103975000D02*
X148587500Y-103975000D01*
G75*
G02*
X148650000Y-104037500I0J-62500D01*
G01*
X148650000Y-104162500D01*
G75*
G02*
X148587500Y-104225000I-62500J0D01*
G01*
X147912500Y-104225000D01*
G75*
G02*
X147850000Y-104162500I0J62500D01*
G01*
X147850000Y-104037500D01*
G75*
G02*
X147912500Y-103975000I62500J0D01*
G01*
G37*
%TD.AperFunction*%
%TO.P,U3,10*%
%TO.N,GND*%
%TA.AperFunction,SMDPad,CuDef*%
G36*
G01*
X147912500Y-103475000D02*
X148587500Y-103475000D01*
G75*
G02*
X148650000Y-103537500I0J-62500D01*
G01*
X148650000Y-103662500D01*
G75*
G02*
X148587500Y-103725000I-62500J0D01*
G01*
X147912500Y-103725000D01*
G75*
G02*
X147850000Y-103662500I0J62500D01*
G01*
X147850000Y-103537500D01*
G75*
G02*
X147912500Y-103475000I62500J0D01*
G01*
G37*
%TD.AperFunction*%
%TO.P,U3,9*%
%TA.AperFunction,SMDPad,CuDef*%
G36*
G01*
X147912500Y-102975000D02*
X148587500Y-102975000D01*
G75*
G02*
X148650000Y-103037500I0J-62500D01*
G01*
X148650000Y-103162500D01*
G75*
G02*
X148587500Y-103225000I-62500J0D01*
G01*
X147912500Y-103225000D01*
G75*
G02*
X147850000Y-103162500I0J62500D01*
G01*
X147850000Y-103037500D01*
G75*
G02*
X147912500Y-102975000I62500J0D01*
G01*
G37*
%TD.AperFunction*%
%TO.P,U3,8*%
%TO.N,/StepperDriver/internal5VReg*%
%TA.AperFunction,SMDPad,CuDef*%
G36*
G01*
X147912500Y-102475000D02*
X148587500Y-102475000D01*
G75*
G02*
X148650000Y-102537500I0J-62500D01*
G01*
X148650000Y-102662500D01*
G75*
G02*
X148587500Y-102725000I-62500J0D01*
G01*
X147912500Y-102725000D01*
G75*
G02*
X147850000Y-102662500I0J62500D01*
G01*
X147850000Y-102537500D01*
G75*
G02*
X147912500Y-102475000I62500J0D01*
G01*
G37*
%TD.AperFunction*%
%TO.P,U3,7*%
%TO.N,GND*%
%TA.AperFunction,SMDPad,CuDef*%
G36*
G01*
X147237500Y-101250000D02*
X147362500Y-101250000D01*
G75*
G02*
X147425000Y-101312500I0J-62500D01*
G01*
X147425000Y-101987500D01*
G75*
G02*
X147362500Y-102050000I-62500J0D01*
G01*
X147237500Y-102050000D01*
G75*
G02*
X147175000Y-101987500I0J62500D01*
G01*
X147175000Y-101312500D01*
G75*
G02*
X147237500Y-101250000I62500J0D01*
G01*
G37*
%TD.AperFunction*%
%TO.P,U3,6*%
%TO.N,/StepperDriver/chargePumpVoltage*%
%TA.AperFunction,SMDPad,CuDef*%
G36*
G01*
X146737500Y-101250000D02*
X146862500Y-101250000D01*
G75*
G02*
X146925000Y-101312500I0J-62500D01*
G01*
X146925000Y-101987500D01*
G75*
G02*
X146862500Y-102050000I-62500J0D01*
G01*
X146737500Y-102050000D01*
G75*
G02*
X146675000Y-101987500I0J62500D01*
G01*
X146675000Y-101312500D01*
G75*
G02*
X146737500Y-101250000I62500J0D01*
G01*
G37*
%TD.AperFunction*%
%TO.P,U3,5*%
%TO.N,/StepperDriver/chargePumpIn*%
%TA.AperFunction,SMDPad,CuDef*%
G36*
G01*
X146237500Y-101250000D02*
X146362500Y-101250000D01*
G75*
G02*
X146425000Y-101312500I0J-62500D01*
G01*
X146425000Y-101987500D01*
G75*
G02*
X146362500Y-102050000I-62500J0D01*
G01*
X146237500Y-102050000D01*
G75*
G02*
X146175000Y-101987500I0J62500D01*
G01*
X146175000Y-101312500D01*
G75*
G02*
X146237500Y-101250000I62500J0D01*
G01*
G37*
%TD.AperFunction*%
%TO.P,U3,4*%
%TO.N,/StepperDriver/chargePumpOut*%
%TA.AperFunction,SMDPad,CuDef*%
G36*
G01*
X145737500Y-101250000D02*
X145862500Y-101250000D01*
G75*
G02*
X145925000Y-101312500I0J-62500D01*
G01*
X145925000Y-101987500D01*
G75*
G02*
X145862500Y-102050000I-62500J0D01*
G01*
X145737500Y-102050000D01*
G75*
G02*
X145675000Y-101987500I0J62500D01*
G01*
X145675000Y-101312500D01*
G75*
G02*
X145737500Y-101250000I62500J0D01*
G01*
G37*
%TD.AperFunction*%
%TO.P,U3,3*%
%TO.N,GND*%
%TA.AperFunction,SMDPad,CuDef*%
G36*
G01*
X145237500Y-101250000D02*
X145362500Y-101250000D01*
G75*
G02*
X145425000Y-101312500I0J-62500D01*
G01*
X145425000Y-101987500D01*
G75*
G02*
X145362500Y-102050000I-62500J0D01*
G01*
X145237500Y-102050000D01*
G75*
G02*
X145175000Y-101987500I0J62500D01*
G01*
X145175000Y-101312500D01*
G75*
G02*
X145237500Y-101250000I62500J0D01*
G01*
G37*
%TD.AperFunction*%
%TO.P,U3,2*%
%TO.N,/StepperDriver/~EN*%
%TA.AperFunction,SMDPad,CuDef*%
G36*
G01*
X144737500Y-101250000D02*
X144862500Y-101250000D01*
G75*
G02*
X144925000Y-101312500I0J-62500D01*
G01*
X144925000Y-101987500D01*
G75*
G02*
X144862500Y-102050000I-62500J0D01*
G01*
X144737500Y-102050000D01*
G75*
G02*
X144675000Y-101987500I0J62500D01*
G01*
X144675000Y-101312500D01*
G75*
G02*
X144737500Y-101250000I62500J0D01*
G01*
G37*
%TD.AperFunction*%
%TO.P,U3,1*%
%TO.N,/StepperDriver/coilB_2*%
%TA.AperFunction,SMDPad,CuDef*%
G36*
G01*
X144237500Y-101250000D02*
X144362500Y-101250000D01*
G75*
G02*
X144425000Y-101312500I0J-62500D01*
G01*
X144425000Y-101987500D01*
G75*
G02*
X144362500Y-102050000I-62500J0D01*
G01*
X144237500Y-102050000D01*
G75*
G02*
X144175000Y-101987500I0J62500D01*
G01*
X144175000Y-101312500D01*
G75*
G02*
X144237500Y-101250000I62500J0D01*
G01*
G37*
%TD.AperFunction*%
%TD*%
%TO.P,U2,8*%
%TO.N,N/C*%
%TA.AperFunction,SMDPad,CuDef*%
G36*
G01*
X152600000Y-113045000D02*
X152600000Y-113345000D01*
G75*
G02*
X152450000Y-113495000I-150000J0D01*
G01*
X150800000Y-113495000D01*
G75*
G02*
X150650000Y-113345000I0J150000D01*
G01*
X150650000Y-113045000D01*
G75*
G02*
X150800000Y-112895000I150000J0D01*
G01*
X152450000Y-112895000D01*
G75*
G02*
X152600000Y-113045000I0J-150000D01*
G01*
G37*
%TD.AperFunction*%
%TO.P,U2,7*%
%TO.N,Net-(J_CAN1-Pad2)*%
%TA.AperFunction,SMDPad,CuDef*%
G36*
G01*
X152600000Y-114315000D02*
X152600000Y-114615000D01*
G75*
G02*
X152450000Y-114765000I-150000J0D01*
G01*
X150800000Y-114765000D01*
G75*
G02*
X150650000Y-114615000I0J150000D01*
G01*
X150650000Y-114315000D01*
G75*
G02*
X150800000Y-114165000I150000J0D01*
G01*
X152450000Y-114165000D01*
G75*
G02*
X152600000Y-114315000I0J-150000D01*
G01*
G37*
%TD.AperFunction*%
%TO.P,U2,6*%
%TO.N,Net-(J_CAN1-Pad1)*%
%TA.AperFunction,SMDPad,CuDef*%
G36*
G01*
X152600000Y-115585000D02*
X152600000Y-115885000D01*
G75*
G02*
X152450000Y-116035000I-150000J0D01*
G01*
X150800000Y-116035000D01*
G75*
G02*
X150650000Y-115885000I0J150000D01*
G01*
X150650000Y-115585000D01*
G75*
G02*
X150800000Y-115435000I150000J0D01*
G01*
X152450000Y-115435000D01*
G75*
G02*
X152600000Y-115585000I0J-150000D01*
G01*
G37*
%TD.AperFunction*%
%TO.P,U2,5*%
%TO.N,N/C*%
%TA.AperFunction,SMDPad,CuDef*%
G36*
G01*
X152600000Y-116855000D02*
X152600000Y-117155000D01*
G75*
G02*
X152450000Y-117305000I-150000J0D01*
G01*
X150800000Y-117305000D01*
G75*
G02*
X150650000Y-117155000I0J150000D01*
G01*
X150650000Y-116855000D01*
G75*
G02*
X150800000Y-116705000I150000J0D01*
G01*
X152450000Y-116705000D01*
G75*
G02*
X152600000Y-116855000I0J-150000D01*
G01*
G37*
%TD.AperFunction*%
%TO.P,U2,4*%
%TO.N,/CAN_RX*%
%TA.AperFunction,SMDPad,CuDef*%
G36*
G01*
X157550000Y-116855000D02*
X157550000Y-117155000D01*
G75*
G02*
X157400000Y-117305000I-150000J0D01*
G01*
X155750000Y-117305000D01*
G75*
G02*
X155600000Y-117155000I0J150000D01*
G01*
X155600000Y-116855000D01*
G75*
G02*
X155750000Y-116705000I150000J0D01*
G01*
X157400000Y-116705000D01*
G75*
G02*
X157550000Y-116855000I0J-150000D01*
G01*
G37*
%TD.AperFunction*%
%TO.P,U2,3*%
%TO.N,+3V3*%
%TA.AperFunction,SMDPad,CuDef*%
G36*
G01*
X157550000Y-115585000D02*
X157550000Y-115885000D01*
G75*
G02*
X157400000Y-116035000I-150000J0D01*
G01*
X155750000Y-116035000D01*
G75*
G02*
X155600000Y-115885000I0J150000D01*
G01*
X155600000Y-115585000D01*
G75*
G02*
X155750000Y-115435000I150000J0D01*
G01*
X157400000Y-115435000D01*
G75*
G02*
X157550000Y-115585000I0J-150000D01*
G01*
G37*
%TD.AperFunction*%
%TO.P,U2,2*%
%TO.N,GND*%
%TA.AperFunction,SMDPad,CuDef*%
G36*
G01*
X157550000Y-114315000D02*
X157550000Y-114615000D01*
G75*
G02*
X157400000Y-114765000I-150000J0D01*
G01*
X155750000Y-114765000D01*
G75*
G02*
X155600000Y-114615000I0J150000D01*
G01*
X155600000Y-114315000D01*
G75*
G02*
X155750000Y-114165000I150000J0D01*
G01*
X157400000Y-114165000D01*
G75*
G02*
X157550000Y-114315000I0J-150000D01*
G01*
G37*
%TD.AperFunction*%
%TO.P,U2,1*%
%TO.N,/CAN_TX*%
%TA.AperFunction,SMDPad,CuDef*%
G36*
G01*
X157550000Y-113045000D02*
X157550000Y-113345000D01*
G75*
G02*
X157400000Y-113495000I-150000J0D01*
G01*
X155750000Y-113495000D01*
G75*
G02*
X155600000Y-113345000I0J150000D01*
G01*
X155600000Y-113045000D01*
G75*
G02*
X155750000Y-112895000I150000J0D01*
G01*
X157400000Y-112895000D01*
G75*
G02*
X157550000Y-113045000I0J-150000D01*
G01*
G37*
%TD.AperFunction*%
%TD*%
D16*
%TO.P,SW4,2*%
%TO.N,/MCU/~RST*%
X151000000Y-91000000D03*
%TO.P,SW4,1*%
%TO.N,GND*%
X144400000Y-91000000D03*
%TD*%
%TO.P,R10,2*%
%TO.N,/StepperDriver/senseCoilB*%
%TA.AperFunction,SMDPad,CuDef*%
G36*
G01*
X141400000Y-102750000D02*
X141400000Y-99850000D01*
G75*
G02*
X141650000Y-99600000I250000J0D01*
G01*
X142150000Y-99600000D01*
G75*
G02*
X142400000Y-99850000I0J-250000D01*
G01*
X142400000Y-102750000D01*
G75*
G02*
X142150000Y-103000000I-250000J0D01*
G01*
X141650000Y-103000000D01*
G75*
G02*
X141400000Y-102750000I0J250000D01*
G01*
G37*
%TD.AperFunction*%
%TO.P,R10,1*%
%TO.N,GND*%
%TA.AperFunction,SMDPad,CuDef*%
G36*
G01*
X139900000Y-102750000D02*
X139900000Y-99850000D01*
G75*
G02*
X140150000Y-99600000I250000J0D01*
G01*
X140650000Y-99600000D01*
G75*
G02*
X140900000Y-99850000I0J-250000D01*
G01*
X140900000Y-102750000D01*
G75*
G02*
X140650000Y-103000000I-250000J0D01*
G01*
X140150000Y-103000000D01*
G75*
G02*
X139900000Y-102750000I0J250000D01*
G01*
G37*
%TD.AperFunction*%
%TD*%
%TO.P,R9,2*%
%TO.N,/StepperDriver/senseCoilA*%
%TA.AperFunction,SMDPad,CuDef*%
G36*
G01*
X141400000Y-108250000D02*
X141400000Y-105350000D01*
G75*
G02*
X141650000Y-105100000I250000J0D01*
G01*
X142150000Y-105100000D01*
G75*
G02*
X142400000Y-105350000I0J-250000D01*
G01*
X142400000Y-108250000D01*
G75*
G02*
X142150000Y-108500000I-250000J0D01*
G01*
X141650000Y-108500000D01*
G75*
G02*
X141400000Y-108250000I0J250000D01*
G01*
G37*
%TD.AperFunction*%
%TO.P,R9,1*%
%TO.N,GND*%
%TA.AperFunction,SMDPad,CuDef*%
G36*
G01*
X139900000Y-108250000D02*
X139900000Y-105350000D01*
G75*
G02*
X140150000Y-105100000I250000J0D01*
G01*
X140650000Y-105100000D01*
G75*
G02*
X140900000Y-105350000I0J-250000D01*
G01*
X140900000Y-108250000D01*
G75*
G02*
X140650000Y-108500000I-250000J0D01*
G01*
X140150000Y-108500000D01*
G75*
G02*
X139900000Y-108250000I0J250000D01*
G01*
G37*
%TD.AperFunction*%
%TD*%
%TO.P,R5,2*%
%TO.N,/StepperDriver/~EN*%
%TA.AperFunction,SMDPad,CuDef*%
G36*
G01*
X149975000Y-95825000D02*
X149975000Y-96375000D01*
G75*
G02*
X149775000Y-96575000I-200000J0D01*
G01*
X149375000Y-96575000D01*
G75*
G02*
X149175000Y-96375000I0J200000D01*
G01*
X149175000Y-95825000D01*
G75*
G02*
X149375000Y-95625000I200000J0D01*
G01*
X149775000Y-95625000D01*
G75*
G02*
X149975000Y-95825000I0J-200000D01*
G01*
G37*
%TD.AperFunction*%
%TO.P,R5,1*%
%TO.N,+3V3*%
%TA.AperFunction,SMDPad,CuDef*%
G36*
G01*
X151625000Y-95825000D02*
X151625000Y-96375000D01*
G75*
G02*
X151425000Y-96575000I-200000J0D01*
G01*
X151025000Y-96575000D01*
G75*
G02*
X150825000Y-96375000I0J200000D01*
G01*
X150825000Y-95825000D01*
G75*
G02*
X151025000Y-95625000I200000J0D01*
G01*
X151425000Y-95625000D01*
G75*
G02*
X151625000Y-95825000I0J-200000D01*
G01*
G37*
%TD.AperFunction*%
%TD*%
%TA.AperFunction,SMDPad,CuDef*%
D17*
%TO.P,OPT1,5*%
%TO.N,GND*%
G36*
X154658352Y-96802563D02*
G01*
X155578857Y-97193294D01*
X154797394Y-99034303D01*
X153876889Y-98643572D01*
X154658352Y-96802563D01*
G37*
%TD.AperFunction*%
%TA.AperFunction,SMDPad,CuDef*%
%TO.P,OPT1,4*%
%TO.N,/MCU/endstopRight*%
G36*
X155947058Y-97349586D02*
G01*
X156867563Y-97740317D01*
X156086100Y-99581326D01*
X155165595Y-99190595D01*
X155947058Y-97349586D01*
G37*
%TD.AperFunction*%
%TA.AperFunction,SMDPad,CuDef*%
%TO.P,OPT1,3*%
%TO.N,+5V*%
G36*
X157235765Y-97896610D02*
G01*
X158156270Y-98287341D01*
X157374807Y-100128350D01*
X156454302Y-99737619D01*
X157235765Y-97896610D01*
G37*
%TD.AperFunction*%
%TA.AperFunction,SMDPad,CuDef*%
%TO.P,OPT1,2*%
%TO.N,GND*%
G36*
X160361614Y-90532571D02*
G01*
X161282119Y-90923302D01*
X160500656Y-92764311D01*
X159580151Y-92373580D01*
X160361614Y-90532571D01*
G37*
%TD.AperFunction*%
%TA.AperFunction,SMDPad,CuDef*%
%TO.P,OPT1,1*%
%TO.N,Net-(OPT1-Pad1)*%
G36*
X157784201Y-89438524D02*
G01*
X158704706Y-89829255D01*
X157923243Y-91670264D01*
X157002738Y-91279533D01*
X157784201Y-89438524D01*
G37*
%TD.AperFunction*%
%TD*%
D10*
%TO.P,J_SWD1,6*%
%TO.N,GND*%
X160300000Y-116150000D03*
%TO.P,J_SWD1,5*%
%TO.N,/MCU/SWO*%
X160300000Y-117400000D03*
%TO.P,J_SWD1,4*%
%TO.N,/MCU/SWCLK*%
X160300000Y-118650000D03*
%TO.P,J_SWD1,3*%
%TO.N,/MCU/SWDIO*%
X160300000Y-119900000D03*
%TO.P,J_SWD1,2*%
%TO.N,+3V3*%
X160300000Y-121150000D03*
%TO.P,J_SWD1,1*%
%TO.N,/MCU/~RST*%
%TA.AperFunction,ComponentPad*%
G36*
G01*
X160750000Y-122800000D02*
X159850000Y-122800000D01*
G75*
G02*
X159650000Y-122600000I0J200000D01*
G01*
X159650000Y-122200000D01*
G75*
G02*
X159850000Y-122000000I200000J0D01*
G01*
X160750000Y-122000000D01*
G75*
G02*
X160950000Y-122200000I0J-200000D01*
G01*
X160950000Y-122600000D01*
G75*
G02*
X160750000Y-122800000I-200000J0D01*
G01*
G37*
%TD.AperFunction*%
%TD*%
%TO.P,J_CAN2,4*%
%TO.N,+5V*%
X151900000Y-118650000D03*
%TO.P,J_CAN2,3*%
%TO.N,GND*%
X151900000Y-119900000D03*
%TO.P,J_CAN2,2*%
%TO.N,Net-(J_CAN1-Pad2)*%
X151900000Y-121150000D03*
%TO.P,J_CAN2,1*%
%TO.N,Net-(J_CAN1-Pad1)*%
%TA.AperFunction,ComponentPad*%
G36*
G01*
X152350000Y-122800000D02*
X151450000Y-122800000D01*
G75*
G02*
X151250000Y-122600000I0J200000D01*
G01*
X151250000Y-122200000D01*
G75*
G02*
X151450000Y-122000000I200000J0D01*
G01*
X152350000Y-122000000D01*
G75*
G02*
X152550000Y-122200000I0J-200000D01*
G01*
X152550000Y-122600000D01*
G75*
G02*
X152350000Y-122800000I-200000J0D01*
G01*
G37*
%TD.AperFunction*%
%TD*%
%TO.P,J_CAN1,4*%
%TO.N,+5V*%
X156100000Y-118650000D03*
%TO.P,J_CAN1,3*%
%TO.N,GND*%
X156100000Y-119900000D03*
%TO.P,J_CAN1,2*%
%TO.N,Net-(J_CAN1-Pad2)*%
X156100000Y-121150000D03*
%TO.P,J_CAN1,1*%
%TO.N,Net-(J_CAN1-Pad1)*%
%TA.AperFunction,ComponentPad*%
G36*
G01*
X156550000Y-122800000D02*
X155650000Y-122800000D01*
G75*
G02*
X155450000Y-122600000I0J200000D01*
G01*
X155450000Y-122200000D01*
G75*
G02*
X155650000Y-122000000I200000J0D01*
G01*
X156550000Y-122000000D01*
G75*
G02*
X156750000Y-122200000I0J-200000D01*
G01*
X156750000Y-122600000D01*
G75*
G02*
X156550000Y-122800000I-200000J0D01*
G01*
G37*
%TD.AperFunction*%
%TD*%
D18*
%TO.P,J3,4*%
%TO.N,/StepperDriver/coilB_2*%
X137700000Y-100300000D03*
%TO.P,J3,3*%
%TO.N,/StepperDriver/coilB_1*%
X137700000Y-102800000D03*
%TO.P,J3,2*%
%TO.N,/StepperDriver/coilA_1*%
X137700000Y-105300000D03*
%TO.P,J3,1*%
%TO.N,/StepperDriver/coilA_2*%
%TA.AperFunction,ComponentPad*%
G36*
G01*
X138425000Y-108650000D02*
X136975000Y-108650000D01*
G75*
G02*
X136725000Y-108400000I0J250000D01*
G01*
X136725000Y-107200000D01*
G75*
G02*
X136975000Y-106950000I250000J0D01*
G01*
X138425000Y-106950000D01*
G75*
G02*
X138675000Y-107200000I0J-250000D01*
G01*
X138675000Y-108400000D01*
G75*
G02*
X138425000Y-108650000I-250000J0D01*
G01*
G37*
%TD.AperFunction*%
%TD*%
D19*
%TO.P,J2,1*%
%TO.N,GND*%
X146100000Y-122400000D03*
%TD*%
%TO.P,J1,1*%
%TO.N,Net-(J1-Pad1)*%
X146100000Y-118200000D03*
%TD*%
%TO.P,C22,2*%
%TO.N,GND*%
%TA.AperFunction,SMDPad,CuDef*%
G36*
G01*
X135450000Y-99500000D02*
X135950000Y-99500000D01*
G75*
G02*
X136175000Y-99725000I0J-225000D01*
G01*
X136175000Y-100175000D01*
G75*
G02*
X135950000Y-100400000I-225000J0D01*
G01*
X135450000Y-100400000D01*
G75*
G02*
X135225000Y-100175000I0J225000D01*
G01*
X135225000Y-99725000D01*
G75*
G02*
X135450000Y-99500000I225000J0D01*
G01*
G37*
%TD.AperFunction*%
%TO.P,C22,1*%
%TO.N,/StepperDriver/coilB_2*%
%TA.AperFunction,SMDPad,CuDef*%
G36*
G01*
X135450000Y-97950000D02*
X135950000Y-97950000D01*
G75*
G02*
X136175000Y-98175000I0J-225000D01*
G01*
X136175000Y-98625000D01*
G75*
G02*
X135950000Y-98850000I-225000J0D01*
G01*
X135450000Y-98850000D01*
G75*
G02*
X135225000Y-98625000I0J225000D01*
G01*
X135225000Y-98175000D01*
G75*
G02*
X135450000Y-97950000I225000J0D01*
G01*
G37*
%TD.AperFunction*%
%TD*%
%TO.P,C21,2*%
%TO.N,GND*%
%TA.AperFunction,SMDPad,CuDef*%
G36*
G01*
X140800000Y-98350000D02*
X140800000Y-98850000D01*
G75*
G02*
X140575000Y-99075000I-225000J0D01*
G01*
X140125000Y-99075000D01*
G75*
G02*
X139900000Y-98850000I0J225000D01*
G01*
X139900000Y-98350000D01*
G75*
G02*
X140125000Y-98125000I225000J0D01*
G01*
X140575000Y-98125000D01*
G75*
G02*
X140800000Y-98350000I0J-225000D01*
G01*
G37*
%TD.AperFunction*%
%TO.P,C21,1*%
%TO.N,/StepperDriver/senseCoilB*%
%TA.AperFunction,SMDPad,CuDef*%
G36*
G01*
X142350000Y-98350000D02*
X142350000Y-98850000D01*
G75*
G02*
X142125000Y-99075000I-225000J0D01*
G01*
X141675000Y-99075000D01*
G75*
G02*
X141450000Y-98850000I0J225000D01*
G01*
X141450000Y-98350000D01*
G75*
G02*
X141675000Y-98125000I225000J0D01*
G01*
X142125000Y-98125000D01*
G75*
G02*
X142350000Y-98350000I0J-225000D01*
G01*
G37*
%TD.AperFunction*%
%TD*%
%TO.P,C20,2*%
%TO.N,GND*%
%TA.AperFunction,SMDPad,CuDef*%
G36*
G01*
X135950000Y-102300000D02*
X135450000Y-102300000D01*
G75*
G02*
X135225000Y-102075000I0J225000D01*
G01*
X135225000Y-101625000D01*
G75*
G02*
X135450000Y-101400000I225000J0D01*
G01*
X135950000Y-101400000D01*
G75*
G02*
X136175000Y-101625000I0J-225000D01*
G01*
X136175000Y-102075000D01*
G75*
G02*
X135950000Y-102300000I-225000J0D01*
G01*
G37*
%TD.AperFunction*%
%TO.P,C20,1*%
%TO.N,/StepperDriver/coilB_1*%
%TA.AperFunction,SMDPad,CuDef*%
G36*
G01*
X135950000Y-103850000D02*
X135450000Y-103850000D01*
G75*
G02*
X135225000Y-103625000I0J225000D01*
G01*
X135225000Y-103175000D01*
G75*
G02*
X135450000Y-102950000I225000J0D01*
G01*
X135950000Y-102950000D01*
G75*
G02*
X136175000Y-103175000I0J-225000D01*
G01*
X136175000Y-103625000D01*
G75*
G02*
X135950000Y-103850000I-225000J0D01*
G01*
G37*
%TD.AperFunction*%
%TD*%
%TO.P,C19,2*%
%TO.N,GND*%
%TA.AperFunction,SMDPad,CuDef*%
G36*
G01*
X135450000Y-105950000D02*
X135950000Y-105950000D01*
G75*
G02*
X136175000Y-106175000I0J-225000D01*
G01*
X136175000Y-106625000D01*
G75*
G02*
X135950000Y-106850000I-225000J0D01*
G01*
X135450000Y-106850000D01*
G75*
G02*
X135225000Y-106625000I0J225000D01*
G01*
X135225000Y-106175000D01*
G75*
G02*
X135450000Y-105950000I225000J0D01*
G01*
G37*
%TD.AperFunction*%
%TO.P,C19,1*%
%TO.N,/StepperDriver/coilA_1*%
%TA.AperFunction,SMDPad,CuDef*%
G36*
G01*
X135450000Y-104400000D02*
X135950000Y-104400000D01*
G75*
G02*
X136175000Y-104625000I0J-225000D01*
G01*
X136175000Y-105075000D01*
G75*
G02*
X135950000Y-105300000I-225000J0D01*
G01*
X135450000Y-105300000D01*
G75*
G02*
X135225000Y-105075000I0J225000D01*
G01*
X135225000Y-104625000D01*
G75*
G02*
X135450000Y-104400000I225000J0D01*
G01*
G37*
%TD.AperFunction*%
%TD*%
%TO.P,C18,2*%
%TO.N,GND*%
%TA.AperFunction,SMDPad,CuDef*%
G36*
G01*
X140900000Y-109250000D02*
X140900000Y-109750000D01*
G75*
G02*
X140675000Y-109975000I-225000J0D01*
G01*
X140225000Y-109975000D01*
G75*
G02*
X140000000Y-109750000I0J225000D01*
G01*
X140000000Y-109250000D01*
G75*
G02*
X140225000Y-109025000I225000J0D01*
G01*
X140675000Y-109025000D01*
G75*
G02*
X140900000Y-109250000I0J-225000D01*
G01*
G37*
%TD.AperFunction*%
%TO.P,C18,1*%
%TO.N,/StepperDriver/senseCoilA*%
%TA.AperFunction,SMDPad,CuDef*%
G36*
G01*
X142450000Y-109250000D02*
X142450000Y-109750000D01*
G75*
G02*
X142225000Y-109975000I-225000J0D01*
G01*
X141775000Y-109975000D01*
G75*
G02*
X141550000Y-109750000I0J225000D01*
G01*
X141550000Y-109250000D01*
G75*
G02*
X141775000Y-109025000I225000J0D01*
G01*
X142225000Y-109025000D01*
G75*
G02*
X142450000Y-109250000I0J-225000D01*
G01*
G37*
%TD.AperFunction*%
%TD*%
%TO.P,C17,2*%
%TO.N,GND*%
%TA.AperFunction,SMDPad,CuDef*%
G36*
G01*
X135950000Y-108650000D02*
X135450000Y-108650000D01*
G75*
G02*
X135225000Y-108425000I0J225000D01*
G01*
X135225000Y-107975000D01*
G75*
G02*
X135450000Y-107750000I225000J0D01*
G01*
X135950000Y-107750000D01*
G75*
G02*
X136175000Y-107975000I0J-225000D01*
G01*
X136175000Y-108425000D01*
G75*
G02*
X135950000Y-108650000I-225000J0D01*
G01*
G37*
%TD.AperFunction*%
%TO.P,C17,1*%
%TO.N,/StepperDriver/coilA_2*%
%TA.AperFunction,SMDPad,CuDef*%
G36*
G01*
X135950000Y-110200000D02*
X135450000Y-110200000D01*
G75*
G02*
X135225000Y-109975000I0J225000D01*
G01*
X135225000Y-109525000D01*
G75*
G02*
X135450000Y-109300000I225000J0D01*
G01*
X135950000Y-109300000D01*
G75*
G02*
X136175000Y-109525000I0J-225000D01*
G01*
X136175000Y-109975000D01*
G75*
G02*
X135950000Y-110200000I-225000J0D01*
G01*
G37*
%TD.AperFunction*%
%TD*%
%TO.P,C16,2*%
%TO.N,GND*%
%TA.AperFunction,SMDPad,CuDef*%
G36*
G01*
X150725000Y-101350000D02*
X150725000Y-100850000D01*
G75*
G02*
X150950000Y-100625000I225000J0D01*
G01*
X151400000Y-100625000D01*
G75*
G02*
X151625000Y-100850000I0J-225000D01*
G01*
X151625000Y-101350000D01*
G75*
G02*
X151400000Y-101575000I-225000J0D01*
G01*
X150950000Y-101575000D01*
G75*
G02*
X150725000Y-101350000I0J225000D01*
G01*
G37*
%TD.AperFunction*%
%TO.P,C16,1*%
%TO.N,/StepperDriver/internal5VReg*%
%TA.AperFunction,SMDPad,CuDef*%
G36*
G01*
X149175000Y-101350000D02*
X149175000Y-100850000D01*
G75*
G02*
X149400000Y-100625000I225000J0D01*
G01*
X149850000Y-100625000D01*
G75*
G02*
X150075000Y-100850000I0J-225000D01*
G01*
X150075000Y-101350000D01*
G75*
G02*
X149850000Y-101575000I-225000J0D01*
G01*
X149400000Y-101575000D01*
G75*
G02*
X149175000Y-101350000I0J225000D01*
G01*
G37*
%TD.AperFunction*%
%TD*%
%TO.P,C15,2*%
%TO.N,/StepperDriver/chargePumpOut*%
%TA.AperFunction,SMDPad,CuDef*%
G36*
G01*
X146850000Y-99350000D02*
X146850000Y-99850000D01*
G75*
G02*
X146625000Y-100075000I-225000J0D01*
G01*
X146175000Y-100075000D01*
G75*
G02*
X145950000Y-99850000I0J225000D01*
G01*
X145950000Y-99350000D01*
G75*
G02*
X146175000Y-99125000I225000J0D01*
G01*
X146625000Y-99125000D01*
G75*
G02*
X146850000Y-99350000I0J-225000D01*
G01*
G37*
%TD.AperFunction*%
%TO.P,C15,1*%
%TO.N,/StepperDriver/chargePumpIn*%
%TA.AperFunction,SMDPad,CuDef*%
G36*
G01*
X148400000Y-99350000D02*
X148400000Y-99850000D01*
G75*
G02*
X148175000Y-100075000I-225000J0D01*
G01*
X147725000Y-100075000D01*
G75*
G02*
X147500000Y-99850000I0J225000D01*
G01*
X147500000Y-99350000D01*
G75*
G02*
X147725000Y-99125000I225000J0D01*
G01*
X148175000Y-99125000D01*
G75*
G02*
X148400000Y-99350000I0J-225000D01*
G01*
G37*
%TD.AperFunction*%
%TD*%
%TO.P,C14,2*%
%TO.N,GND*%
%TA.AperFunction,SMDPad,CuDef*%
G36*
G01*
X144525000Y-109750000D02*
X144525000Y-109250000D01*
G75*
G02*
X144750000Y-109025000I225000J0D01*
G01*
X145200000Y-109025000D01*
G75*
G02*
X145425000Y-109250000I0J-225000D01*
G01*
X145425000Y-109750000D01*
G75*
G02*
X145200000Y-109975000I-225000J0D01*
G01*
X144750000Y-109975000D01*
G75*
G02*
X144525000Y-109750000I0J225000D01*
G01*
G37*
%TD.AperFunction*%
%TO.P,C14,1*%
%TO.N,VCC*%
%TA.AperFunction,SMDPad,CuDef*%
G36*
G01*
X142975000Y-109750000D02*
X142975000Y-109250000D01*
G75*
G02*
X143200000Y-109025000I225000J0D01*
G01*
X143650000Y-109025000D01*
G75*
G02*
X143875000Y-109250000I0J-225000D01*
G01*
X143875000Y-109750000D01*
G75*
G02*
X143650000Y-109975000I-225000J0D01*
G01*
X143200000Y-109975000D01*
G75*
G02*
X142975000Y-109750000I0J225000D01*
G01*
G37*
%TD.AperFunction*%
%TD*%
%TO.P,C13,2*%
%TO.N,GND*%
%TA.AperFunction,SMDPad,CuDef*%
G36*
G01*
X144450000Y-98650000D02*
X144450000Y-98150000D01*
G75*
G02*
X144675000Y-97925000I225000J0D01*
G01*
X145125000Y-97925000D01*
G75*
G02*
X145350000Y-98150000I0J-225000D01*
G01*
X145350000Y-98650000D01*
G75*
G02*
X145125000Y-98875000I-225000J0D01*
G01*
X144675000Y-98875000D01*
G75*
G02*
X144450000Y-98650000I0J225000D01*
G01*
G37*
%TD.AperFunction*%
%TO.P,C13,1*%
%TO.N,VCC*%
%TA.AperFunction,SMDPad,CuDef*%
G36*
G01*
X142900000Y-98650000D02*
X142900000Y-98150000D01*
G75*
G02*
X143125000Y-97925000I225000J0D01*
G01*
X143575000Y-97925000D01*
G75*
G02*
X143800000Y-98150000I0J-225000D01*
G01*
X143800000Y-98650000D01*
G75*
G02*
X143575000Y-98875000I-225000J0D01*
G01*
X143125000Y-98875000D01*
G75*
G02*
X142900000Y-98650000I0J225000D01*
G01*
G37*
%TD.AperFunction*%
%TD*%
%TO.P,C12,2*%
%TO.N,/StepperDriver/chargePumpVoltage*%
%TA.AperFunction,SMDPad,CuDef*%
G36*
G01*
X149150000Y-99125000D02*
X149650000Y-99125000D01*
G75*
G02*
X149875000Y-99350000I0J-225000D01*
G01*
X149875000Y-99800000D01*
G75*
G02*
X149650000Y-100025000I-225000J0D01*
G01*
X149150000Y-100025000D01*
G75*
G02*
X148925000Y-99800000I0J225000D01*
G01*
X148925000Y-99350000D01*
G75*
G02*
X149150000Y-99125000I225000J0D01*
G01*
G37*
%TD.AperFunction*%
%TO.P,C12,1*%
%TO.N,VCC*%
%TA.AperFunction,SMDPad,CuDef*%
G36*
G01*
X149150000Y-97575000D02*
X149650000Y-97575000D01*
G75*
G02*
X149875000Y-97800000I0J-225000D01*
G01*
X149875000Y-98250000D01*
G75*
G02*
X149650000Y-98475000I-225000J0D01*
G01*
X149150000Y-98475000D01*
G75*
G02*
X148925000Y-98250000I0J225000D01*
G01*
X148925000Y-97800000D01*
G75*
G02*
X149150000Y-97575000I225000J0D01*
G01*
G37*
%TD.AperFunction*%
%TD*%
%TO.P,C11,2*%
%TO.N,GND*%
%TA.AperFunction,SMDPad,CuDef*%
G36*
G01*
X144300000Y-112050001D02*
X144300000Y-110749999D01*
G75*
G02*
X144549999Y-110500000I249999J0D01*
G01*
X145200001Y-110500000D01*
G75*
G02*
X145450000Y-110749999I0J-249999D01*
G01*
X145450000Y-112050001D01*
G75*
G02*
X145200001Y-112300000I-249999J0D01*
G01*
X144549999Y-112300000D01*
G75*
G02*
X144300000Y-112050001I0J249999D01*
G01*
G37*
%TD.AperFunction*%
%TO.P,C11,1*%
%TO.N,VCC*%
%TA.AperFunction,SMDPad,CuDef*%
G36*
G01*
X141350000Y-112050001D02*
X141350000Y-110749999D01*
G75*
G02*
X141599999Y-110500000I249999J0D01*
G01*
X142250001Y-110500000D01*
G75*
G02*
X142500000Y-110749999I0J-249999D01*
G01*
X142500000Y-112050001D01*
G75*
G02*
X142250001Y-112300000I-249999J0D01*
G01*
X141599999Y-112300000D01*
G75*
G02*
X141350000Y-112050001I0J249999D01*
G01*
G37*
%TD.AperFunction*%
%TD*%
%TO.P,C10,2*%
%TO.N,GND*%
%TA.AperFunction,SMDPad,CuDef*%
G36*
G01*
X145825000Y-97150001D02*
X145825000Y-95849999D01*
G75*
G02*
X146074999Y-95600000I249999J0D01*
G01*
X146725001Y-95600000D01*
G75*
G02*
X146975000Y-95849999I0J-249999D01*
G01*
X146975000Y-97150001D01*
G75*
G02*
X146725001Y-97400000I-249999J0D01*
G01*
X146074999Y-97400000D01*
G75*
G02*
X145825000Y-97150001I0J249999D01*
G01*
G37*
%TD.AperFunction*%
%TO.P,C10,1*%
%TO.N,VCC*%
%TA.AperFunction,SMDPad,CuDef*%
G36*
G01*
X142875000Y-97150001D02*
X142875000Y-95849999D01*
G75*
G02*
X143124999Y-95600000I249999J0D01*
G01*
X143775001Y-95600000D01*
G75*
G02*
X144025000Y-95849999I0J-249999D01*
G01*
X144025000Y-97150001D01*
G75*
G02*
X143775001Y-97400000I-249999J0D01*
G01*
X143124999Y-97400000D01*
G75*
G02*
X142875000Y-97150001I0J249999D01*
G01*
G37*
%TD.AperFunction*%
%TD*%
%TO.P,C8,2*%
%TO.N,GND*%
%TA.AperFunction,SMDPad,CuDef*%
G36*
G01*
X148750000Y-109025000D02*
X149250000Y-109025000D01*
G75*
G02*
X149475000Y-109250000I0J-225000D01*
G01*
X149475000Y-109700000D01*
G75*
G02*
X149250000Y-109925000I-225000J0D01*
G01*
X148750000Y-109925000D01*
G75*
G02*
X148525000Y-109700000I0J225000D01*
G01*
X148525000Y-109250000D01*
G75*
G02*
X148750000Y-109025000I225000J0D01*
G01*
G37*
%TD.AperFunction*%
%TO.P,C8,1*%
%TO.N,+3V3*%
%TA.AperFunction,SMDPad,CuDef*%
G36*
G01*
X148750000Y-107475000D02*
X149250000Y-107475000D01*
G75*
G02*
X149475000Y-107700000I0J-225000D01*
G01*
X149475000Y-108150000D01*
G75*
G02*
X149250000Y-108375000I-225000J0D01*
G01*
X148750000Y-108375000D01*
G75*
G02*
X148525000Y-108150000I0J225000D01*
G01*
X148525000Y-107700000D01*
G75*
G02*
X148750000Y-107475000I225000J0D01*
G01*
G37*
%TD.AperFunction*%
%TD*%
D20*
%TO.N,GND*%
X139400000Y-105500000D03*
X139400000Y-106200000D03*
X139400000Y-106900000D03*
X139400000Y-102700000D03*
X139400000Y-102000000D03*
X139400000Y-101300000D03*
X145400000Y-108000000D03*
X135700000Y-107300000D03*
X135700000Y-100900000D03*
X145900000Y-98000000D03*
X147672545Y-111058665D03*
X151100000Y-100000000D03*
X155000000Y-114500000D03*
X159300000Y-107500000D03*
X159100000Y-118400000D03*
X159100000Y-119600000D03*
X164692872Y-102753125D03*
X167302787Y-103313548D03*
X167200000Y-110300000D03*
X160600000Y-99900000D03*
X162700000Y-99200000D03*
X163300000Y-102700000D03*
X160700000Y-97600000D03*
X154200000Y-99400000D03*
X156699996Y-94800000D03*
X165900000Y-114187798D03*
X162047981Y-111220444D03*
X150200000Y-110571000D03*
X159200000Y-114300000D03*
X158950000Y-104750000D03*
X167500000Y-108100000D03*
X160940452Y-111215651D03*
X150000000Y-106100000D03*
X153200000Y-102300000D03*
X156300000Y-102100000D03*
X155905229Y-106694771D03*
X148900000Y-116600000D03*
X157600000Y-111400000D03*
X166500000Y-106300000D03*
X163300000Y-109900000D03*
%TO.N,+3V3*%
X155000000Y-115700000D03*
X165600000Y-102700000D03*
X167400000Y-104200000D03*
X167541689Y-111082678D03*
X165800000Y-110400000D03*
X164700000Y-110300000D03*
X155500000Y-111471000D03*
X158700000Y-101300000D03*
X157000000Y-102900000D03*
X160070856Y-110970355D03*
X155000000Y-107000000D03*
X154090219Y-107801761D03*
%TO.N,+5V*%
X169204001Y-116604001D03*
X154800000Y-89800000D03*
%TO.N,VCC*%
X143400000Y-106200000D03*
X143100000Y-106800000D03*
X143200000Y-101300000D03*
X143600000Y-102100000D03*
X143600000Y-112000000D03*
X143600000Y-111300000D03*
X143600000Y-110600000D03*
%TO.N,/StepperDriver/coilB_2*%
X144700000Y-99500000D03*
X144600000Y-100400000D03*
%TO.N,/StepperDriver/coilB_1*%
X141500000Y-103600000D03*
X139500000Y-103600000D03*
%TO.N,/StepperDriver/coilA_1*%
X142100000Y-104500000D03*
X140500000Y-104500000D03*
%TO.N,/StepperDriver/coilA_2*%
X144700000Y-107500000D03*
X144700000Y-108400000D03*
%TO.N,/MCU/SWO*%
X159300000Y-108300000D03*
%TO.N,/MCU/SWCLK*%
X156300000Y-111000000D03*
%TO.N,/MCU/SWDIO*%
X160118148Y-114387979D03*
%TO.N,/MCU/~RST*%
X162451724Y-102699775D03*
X162000000Y-104400000D03*
X160400000Y-106100002D03*
X152900000Y-98000000D03*
%TO.N,/StepperDriver/~EN*%
X155300000Y-101829000D03*
X147700000Y-97000000D03*
X148512404Y-95787596D03*
%TO.N,Net-(R4-Pad1)*%
X150100000Y-106941990D03*
%TO.N,/MCU/I2C2_SCL*%
X166900000Y-108800000D03*
%TO.N,/MCU/I2C2_SDA*%
X166448185Y-109640058D03*
%TO.N,/MCU/I2C1_SDA*%
X155900000Y-102800000D03*
%TO.N,/MCU/I2C1_SCL*%
X152700000Y-102929000D03*
%TO.N,Net-(C34-Pad2)*%
X162200000Y-99800000D03*
%TO.N,Net-(R19-Pad1)*%
X161352592Y-99905926D03*
%TO.N,/MCU/tempMotor*%
X154800000Y-113133010D03*
X163874562Y-109333179D03*
X147700000Y-120800000D03*
X143400000Y-123500000D03*
X167487526Y-106928423D03*
%TO.N,/inputCurrent*%
X153400000Y-112700009D03*
X167502410Y-106178568D03*
X163270691Y-108674990D03*
%TO.N,Net-(R23-Pad2)*%
X142400000Y-123175010D03*
X148000000Y-119500000D03*
%TO.N,Net-(J_CAN1-Pad2)*%
X153000000Y-114500000D03*
%TO.N,Net-(J_CAN1-Pad1)*%
X153194778Y-115994778D03*
%TO.N,/MCU/Stepper_UART*%
X159383215Y-106376643D03*
%TO.N,/MCU/LED_RED*%
X167100000Y-100000000D03*
%TO.N,/MCU/LED_GREEN*%
X166200000Y-99900000D03*
%TD*%
D21*
%TO.N,GND*%
X144800000Y-106550000D02*
X144800000Y-105100000D01*
X145300000Y-102600000D02*
X145800000Y-103100000D01*
X145300000Y-101650000D02*
X145300000Y-102600000D01*
X147300000Y-102600000D02*
X146800000Y-103100000D01*
X147300000Y-101650000D02*
X147300000Y-102600000D01*
X145800000Y-106550000D02*
X145800000Y-104100000D01*
X148250000Y-105100000D02*
X146800000Y-105100000D01*
X135700000Y-108200000D02*
X135700000Y-107300000D01*
X135700000Y-107300000D02*
X135700000Y-106400000D01*
X135700000Y-101850000D02*
X135700000Y-100900000D01*
X135700000Y-100900000D02*
X135700000Y-99950000D01*
X140450000Y-106850000D02*
X140400000Y-106800000D01*
X140450000Y-109500000D02*
X140450000Y-106850000D01*
X140350000Y-101250000D02*
X140400000Y-101300000D01*
X140350000Y-98600000D02*
X140350000Y-101250000D01*
X144875000Y-109600000D02*
X144975000Y-109500000D01*
X144875000Y-111400000D02*
X144875000Y-109600000D01*
X145400000Y-109075000D02*
X145400000Y-108000000D01*
X144975000Y-109500000D02*
X145400000Y-109075000D01*
X145500000Y-98400000D02*
X145900000Y-98000000D01*
X144900000Y-98400000D02*
X145500000Y-98400000D01*
X146300000Y-96600000D02*
X146400000Y-96500000D01*
X146300000Y-97500000D02*
X146300000Y-96600000D01*
X145900000Y-97900000D02*
X146300000Y-97500000D01*
X145900000Y-98000000D02*
X145900000Y-97900000D01*
X150345000Y-109475000D02*
X150595000Y-109225000D01*
X149000000Y-109475000D02*
X150345000Y-109475000D01*
X147300000Y-110686120D02*
X147672545Y-111058665D01*
X147300000Y-109825000D02*
X147300000Y-110686120D01*
D22*
X146300000Y-103600000D02*
X145800000Y-104100000D01*
X148250000Y-103600000D02*
X146300000Y-103600000D01*
X146800000Y-103100000D02*
X145800000Y-104100000D01*
X148250000Y-103100000D02*
X146800000Y-103100000D01*
D21*
X151175000Y-100075000D02*
X151100000Y-100000000D01*
X151175000Y-101000000D02*
X151175000Y-100075000D01*
D22*
X155035000Y-114465000D02*
X155000000Y-114500000D01*
D21*
X156575000Y-114465000D02*
X155035000Y-114465000D01*
D22*
X164692872Y-102676206D02*
X164692872Y-102753125D01*
X165000000Y-102369078D02*
X164692872Y-102676206D01*
X165000000Y-101325000D02*
X165000000Y-102369078D01*
X168925000Y-103750000D02*
X167880922Y-103750000D01*
X167880922Y-103750000D02*
X167444470Y-103313548D01*
D21*
X167444470Y-103313548D02*
X167302787Y-103313548D01*
D22*
X168925000Y-110250000D02*
X167250000Y-110250000D01*
X167250000Y-110250000D02*
X167200000Y-110300000D01*
D23*
X150595000Y-110176000D02*
X150200000Y-110571000D01*
X150595000Y-109225000D02*
X150595000Y-110176000D01*
D22*
X160000000Y-113575205D02*
X159275205Y-114300000D01*
X160000000Y-112675000D02*
X160000000Y-113575205D01*
X159275205Y-114300000D02*
X159200000Y-114300000D01*
X158774264Y-103750000D02*
X158950000Y-103925736D01*
X157575000Y-103750000D02*
X158774264Y-103750000D01*
X158950000Y-103925736D02*
X158950000Y-104750000D01*
D23*
X138300000Y-118550000D02*
X139500000Y-119750000D01*
X138300000Y-115525000D02*
X138300000Y-118550000D01*
D22*
X142250000Y-91000000D02*
X139500000Y-93750000D01*
X144400000Y-91000000D02*
X142250000Y-91000000D01*
X163398441Y-91648441D02*
X165500000Y-93750000D01*
X160431135Y-91648441D02*
X163398441Y-91648441D01*
X154200000Y-98446306D02*
X154727873Y-97918433D01*
X154200000Y-99400000D02*
X154200000Y-98446306D01*
X160000000Y-111828642D02*
X160257652Y-111570990D01*
X160585113Y-111570990D02*
X160940452Y-111215651D01*
X160000000Y-112675000D02*
X160000000Y-111828642D01*
X160257652Y-111570990D02*
X160585113Y-111570990D01*
X154405000Y-105194542D02*
X155905229Y-106694771D01*
X154405000Y-104275000D02*
X154405000Y-105194542D01*
X158450000Y-105250000D02*
X158950000Y-104750000D01*
X157575000Y-105250000D02*
X158450000Y-105250000D01*
X150000000Y-104870000D02*
X150595000Y-104275000D01*
X150000000Y-106100000D02*
X150000000Y-104870000D01*
%TO.N,+3V3*%
X147300000Y-106550000D02*
X147850000Y-106550000D01*
D21*
X148800000Y-107925000D02*
X148854010Y-107870990D01*
X149000000Y-107700000D02*
X147950000Y-106650000D01*
X149000000Y-107925000D02*
X149000000Y-107700000D01*
D22*
X147950000Y-106650000D02*
X148000000Y-106700000D01*
X147850000Y-106550000D02*
X147950000Y-106650000D01*
D21*
X153135000Y-108250000D02*
X153135000Y-109225000D01*
X152755990Y-107870990D02*
X153135000Y-108250000D01*
X149000000Y-107925000D02*
X149054010Y-107870990D01*
D22*
X155035000Y-115735000D02*
X155000000Y-115700000D01*
D21*
X156575000Y-115735000D02*
X155035000Y-115735000D01*
D22*
X165500000Y-102600000D02*
X165500000Y-101325000D01*
X165600000Y-102700000D02*
X165500000Y-102600000D01*
X167450000Y-104250000D02*
X167400000Y-104200000D01*
X168925000Y-104250000D02*
X167450000Y-104250000D01*
D21*
X167845357Y-110779010D02*
X167541689Y-111082678D01*
X168925000Y-110779010D02*
X167845357Y-110779010D01*
D22*
X158725000Y-101325000D02*
X158700000Y-101300000D01*
X159500000Y-101325000D02*
X158725000Y-101325000D01*
D21*
X157575000Y-103220990D02*
X157254010Y-102900000D01*
X157254010Y-102900000D02*
X157000000Y-102900000D01*
X159470990Y-112675000D02*
X159470990Y-111570221D01*
X159470990Y-111570221D02*
X160070856Y-110970355D01*
D22*
X155304012Y-111666988D02*
X155500000Y-111471000D01*
X149258012Y-111666988D02*
X155304012Y-111666988D01*
X149025000Y-111900000D02*
X149258012Y-111666988D01*
X148625000Y-111900000D02*
X149025000Y-111900000D01*
X150420990Y-95295990D02*
X151225000Y-96100000D01*
X148995990Y-95295990D02*
X150420990Y-95295990D01*
X148350000Y-94650000D02*
X148995990Y-95295990D01*
X148350000Y-94000000D02*
X148350000Y-94650000D01*
D23*
X149179010Y-107745990D02*
X149000000Y-107925000D01*
X154145990Y-107745990D02*
X149179010Y-107745990D01*
X154405000Y-108005000D02*
X154145990Y-107745990D01*
X154405000Y-109225000D02*
X154405000Y-108005000D01*
X154254010Y-107745990D02*
X155000000Y-107000000D01*
X154145990Y-107745990D02*
X154254010Y-107745990D01*
D22*
X138500000Y-112900000D02*
X136500000Y-112900000D01*
X146900000Y-116100000D02*
X141700000Y-116100000D01*
X141700000Y-116100000D02*
X138500000Y-112900000D01*
X148500000Y-117700000D02*
X146900000Y-116100000D01*
X153000000Y-117700000D02*
X148500000Y-117700000D01*
X155000000Y-115700000D02*
X153000000Y-117700000D01*
D23*
%TO.N,+5V*%
X151900000Y-118650000D02*
X156100000Y-118650000D01*
X169204001Y-116604001D02*
X169204001Y-116604001D01*
D21*
X154000000Y-90600000D02*
X154800000Y-89800000D01*
X154000000Y-90800000D02*
X154000000Y-90600000D01*
X154000000Y-92951006D02*
X154000000Y-90800000D01*
X157305286Y-96256292D02*
X154000000Y-92951006D01*
X157305286Y-99012480D02*
X157305286Y-96256292D01*
D23*
X169500000Y-121078002D02*
X169500000Y-116900000D01*
X167124001Y-123454001D02*
X169500000Y-121078002D01*
X159708379Y-123454001D02*
X167124001Y-123454001D01*
X158200000Y-121945622D02*
X159708379Y-123454001D01*
X158200000Y-120471537D02*
X158200000Y-121945622D01*
X169500000Y-116900000D02*
X169204001Y-116604001D01*
X156378463Y-118650000D02*
X158200000Y-120471537D01*
X156100000Y-118650000D02*
X156378463Y-118650000D01*
D21*
%TO.N,VCC*%
X143350000Y-106150000D02*
X143400000Y-106200000D01*
X149400000Y-97635444D02*
X149400000Y-98025000D01*
X146985546Y-95220990D02*
X149400000Y-97635444D01*
X144729010Y-95220990D02*
X146985546Y-95220990D01*
X143450000Y-96500000D02*
X144729010Y-95220990D01*
%TO.N,/StepperDriver/chargePumpVoltage*%
X147600000Y-100700000D02*
X148325000Y-100700000D01*
D22*
X147300000Y-100700000D02*
X147600000Y-100700000D01*
X147296320Y-100700000D02*
X147300000Y-100700000D01*
X146800000Y-101196320D02*
X147296320Y-100700000D01*
X146800000Y-101650000D02*
X146800000Y-101196320D01*
D21*
X148325000Y-100650000D02*
X149400000Y-99575000D01*
X148325000Y-100700000D02*
X148325000Y-100650000D01*
D22*
%TO.N,/StepperDriver/chargePumpOut*%
X145800000Y-101650000D02*
X145800000Y-100900000D01*
D21*
X145800000Y-100200000D02*
X146400000Y-99600000D01*
X145800000Y-100900000D02*
X145800000Y-100200000D01*
D22*
%TO.N,/StepperDriver/chargePumpIn*%
X146345990Y-101554010D02*
X146345990Y-100954010D01*
X146300000Y-101600000D02*
X146345990Y-101554010D01*
X146300000Y-101650000D02*
X146300000Y-101600000D01*
X146345990Y-100954010D02*
X146400000Y-100900000D01*
D21*
X147700000Y-99600000D02*
X147950000Y-99600000D01*
X146400000Y-100900000D02*
X147700000Y-99600000D01*
D22*
%TO.N,/StepperDriver/internal5VReg*%
X148250000Y-102600000D02*
X148250000Y-102250000D01*
X148250000Y-102250000D02*
X148500000Y-102000000D01*
D21*
X149500000Y-101000000D02*
X149625000Y-101000000D01*
X148500000Y-102000000D02*
X149500000Y-101000000D01*
%TO.N,/StepperDriver/coilB_2*%
X135800000Y-98400000D02*
X137700000Y-100300000D01*
X135700000Y-98400000D02*
X135800000Y-98400000D01*
%TO.N,/StepperDriver/senseCoilA*%
X142000000Y-106900000D02*
X141900000Y-106800000D01*
X142000000Y-109500000D02*
X142000000Y-106900000D01*
%TO.N,/StepperDriver/coilB_1*%
X137100000Y-103400000D02*
X137700000Y-102800000D01*
X135700000Y-103400000D02*
X137100000Y-103400000D01*
%TO.N,/StepperDriver/coilA_1*%
X137250000Y-104850000D02*
X137700000Y-105300000D01*
X135700000Y-104850000D02*
X137250000Y-104850000D01*
%TO.N,/StepperDriver/senseCoilB*%
X141900000Y-101300000D02*
X141900000Y-98600000D01*
%TO.N,/StepperDriver/coilA_2*%
X135750000Y-109750000D02*
X137700000Y-107800000D01*
X135700000Y-109750000D02*
X135750000Y-109750000D01*
D22*
%TO.N,/MCU/SWO*%
X158421358Y-107750000D02*
X157575000Y-107750000D01*
X158971358Y-108300000D02*
X158421358Y-107750000D01*
X159300000Y-108300000D02*
X158971358Y-108300000D01*
%TO.N,/MCU/SWCLK*%
X156550000Y-110750000D02*
X157575000Y-110750000D01*
X156300000Y-111000000D02*
X156550000Y-110750000D01*
%TO.N,/MCU/SWDIO*%
X160500000Y-114006127D02*
X160118148Y-114387979D01*
X160500000Y-112675000D02*
X160500000Y-114006127D01*
%TO.N,/MCU/~RST*%
X162500000Y-102651499D02*
X162451724Y-102699775D01*
X162500000Y-101325000D02*
X162500000Y-102651499D01*
X162000000Y-104400000D02*
X160400000Y-106000000D01*
X160400000Y-106000000D02*
X160400000Y-106100002D01*
X151000000Y-91000000D02*
X153100000Y-93100000D01*
X153100000Y-97800000D02*
X152900000Y-98000000D01*
X153100000Y-93100000D02*
X153100000Y-97800000D01*
D21*
%TO.N,Net-(OPT1-Pad1)*%
X157608116Y-90800000D02*
X157853722Y-90554394D01*
X155650000Y-90800000D02*
X157608116Y-90800000D01*
D22*
%TO.N,/StepperDriver/~EN*%
X158504378Y-102833020D02*
X157571358Y-101900000D01*
X160409694Y-102833020D02*
X158504378Y-102833020D01*
X161000000Y-102242714D02*
X160409694Y-102833020D01*
X161000000Y-101325000D02*
X161000000Y-102242714D01*
X155558001Y-101570999D02*
X155300000Y-101829000D01*
X157242357Y-101570999D02*
X155558001Y-101570999D01*
X157571358Y-101900000D02*
X157242357Y-101570999D01*
X145437970Y-99303540D02*
X145941510Y-98800000D01*
X145437970Y-100558350D02*
X145437970Y-99303540D01*
X144800000Y-101196320D02*
X145437970Y-100558350D01*
X144800000Y-101650000D02*
X144800000Y-101196320D01*
X145941510Y-98800000D02*
X145945520Y-98795990D01*
X147700000Y-97291980D02*
X147700000Y-97000000D01*
X146195990Y-98795990D02*
X147700000Y-97291980D01*
X145945520Y-98795990D02*
X146195990Y-98795990D01*
X148824808Y-96100000D02*
X148512404Y-95787596D01*
X149575000Y-96100000D02*
X148824808Y-96100000D01*
%TO.N,Net-(R4-Pad1)*%
X149591990Y-106941990D02*
X148250000Y-105600000D01*
X150100000Y-106941990D02*
X149591990Y-106941990D01*
%TO.N,/StepperDriver/Diag*%
X149117576Y-104100000D02*
X148250000Y-104100000D01*
X151200000Y-102300000D02*
X150917576Y-102300000D01*
X157400000Y-101000000D02*
X152500000Y-101000000D01*
X150917576Y-102300000D02*
X149117576Y-104100000D01*
X158829010Y-102429010D02*
X157400000Y-101000000D01*
X160242348Y-102429010D02*
X158829010Y-102429010D01*
X160500000Y-102171358D02*
X160242348Y-102429010D01*
X152500000Y-101000000D02*
X151200000Y-102300000D01*
X160500000Y-101325000D02*
X160500000Y-102171358D01*
%TO.N,/MCU/I2C2_SCL*%
X168925000Y-109250000D02*
X167750000Y-109250000D01*
X167350000Y-109250000D02*
X166900000Y-108800000D01*
X167750000Y-109250000D02*
X167350000Y-109250000D01*
%TO.N,/MCU/I2C2_SDA*%
X168925000Y-109750000D02*
X167580922Y-109750000D01*
X166479126Y-109670999D02*
X166448185Y-109640058D01*
X167501921Y-109670999D02*
X166479126Y-109670999D01*
X167580922Y-109750000D02*
X167501921Y-109670999D01*
%TO.N,/MCU/I2C1_SDA*%
X156000000Y-105300000D02*
X156000000Y-104700000D01*
X156450000Y-105750000D02*
X156000000Y-105300000D01*
X157575000Y-105750000D02*
X156450000Y-105750000D01*
X156000000Y-104700000D02*
X156000000Y-104900000D01*
X156000000Y-103646220D02*
X156000000Y-104700000D01*
X151865000Y-104275000D02*
X151865000Y-105250000D01*
X155826890Y-102873110D02*
X155900000Y-102800000D01*
X155226890Y-102873110D02*
X155826890Y-102873110D01*
X155226890Y-102873110D02*
X156000000Y-103646220D01*
X154053780Y-101700000D02*
X155226890Y-102873110D01*
X152500000Y-101700000D02*
X154053780Y-101700000D01*
X151865000Y-102335000D02*
X152500000Y-101700000D01*
X151865000Y-104275000D02*
X151865000Y-102335000D01*
%TO.N,/MCU/I2C1_SCL*%
X155500000Y-103717576D02*
X155500000Y-105400000D01*
X154753414Y-102970990D02*
X155500000Y-103717576D01*
X155500000Y-105400000D02*
X156350000Y-106250000D01*
X153464010Y-102970990D02*
X154753414Y-102970990D01*
X153135000Y-103300000D02*
X153464010Y-102970990D01*
X156350000Y-106250000D02*
X157575000Y-106250000D01*
X153135000Y-104275000D02*
X153135000Y-103300000D01*
X153135000Y-104275000D02*
X153135000Y-105035000D01*
X153135000Y-103364000D02*
X153135000Y-104275000D01*
X152700000Y-102929000D02*
X153135000Y-103364000D01*
%TO.N,/CAN_RX*%
X161500000Y-114671357D02*
X161500000Y-112675000D01*
X158164025Y-117005000D02*
X159748035Y-115420990D01*
X156575000Y-117005000D02*
X158164025Y-117005000D01*
X159748035Y-115420990D02*
X160750367Y-115420990D01*
X160750367Y-115420990D02*
X161500000Y-114671357D01*
%TO.N,/CAN_TX*%
X156995000Y-113195000D02*
X156575000Y-113195000D01*
X158816979Y-115016979D02*
X156995000Y-113195000D01*
X160583021Y-115016979D02*
X158816979Y-115016979D01*
X161000000Y-114600000D02*
X160583021Y-115016979D01*
X161000000Y-112675000D02*
X161000000Y-114600000D01*
%TO.N,/StepperDriver/Vref*%
X147000000Y-107795660D02*
X146300000Y-107095660D01*
X146300000Y-107095660D02*
X146300000Y-106550000D01*
X147000000Y-108175000D02*
X147000000Y-107795660D01*
X146495990Y-111420990D02*
X146975000Y-111900000D01*
X146495990Y-108979010D02*
X146495990Y-111420990D01*
X147300000Y-108175000D02*
X146495990Y-108979010D01*
%TO.N,Net-(C34-Pad2)*%
X162000000Y-100000000D02*
X162200000Y-99800000D01*
X162000000Y-101325000D02*
X162000000Y-100000000D01*
%TO.N,Net-(R19-Pad1)*%
X161500000Y-100053334D02*
X161352592Y-99905926D01*
X161500000Y-101325000D02*
X161500000Y-100053334D01*
D23*
%TO.N,/MCU/tempMotor*%
X138025000Y-114150000D02*
X138300000Y-113875000D01*
X136500000Y-114150000D02*
X138025000Y-114150000D01*
D22*
X167665949Y-106750000D02*
X167487526Y-106928423D01*
X168925000Y-106750000D02*
X167665949Y-106750000D01*
%TO.N,/inputCurrent*%
X167573842Y-106250000D02*
X167502410Y-106178568D01*
X168925000Y-106250000D02*
X167573842Y-106250000D01*
X161526290Y-108674990D02*
X163270691Y-108674990D01*
X157801270Y-112400010D02*
X161526290Y-108674990D01*
X153699999Y-112400010D02*
X157801270Y-112400010D01*
X153400000Y-112700009D02*
X153699999Y-112400010D01*
%TO.N,Net-(J_CAN1-Pad2)*%
X152965000Y-114465000D02*
X153000000Y-114500000D01*
X151625000Y-114465000D02*
X152965000Y-114465000D01*
X151900000Y-121150000D02*
X156100000Y-121150000D01*
%TO.N,Net-(J_CAN1-Pad1)*%
X151625000Y-115735000D02*
X152935000Y-115735000D01*
X152935000Y-115735000D02*
X153194778Y-115994778D01*
X151900000Y-122400000D02*
X156100000Y-122400000D01*
%TO.N,/MCU/Stepper_UART*%
X159929001Y-106922429D02*
X159383215Y-106376643D01*
X159929001Y-108601921D02*
X159929001Y-106922429D01*
X158998079Y-108929001D02*
X159601921Y-108929001D01*
X159601921Y-108929001D02*
X159929001Y-108601921D01*
X158819078Y-108750000D02*
X158998079Y-108929001D01*
X157575000Y-108750000D02*
X158819078Y-108750000D01*
%TO.N,/MCU/LED_RED*%
X167000000Y-100100000D02*
X167100000Y-100000000D01*
X167000000Y-101325000D02*
X167000000Y-100100000D01*
%TO.N,/MCU/LED_GREEN*%
X166500000Y-100200000D02*
X166200000Y-99900000D01*
X166500000Y-101325000D02*
X166500000Y-100200000D01*
%TO.N,/StepperDriver/Direction*%
X158679010Y-110007652D02*
X158442348Y-109770990D01*
X158671358Y-110500000D02*
X158679010Y-110492348D01*
X158679010Y-111097992D02*
X158679010Y-110507652D01*
X145300000Y-106550000D02*
X145300000Y-107003680D01*
X157575000Y-109770990D02*
X157575000Y-109750000D01*
X145300000Y-107003680D02*
X146029001Y-107732681D01*
X146555876Y-112704010D02*
X147394124Y-112704010D01*
X158679010Y-110492348D02*
X158679010Y-110007652D01*
X146200000Y-112700000D02*
X146551866Y-112700000D01*
X147394124Y-112704010D02*
X147398134Y-112700000D01*
X146029001Y-107732681D02*
X146029001Y-112529001D01*
X158442348Y-109770990D02*
X157575000Y-109770990D01*
X153830922Y-112100000D02*
X157677002Y-112100000D01*
X146029001Y-112529001D02*
X146200000Y-112700000D01*
X158679010Y-110507652D02*
X158671358Y-110500000D01*
X146551866Y-112700000D02*
X146555876Y-112704010D01*
X157677002Y-112100000D02*
X158679010Y-111097992D01*
X147398134Y-112700000D02*
X148201866Y-112700000D01*
X149677135Y-112070999D02*
X153801921Y-112070999D01*
X148201866Y-112700000D02*
X148205876Y-112704010D01*
X153801921Y-112070999D02*
X153830922Y-112100000D01*
X148205876Y-112704010D02*
X149044124Y-112704010D01*
X149044124Y-112704010D02*
X149677135Y-112070999D01*
%TO.N,/StepperDriver/Step*%
X154769078Y-111200000D02*
X155719078Y-110250000D01*
X148200000Y-110100000D02*
X149300000Y-111200000D01*
X148200000Y-109933490D02*
X148200000Y-110100000D01*
X148195990Y-107795990D02*
X148195990Y-109929480D01*
X147096320Y-107300000D02*
X147700000Y-107300000D01*
X155719078Y-110250000D02*
X157575000Y-110250000D01*
X149300000Y-111200000D02*
X154769078Y-111200000D01*
X148195990Y-109929480D02*
X148200000Y-109933490D01*
X147700000Y-107300000D02*
X148195990Y-107795990D01*
X146800000Y-106550000D02*
X146800000Y-107003680D01*
X146800000Y-107003680D02*
X147096320Y-107300000D01*
%TO.N,/MCU/endstopRight*%
X160000000Y-100478642D02*
X160000000Y-101325000D01*
X159742348Y-100220990D02*
X160000000Y-100478642D01*
X159257652Y-100220990D02*
X159742348Y-100220990D01*
X159020990Y-100457652D02*
X159257652Y-100220990D01*
X156709042Y-100457652D02*
X159020990Y-100457652D01*
X156016579Y-99765189D02*
X156709042Y-100457652D01*
X156016579Y-98465456D02*
X156016579Y-99765189D01*
%TD*%
D24*
%TO.N,/StepperDriver/coilA_2*%
X144390000Y-106198507D02*
X144388622Y-106212500D01*
X144388622Y-106887500D01*
X144395326Y-106955563D01*
X144415179Y-107021010D01*
X144447419Y-107081326D01*
X144490806Y-107134194D01*
X144515000Y-107154049D01*
X144515000Y-107200000D01*
X144516633Y-107216583D01*
X144521470Y-107232528D01*
X144529325Y-107247223D01*
X144539896Y-107260104D01*
X144552777Y-107270675D01*
X144567472Y-107278530D01*
X144583417Y-107283367D01*
X144600000Y-107285000D01*
X144915000Y-107285000D01*
X144915000Y-107672880D01*
X144881579Y-107722898D01*
X144837481Y-107829362D01*
X144815000Y-107942382D01*
X144815000Y-108057618D01*
X144837481Y-108170638D01*
X144881579Y-108277102D01*
X144915000Y-108327120D01*
X144915000Y-108615000D01*
X144185000Y-108615000D01*
X144185000Y-106085000D01*
X144390000Y-106085000D01*
X144390000Y-106198507D01*
%TA.AperFunction,Conductor*%
D25*
G36*
X144390000Y-106198507D02*
G01*
X144388622Y-106212500D01*
X144388622Y-106887500D01*
X144395326Y-106955563D01*
X144415179Y-107021010D01*
X144447419Y-107081326D01*
X144490806Y-107134194D01*
X144515000Y-107154049D01*
X144515000Y-107200000D01*
X144516633Y-107216583D01*
X144521470Y-107232528D01*
X144529325Y-107247223D01*
X144539896Y-107260104D01*
X144552777Y-107270675D01*
X144567472Y-107278530D01*
X144583417Y-107283367D01*
X144600000Y-107285000D01*
X144915000Y-107285000D01*
X144915000Y-107672880D01*
X144881579Y-107722898D01*
X144837481Y-107829362D01*
X144815000Y-107942382D01*
X144815000Y-108057618D01*
X144837481Y-108170638D01*
X144881579Y-108277102D01*
X144915000Y-108327120D01*
X144915000Y-108615000D01*
X144185000Y-108615000D01*
X144185000Y-106085000D01*
X144390000Y-106085000D01*
X144390000Y-106198507D01*
G37*
%TD.AperFunction*%
%TD*%
D24*
%TO.N,/StepperDriver/coilB_2*%
X144915000Y-100559147D02*
X144705403Y-100726825D01*
X144677765Y-100710399D01*
X144567637Y-100671455D01*
X144488250Y-100657000D01*
X144340000Y-100805250D01*
X144340000Y-101481000D01*
X144388622Y-101481000D01*
X144388622Y-101819000D01*
X144340000Y-101819000D01*
X144340000Y-101839000D01*
X144260000Y-101839000D01*
X144260000Y-101819000D01*
X144185000Y-101819000D01*
X144185000Y-101481000D01*
X144260000Y-101481000D01*
X144260000Y-100805250D01*
X144185000Y-100730250D01*
X144185000Y-99285000D01*
X144915000Y-99285000D01*
X144915000Y-100559147D01*
%TA.AperFunction,Conductor*%
D25*
G36*
X144915000Y-100559147D02*
G01*
X144705403Y-100726825D01*
X144677765Y-100710399D01*
X144567637Y-100671455D01*
X144488250Y-100657000D01*
X144340000Y-100805250D01*
X144340000Y-101481000D01*
X144388622Y-101481000D01*
X144388622Y-101819000D01*
X144340000Y-101819000D01*
X144340000Y-101839000D01*
X144260000Y-101839000D01*
X144260000Y-101819000D01*
X144185000Y-101819000D01*
X144185000Y-101481000D01*
X144260000Y-101481000D01*
X144260000Y-100805250D01*
X144185000Y-100730250D01*
X144185000Y-99285000D01*
X144915000Y-99285000D01*
X144915000Y-100559147D01*
G37*
%TD.AperFunction*%
%TD*%
D24*
%TO.N,/StepperDriver/senseCoilA*%
X143615000Y-105115000D02*
X142500000Y-105115000D01*
X142483417Y-105116633D01*
X142467472Y-105121470D01*
X142452777Y-105129325D01*
X142439896Y-105139896D01*
X142429325Y-105152777D01*
X142421470Y-105167472D01*
X142416633Y-105183417D01*
X142415000Y-105200000D01*
X142415000Y-108415000D01*
X141485000Y-108415000D01*
X141485000Y-105085000D01*
X143615000Y-105085000D01*
X143615000Y-105115000D01*
%TA.AperFunction,Conductor*%
D25*
G36*
X143615000Y-105115000D02*
G01*
X142500000Y-105115000D01*
X142483417Y-105116633D01*
X142467472Y-105121470D01*
X142452777Y-105129325D01*
X142439896Y-105139896D01*
X142429325Y-105152777D01*
X142421470Y-105167472D01*
X142416633Y-105183417D01*
X142415000Y-105200000D01*
X142415000Y-108415000D01*
X141485000Y-108415000D01*
X141485000Y-105085000D01*
X143615000Y-105085000D01*
X143615000Y-105115000D01*
G37*
%TD.AperFunction*%
%TD*%
D24*
%TO.N,GND*%
X140815000Y-108415000D02*
X139085000Y-108415000D01*
X139085000Y-105285000D01*
X140815000Y-105285000D01*
X140815000Y-108415000D01*
%TA.AperFunction,Conductor*%
D25*
G36*
X140815000Y-108415000D02*
G01*
X139085000Y-108415000D01*
X139085000Y-105285000D01*
X140815000Y-105285000D01*
X140815000Y-108415000D01*
G37*
%TD.AperFunction*%
%TD*%
D24*
%TO.N,/StepperDriver/coilA_1*%
X142690179Y-104296010D02*
X142722419Y-104356326D01*
X142765806Y-104409194D01*
X142818674Y-104452581D01*
X142878990Y-104484821D01*
X142944437Y-104504674D01*
X143012500Y-104511378D01*
X143687500Y-104511378D01*
X143715000Y-104508669D01*
X143715000Y-104691331D01*
X143687500Y-104688622D01*
X143012500Y-104688622D01*
X142944437Y-104695326D01*
X142879580Y-104715000D01*
X138800000Y-104715000D01*
X138783417Y-104716633D01*
X138767472Y-104721470D01*
X138752777Y-104729325D01*
X138739896Y-104739896D01*
X138729325Y-104752777D01*
X138721470Y-104767472D01*
X138716633Y-104783417D01*
X138715000Y-104800000D01*
X138715000Y-106315000D01*
X136785000Y-106315000D01*
X136785000Y-104285000D01*
X142686839Y-104285000D01*
X142690179Y-104296010D01*
%TA.AperFunction,Conductor*%
D25*
G36*
X142690179Y-104296010D02*
G01*
X142722419Y-104356326D01*
X142765806Y-104409194D01*
X142818674Y-104452581D01*
X142878990Y-104484821D01*
X142944437Y-104504674D01*
X143012500Y-104511378D01*
X143687500Y-104511378D01*
X143715000Y-104508669D01*
X143715000Y-104691331D01*
X143687500Y-104688622D01*
X143012500Y-104688622D01*
X142944437Y-104695326D01*
X142879580Y-104715000D01*
X138800000Y-104715000D01*
X138783417Y-104716633D01*
X138767472Y-104721470D01*
X138752777Y-104729325D01*
X138739896Y-104739896D01*
X138729325Y-104752777D01*
X138721470Y-104767472D01*
X138716633Y-104783417D01*
X138715000Y-104800000D01*
X138715000Y-106315000D01*
X136785000Y-106315000D01*
X136785000Y-104285000D01*
X142686839Y-104285000D01*
X142690179Y-104296010D01*
G37*
%TD.AperFunction*%
%TD*%
D24*
%TO.N,/StepperDriver/coilB_1*%
X138715000Y-103400000D02*
X138716633Y-103416583D01*
X138721470Y-103432528D01*
X138729325Y-103447223D01*
X138739896Y-103460104D01*
X138752777Y-103470675D01*
X138767472Y-103478530D01*
X138783417Y-103483367D01*
X138800000Y-103485000D01*
X142879580Y-103485000D01*
X142944437Y-103504674D01*
X143012500Y-103511378D01*
X143687500Y-103511378D01*
X143715000Y-103508669D01*
X143715000Y-103691331D01*
X143687500Y-103688622D01*
X143012500Y-103688622D01*
X142944437Y-103695326D01*
X142878990Y-103715179D01*
X142818674Y-103747419D01*
X142765806Y-103790806D01*
X142722419Y-103843674D01*
X142690179Y-103903990D01*
X142686839Y-103915000D01*
X136785000Y-103915000D01*
X136785000Y-101785000D01*
X138715000Y-101785000D01*
X138715000Y-103400000D01*
%TA.AperFunction,Conductor*%
D25*
G36*
X138715000Y-103400000D02*
G01*
X138716633Y-103416583D01*
X138721470Y-103432528D01*
X138729325Y-103447223D01*
X138739896Y-103460104D01*
X138752777Y-103470675D01*
X138767472Y-103478530D01*
X138783417Y-103483367D01*
X138800000Y-103485000D01*
X142879580Y-103485000D01*
X142944437Y-103504674D01*
X143012500Y-103511378D01*
X143687500Y-103511378D01*
X143715000Y-103508669D01*
X143715000Y-103691331D01*
X143687500Y-103688622D01*
X143012500Y-103688622D01*
X142944437Y-103695326D01*
X142878990Y-103715179D01*
X142818674Y-103747419D01*
X142765806Y-103790806D01*
X142722419Y-103843674D01*
X142690179Y-103903990D01*
X142686839Y-103915000D01*
X136785000Y-103915000D01*
X136785000Y-101785000D01*
X138715000Y-101785000D01*
X138715000Y-103400000D01*
G37*
%TD.AperFunction*%
%TD*%
D24*
%TO.N,/StepperDriver/senseCoilB*%
X142315000Y-102900000D02*
X142316633Y-102916583D01*
X142321470Y-102932528D01*
X142329325Y-102947223D01*
X142339896Y-102960104D01*
X142352777Y-102970675D01*
X142367472Y-102978530D01*
X142383417Y-102983367D01*
X142400000Y-102985000D01*
X142879580Y-102985000D01*
X142944437Y-103004674D01*
X143012500Y-103011378D01*
X143687500Y-103011378D01*
X143715000Y-103008669D01*
X143715000Y-103115000D01*
X141827120Y-103115000D01*
X141777102Y-103081579D01*
X141670638Y-103037481D01*
X141557618Y-103015000D01*
X141485000Y-103015000D01*
X141485000Y-99685000D01*
X142315000Y-99685000D01*
X142315000Y-102900000D01*
%TA.AperFunction,Conductor*%
D25*
G36*
X142315000Y-102900000D02*
G01*
X142316633Y-102916583D01*
X142321470Y-102932528D01*
X142329325Y-102947223D01*
X142339896Y-102960104D01*
X142352777Y-102970675D01*
X142367472Y-102978530D01*
X142383417Y-102983367D01*
X142400000Y-102985000D01*
X142879580Y-102985000D01*
X142944437Y-103004674D01*
X143012500Y-103011378D01*
X143687500Y-103011378D01*
X143715000Y-103008669D01*
X143715000Y-103115000D01*
X141827120Y-103115000D01*
X141777102Y-103081579D01*
X141670638Y-103037481D01*
X141557618Y-103015000D01*
X141485000Y-103015000D01*
X141485000Y-99685000D01*
X142315000Y-99685000D01*
X142315000Y-102900000D01*
G37*
%TD.AperFunction*%
%TD*%
D24*
%TO.N,GND*%
X140815000Y-103015000D02*
X139185000Y-103015000D01*
X139185000Y-99685000D01*
X140815000Y-99685000D01*
X140815000Y-103015000D01*
%TA.AperFunction,Conductor*%
D25*
G36*
X140815000Y-103015000D02*
G01*
X139185000Y-103015000D01*
X139185000Y-99685000D01*
X140815000Y-99685000D01*
X140815000Y-103015000D01*
G37*
%TD.AperFunction*%
%TD*%
D24*
%TO.N,VCC*%
X143715000Y-108600000D02*
X143717538Y-108620616D01*
X143815000Y-109010464D01*
X143815000Y-112215000D01*
X141385000Y-112215000D01*
X141385000Y-110568715D01*
X142717810Y-110283113D01*
X142733682Y-110278042D01*
X142748260Y-110269971D01*
X142760984Y-110259211D01*
X142771363Y-110246176D01*
X142779001Y-110231367D01*
X142783602Y-110215352D01*
X142785000Y-110200000D01*
X142785000Y-106315413D01*
X143058905Y-105585000D01*
X143715000Y-105585000D01*
X143715000Y-108600000D01*
%TA.AperFunction,Conductor*%
D25*
G36*
X143715000Y-108600000D02*
G01*
X143717538Y-108620616D01*
X143815000Y-109010464D01*
X143815000Y-112215000D01*
X141385000Y-112215000D01*
X141385000Y-110568715D01*
X142717810Y-110283113D01*
X142733682Y-110278042D01*
X142748260Y-110269971D01*
X142760984Y-110259211D01*
X142771363Y-110246176D01*
X142779001Y-110231367D01*
X142783602Y-110215352D01*
X142785000Y-110200000D01*
X142785000Y-106315413D01*
X143058905Y-105585000D01*
X143715000Y-105585000D01*
X143715000Y-108600000D01*
G37*
%TD.AperFunction*%
%TD*%
D24*
%TO.N,VCC*%
X144215000Y-97272761D02*
X143730833Y-97950595D01*
X143722523Y-97965038D01*
X143717191Y-97980825D01*
X143715000Y-98000000D01*
X143715000Y-102615000D01*
X142985000Y-102615000D01*
X142985000Y-95685000D01*
X144215000Y-95685000D01*
X144215000Y-97272761D01*
%TA.AperFunction,Conductor*%
D25*
G36*
X144215000Y-97272761D02*
G01*
X143730833Y-97950595D01*
X143722523Y-97965038D01*
X143717191Y-97980825D01*
X143715000Y-98000000D01*
X143715000Y-102615000D01*
X142985000Y-102615000D01*
X142985000Y-95685000D01*
X144215000Y-95685000D01*
X144215000Y-97272761D01*
G37*
%TD.AperFunction*%
%TD*%
D24*
%TO.N,+3V3*%
X151352165Y-103207561D02*
X151311839Y-103283005D01*
X151287007Y-103364867D01*
X151278622Y-103450000D01*
X151278622Y-105100000D01*
X151287007Y-105185133D01*
X151311839Y-105266995D01*
X151352165Y-105342439D01*
X151406434Y-105408566D01*
X151472561Y-105462835D01*
X151548005Y-105503161D01*
X151629867Y-105527993D01*
X151637138Y-105528709D01*
X151664028Y-105550777D01*
X151726569Y-105584205D01*
X151794429Y-105604790D01*
X151865000Y-105611741D01*
X151935572Y-105604790D01*
X152003432Y-105584205D01*
X152065973Y-105550777D01*
X152092863Y-105528709D01*
X152100133Y-105527993D01*
X152181995Y-105503161D01*
X152257439Y-105462835D01*
X152323566Y-105408566D01*
X152377835Y-105342439D01*
X152418161Y-105266995D01*
X152442993Y-105185133D01*
X152451378Y-105100000D01*
X152451378Y-103459218D01*
X152529362Y-103491519D01*
X152548622Y-103495350D01*
X152548622Y-105100000D01*
X152557007Y-105185133D01*
X152581839Y-105266995D01*
X152622165Y-105342439D01*
X152676434Y-105408566D01*
X152742561Y-105462835D01*
X152818005Y-105503161D01*
X152899867Y-105527993D01*
X152985000Y-105536378D01*
X153285000Y-105536378D01*
X153370133Y-105527993D01*
X153451995Y-105503161D01*
X153527439Y-105462835D01*
X153593566Y-105408566D01*
X153647835Y-105342439D01*
X153688161Y-105266995D01*
X153712993Y-105185133D01*
X153721378Y-105100000D01*
X153721378Y-103450000D01*
X153712993Y-103364867D01*
X153702717Y-103330990D01*
X153837283Y-103330990D01*
X153827007Y-103364867D01*
X153818622Y-103450000D01*
X153818622Y-105100000D01*
X153827007Y-105185133D01*
X153851839Y-105266995D01*
X153892165Y-105342439D01*
X153946434Y-105408566D01*
X154012561Y-105462835D01*
X154088005Y-105503161D01*
X154169867Y-105527993D01*
X154235832Y-105534490D01*
X155115000Y-106413659D01*
X155115000Y-110315000D01*
X152359320Y-110315000D01*
X152377835Y-110292439D01*
X152418161Y-110216995D01*
X152442993Y-110135133D01*
X152451378Y-110050000D01*
X152451378Y-108400000D01*
X152442993Y-108314867D01*
X152418161Y-108233005D01*
X152377835Y-108157561D01*
X152323566Y-108091434D01*
X152257439Y-108037165D01*
X152181995Y-107996839D01*
X152100133Y-107972007D01*
X152015000Y-107963622D01*
X151715000Y-107963622D01*
X151629867Y-107972007D01*
X151548005Y-107996839D01*
X151472561Y-108037165D01*
X151406434Y-108091434D01*
X151352165Y-108157561D01*
X151311839Y-108233005D01*
X151287007Y-108314867D01*
X151278622Y-108400000D01*
X151278622Y-110050000D01*
X151287007Y-110135133D01*
X151311839Y-110216995D01*
X151352165Y-110292439D01*
X151370680Y-110315000D01*
X151111908Y-110315000D01*
X151122258Y-110280878D01*
X151124120Y-110261972D01*
X151148161Y-110216995D01*
X151172993Y-110135133D01*
X151181378Y-110050000D01*
X151181378Y-108400000D01*
X151172993Y-108314867D01*
X151148161Y-108233005D01*
X151107835Y-108157561D01*
X151053566Y-108091434D01*
X150987439Y-108037165D01*
X150911995Y-107996839D01*
X150830133Y-107972007D01*
X150745000Y-107963622D01*
X150445000Y-107963622D01*
X150359867Y-107972007D01*
X150278005Y-107996839D01*
X150202561Y-108037165D01*
X150136434Y-108091434D01*
X150082165Y-108157561D01*
X150041839Y-108233005D01*
X150017007Y-108314867D01*
X150008622Y-108400000D01*
X150008622Y-109065000D01*
X149885000Y-109065000D01*
X149885000Y-107486134D01*
X149929362Y-107504509D01*
X150042382Y-107526990D01*
X150157618Y-107526990D01*
X150270638Y-107504509D01*
X150377102Y-107460411D01*
X150472916Y-107396390D01*
X150554400Y-107314906D01*
X150618421Y-107219092D01*
X150662519Y-107112628D01*
X150685000Y-106999608D01*
X150685000Y-106884372D01*
X150662519Y-106771352D01*
X150618421Y-106664888D01*
X150554400Y-106569074D01*
X150472916Y-106487590D01*
X150453020Y-106474296D01*
X150454400Y-106472916D01*
X150518421Y-106377102D01*
X150562519Y-106270638D01*
X150585000Y-106157618D01*
X150585000Y-106042382D01*
X150562519Y-105929362D01*
X150518421Y-105822898D01*
X150454400Y-105727084D01*
X150372916Y-105645600D01*
X150360000Y-105636970D01*
X150360000Y-105528006D01*
X150445000Y-105536378D01*
X150745000Y-105536378D01*
X150830133Y-105527993D01*
X150911995Y-105503161D01*
X150987439Y-105462835D01*
X151053566Y-105408566D01*
X151107835Y-105342439D01*
X151148161Y-105266995D01*
X151172993Y-105185133D01*
X151181378Y-105100000D01*
X151181378Y-103450000D01*
X151172993Y-103364867D01*
X151148161Y-103283005D01*
X151107835Y-103207561D01*
X151089320Y-103185000D01*
X151370680Y-103185000D01*
X151352165Y-103207561D01*
%TA.AperFunction,Conductor*%
D25*
G36*
X151352165Y-103207561D02*
G01*
X151311839Y-103283005D01*
X151287007Y-103364867D01*
X151278622Y-103450000D01*
X151278622Y-105100000D01*
X151287007Y-105185133D01*
X151311839Y-105266995D01*
X151352165Y-105342439D01*
X151406434Y-105408566D01*
X151472561Y-105462835D01*
X151548005Y-105503161D01*
X151629867Y-105527993D01*
X151637138Y-105528709D01*
X151664028Y-105550777D01*
X151726569Y-105584205D01*
X151794429Y-105604790D01*
X151865000Y-105611741D01*
X151935572Y-105604790D01*
X152003432Y-105584205D01*
X152065973Y-105550777D01*
X152092863Y-105528709D01*
X152100133Y-105527993D01*
X152181995Y-105503161D01*
X152257439Y-105462835D01*
X152323566Y-105408566D01*
X152377835Y-105342439D01*
X152418161Y-105266995D01*
X152442993Y-105185133D01*
X152451378Y-105100000D01*
X152451378Y-103459218D01*
X152529362Y-103491519D01*
X152548622Y-103495350D01*
X152548622Y-105100000D01*
X152557007Y-105185133D01*
X152581839Y-105266995D01*
X152622165Y-105342439D01*
X152676434Y-105408566D01*
X152742561Y-105462835D01*
X152818005Y-105503161D01*
X152899867Y-105527993D01*
X152985000Y-105536378D01*
X153285000Y-105536378D01*
X153370133Y-105527993D01*
X153451995Y-105503161D01*
X153527439Y-105462835D01*
X153593566Y-105408566D01*
X153647835Y-105342439D01*
X153688161Y-105266995D01*
X153712993Y-105185133D01*
X153721378Y-105100000D01*
X153721378Y-103450000D01*
X153712993Y-103364867D01*
X153702717Y-103330990D01*
X153837283Y-103330990D01*
X153827007Y-103364867D01*
X153818622Y-103450000D01*
X153818622Y-105100000D01*
X153827007Y-105185133D01*
X153851839Y-105266995D01*
X153892165Y-105342439D01*
X153946434Y-105408566D01*
X154012561Y-105462835D01*
X154088005Y-105503161D01*
X154169867Y-105527993D01*
X154235832Y-105534490D01*
X155115000Y-106413659D01*
X155115000Y-110315000D01*
X152359320Y-110315000D01*
X152377835Y-110292439D01*
X152418161Y-110216995D01*
X152442993Y-110135133D01*
X152451378Y-110050000D01*
X152451378Y-108400000D01*
X152442993Y-108314867D01*
X152418161Y-108233005D01*
X152377835Y-108157561D01*
X152323566Y-108091434D01*
X152257439Y-108037165D01*
X152181995Y-107996839D01*
X152100133Y-107972007D01*
X152015000Y-107963622D01*
X151715000Y-107963622D01*
X151629867Y-107972007D01*
X151548005Y-107996839D01*
X151472561Y-108037165D01*
X151406434Y-108091434D01*
X151352165Y-108157561D01*
X151311839Y-108233005D01*
X151287007Y-108314867D01*
X151278622Y-108400000D01*
X151278622Y-110050000D01*
X151287007Y-110135133D01*
X151311839Y-110216995D01*
X151352165Y-110292439D01*
X151370680Y-110315000D01*
X151111908Y-110315000D01*
X151122258Y-110280878D01*
X151124120Y-110261972D01*
X151148161Y-110216995D01*
X151172993Y-110135133D01*
X151181378Y-110050000D01*
X151181378Y-108400000D01*
X151172993Y-108314867D01*
X151148161Y-108233005D01*
X151107835Y-108157561D01*
X151053566Y-108091434D01*
X150987439Y-108037165D01*
X150911995Y-107996839D01*
X150830133Y-107972007D01*
X150745000Y-107963622D01*
X150445000Y-107963622D01*
X150359867Y-107972007D01*
X150278005Y-107996839D01*
X150202561Y-108037165D01*
X150136434Y-108091434D01*
X150082165Y-108157561D01*
X150041839Y-108233005D01*
X150017007Y-108314867D01*
X150008622Y-108400000D01*
X150008622Y-109065000D01*
X149885000Y-109065000D01*
X149885000Y-107486134D01*
X149929362Y-107504509D01*
X150042382Y-107526990D01*
X150157618Y-107526990D01*
X150270638Y-107504509D01*
X150377102Y-107460411D01*
X150472916Y-107396390D01*
X150554400Y-107314906D01*
X150618421Y-107219092D01*
X150662519Y-107112628D01*
X150685000Y-106999608D01*
X150685000Y-106884372D01*
X150662519Y-106771352D01*
X150618421Y-106664888D01*
X150554400Y-106569074D01*
X150472916Y-106487590D01*
X150453020Y-106474296D01*
X150454400Y-106472916D01*
X150518421Y-106377102D01*
X150562519Y-106270638D01*
X150585000Y-106157618D01*
X150585000Y-106042382D01*
X150562519Y-105929362D01*
X150518421Y-105822898D01*
X150454400Y-105727084D01*
X150372916Y-105645600D01*
X150360000Y-105636970D01*
X150360000Y-105528006D01*
X150445000Y-105536378D01*
X150745000Y-105536378D01*
X150830133Y-105527993D01*
X150911995Y-105503161D01*
X150987439Y-105462835D01*
X151053566Y-105408566D01*
X151107835Y-105342439D01*
X151148161Y-105266995D01*
X151172993Y-105185133D01*
X151181378Y-105100000D01*
X151181378Y-103450000D01*
X151172993Y-103364867D01*
X151148161Y-103283005D01*
X151107835Y-103207561D01*
X151089320Y-103185000D01*
X151370680Y-103185000D01*
X151352165Y-103207561D01*
G37*
%TD.AperFunction*%
%TD*%
D24*
%TO.N,+3V3*%
X165624525Y-100424229D02*
X165591130Y-100486707D01*
X165570566Y-100554499D01*
X165563622Y-100625000D01*
X165563622Y-102025000D01*
X165570566Y-102095501D01*
X165591130Y-102163293D01*
X165624525Y-102225771D01*
X165669467Y-102280533D01*
X165724229Y-102325475D01*
X165786707Y-102358870D01*
X165854499Y-102379434D01*
X165925000Y-102386378D01*
X166075000Y-102386378D01*
X166145501Y-102379434D01*
X166213293Y-102358870D01*
X166250000Y-102339250D01*
X166286707Y-102358870D01*
X166354499Y-102379434D01*
X166425000Y-102386378D01*
X166575000Y-102386378D01*
X166645501Y-102379434D01*
X166713293Y-102358870D01*
X166750000Y-102339250D01*
X166786707Y-102358870D01*
X166854499Y-102379434D01*
X166925000Y-102386378D01*
X167075000Y-102386378D01*
X167145501Y-102379434D01*
X167213293Y-102358870D01*
X167275771Y-102325475D01*
X167330533Y-102280533D01*
X167375475Y-102225771D01*
X167408870Y-102163293D01*
X167429434Y-102095501D01*
X167436378Y-102025000D01*
X167436378Y-100625000D01*
X167429434Y-100554499D01*
X167411515Y-100495427D01*
X167472916Y-100454400D01*
X167542316Y-100385000D01*
X169615000Y-100385000D01*
X169615000Y-102813622D01*
X168225000Y-102813622D01*
X168154499Y-102820566D01*
X168086707Y-102841130D01*
X168024229Y-102874525D01*
X167969467Y-102919467D01*
X167924525Y-102974229D01*
X167891130Y-103036707D01*
X167870566Y-103104499D01*
X167866294Y-103147875D01*
X167865306Y-103142910D01*
X167821208Y-103036446D01*
X167757187Y-102940632D01*
X167675703Y-102859148D01*
X167579889Y-102795127D01*
X167473425Y-102751029D01*
X167360405Y-102728548D01*
X167245169Y-102728548D01*
X167132149Y-102751029D01*
X167025685Y-102795127D01*
X166929871Y-102859148D01*
X166848387Y-102940632D01*
X166784366Y-103036446D01*
X166740268Y-103142910D01*
X166717787Y-103255930D01*
X166717787Y-103371166D01*
X166740268Y-103484186D01*
X166784366Y-103590650D01*
X166848387Y-103686464D01*
X166929871Y-103767948D01*
X167025685Y-103831969D01*
X167132149Y-103876067D01*
X167245169Y-103898548D01*
X167360405Y-103898548D01*
X167473425Y-103876067D01*
X167490712Y-103868907D01*
X167613860Y-103992055D01*
X167625132Y-104005790D01*
X167679949Y-104050777D01*
X167742490Y-104084205D01*
X167789764Y-104098545D01*
X167810349Y-104104790D01*
X167880921Y-104111741D01*
X167898597Y-104110000D01*
X168005373Y-104110000D01*
X168024229Y-104125475D01*
X168086707Y-104158870D01*
X168154499Y-104179434D01*
X168225000Y-104186378D01*
X169615000Y-104186378D01*
X169615000Y-104313622D01*
X168225000Y-104313622D01*
X168154499Y-104320566D01*
X168086707Y-104341130D01*
X168024229Y-104374525D01*
X167969467Y-104419467D01*
X167924525Y-104474229D01*
X167891130Y-104536707D01*
X167870566Y-104604499D01*
X167863622Y-104675000D01*
X167863622Y-104825000D01*
X167870566Y-104895501D01*
X167891130Y-104963293D01*
X167910750Y-105000000D01*
X167891130Y-105036707D01*
X167870566Y-105104499D01*
X167863622Y-105175000D01*
X167863622Y-105325000D01*
X167870566Y-105395501D01*
X167891130Y-105463293D01*
X167910750Y-105500000D01*
X167891130Y-105536707D01*
X167870566Y-105604499D01*
X167863622Y-105675000D01*
X167863622Y-105716348D01*
X167779512Y-105660147D01*
X167673048Y-105616049D01*
X167560028Y-105593568D01*
X167444792Y-105593568D01*
X167331772Y-105616049D01*
X167225308Y-105660147D01*
X167129494Y-105724168D01*
X167048010Y-105805652D01*
X166983989Y-105901466D01*
X166966115Y-105944617D01*
X166954400Y-105927084D01*
X166872916Y-105845600D01*
X166777102Y-105781579D01*
X166670638Y-105737481D01*
X166557618Y-105715000D01*
X166442382Y-105715000D01*
X166329362Y-105737481D01*
X166222898Y-105781579D01*
X166127084Y-105845600D01*
X166045600Y-105927084D01*
X165981579Y-106022898D01*
X165937481Y-106129362D01*
X165915000Y-106242382D01*
X165915000Y-106357618D01*
X165937481Y-106470638D01*
X165981579Y-106577102D01*
X166045600Y-106672916D01*
X166127084Y-106754400D01*
X166222898Y-106818421D01*
X166329362Y-106862519D01*
X166442382Y-106885000D01*
X166557618Y-106885000D01*
X166670638Y-106862519D01*
X166777102Y-106818421D01*
X166872916Y-106754400D01*
X166954400Y-106672916D01*
X167018421Y-106577102D01*
X167036295Y-106533951D01*
X167043660Y-106544973D01*
X167033126Y-106555507D01*
X166969105Y-106651321D01*
X166925007Y-106757785D01*
X166902526Y-106870805D01*
X166902526Y-106986041D01*
X166925007Y-107099061D01*
X166969105Y-107205525D01*
X167033126Y-107301339D01*
X167114610Y-107382823D01*
X167210424Y-107446844D01*
X167316888Y-107490942D01*
X167429908Y-107513423D01*
X167545144Y-107513423D01*
X167658164Y-107490942D01*
X167764628Y-107446844D01*
X167860442Y-107382823D01*
X167868521Y-107374744D01*
X167870566Y-107395501D01*
X167891130Y-107463293D01*
X167910750Y-107500000D01*
X167891130Y-107536707D01*
X167870566Y-107604499D01*
X167866913Y-107641589D01*
X167777102Y-107581579D01*
X167670638Y-107537481D01*
X167557618Y-107515000D01*
X167442382Y-107515000D01*
X167329362Y-107537481D01*
X167222898Y-107581579D01*
X167127084Y-107645600D01*
X167045600Y-107727084D01*
X166981579Y-107822898D01*
X166937481Y-107929362D01*
X166915000Y-108042382D01*
X166915000Y-108157618D01*
X166926414Y-108215000D01*
X166842382Y-108215000D01*
X166729362Y-108237481D01*
X166622898Y-108281579D01*
X166527084Y-108345600D01*
X166445600Y-108427084D01*
X166381579Y-108522898D01*
X166337481Y-108629362D01*
X166315000Y-108742382D01*
X166315000Y-108857618D01*
X166337481Y-108970638D01*
X166373827Y-109058388D01*
X166277547Y-109077539D01*
X166171083Y-109121637D01*
X166075269Y-109185658D01*
X165993785Y-109267142D01*
X165929764Y-109362956D01*
X165885666Y-109469420D01*
X165863185Y-109582440D01*
X165863185Y-109697676D01*
X165885666Y-109810696D01*
X165929764Y-109917160D01*
X165993785Y-110012974D01*
X166075269Y-110094458D01*
X166171083Y-110158479D01*
X166277547Y-110202577D01*
X166390567Y-110225058D01*
X166505803Y-110225058D01*
X166618823Y-110202577D01*
X166623285Y-110200729D01*
X166615000Y-110242382D01*
X166615000Y-110357618D01*
X166637481Y-110470638D01*
X166681579Y-110577102D01*
X166745600Y-110672916D01*
X166827084Y-110754400D01*
X166922898Y-110818421D01*
X167029362Y-110862519D01*
X167142382Y-110885000D01*
X167257618Y-110885000D01*
X167370638Y-110862519D01*
X167477102Y-110818421D01*
X167572916Y-110754400D01*
X167654400Y-110672916D01*
X167696439Y-110610000D01*
X168005373Y-110610000D01*
X168024229Y-110625475D01*
X168086707Y-110658870D01*
X168154499Y-110679434D01*
X168225000Y-110686378D01*
X169615000Y-110686378D01*
X169615000Y-113614353D01*
X167357845Y-113597253D01*
X167375475Y-113575771D01*
X167408870Y-113513293D01*
X167429434Y-113445501D01*
X167436378Y-113375000D01*
X167436378Y-111975000D01*
X167429434Y-111904499D01*
X167408870Y-111836707D01*
X167375475Y-111774229D01*
X167330533Y-111719467D01*
X167275771Y-111674525D01*
X167213293Y-111641130D01*
X167145501Y-111620566D01*
X167075000Y-111613622D01*
X166925000Y-111613622D01*
X166854499Y-111620566D01*
X166786707Y-111641130D01*
X166750000Y-111660750D01*
X166713293Y-111641130D01*
X166645501Y-111620566D01*
X166575000Y-111613622D01*
X166425000Y-111613622D01*
X166354499Y-111620566D01*
X166286707Y-111641130D01*
X166250000Y-111660750D01*
X166213293Y-111641130D01*
X166145501Y-111620566D01*
X166075000Y-111613622D01*
X165925000Y-111613622D01*
X165854499Y-111620566D01*
X165786707Y-111641130D01*
X165750000Y-111660750D01*
X165713293Y-111641130D01*
X165645501Y-111620566D01*
X165575000Y-111613622D01*
X165425000Y-111613622D01*
X165354499Y-111620566D01*
X165286707Y-111641130D01*
X165250000Y-111660750D01*
X165213293Y-111641130D01*
X165145501Y-111620566D01*
X165075000Y-111613622D01*
X164925000Y-111613622D01*
X164854499Y-111620566D01*
X164786707Y-111641130D01*
X164750000Y-111660750D01*
X164713293Y-111641130D01*
X164645501Y-111620566D01*
X164575000Y-111613622D01*
X164425000Y-111613622D01*
X164354499Y-111620566D01*
X164286707Y-111641130D01*
X164250000Y-111660750D01*
X164213293Y-111641130D01*
X164145501Y-111620566D01*
X164075000Y-111613622D01*
X163925000Y-111613622D01*
X163854499Y-111620566D01*
X163786707Y-111641130D01*
X163750000Y-111660750D01*
X163713293Y-111641130D01*
X163645501Y-111620566D01*
X163575000Y-111613622D01*
X163425000Y-111613622D01*
X163354499Y-111620566D01*
X163286707Y-111641130D01*
X163250000Y-111660750D01*
X163213293Y-111641130D01*
X163145501Y-111620566D01*
X163075000Y-111613622D01*
X162925000Y-111613622D01*
X162854499Y-111620566D01*
X162786707Y-111641130D01*
X162750000Y-111660750D01*
X162713293Y-111641130D01*
X162645501Y-111620566D01*
X162575000Y-111613622D01*
X162482119Y-111613622D01*
X162502381Y-111593360D01*
X162566402Y-111497546D01*
X162610500Y-111391082D01*
X162632981Y-111278062D01*
X162632981Y-111162826D01*
X162610500Y-111049806D01*
X162566402Y-110943342D01*
X162502381Y-110847528D01*
X162420897Y-110766044D01*
X162325083Y-110702023D01*
X162218619Y-110657925D01*
X162105599Y-110635444D01*
X161990363Y-110635444D01*
X161877343Y-110657925D01*
X161770879Y-110702023D01*
X161675065Y-110766044D01*
X161593581Y-110847528D01*
X161529560Y-110943342D01*
X161495209Y-111026274D01*
X161458873Y-110938549D01*
X161394852Y-110842735D01*
X161313368Y-110761251D01*
X161217554Y-110697230D01*
X161111090Y-110653132D01*
X160998070Y-110630651D01*
X160882834Y-110630651D01*
X160769814Y-110653132D01*
X160663350Y-110697230D01*
X160567536Y-110761251D01*
X160486052Y-110842735D01*
X160422031Y-110938549D01*
X160377933Y-111045013D01*
X160355452Y-111158033D01*
X160355452Y-111210990D01*
X160275328Y-111210990D01*
X160257652Y-111209249D01*
X160187079Y-111216200D01*
X160166494Y-111222445D01*
X160119220Y-111236785D01*
X160056679Y-111270213D01*
X160001862Y-111315200D01*
X159990590Y-111328935D01*
X159757945Y-111561580D01*
X159744211Y-111572852D01*
X159699224Y-111627669D01*
X159691798Y-111641563D01*
X159665796Y-111690210D01*
X159649563Y-111743720D01*
X159624525Y-111774229D01*
X159591130Y-111836707D01*
X159570566Y-111904499D01*
X159563622Y-111975000D01*
X159563622Y-113375000D01*
X159570566Y-113445501D01*
X159582208Y-113483880D01*
X159528151Y-113537938D01*
X157834221Y-113525105D01*
X157807339Y-113498223D01*
X157827993Y-113430133D01*
X157836378Y-113345000D01*
X157836378Y-113045000D01*
X157827993Y-112959867D01*
X157803161Y-112878005D01*
X157762835Y-112802561D01*
X157727914Y-112760010D01*
X157783594Y-112760010D01*
X157801270Y-112761751D01*
X157871842Y-112754800D01*
X157939702Y-112734215D01*
X158002243Y-112700787D01*
X158057060Y-112655800D01*
X158068336Y-112642060D01*
X161675407Y-109034990D01*
X162807661Y-109034990D01*
X162816291Y-109047906D01*
X162897775Y-109129390D01*
X162993589Y-109193411D01*
X163100053Y-109237509D01*
X163213073Y-109259990D01*
X163292659Y-109259990D01*
X163289562Y-109275561D01*
X163289562Y-109315000D01*
X163242382Y-109315000D01*
X163129362Y-109337481D01*
X163022898Y-109381579D01*
X162927084Y-109445600D01*
X162845600Y-109527084D01*
X162781579Y-109622898D01*
X162737481Y-109729362D01*
X162715000Y-109842382D01*
X162715000Y-109957618D01*
X162737481Y-110070638D01*
X162781579Y-110177102D01*
X162845600Y-110272916D01*
X162927084Y-110354400D01*
X163022898Y-110418421D01*
X163129362Y-110462519D01*
X163242382Y-110485000D01*
X163357618Y-110485000D01*
X163470638Y-110462519D01*
X163577102Y-110418421D01*
X163672916Y-110354400D01*
X163754400Y-110272916D01*
X163818421Y-110177102D01*
X163862519Y-110070638D01*
X163885000Y-109957618D01*
X163885000Y-109918179D01*
X163932180Y-109918179D01*
X164045200Y-109895698D01*
X164151664Y-109851600D01*
X164247478Y-109787579D01*
X164328962Y-109706095D01*
X164392983Y-109610281D01*
X164437081Y-109503817D01*
X164459562Y-109390797D01*
X164459562Y-109275561D01*
X164437081Y-109162541D01*
X164392983Y-109056077D01*
X164328962Y-108960263D01*
X164247478Y-108878779D01*
X164151664Y-108814758D01*
X164045200Y-108770660D01*
X163932180Y-108748179D01*
X163852594Y-108748179D01*
X163855691Y-108732608D01*
X163855691Y-108617372D01*
X163833210Y-108504352D01*
X163789112Y-108397888D01*
X163725091Y-108302074D01*
X163643607Y-108220590D01*
X163547793Y-108156569D01*
X163441329Y-108112471D01*
X163328309Y-108089990D01*
X163213073Y-108089990D01*
X163100053Y-108112471D01*
X162993589Y-108156569D01*
X162897775Y-108220590D01*
X162816291Y-108302074D01*
X162807661Y-108314990D01*
X161543966Y-108314990D01*
X161526290Y-108313249D01*
X161508614Y-108314990D01*
X161455718Y-108320200D01*
X161387858Y-108340785D01*
X161325317Y-108374213D01*
X161270500Y-108419200D01*
X161259228Y-108432935D01*
X159039010Y-110653154D01*
X159039010Y-110525331D01*
X159040751Y-110507652D01*
X159039997Y-110500000D01*
X159040751Y-110492348D01*
X159039010Y-110474669D01*
X159039010Y-110025331D01*
X159040751Y-110007652D01*
X159033801Y-109937080D01*
X159013215Y-109869219D01*
X158998201Y-109841130D01*
X158979787Y-109806679D01*
X158934800Y-109751862D01*
X158921060Y-109740586D01*
X158709414Y-109528940D01*
X158698138Y-109515200D01*
X158643321Y-109470213D01*
X158611870Y-109453403D01*
X158629434Y-109395501D01*
X158636378Y-109325000D01*
X158636378Y-109175000D01*
X158629976Y-109110000D01*
X158669962Y-109110000D01*
X158731013Y-109171051D01*
X158742289Y-109184791D01*
X158797106Y-109229778D01*
X158834938Y-109249999D01*
X158859646Y-109263206D01*
X158927507Y-109283792D01*
X158998079Y-109290742D01*
X159015758Y-109289001D01*
X159584245Y-109289001D01*
X159601921Y-109290742D01*
X159672493Y-109283791D01*
X159690538Y-109278317D01*
X159740353Y-109263206D01*
X159802894Y-109229778D01*
X159857711Y-109184791D01*
X159868987Y-109171051D01*
X160171060Y-108868979D01*
X160184790Y-108857711D01*
X160229778Y-108802894D01*
X160263206Y-108740353D01*
X160279997Y-108685000D01*
X160283791Y-108672494D01*
X160290742Y-108601921D01*
X160289001Y-108584245D01*
X160289001Y-106940105D01*
X160290742Y-106922429D01*
X160283791Y-106851856D01*
X160273648Y-106818421D01*
X160263206Y-106783997D01*
X160229778Y-106721456D01*
X160184791Y-106666639D01*
X160171056Y-106655367D01*
X160142041Y-106626352D01*
X160229362Y-106662521D01*
X160342382Y-106685002D01*
X160457618Y-106685002D01*
X160570638Y-106662521D01*
X160677102Y-106618423D01*
X160772916Y-106554402D01*
X160854400Y-106472918D01*
X160918421Y-106377104D01*
X160962519Y-106270640D01*
X160985000Y-106157620D01*
X160985000Y-106042384D01*
X160965378Y-105943738D01*
X161927147Y-104981970D01*
X161942382Y-104985000D01*
X162057618Y-104985000D01*
X162170638Y-104962519D01*
X162277102Y-104918421D01*
X162372916Y-104854400D01*
X162454400Y-104772916D01*
X162518421Y-104677102D01*
X162562519Y-104570638D01*
X162585000Y-104457618D01*
X162585000Y-104342382D01*
X162562519Y-104229362D01*
X162518421Y-104122898D01*
X162454400Y-104027084D01*
X162372916Y-103945600D01*
X162277102Y-103881579D01*
X162170638Y-103837481D01*
X162057618Y-103815000D01*
X161942382Y-103815000D01*
X161829362Y-103837481D01*
X161722898Y-103881579D01*
X161627084Y-103945600D01*
X161545600Y-104027084D01*
X161481579Y-104122898D01*
X161437481Y-104229362D01*
X161415000Y-104342382D01*
X161415000Y-104457618D01*
X161418030Y-104472853D01*
X160375882Y-105515002D01*
X160342382Y-105515002D01*
X160229362Y-105537483D01*
X160122898Y-105581581D01*
X160027084Y-105645602D01*
X159945600Y-105727086D01*
X159881579Y-105822900D01*
X159837481Y-105929364D01*
X159825166Y-105991278D01*
X159756131Y-105922243D01*
X159660317Y-105858222D01*
X159553853Y-105814124D01*
X159440833Y-105791643D01*
X159325597Y-105791643D01*
X159212577Y-105814124D01*
X159106113Y-105858222D01*
X159010299Y-105922243D01*
X158928815Y-106003727D01*
X158864794Y-106099541D01*
X158820696Y-106206005D01*
X158798215Y-106319025D01*
X158798215Y-106434261D01*
X158820696Y-106547281D01*
X158864794Y-106653745D01*
X158928815Y-106749559D01*
X159010299Y-106831043D01*
X159106113Y-106895064D01*
X159182838Y-106926844D01*
X159129362Y-106937481D01*
X159022898Y-106981579D01*
X158927084Y-107045600D01*
X158845600Y-107127084D01*
X158781579Y-107222898D01*
X158737481Y-107329362D01*
X158715000Y-107442382D01*
X158715000Y-107534526D01*
X158688424Y-107507950D01*
X158677148Y-107494210D01*
X158622331Y-107449223D01*
X158614421Y-107444995D01*
X158629434Y-107395501D01*
X158636378Y-107325000D01*
X158636378Y-107175000D01*
X158629434Y-107104499D01*
X158608870Y-107036707D01*
X158589250Y-107000000D01*
X158608870Y-106963293D01*
X158629434Y-106895501D01*
X158636378Y-106825000D01*
X158636378Y-106675000D01*
X158629434Y-106604499D01*
X158608870Y-106536707D01*
X158589250Y-106500000D01*
X158608870Y-106463293D01*
X158629434Y-106395501D01*
X158636378Y-106325000D01*
X158636378Y-106175000D01*
X158629434Y-106104499D01*
X158608870Y-106036707D01*
X158589250Y-106000000D01*
X158608870Y-105963293D01*
X158629434Y-105895501D01*
X158636378Y-105825000D01*
X158636378Y-105675000D01*
X158629434Y-105604499D01*
X158618417Y-105568178D01*
X158650973Y-105550777D01*
X158705790Y-105505790D01*
X158717066Y-105492050D01*
X158877147Y-105331970D01*
X158892382Y-105335000D01*
X159007618Y-105335000D01*
X159120638Y-105312519D01*
X159227102Y-105268421D01*
X159322916Y-105204400D01*
X159404400Y-105122916D01*
X159468421Y-105027102D01*
X159512519Y-104920638D01*
X159535000Y-104807618D01*
X159535000Y-104692382D01*
X159512519Y-104579362D01*
X159468421Y-104472898D01*
X159404400Y-104377084D01*
X159322916Y-104295600D01*
X159310000Y-104286970D01*
X159310000Y-103943411D01*
X159311741Y-103925735D01*
X159304790Y-103855163D01*
X159295640Y-103825000D01*
X159284205Y-103787304D01*
X159250777Y-103724763D01*
X159205789Y-103669946D01*
X159192054Y-103658674D01*
X159041330Y-103507950D01*
X159030054Y-103494210D01*
X158975237Y-103449223D01*
X158912696Y-103415795D01*
X158844836Y-103395210D01*
X158791940Y-103390000D01*
X158774264Y-103388259D01*
X158756588Y-103390000D01*
X158494627Y-103390000D01*
X158475771Y-103374525D01*
X158413293Y-103341130D01*
X158345501Y-103320566D01*
X158275000Y-103313622D01*
X156875000Y-103313622D01*
X156804499Y-103320566D01*
X156736707Y-103341130D01*
X156674229Y-103374525D01*
X156619467Y-103419467D01*
X156585000Y-103461465D01*
X156585000Y-102613144D01*
X156672916Y-102554400D01*
X156754400Y-102472916D01*
X156818421Y-102377102D01*
X156862519Y-102270638D01*
X156885000Y-102157618D01*
X156885000Y-102042382D01*
X156862845Y-101930999D01*
X157093241Y-101930999D01*
X157329298Y-102167057D01*
X157329303Y-102167061D01*
X158237316Y-103075075D01*
X158248588Y-103088810D01*
X158303405Y-103133797D01*
X158344161Y-103155581D01*
X158365945Y-103167225D01*
X158433806Y-103187811D01*
X158504378Y-103194762D01*
X158522064Y-103193020D01*
X160392018Y-103193020D01*
X160409694Y-103194761D01*
X160480266Y-103187810D01*
X160548126Y-103167225D01*
X160610667Y-103133797D01*
X160665484Y-103088810D01*
X160676760Y-103075070D01*
X161242055Y-102509776D01*
X161255790Y-102498504D01*
X161300777Y-102443687D01*
X161331409Y-102386378D01*
X161334205Y-102381147D01*
X161336391Y-102373941D01*
X161354499Y-102379434D01*
X161425000Y-102386378D01*
X161575000Y-102386378D01*
X161645501Y-102379434D01*
X161713293Y-102358870D01*
X161750000Y-102339250D01*
X161786707Y-102358870D01*
X161854499Y-102379434D01*
X161925000Y-102386378D01*
X161957555Y-102386378D01*
X161933303Y-102422673D01*
X161889205Y-102529137D01*
X161866724Y-102642157D01*
X161866724Y-102757393D01*
X161889205Y-102870413D01*
X161933303Y-102976877D01*
X161997324Y-103072691D01*
X162078808Y-103154175D01*
X162174622Y-103218196D01*
X162281086Y-103262294D01*
X162394106Y-103284775D01*
X162509342Y-103284775D01*
X162622362Y-103262294D01*
X162728826Y-103218196D01*
X162824640Y-103154175D01*
X162875750Y-103103066D01*
X162927084Y-103154400D01*
X163022898Y-103218421D01*
X163129362Y-103262519D01*
X163242382Y-103285000D01*
X163357618Y-103285000D01*
X163470638Y-103262519D01*
X163577102Y-103218421D01*
X163672916Y-103154400D01*
X163754400Y-103072916D01*
X163818421Y-102977102D01*
X163862519Y-102870638D01*
X163885000Y-102757618D01*
X163885000Y-102642382D01*
X163862519Y-102529362D01*
X163818421Y-102422898D01*
X163769490Y-102349667D01*
X163786707Y-102358870D01*
X163854499Y-102379434D01*
X163925000Y-102386378D01*
X164075000Y-102386378D01*
X164145501Y-102379434D01*
X164213293Y-102358870D01*
X164250000Y-102339250D01*
X164269180Y-102349501D01*
X164238472Y-102380209D01*
X164174451Y-102476023D01*
X164130353Y-102582487D01*
X164107872Y-102695507D01*
X164107872Y-102810743D01*
X164130353Y-102923763D01*
X164174451Y-103030227D01*
X164238472Y-103126041D01*
X164319956Y-103207525D01*
X164415770Y-103271546D01*
X164522234Y-103315644D01*
X164635254Y-103338125D01*
X164750490Y-103338125D01*
X164863510Y-103315644D01*
X164969974Y-103271546D01*
X165065788Y-103207525D01*
X165147272Y-103126041D01*
X165211293Y-103030227D01*
X165255391Y-102923763D01*
X165277872Y-102810743D01*
X165277872Y-102695507D01*
X165262254Y-102616991D01*
X165300777Y-102570051D01*
X165331235Y-102513067D01*
X165334205Y-102507511D01*
X165354791Y-102439650D01*
X165361741Y-102369078D01*
X165360000Y-102351399D01*
X165360000Y-102244627D01*
X165375475Y-102225771D01*
X165408870Y-102163293D01*
X165429434Y-102095501D01*
X165436378Y-102025000D01*
X165436378Y-100625000D01*
X165429434Y-100554499D01*
X165408870Y-100486707D01*
X165375475Y-100424229D01*
X165343281Y-100385000D01*
X165656719Y-100385000D01*
X165624525Y-100424229D01*
%TA.AperFunction,Conductor*%
D25*
G36*
X165624525Y-100424229D02*
G01*
X165591130Y-100486707D01*
X165570566Y-100554499D01*
X165563622Y-100625000D01*
X165563622Y-102025000D01*
X165570566Y-102095501D01*
X165591130Y-102163293D01*
X165624525Y-102225771D01*
X165669467Y-102280533D01*
X165724229Y-102325475D01*
X165786707Y-102358870D01*
X165854499Y-102379434D01*
X165925000Y-102386378D01*
X166075000Y-102386378D01*
X166145501Y-102379434D01*
X166213293Y-102358870D01*
X166250000Y-102339250D01*
X166286707Y-102358870D01*
X166354499Y-102379434D01*
X166425000Y-102386378D01*
X166575000Y-102386378D01*
X166645501Y-102379434D01*
X166713293Y-102358870D01*
X166750000Y-102339250D01*
X166786707Y-102358870D01*
X166854499Y-102379434D01*
X166925000Y-102386378D01*
X167075000Y-102386378D01*
X167145501Y-102379434D01*
X167213293Y-102358870D01*
X167275771Y-102325475D01*
X167330533Y-102280533D01*
X167375475Y-102225771D01*
X167408870Y-102163293D01*
X167429434Y-102095501D01*
X167436378Y-102025000D01*
X167436378Y-100625000D01*
X167429434Y-100554499D01*
X167411515Y-100495427D01*
X167472916Y-100454400D01*
X167542316Y-100385000D01*
X169615000Y-100385000D01*
X169615000Y-102813622D01*
X168225000Y-102813622D01*
X168154499Y-102820566D01*
X168086707Y-102841130D01*
X168024229Y-102874525D01*
X167969467Y-102919467D01*
X167924525Y-102974229D01*
X167891130Y-103036707D01*
X167870566Y-103104499D01*
X167866294Y-103147875D01*
X167865306Y-103142910D01*
X167821208Y-103036446D01*
X167757187Y-102940632D01*
X167675703Y-102859148D01*
X167579889Y-102795127D01*
X167473425Y-102751029D01*
X167360405Y-102728548D01*
X167245169Y-102728548D01*
X167132149Y-102751029D01*
X167025685Y-102795127D01*
X166929871Y-102859148D01*
X166848387Y-102940632D01*
X166784366Y-103036446D01*
X166740268Y-103142910D01*
X166717787Y-103255930D01*
X166717787Y-103371166D01*
X166740268Y-103484186D01*
X166784366Y-103590650D01*
X166848387Y-103686464D01*
X166929871Y-103767948D01*
X167025685Y-103831969D01*
X167132149Y-103876067D01*
X167245169Y-103898548D01*
X167360405Y-103898548D01*
X167473425Y-103876067D01*
X167490712Y-103868907D01*
X167613860Y-103992055D01*
X167625132Y-104005790D01*
X167679949Y-104050777D01*
X167742490Y-104084205D01*
X167789764Y-104098545D01*
X167810349Y-104104790D01*
X167880921Y-104111741D01*
X167898597Y-104110000D01*
X168005373Y-104110000D01*
X168024229Y-104125475D01*
X168086707Y-104158870D01*
X168154499Y-104179434D01*
X168225000Y-104186378D01*
X169615000Y-104186378D01*
X169615000Y-104313622D01*
X168225000Y-104313622D01*
X168154499Y-104320566D01*
X168086707Y-104341130D01*
X168024229Y-104374525D01*
X167969467Y-104419467D01*
X167924525Y-104474229D01*
X167891130Y-104536707D01*
X167870566Y-104604499D01*
X167863622Y-104675000D01*
X167863622Y-104825000D01*
X167870566Y-104895501D01*
X167891130Y-104963293D01*
X167910750Y-105000000D01*
X167891130Y-105036707D01*
X167870566Y-105104499D01*
X167863622Y-105175000D01*
X167863622Y-105325000D01*
X167870566Y-105395501D01*
X167891130Y-105463293D01*
X167910750Y-105500000D01*
X167891130Y-105536707D01*
X167870566Y-105604499D01*
X167863622Y-105675000D01*
X167863622Y-105716348D01*
X167779512Y-105660147D01*
X167673048Y-105616049D01*
X167560028Y-105593568D01*
X167444792Y-105593568D01*
X167331772Y-105616049D01*
X167225308Y-105660147D01*
X167129494Y-105724168D01*
X167048010Y-105805652D01*
X166983989Y-105901466D01*
X166966115Y-105944617D01*
X166954400Y-105927084D01*
X166872916Y-105845600D01*
X166777102Y-105781579D01*
X166670638Y-105737481D01*
X166557618Y-105715000D01*
X166442382Y-105715000D01*
X166329362Y-105737481D01*
X166222898Y-105781579D01*
X166127084Y-105845600D01*
X166045600Y-105927084D01*
X165981579Y-106022898D01*
X165937481Y-106129362D01*
X165915000Y-106242382D01*
X165915000Y-106357618D01*
X165937481Y-106470638D01*
X165981579Y-106577102D01*
X166045600Y-106672916D01*
X166127084Y-106754400D01*
X166222898Y-106818421D01*
X166329362Y-106862519D01*
X166442382Y-106885000D01*
X166557618Y-106885000D01*
X166670638Y-106862519D01*
X166777102Y-106818421D01*
X166872916Y-106754400D01*
X166954400Y-106672916D01*
X167018421Y-106577102D01*
X167036295Y-106533951D01*
X167043660Y-106544973D01*
X167033126Y-106555507D01*
X166969105Y-106651321D01*
X166925007Y-106757785D01*
X166902526Y-106870805D01*
X166902526Y-106986041D01*
X166925007Y-107099061D01*
X166969105Y-107205525D01*
X167033126Y-107301339D01*
X167114610Y-107382823D01*
X167210424Y-107446844D01*
X167316888Y-107490942D01*
X167429908Y-107513423D01*
X167545144Y-107513423D01*
X167658164Y-107490942D01*
X167764628Y-107446844D01*
X167860442Y-107382823D01*
X167868521Y-107374744D01*
X167870566Y-107395501D01*
X167891130Y-107463293D01*
X167910750Y-107500000D01*
X167891130Y-107536707D01*
X167870566Y-107604499D01*
X167866913Y-107641589D01*
X167777102Y-107581579D01*
X167670638Y-107537481D01*
X167557618Y-107515000D01*
X167442382Y-107515000D01*
X167329362Y-107537481D01*
X167222898Y-107581579D01*
X167127084Y-107645600D01*
X167045600Y-107727084D01*
X166981579Y-107822898D01*
X166937481Y-107929362D01*
X166915000Y-108042382D01*
X166915000Y-108157618D01*
X166926414Y-108215000D01*
X166842382Y-108215000D01*
X166729362Y-108237481D01*
X166622898Y-108281579D01*
X166527084Y-108345600D01*
X166445600Y-108427084D01*
X166381579Y-108522898D01*
X166337481Y-108629362D01*
X166315000Y-108742382D01*
X166315000Y-108857618D01*
X166337481Y-108970638D01*
X166373827Y-109058388D01*
X166277547Y-109077539D01*
X166171083Y-109121637D01*
X166075269Y-109185658D01*
X165993785Y-109267142D01*
X165929764Y-109362956D01*
X165885666Y-109469420D01*
X165863185Y-109582440D01*
X165863185Y-109697676D01*
X165885666Y-109810696D01*
X165929764Y-109917160D01*
X165993785Y-110012974D01*
X166075269Y-110094458D01*
X166171083Y-110158479D01*
X166277547Y-110202577D01*
X166390567Y-110225058D01*
X166505803Y-110225058D01*
X166618823Y-110202577D01*
X166623285Y-110200729D01*
X166615000Y-110242382D01*
X166615000Y-110357618D01*
X166637481Y-110470638D01*
X166681579Y-110577102D01*
X166745600Y-110672916D01*
X166827084Y-110754400D01*
X166922898Y-110818421D01*
X167029362Y-110862519D01*
X167142382Y-110885000D01*
X167257618Y-110885000D01*
X167370638Y-110862519D01*
X167477102Y-110818421D01*
X167572916Y-110754400D01*
X167654400Y-110672916D01*
X167696439Y-110610000D01*
X168005373Y-110610000D01*
X168024229Y-110625475D01*
X168086707Y-110658870D01*
X168154499Y-110679434D01*
X168225000Y-110686378D01*
X169615000Y-110686378D01*
X169615000Y-113614353D01*
X167357845Y-113597253D01*
X167375475Y-113575771D01*
X167408870Y-113513293D01*
X167429434Y-113445501D01*
X167436378Y-113375000D01*
X167436378Y-111975000D01*
X167429434Y-111904499D01*
X167408870Y-111836707D01*
X167375475Y-111774229D01*
X167330533Y-111719467D01*
X167275771Y-111674525D01*
X167213293Y-111641130D01*
X167145501Y-111620566D01*
X167075000Y-111613622D01*
X166925000Y-111613622D01*
X166854499Y-111620566D01*
X166786707Y-111641130D01*
X166750000Y-111660750D01*
X166713293Y-111641130D01*
X166645501Y-111620566D01*
X166575000Y-111613622D01*
X166425000Y-111613622D01*
X166354499Y-111620566D01*
X166286707Y-111641130D01*
X166250000Y-111660750D01*
X166213293Y-111641130D01*
X166145501Y-111620566D01*
X166075000Y-111613622D01*
X165925000Y-111613622D01*
X165854499Y-111620566D01*
X165786707Y-111641130D01*
X165750000Y-111660750D01*
X165713293Y-111641130D01*
X165645501Y-111620566D01*
X165575000Y-111613622D01*
X165425000Y-111613622D01*
X165354499Y-111620566D01*
X165286707Y-111641130D01*
X165250000Y-111660750D01*
X165213293Y-111641130D01*
X165145501Y-111620566D01*
X165075000Y-111613622D01*
X164925000Y-111613622D01*
X164854499Y-111620566D01*
X164786707Y-111641130D01*
X164750000Y-111660750D01*
X164713293Y-111641130D01*
X164645501Y-111620566D01*
X164575000Y-111613622D01*
X164425000Y-111613622D01*
X164354499Y-111620566D01*
X164286707Y-111641130D01*
X164250000Y-111660750D01*
X164213293Y-111641130D01*
X164145501Y-111620566D01*
X164075000Y-111613622D01*
X163925000Y-111613622D01*
X163854499Y-111620566D01*
X163786707Y-111641130D01*
X163750000Y-111660750D01*
X163713293Y-111641130D01*
X163645501Y-111620566D01*
X163575000Y-111613622D01*
X163425000Y-111613622D01*
X163354499Y-111620566D01*
X163286707Y-111641130D01*
X163250000Y-111660750D01*
X163213293Y-111641130D01*
X163145501Y-111620566D01*
X163075000Y-111613622D01*
X162925000Y-111613622D01*
X162854499Y-111620566D01*
X162786707Y-111641130D01*
X162750000Y-111660750D01*
X162713293Y-111641130D01*
X162645501Y-111620566D01*
X162575000Y-111613622D01*
X162482119Y-111613622D01*
X162502381Y-111593360D01*
X162566402Y-111497546D01*
X162610500Y-111391082D01*
X162632981Y-111278062D01*
X162632981Y-111162826D01*
X162610500Y-111049806D01*
X162566402Y-110943342D01*
X162502381Y-110847528D01*
X162420897Y-110766044D01*
X162325083Y-110702023D01*
X162218619Y-110657925D01*
X162105599Y-110635444D01*
X161990363Y-110635444D01*
X161877343Y-110657925D01*
X161770879Y-110702023D01*
X161675065Y-110766044D01*
X161593581Y-110847528D01*
X161529560Y-110943342D01*
X161495209Y-111026274D01*
X161458873Y-110938549D01*
X161394852Y-110842735D01*
X161313368Y-110761251D01*
X161217554Y-110697230D01*
X161111090Y-110653132D01*
X160998070Y-110630651D01*
X160882834Y-110630651D01*
X160769814Y-110653132D01*
X160663350Y-110697230D01*
X160567536Y-110761251D01*
X160486052Y-110842735D01*
X160422031Y-110938549D01*
X160377933Y-111045013D01*
X160355452Y-111158033D01*
X160355452Y-111210990D01*
X160275328Y-111210990D01*
X160257652Y-111209249D01*
X160187079Y-111216200D01*
X160166494Y-111222445D01*
X160119220Y-111236785D01*
X160056679Y-111270213D01*
X160001862Y-111315200D01*
X159990590Y-111328935D01*
X159757945Y-111561580D01*
X159744211Y-111572852D01*
X159699224Y-111627669D01*
X159691798Y-111641563D01*
X159665796Y-111690210D01*
X159649563Y-111743720D01*
X159624525Y-111774229D01*
X159591130Y-111836707D01*
X159570566Y-111904499D01*
X159563622Y-111975000D01*
X159563622Y-113375000D01*
X159570566Y-113445501D01*
X159582208Y-113483880D01*
X159528151Y-113537938D01*
X157834221Y-113525105D01*
X157807339Y-113498223D01*
X157827993Y-113430133D01*
X157836378Y-113345000D01*
X157836378Y-113045000D01*
X157827993Y-112959867D01*
X157803161Y-112878005D01*
X157762835Y-112802561D01*
X157727914Y-112760010D01*
X157783594Y-112760010D01*
X157801270Y-112761751D01*
X157871842Y-112754800D01*
X157939702Y-112734215D01*
X158002243Y-112700787D01*
X158057060Y-112655800D01*
X158068336Y-112642060D01*
X161675407Y-109034990D01*
X162807661Y-109034990D01*
X162816291Y-109047906D01*
X162897775Y-109129390D01*
X162993589Y-109193411D01*
X163100053Y-109237509D01*
X163213073Y-109259990D01*
X163292659Y-109259990D01*
X163289562Y-109275561D01*
X163289562Y-109315000D01*
X163242382Y-109315000D01*
X163129362Y-109337481D01*
X163022898Y-109381579D01*
X162927084Y-109445600D01*
X162845600Y-109527084D01*
X162781579Y-109622898D01*
X162737481Y-109729362D01*
X162715000Y-109842382D01*
X162715000Y-109957618D01*
X162737481Y-110070638D01*
X162781579Y-110177102D01*
X162845600Y-110272916D01*
X162927084Y-110354400D01*
X163022898Y-110418421D01*
X163129362Y-110462519D01*
X163242382Y-110485000D01*
X163357618Y-110485000D01*
X163470638Y-110462519D01*
X163577102Y-110418421D01*
X163672916Y-110354400D01*
X163754400Y-110272916D01*
X163818421Y-110177102D01*
X163862519Y-110070638D01*
X163885000Y-109957618D01*
X163885000Y-109918179D01*
X163932180Y-109918179D01*
X164045200Y-109895698D01*
X164151664Y-109851600D01*
X164247478Y-109787579D01*
X164328962Y-109706095D01*
X164392983Y-109610281D01*
X164437081Y-109503817D01*
X164459562Y-109390797D01*
X164459562Y-109275561D01*
X164437081Y-109162541D01*
X164392983Y-109056077D01*
X164328962Y-108960263D01*
X164247478Y-108878779D01*
X164151664Y-108814758D01*
X164045200Y-108770660D01*
X163932180Y-108748179D01*
X163852594Y-108748179D01*
X163855691Y-108732608D01*
X163855691Y-108617372D01*
X163833210Y-108504352D01*
X163789112Y-108397888D01*
X163725091Y-108302074D01*
X163643607Y-108220590D01*
X163547793Y-108156569D01*
X163441329Y-108112471D01*
X163328309Y-108089990D01*
X163213073Y-108089990D01*
X163100053Y-108112471D01*
X162993589Y-108156569D01*
X162897775Y-108220590D01*
X162816291Y-108302074D01*
X162807661Y-108314990D01*
X161543966Y-108314990D01*
X161526290Y-108313249D01*
X161508614Y-108314990D01*
X161455718Y-108320200D01*
X161387858Y-108340785D01*
X161325317Y-108374213D01*
X161270500Y-108419200D01*
X161259228Y-108432935D01*
X159039010Y-110653154D01*
X159039010Y-110525331D01*
X159040751Y-110507652D01*
X159039997Y-110500000D01*
X159040751Y-110492348D01*
X159039010Y-110474669D01*
X159039010Y-110025331D01*
X159040751Y-110007652D01*
X159033801Y-109937080D01*
X159013215Y-109869219D01*
X158998201Y-109841130D01*
X158979787Y-109806679D01*
X158934800Y-109751862D01*
X158921060Y-109740586D01*
X158709414Y-109528940D01*
X158698138Y-109515200D01*
X158643321Y-109470213D01*
X158611870Y-109453403D01*
X158629434Y-109395501D01*
X158636378Y-109325000D01*
X158636378Y-109175000D01*
X158629976Y-109110000D01*
X158669962Y-109110000D01*
X158731013Y-109171051D01*
X158742289Y-109184791D01*
X158797106Y-109229778D01*
X158834938Y-109249999D01*
X158859646Y-109263206D01*
X158927507Y-109283792D01*
X158998079Y-109290742D01*
X159015758Y-109289001D01*
X159584245Y-109289001D01*
X159601921Y-109290742D01*
X159672493Y-109283791D01*
X159690538Y-109278317D01*
X159740353Y-109263206D01*
X159802894Y-109229778D01*
X159857711Y-109184791D01*
X159868987Y-109171051D01*
X160171060Y-108868979D01*
X160184790Y-108857711D01*
X160229778Y-108802894D01*
X160263206Y-108740353D01*
X160279997Y-108685000D01*
X160283791Y-108672494D01*
X160290742Y-108601921D01*
X160289001Y-108584245D01*
X160289001Y-106940105D01*
X160290742Y-106922429D01*
X160283791Y-106851856D01*
X160273648Y-106818421D01*
X160263206Y-106783997D01*
X160229778Y-106721456D01*
X160184791Y-106666639D01*
X160171056Y-106655367D01*
X160142041Y-106626352D01*
X160229362Y-106662521D01*
X160342382Y-106685002D01*
X160457618Y-106685002D01*
X160570638Y-106662521D01*
X160677102Y-106618423D01*
X160772916Y-106554402D01*
X160854400Y-106472918D01*
X160918421Y-106377104D01*
X160962519Y-106270640D01*
X160985000Y-106157620D01*
X160985000Y-106042384D01*
X160965378Y-105943738D01*
X161927147Y-104981970D01*
X161942382Y-104985000D01*
X162057618Y-104985000D01*
X162170638Y-104962519D01*
X162277102Y-104918421D01*
X162372916Y-104854400D01*
X162454400Y-104772916D01*
X162518421Y-104677102D01*
X162562519Y-104570638D01*
X162585000Y-104457618D01*
X162585000Y-104342382D01*
X162562519Y-104229362D01*
X162518421Y-104122898D01*
X162454400Y-104027084D01*
X162372916Y-103945600D01*
X162277102Y-103881579D01*
X162170638Y-103837481D01*
X162057618Y-103815000D01*
X161942382Y-103815000D01*
X161829362Y-103837481D01*
X161722898Y-103881579D01*
X161627084Y-103945600D01*
X161545600Y-104027084D01*
X161481579Y-104122898D01*
X161437481Y-104229362D01*
X161415000Y-104342382D01*
X161415000Y-104457618D01*
X161418030Y-104472853D01*
X160375882Y-105515002D01*
X160342382Y-105515002D01*
X160229362Y-105537483D01*
X160122898Y-105581581D01*
X160027084Y-105645602D01*
X159945600Y-105727086D01*
X159881579Y-105822900D01*
X159837481Y-105929364D01*
X159825166Y-105991278D01*
X159756131Y-105922243D01*
X159660317Y-105858222D01*
X159553853Y-105814124D01*
X159440833Y-105791643D01*
X159325597Y-105791643D01*
X159212577Y-105814124D01*
X159106113Y-105858222D01*
X159010299Y-105922243D01*
X158928815Y-106003727D01*
X158864794Y-106099541D01*
X158820696Y-106206005D01*
X158798215Y-106319025D01*
X158798215Y-106434261D01*
X158820696Y-106547281D01*
X158864794Y-106653745D01*
X158928815Y-106749559D01*
X159010299Y-106831043D01*
X159106113Y-106895064D01*
X159182838Y-106926844D01*
X159129362Y-106937481D01*
X159022898Y-106981579D01*
X158927084Y-107045600D01*
X158845600Y-107127084D01*
X158781579Y-107222898D01*
X158737481Y-107329362D01*
X158715000Y-107442382D01*
X158715000Y-107534526D01*
X158688424Y-107507950D01*
X158677148Y-107494210D01*
X158622331Y-107449223D01*
X158614421Y-107444995D01*
X158629434Y-107395501D01*
X158636378Y-107325000D01*
X158636378Y-107175000D01*
X158629434Y-107104499D01*
X158608870Y-107036707D01*
X158589250Y-107000000D01*
X158608870Y-106963293D01*
X158629434Y-106895501D01*
X158636378Y-106825000D01*
X158636378Y-106675000D01*
X158629434Y-106604499D01*
X158608870Y-106536707D01*
X158589250Y-106500000D01*
X158608870Y-106463293D01*
X158629434Y-106395501D01*
X158636378Y-106325000D01*
X158636378Y-106175000D01*
X158629434Y-106104499D01*
X158608870Y-106036707D01*
X158589250Y-106000000D01*
X158608870Y-105963293D01*
X158629434Y-105895501D01*
X158636378Y-105825000D01*
X158636378Y-105675000D01*
X158629434Y-105604499D01*
X158618417Y-105568178D01*
X158650973Y-105550777D01*
X158705790Y-105505790D01*
X158717066Y-105492050D01*
X158877147Y-105331970D01*
X158892382Y-105335000D01*
X159007618Y-105335000D01*
X159120638Y-105312519D01*
X159227102Y-105268421D01*
X159322916Y-105204400D01*
X159404400Y-105122916D01*
X159468421Y-105027102D01*
X159512519Y-104920638D01*
X159535000Y-104807618D01*
X159535000Y-104692382D01*
X159512519Y-104579362D01*
X159468421Y-104472898D01*
X159404400Y-104377084D01*
X159322916Y-104295600D01*
X159310000Y-104286970D01*
X159310000Y-103943411D01*
X159311741Y-103925735D01*
X159304790Y-103855163D01*
X159295640Y-103825000D01*
X159284205Y-103787304D01*
X159250777Y-103724763D01*
X159205789Y-103669946D01*
X159192054Y-103658674D01*
X159041330Y-103507950D01*
X159030054Y-103494210D01*
X158975237Y-103449223D01*
X158912696Y-103415795D01*
X158844836Y-103395210D01*
X158791940Y-103390000D01*
X158774264Y-103388259D01*
X158756588Y-103390000D01*
X158494627Y-103390000D01*
X158475771Y-103374525D01*
X158413293Y-103341130D01*
X158345501Y-103320566D01*
X158275000Y-103313622D01*
X156875000Y-103313622D01*
X156804499Y-103320566D01*
X156736707Y-103341130D01*
X156674229Y-103374525D01*
X156619467Y-103419467D01*
X156585000Y-103461465D01*
X156585000Y-102613144D01*
X156672916Y-102554400D01*
X156754400Y-102472916D01*
X156818421Y-102377102D01*
X156862519Y-102270638D01*
X156885000Y-102157618D01*
X156885000Y-102042382D01*
X156862845Y-101930999D01*
X157093241Y-101930999D01*
X157329298Y-102167057D01*
X157329303Y-102167061D01*
X158237316Y-103075075D01*
X158248588Y-103088810D01*
X158303405Y-103133797D01*
X158344161Y-103155581D01*
X158365945Y-103167225D01*
X158433806Y-103187811D01*
X158504378Y-103194762D01*
X158522064Y-103193020D01*
X160392018Y-103193020D01*
X160409694Y-103194761D01*
X160480266Y-103187810D01*
X160548126Y-103167225D01*
X160610667Y-103133797D01*
X160665484Y-103088810D01*
X160676760Y-103075070D01*
X161242055Y-102509776D01*
X161255790Y-102498504D01*
X161300777Y-102443687D01*
X161331409Y-102386378D01*
X161334205Y-102381147D01*
X161336391Y-102373941D01*
X161354499Y-102379434D01*
X161425000Y-102386378D01*
X161575000Y-102386378D01*
X161645501Y-102379434D01*
X161713293Y-102358870D01*
X161750000Y-102339250D01*
X161786707Y-102358870D01*
X161854499Y-102379434D01*
X161925000Y-102386378D01*
X161957555Y-102386378D01*
X161933303Y-102422673D01*
X161889205Y-102529137D01*
X161866724Y-102642157D01*
X161866724Y-102757393D01*
X161889205Y-102870413D01*
X161933303Y-102976877D01*
X161997324Y-103072691D01*
X162078808Y-103154175D01*
X162174622Y-103218196D01*
X162281086Y-103262294D01*
X162394106Y-103284775D01*
X162509342Y-103284775D01*
X162622362Y-103262294D01*
X162728826Y-103218196D01*
X162824640Y-103154175D01*
X162875750Y-103103066D01*
X162927084Y-103154400D01*
X163022898Y-103218421D01*
X163129362Y-103262519D01*
X163242382Y-103285000D01*
X163357618Y-103285000D01*
X163470638Y-103262519D01*
X163577102Y-103218421D01*
X163672916Y-103154400D01*
X163754400Y-103072916D01*
X163818421Y-102977102D01*
X163862519Y-102870638D01*
X163885000Y-102757618D01*
X163885000Y-102642382D01*
X163862519Y-102529362D01*
X163818421Y-102422898D01*
X163769490Y-102349667D01*
X163786707Y-102358870D01*
X163854499Y-102379434D01*
X163925000Y-102386378D01*
X164075000Y-102386378D01*
X164145501Y-102379434D01*
X164213293Y-102358870D01*
X164250000Y-102339250D01*
X164269180Y-102349501D01*
X164238472Y-102380209D01*
X164174451Y-102476023D01*
X164130353Y-102582487D01*
X164107872Y-102695507D01*
X164107872Y-102810743D01*
X164130353Y-102923763D01*
X164174451Y-103030227D01*
X164238472Y-103126041D01*
X164319956Y-103207525D01*
X164415770Y-103271546D01*
X164522234Y-103315644D01*
X164635254Y-103338125D01*
X164750490Y-103338125D01*
X164863510Y-103315644D01*
X164969974Y-103271546D01*
X165065788Y-103207525D01*
X165147272Y-103126041D01*
X165211293Y-103030227D01*
X165255391Y-102923763D01*
X165277872Y-102810743D01*
X165277872Y-102695507D01*
X165262254Y-102616991D01*
X165300777Y-102570051D01*
X165331235Y-102513067D01*
X165334205Y-102507511D01*
X165354791Y-102439650D01*
X165361741Y-102369078D01*
X165360000Y-102351399D01*
X165360000Y-102244627D01*
X165375475Y-102225771D01*
X165408870Y-102163293D01*
X165429434Y-102095501D01*
X165436378Y-102025000D01*
X165436378Y-100625000D01*
X165429434Y-100554499D01*
X165408870Y-100486707D01*
X165375475Y-100424229D01*
X165343281Y-100385000D01*
X165656719Y-100385000D01*
X165624525Y-100424229D01*
G37*
%TD.AperFunction*%
D24*
X159563622Y-100625000D02*
X159563622Y-102025000D01*
X159567957Y-102069010D01*
X158978127Y-102069010D01*
X157726768Y-100817652D01*
X159003314Y-100817652D01*
X159020990Y-100819393D01*
X159091562Y-100812442D01*
X159159422Y-100791857D01*
X159221963Y-100758429D01*
X159276780Y-100713442D01*
X159288056Y-100699702D01*
X159406768Y-100580990D01*
X159567957Y-100580990D01*
X159563622Y-100625000D01*
%TA.AperFunction,Conductor*%
D25*
G36*
X159563622Y-100625000D02*
G01*
X159563622Y-102025000D01*
X159567957Y-102069010D01*
X158978127Y-102069010D01*
X157726768Y-100817652D01*
X159003314Y-100817652D01*
X159020990Y-100819393D01*
X159091562Y-100812442D01*
X159159422Y-100791857D01*
X159221963Y-100758429D01*
X159276780Y-100713442D01*
X159288056Y-100699702D01*
X159406768Y-100580990D01*
X159567957Y-100580990D01*
X159563622Y-100625000D01*
G37*
%TD.AperFunction*%
%TD*%
D24*
%TO.N,+3V3*%
X154345600Y-112760094D02*
X154281579Y-112855908D01*
X154237481Y-112962372D01*
X154215000Y-113075392D01*
X154215000Y-113190628D01*
X154237481Y-113303648D01*
X154281579Y-113410112D01*
X154345600Y-113505926D01*
X154427084Y-113587410D01*
X154522898Y-113651431D01*
X154629362Y-113695529D01*
X154742382Y-113718010D01*
X154857618Y-113718010D01*
X154970638Y-113695529D01*
X155077102Y-113651431D01*
X155172916Y-113587410D01*
X155254400Y-113505926D01*
X155318421Y-113410112D01*
X155319725Y-113406964D01*
X155322007Y-113430133D01*
X155346839Y-113511995D01*
X155387165Y-113587439D01*
X155441434Y-113653566D01*
X155507561Y-113707835D01*
X155583005Y-113748161D01*
X155664867Y-113772993D01*
X155750000Y-113781378D01*
X157072262Y-113781378D01*
X157169506Y-113878622D01*
X155750000Y-113878622D01*
X155664867Y-113887007D01*
X155583005Y-113911839D01*
X155507561Y-113952165D01*
X155441434Y-114006434D01*
X155401577Y-114055000D01*
X155382316Y-114055000D01*
X155372916Y-114045600D01*
X155277102Y-113981579D01*
X155170638Y-113937481D01*
X155057618Y-113915000D01*
X154942382Y-113915000D01*
X154829362Y-113937481D01*
X154722898Y-113981579D01*
X154627084Y-114045600D01*
X154545600Y-114127084D01*
X154481579Y-114222898D01*
X154437481Y-114329362D01*
X154415000Y-114442382D01*
X154415000Y-114557618D01*
X154437481Y-114670638D01*
X154481579Y-114777102D01*
X154545600Y-114872916D01*
X154627084Y-114954400D01*
X154722898Y-115018421D01*
X154829362Y-115062519D01*
X154942382Y-115085000D01*
X155057618Y-115085000D01*
X155170638Y-115062519D01*
X155277102Y-115018421D01*
X155372916Y-114954400D01*
X155424448Y-114902868D01*
X155441434Y-114923566D01*
X155507561Y-114977835D01*
X155583005Y-115018161D01*
X155664867Y-115042993D01*
X155750000Y-115051378D01*
X157400000Y-115051378D01*
X157485133Y-115042993D01*
X157566995Y-115018161D01*
X157642439Y-114977835D01*
X157708566Y-114923566D01*
X157762835Y-114857439D01*
X157803161Y-114781995D01*
X157827993Y-114700133D01*
X157836378Y-114615000D01*
X157836378Y-114545494D01*
X157915000Y-114624116D01*
X157915000Y-116645000D01*
X157780174Y-116645000D01*
X157762835Y-116612561D01*
X157708566Y-116546434D01*
X157642439Y-116492165D01*
X157566995Y-116451839D01*
X157485133Y-116427007D01*
X157400000Y-116418622D01*
X155750000Y-116418622D01*
X155664867Y-116427007D01*
X155583005Y-116451839D01*
X155507561Y-116492165D01*
X155441434Y-116546434D01*
X155387165Y-116612561D01*
X155346839Y-116688005D01*
X155322007Y-116769867D01*
X155313622Y-116855000D01*
X155313622Y-117155000D01*
X155322007Y-117240133D01*
X155346839Y-117321995D01*
X155387165Y-117397439D01*
X155441434Y-117463566D01*
X155507561Y-117517835D01*
X155583005Y-117558161D01*
X155664867Y-117582993D01*
X155750000Y-117591378D01*
X157400000Y-117591378D01*
X157485133Y-117582993D01*
X157566995Y-117558161D01*
X157642439Y-117517835D01*
X157708566Y-117463566D01*
X157762835Y-117397439D01*
X157780174Y-117365000D01*
X157915000Y-117365000D01*
X157915000Y-117764439D01*
X150485000Y-117715558D01*
X150485000Y-117455726D01*
X150491434Y-117463566D01*
X150557561Y-117517835D01*
X150633005Y-117558161D01*
X150714867Y-117582993D01*
X150800000Y-117591378D01*
X152450000Y-117591378D01*
X152535133Y-117582993D01*
X152616995Y-117558161D01*
X152692439Y-117517835D01*
X152758566Y-117463566D01*
X152812835Y-117397439D01*
X152853161Y-117321995D01*
X152877993Y-117240133D01*
X152886378Y-117155000D01*
X152886378Y-116855000D01*
X152877993Y-116769867D01*
X152853161Y-116688005D01*
X152812835Y-116612561D01*
X152758566Y-116546434D01*
X152692439Y-116492165D01*
X152616995Y-116451839D01*
X152535133Y-116427007D01*
X152450000Y-116418622D01*
X150800000Y-116418622D01*
X150714867Y-116427007D01*
X150633005Y-116451839D01*
X150557561Y-116492165D01*
X150491434Y-116546434D01*
X150485000Y-116554274D01*
X150485000Y-116185726D01*
X150491434Y-116193566D01*
X150557561Y-116247835D01*
X150633005Y-116288161D01*
X150714867Y-116312993D01*
X150800000Y-116321378D01*
X152450000Y-116321378D01*
X152535133Y-116312993D01*
X152616995Y-116288161D01*
X152671118Y-116259231D01*
X152676357Y-116271880D01*
X152740378Y-116367694D01*
X152821862Y-116449178D01*
X152917676Y-116513199D01*
X153024140Y-116557297D01*
X153137160Y-116579778D01*
X153252396Y-116579778D01*
X153365416Y-116557297D01*
X153471880Y-116513199D01*
X153567694Y-116449178D01*
X153649178Y-116367694D01*
X153713199Y-116271880D01*
X153757297Y-116165416D01*
X153779778Y-116052396D01*
X153779778Y-115937160D01*
X153757297Y-115824140D01*
X153713199Y-115717676D01*
X153649178Y-115621862D01*
X153567694Y-115540378D01*
X153471880Y-115476357D01*
X153365416Y-115432259D01*
X153252396Y-115409778D01*
X153137160Y-115409778D01*
X153102964Y-115416580D01*
X153073432Y-115400795D01*
X153005572Y-115380210D01*
X152952676Y-115375000D01*
X152935000Y-115373259D01*
X152917324Y-115375000D01*
X152830174Y-115375000D01*
X152812835Y-115342561D01*
X152758566Y-115276434D01*
X152692439Y-115222165D01*
X152616995Y-115181839D01*
X152535133Y-115157007D01*
X152450000Y-115148622D01*
X150800000Y-115148622D01*
X150714867Y-115157007D01*
X150633005Y-115181839D01*
X150557561Y-115222165D01*
X150491434Y-115276434D01*
X150485000Y-115284274D01*
X150485000Y-114915726D01*
X150491434Y-114923566D01*
X150557561Y-114977835D01*
X150633005Y-115018161D01*
X150714867Y-115042993D01*
X150800000Y-115051378D01*
X152450000Y-115051378D01*
X152535133Y-115042993D01*
X152616995Y-115018161D01*
X152675615Y-114986828D01*
X152722898Y-115018421D01*
X152829362Y-115062519D01*
X152942382Y-115085000D01*
X153057618Y-115085000D01*
X153170638Y-115062519D01*
X153277102Y-115018421D01*
X153372916Y-114954400D01*
X153454400Y-114872916D01*
X153518421Y-114777102D01*
X153562519Y-114670638D01*
X153585000Y-114557618D01*
X153585000Y-114442382D01*
X153562519Y-114329362D01*
X153518421Y-114222898D01*
X153454400Y-114127084D01*
X153372916Y-114045600D01*
X153277102Y-113981579D01*
X153170638Y-113937481D01*
X153057618Y-113915000D01*
X152942382Y-113915000D01*
X152829362Y-113937481D01*
X152726475Y-113980097D01*
X152692439Y-113952165D01*
X152616995Y-113911839D01*
X152535133Y-113887007D01*
X152450000Y-113878622D01*
X150800000Y-113878622D01*
X150714867Y-113887007D01*
X150633005Y-113911839D01*
X150557561Y-113952165D01*
X150491434Y-114006434D01*
X150485000Y-114014274D01*
X150485000Y-113645726D01*
X150491434Y-113653566D01*
X150557561Y-113707835D01*
X150633005Y-113748161D01*
X150714867Y-113772993D01*
X150800000Y-113781378D01*
X152450000Y-113781378D01*
X152535133Y-113772993D01*
X152616995Y-113748161D01*
X152692439Y-113707835D01*
X152758566Y-113653566D01*
X152812835Y-113587439D01*
X152853161Y-113511995D01*
X152877993Y-113430133D01*
X152886378Y-113345000D01*
X152886378Y-113045000D01*
X152879103Y-112971132D01*
X152881579Y-112977111D01*
X152945600Y-113072925D01*
X153027084Y-113154409D01*
X153122898Y-113218430D01*
X153229362Y-113262528D01*
X153342382Y-113285009D01*
X153457618Y-113285009D01*
X153570638Y-113262528D01*
X153677102Y-113218430D01*
X153772916Y-113154409D01*
X153854400Y-113072925D01*
X153918421Y-112977111D01*
X153962519Y-112870647D01*
X153984526Y-112760010D01*
X154345684Y-112760010D01*
X154345600Y-112760094D01*
%TA.AperFunction,Conductor*%
D25*
G36*
X154345600Y-112760094D02*
G01*
X154281579Y-112855908D01*
X154237481Y-112962372D01*
X154215000Y-113075392D01*
X154215000Y-113190628D01*
X154237481Y-113303648D01*
X154281579Y-113410112D01*
X154345600Y-113505926D01*
X154427084Y-113587410D01*
X154522898Y-113651431D01*
X154629362Y-113695529D01*
X154742382Y-113718010D01*
X154857618Y-113718010D01*
X154970638Y-113695529D01*
X155077102Y-113651431D01*
X155172916Y-113587410D01*
X155254400Y-113505926D01*
X155318421Y-113410112D01*
X155319725Y-113406964D01*
X155322007Y-113430133D01*
X155346839Y-113511995D01*
X155387165Y-113587439D01*
X155441434Y-113653566D01*
X155507561Y-113707835D01*
X155583005Y-113748161D01*
X155664867Y-113772993D01*
X155750000Y-113781378D01*
X157072262Y-113781378D01*
X157169506Y-113878622D01*
X155750000Y-113878622D01*
X155664867Y-113887007D01*
X155583005Y-113911839D01*
X155507561Y-113952165D01*
X155441434Y-114006434D01*
X155401577Y-114055000D01*
X155382316Y-114055000D01*
X155372916Y-114045600D01*
X155277102Y-113981579D01*
X155170638Y-113937481D01*
X155057618Y-113915000D01*
X154942382Y-113915000D01*
X154829362Y-113937481D01*
X154722898Y-113981579D01*
X154627084Y-114045600D01*
X154545600Y-114127084D01*
X154481579Y-114222898D01*
X154437481Y-114329362D01*
X154415000Y-114442382D01*
X154415000Y-114557618D01*
X154437481Y-114670638D01*
X154481579Y-114777102D01*
X154545600Y-114872916D01*
X154627084Y-114954400D01*
X154722898Y-115018421D01*
X154829362Y-115062519D01*
X154942382Y-115085000D01*
X155057618Y-115085000D01*
X155170638Y-115062519D01*
X155277102Y-115018421D01*
X155372916Y-114954400D01*
X155424448Y-114902868D01*
X155441434Y-114923566D01*
X155507561Y-114977835D01*
X155583005Y-115018161D01*
X155664867Y-115042993D01*
X155750000Y-115051378D01*
X157400000Y-115051378D01*
X157485133Y-115042993D01*
X157566995Y-115018161D01*
X157642439Y-114977835D01*
X157708566Y-114923566D01*
X157762835Y-114857439D01*
X157803161Y-114781995D01*
X157827993Y-114700133D01*
X157836378Y-114615000D01*
X157836378Y-114545494D01*
X157915000Y-114624116D01*
X157915000Y-116645000D01*
X157780174Y-116645000D01*
X157762835Y-116612561D01*
X157708566Y-116546434D01*
X157642439Y-116492165D01*
X157566995Y-116451839D01*
X157485133Y-116427007D01*
X157400000Y-116418622D01*
X155750000Y-116418622D01*
X155664867Y-116427007D01*
X155583005Y-116451839D01*
X155507561Y-116492165D01*
X155441434Y-116546434D01*
X155387165Y-116612561D01*
X155346839Y-116688005D01*
X155322007Y-116769867D01*
X155313622Y-116855000D01*
X155313622Y-117155000D01*
X155322007Y-117240133D01*
X155346839Y-117321995D01*
X155387165Y-117397439D01*
X155441434Y-117463566D01*
X155507561Y-117517835D01*
X155583005Y-117558161D01*
X155664867Y-117582993D01*
X155750000Y-117591378D01*
X157400000Y-117591378D01*
X157485133Y-117582993D01*
X157566995Y-117558161D01*
X157642439Y-117517835D01*
X157708566Y-117463566D01*
X157762835Y-117397439D01*
X157780174Y-117365000D01*
X157915000Y-117365000D01*
X157915000Y-117764439D01*
X150485000Y-117715558D01*
X150485000Y-117455726D01*
X150491434Y-117463566D01*
X150557561Y-117517835D01*
X150633005Y-117558161D01*
X150714867Y-117582993D01*
X150800000Y-117591378D01*
X152450000Y-117591378D01*
X152535133Y-117582993D01*
X152616995Y-117558161D01*
X152692439Y-117517835D01*
X152758566Y-117463566D01*
X152812835Y-117397439D01*
X152853161Y-117321995D01*
X152877993Y-117240133D01*
X152886378Y-117155000D01*
X152886378Y-116855000D01*
X152877993Y-116769867D01*
X152853161Y-116688005D01*
X152812835Y-116612561D01*
X152758566Y-116546434D01*
X152692439Y-116492165D01*
X152616995Y-116451839D01*
X152535133Y-116427007D01*
X152450000Y-116418622D01*
X150800000Y-116418622D01*
X150714867Y-116427007D01*
X150633005Y-116451839D01*
X150557561Y-116492165D01*
X150491434Y-116546434D01*
X150485000Y-116554274D01*
X150485000Y-116185726D01*
X150491434Y-116193566D01*
X150557561Y-116247835D01*
X150633005Y-116288161D01*
X150714867Y-116312993D01*
X150800000Y-116321378D01*
X152450000Y-116321378D01*
X152535133Y-116312993D01*
X152616995Y-116288161D01*
X152671118Y-116259231D01*
X152676357Y-116271880D01*
X152740378Y-116367694D01*
X152821862Y-116449178D01*
X152917676Y-116513199D01*
X153024140Y-116557297D01*
X153137160Y-116579778D01*
X153252396Y-116579778D01*
X153365416Y-116557297D01*
X153471880Y-116513199D01*
X153567694Y-116449178D01*
X153649178Y-116367694D01*
X153713199Y-116271880D01*
X153757297Y-116165416D01*
X153779778Y-116052396D01*
X153779778Y-115937160D01*
X153757297Y-115824140D01*
X153713199Y-115717676D01*
X153649178Y-115621862D01*
X153567694Y-115540378D01*
X153471880Y-115476357D01*
X153365416Y-115432259D01*
X153252396Y-115409778D01*
X153137160Y-115409778D01*
X153102964Y-115416580D01*
X153073432Y-115400795D01*
X153005572Y-115380210D01*
X152952676Y-115375000D01*
X152935000Y-115373259D01*
X152917324Y-115375000D01*
X152830174Y-115375000D01*
X152812835Y-115342561D01*
X152758566Y-115276434D01*
X152692439Y-115222165D01*
X152616995Y-115181839D01*
X152535133Y-115157007D01*
X152450000Y-115148622D01*
X150800000Y-115148622D01*
X150714867Y-115157007D01*
X150633005Y-115181839D01*
X150557561Y-115222165D01*
X150491434Y-115276434D01*
X150485000Y-115284274D01*
X150485000Y-114915726D01*
X150491434Y-114923566D01*
X150557561Y-114977835D01*
X150633005Y-115018161D01*
X150714867Y-115042993D01*
X150800000Y-115051378D01*
X152450000Y-115051378D01*
X152535133Y-115042993D01*
X152616995Y-115018161D01*
X152675615Y-114986828D01*
X152722898Y-115018421D01*
X152829362Y-115062519D01*
X152942382Y-115085000D01*
X153057618Y-115085000D01*
X153170638Y-115062519D01*
X153277102Y-115018421D01*
X153372916Y-114954400D01*
X153454400Y-114872916D01*
X153518421Y-114777102D01*
X153562519Y-114670638D01*
X153585000Y-114557618D01*
X153585000Y-114442382D01*
X153562519Y-114329362D01*
X153518421Y-114222898D01*
X153454400Y-114127084D01*
X153372916Y-114045600D01*
X153277102Y-113981579D01*
X153170638Y-113937481D01*
X153057618Y-113915000D01*
X152942382Y-113915000D01*
X152829362Y-113937481D01*
X152726475Y-113980097D01*
X152692439Y-113952165D01*
X152616995Y-113911839D01*
X152535133Y-113887007D01*
X152450000Y-113878622D01*
X150800000Y-113878622D01*
X150714867Y-113887007D01*
X150633005Y-113911839D01*
X150557561Y-113952165D01*
X150491434Y-114006434D01*
X150485000Y-114014274D01*
X150485000Y-113645726D01*
X150491434Y-113653566D01*
X150557561Y-113707835D01*
X150633005Y-113748161D01*
X150714867Y-113772993D01*
X150800000Y-113781378D01*
X152450000Y-113781378D01*
X152535133Y-113772993D01*
X152616995Y-113748161D01*
X152692439Y-113707835D01*
X152758566Y-113653566D01*
X152812835Y-113587439D01*
X152853161Y-113511995D01*
X152877993Y-113430133D01*
X152886378Y-113345000D01*
X152886378Y-113045000D01*
X152879103Y-112971132D01*
X152881579Y-112977111D01*
X152945600Y-113072925D01*
X153027084Y-113154409D01*
X153122898Y-113218430D01*
X153229362Y-113262528D01*
X153342382Y-113285009D01*
X153457618Y-113285009D01*
X153570638Y-113262528D01*
X153677102Y-113218430D01*
X153772916Y-113154409D01*
X153854400Y-113072925D01*
X153918421Y-112977111D01*
X153962519Y-112870647D01*
X153984526Y-112760010D01*
X154345684Y-112760010D01*
X154345600Y-112760094D01*
G37*
%TD.AperFunction*%
D24*
X157915000Y-113605884D02*
X157807339Y-113498223D01*
X157827993Y-113430133D01*
X157836378Y-113345000D01*
X157836378Y-113045000D01*
X157827993Y-112959867D01*
X157803161Y-112878005D01*
X157762835Y-112802561D01*
X157727914Y-112760010D01*
X157783594Y-112760010D01*
X157801270Y-112761751D01*
X157871842Y-112754800D01*
X157915000Y-112741708D01*
X157915000Y-113605884D01*
%TA.AperFunction,Conductor*%
D25*
G36*
X157915000Y-113605884D02*
G01*
X157807339Y-113498223D01*
X157827993Y-113430133D01*
X157836378Y-113345000D01*
X157836378Y-113045000D01*
X157827993Y-112959867D01*
X157803161Y-112878005D01*
X157762835Y-112802561D01*
X157727914Y-112760010D01*
X157783594Y-112760010D01*
X157801270Y-112761751D01*
X157871842Y-112754800D01*
X157915000Y-112741708D01*
X157915000Y-113605884D01*
G37*
%TD.AperFunction*%
%TD*%
M02*
