%TF.GenerationSoftware,KiCad,Pcbnew,5.1.10-88a1d61d58~88~ubuntu20.04.1*%
%TF.CreationDate,2021-05-10T19:00:39+02:00*%
%TF.ProjectId,StepperServo,53746570-7065-4725-9365-72766f2e6b69,rev?*%
%TF.SameCoordinates,Original*%
%TF.FileFunction,Legend,Bot*%
%TF.FilePolarity,Positive*%
%FSLAX46Y46*%
G04 Gerber Fmt 4.6, Leading zero omitted, Abs format (unit mm)*
G04 Created by KiCad (PCBNEW 5.1.10-88a1d61d58~88~ubuntu20.04.1) date 2021-05-10 19:00:39*
%MOMM*%
%LPD*%
G01*
G04 APERTURE LIST*
%ADD10C,0.300000*%
%ADD11C,0.120000*%
G04 APERTURE END LIST*
D10*
X149021428Y-118628571D02*
X148950000Y-118700000D01*
X148878571Y-118842857D01*
X148878571Y-119200000D01*
X148950000Y-119342857D01*
X149021428Y-119414285D01*
X149164285Y-119485714D01*
X149307142Y-119485714D01*
X149521428Y-119414285D01*
X150378571Y-118557142D01*
X150378571Y-119485714D01*
X148878571Y-120414285D02*
X148878571Y-120557142D01*
X148950000Y-120700000D01*
X149021428Y-120771428D01*
X149164285Y-120842857D01*
X149450000Y-120914285D01*
X149807142Y-120914285D01*
X150092857Y-120842857D01*
X150235714Y-120771428D01*
X150307142Y-120700000D01*
X150378571Y-120557142D01*
X150378571Y-120414285D01*
X150307142Y-120271428D01*
X150235714Y-120200000D01*
X150092857Y-120128571D01*
X149807142Y-120057142D01*
X149450000Y-120057142D01*
X149164285Y-120128571D01*
X149021428Y-120200000D01*
X148950000Y-120271428D01*
X148878571Y-120414285D01*
X149021428Y-121485714D02*
X148950000Y-121557142D01*
X148878571Y-121700000D01*
X148878571Y-122057142D01*
X148950000Y-122200000D01*
X149021428Y-122271428D01*
X149164285Y-122342857D01*
X149307142Y-122342857D01*
X149521428Y-122271428D01*
X150378571Y-121414285D01*
X150378571Y-122342857D01*
X150378571Y-123771428D02*
X150378571Y-122914285D01*
X150378571Y-123342857D02*
X148878571Y-123342857D01*
X149092857Y-123200000D01*
X149235714Y-123057142D01*
X149307142Y-122914285D01*
X149657142Y-114150000D02*
X148942857Y-114150000D01*
X149800000Y-114578571D02*
X149300000Y-113078571D01*
X148800000Y-114578571D01*
X148085714Y-114578571D02*
X148228571Y-114507142D01*
X148300000Y-114364285D01*
X148300000Y-113078571D01*
X147514285Y-114578571D02*
X147514285Y-113078571D01*
X147514285Y-113650000D02*
X147371428Y-113578571D01*
X147085714Y-113578571D01*
X146942857Y-113650000D01*
X146871428Y-113721428D01*
X146800000Y-113864285D01*
X146800000Y-114292857D01*
X146871428Y-114435714D01*
X146942857Y-114507142D01*
X147085714Y-114578571D01*
X147371428Y-114578571D01*
X147514285Y-114507142D01*
X146157142Y-114578571D02*
X146157142Y-113578571D01*
X146157142Y-113864285D02*
X146085714Y-113721428D01*
X146014285Y-113650000D01*
X145871428Y-113578571D01*
X145728571Y-113578571D01*
X144657142Y-114507142D02*
X144800000Y-114578571D01*
X145085714Y-114578571D01*
X145228571Y-114507142D01*
X145300000Y-114364285D01*
X145300000Y-113792857D01*
X145228571Y-113650000D01*
X145085714Y-113578571D01*
X144800000Y-113578571D01*
X144657142Y-113650000D01*
X144585714Y-113792857D01*
X144585714Y-113935714D01*
X145300000Y-114078571D01*
X143300000Y-114507142D02*
X143442857Y-114578571D01*
X143728571Y-114578571D01*
X143871428Y-114507142D01*
X143942857Y-114435714D01*
X144014285Y-114292857D01*
X144014285Y-113864285D01*
X143942857Y-113721428D01*
X143871428Y-113650000D01*
X143728571Y-113578571D01*
X143442857Y-113578571D01*
X143300000Y-113650000D01*
X142657142Y-114578571D02*
X142657142Y-113078571D01*
X142014285Y-114578571D02*
X142014285Y-113792857D01*
X142085714Y-113650000D01*
X142228571Y-113578571D01*
X142442857Y-113578571D01*
X142585714Y-113650000D01*
X142657142Y-113721428D01*
X141514285Y-113578571D02*
X140942857Y-113578571D01*
X141300000Y-113078571D02*
X141300000Y-114364285D01*
X141228571Y-114507142D01*
X141085714Y-114578571D01*
X140942857Y-114578571D01*
D11*
%TO.C,R20*%
X137777500Y-114462742D02*
X137777500Y-114937258D01*
X138822500Y-114462742D02*
X138822500Y-114937258D01*
%TO.C,R16*%
X154587742Y-91322500D02*
X155062258Y-91322500D01*
X154587742Y-90277500D02*
X155062258Y-90277500D01*
%TO.C,R11*%
X146777500Y-108762742D02*
X146777500Y-109237258D01*
X147822500Y-108762742D02*
X147822500Y-109237258D01*
%TO.C,R7*%
X148037258Y-111377500D02*
X147562742Y-111377500D01*
X148037258Y-112422500D02*
X147562742Y-112422500D01*
%TO.C,U6*%
X149940000Y-106750000D02*
X149940000Y-104800000D01*
X149940000Y-106750000D02*
X149940000Y-108700000D01*
X155060000Y-106750000D02*
X155060000Y-104800000D01*
X155060000Y-106750000D02*
X155060000Y-110200000D01*
%TO.C,U5*%
X168360000Y-111160000D02*
X168360000Y-112110000D01*
X168360000Y-112110000D02*
X167410000Y-112110000D01*
X168360000Y-102840000D02*
X168360000Y-101890000D01*
X168360000Y-101890000D02*
X167410000Y-101890000D01*
X158140000Y-111160000D02*
X158140000Y-112110000D01*
X158140000Y-112110000D02*
X159090000Y-112110000D01*
X158140000Y-102840000D02*
X158140000Y-101890000D01*
X158140000Y-101890000D02*
X159090000Y-101890000D01*
X159090000Y-101890000D02*
X159090000Y-100550000D01*
%TO.C,U3*%
X143190000Y-105985000D02*
X143190000Y-106710000D01*
X143190000Y-106710000D02*
X143915000Y-106710000D01*
X148410000Y-102215000D02*
X148410000Y-101490000D01*
X148410000Y-101490000D02*
X147685000Y-101490000D01*
X148410000Y-105985000D02*
X148410000Y-106710000D01*
X148410000Y-106710000D02*
X147685000Y-106710000D01*
X143190000Y-102215000D02*
X143190000Y-101490000D01*
%TO.C,U2*%
X154100000Y-117660000D02*
X152150000Y-117660000D01*
X154100000Y-117660000D02*
X156050000Y-117660000D01*
X154100000Y-112540000D02*
X152150000Y-112540000D01*
X154100000Y-112540000D02*
X157550000Y-112540000D01*
%TO.C,SW4*%
X150800000Y-92850000D02*
X150800000Y-92200000D01*
X150800000Y-89150000D02*
X150800000Y-89800000D01*
X144600000Y-89800000D02*
X144600000Y-89150000D01*
X144600000Y-92850000D02*
X144600000Y-92200000D01*
X150800000Y-92850000D02*
X144600000Y-92850000D01*
X144600000Y-89150000D02*
X150800000Y-89150000D01*
%TO.C,R10*%
X140967017Y-103010000D02*
X141332983Y-103010000D01*
X140967017Y-99590000D02*
X141332983Y-99590000D01*
%TO.C,R9*%
X140967017Y-108510000D02*
X141332983Y-108510000D01*
X140967017Y-105090000D02*
X141332983Y-105090000D01*
%TO.C,R5*%
X150637258Y-95577500D02*
X150162742Y-95577500D01*
X150637258Y-96622500D02*
X150162742Y-96622500D01*
%TO.C,OPT1*%
X157639173Y-89268327D02*
X153653715Y-98657476D01*
X153653715Y-98657476D02*
X157519835Y-100298547D01*
X157519835Y-100298547D02*
X161505293Y-90909398D01*
X161505293Y-90909398D02*
X157639173Y-89268327D01*
%TO.C,C22*%
X135190000Y-99034420D02*
X135190000Y-99315580D01*
X136210000Y-99034420D02*
X136210000Y-99315580D01*
%TO.C,C21*%
X141265580Y-98090000D02*
X140984420Y-98090000D01*
X141265580Y-99110000D02*
X140984420Y-99110000D01*
%TO.C,C20*%
X136210000Y-102765580D02*
X136210000Y-102484420D01*
X135190000Y-102765580D02*
X135190000Y-102484420D01*
%TO.C,C19*%
X135190000Y-105484420D02*
X135190000Y-105765580D01*
X136210000Y-105484420D02*
X136210000Y-105765580D01*
%TO.C,C18*%
X141365580Y-108990000D02*
X141084420Y-108990000D01*
X141365580Y-110010000D02*
X141084420Y-110010000D01*
%TO.C,C17*%
X136210000Y-109115580D02*
X136210000Y-108834420D01*
X135190000Y-109115580D02*
X135190000Y-108834420D01*
%TO.C,C16*%
X150259420Y-101610000D02*
X150540580Y-101610000D01*
X150259420Y-100590000D02*
X150540580Y-100590000D01*
%TO.C,C15*%
X147315580Y-99090000D02*
X147034420Y-99090000D01*
X147315580Y-100110000D02*
X147034420Y-100110000D01*
%TO.C,C14*%
X144059420Y-110010000D02*
X144340580Y-110010000D01*
X144059420Y-108990000D02*
X144340580Y-108990000D01*
%TO.C,C13*%
X143984420Y-98910000D02*
X144265580Y-98910000D01*
X143984420Y-97890000D02*
X144265580Y-97890000D01*
%TO.C,C12*%
X148890000Y-98659420D02*
X148890000Y-98940580D01*
X149910000Y-98659420D02*
X149910000Y-98940580D01*
%TO.C,C11*%
X142688748Y-112310000D02*
X144111252Y-112310000D01*
X142688748Y-110490000D02*
X144111252Y-110490000D01*
%TO.C,C10*%
X144213748Y-97410000D02*
X145636252Y-97410000D01*
X144213748Y-95590000D02*
X145636252Y-95590000D01*
%TO.C,C8*%
X148490000Y-108559420D02*
X148490000Y-108840580D01*
X149510000Y-108559420D02*
X149510000Y-108840580D01*
%TD*%
M02*
