%TF.GenerationSoftware,KiCad,Pcbnew,5.1.10-88a1d61d58~88~ubuntu20.04.1*%
%TF.CreationDate,2021-05-10T19:00:39+02:00*%
%TF.ProjectId,StepperServo,53746570-7065-4725-9365-72766f2e6b69,rev?*%
%TF.SameCoordinates,Original*%
%TF.FileFunction,Copper,L1,Top*%
%TF.FilePolarity,Positive*%
%FSLAX46Y46*%
G04 Gerber Fmt 4.6, Leading zero omitted, Abs format (unit mm)*
G04 Created by KiCad (PCBNEW 5.1.10-88a1d61d58~88~ubuntu20.04.1) date 2021-05-10 19:00:39*
%MOMM*%
%LPD*%
G01*
G04 APERTURE LIST*
%TA.AperFunction,SMDPad,CuDef*%
%ADD10R,0.650000X1.060000*%
%TD*%
%TA.AperFunction,ComponentPad*%
%ADD11O,1.300000X0.800000*%
%TD*%
%TA.AperFunction,ComponentPad*%
%ADD12O,0.800000X1.300000*%
%TD*%
%TA.AperFunction,ComponentPad*%
%ADD13C,0.800000*%
%TD*%
%TA.AperFunction,ComponentPad*%
%ADD14C,6.400000*%
%TD*%
%TA.AperFunction,SMDPad,CuDef*%
%ADD15R,1.800000X1.200000*%
%TD*%
%TA.AperFunction,SMDPad,CuDef*%
%ADD16R,2.500000X2.500000*%
%TD*%
%TA.AperFunction,ComponentPad*%
%ADD17C,0.500000*%
%TD*%
%TA.AperFunction,ComponentPad*%
%ADD18O,1.950000X1.700000*%
%TD*%
%TA.AperFunction,ComponentPad*%
%ADD19C,3.000000*%
%TD*%
%TA.AperFunction,SMDPad,CuDef*%
%ADD20R,0.650000X0.850000*%
%TD*%
%TA.AperFunction,ViaPad*%
%ADD21C,0.600000*%
%TD*%
%TA.AperFunction,Conductor*%
%ADD22C,0.250000*%
%TD*%
%TA.AperFunction,Conductor*%
%ADD23C,0.500000*%
%TD*%
%TA.AperFunction,Conductor*%
%ADD24C,0.150000*%
%TD*%
%TA.AperFunction,Conductor*%
%ADD25C,0.170000*%
%TD*%
%TA.AperFunction,Conductor*%
%ADD26C,0.100000*%
%TD*%
G04 APERTURE END LIST*
%TO.P,C41,2*%
%TO.N,GND*%
%TA.AperFunction,SMDPad,CuDef*%
G36*
G01*
X141425000Y-111750000D02*
X141425000Y-111250000D01*
G75*
G02*
X141650000Y-111025000I225000J0D01*
G01*
X142100000Y-111025000D01*
G75*
G02*
X142325000Y-111250000I0J-225000D01*
G01*
X142325000Y-111750000D01*
G75*
G02*
X142100000Y-111975000I-225000J0D01*
G01*
X141650000Y-111975000D01*
G75*
G02*
X141425000Y-111750000I0J225000D01*
G01*
G37*
%TD.AperFunction*%
%TO.P,C41,1*%
%TO.N,+3V3*%
%TA.AperFunction,SMDPad,CuDef*%
G36*
G01*
X139875000Y-111750000D02*
X139875000Y-111250000D01*
G75*
G02*
X140100000Y-111025000I225000J0D01*
G01*
X140550000Y-111025000D01*
G75*
G02*
X140775000Y-111250000I0J-225000D01*
G01*
X140775000Y-111750000D01*
G75*
G02*
X140550000Y-111975000I-225000J0D01*
G01*
X140100000Y-111975000D01*
G75*
G02*
X139875000Y-111750000I0J225000D01*
G01*
G37*
%TD.AperFunction*%
%TD*%
D10*
%TO.P,U7,5*%
%TO.N,+3V3*%
X140150000Y-113100000D03*
%TO.P,U7,4*%
%TO.N,VCC*%
X142050000Y-113100000D03*
%TO.P,U7,3*%
%TO.N,Net-(J1-Pad1)*%
X142050000Y-115300000D03*
%TO.P,U7,2*%
%TO.N,GND*%
X141100000Y-115300000D03*
%TO.P,U7,1*%
%TO.N,Net-(R23-Pad2)*%
X140150000Y-115300000D03*
%TD*%
%TO.P,R23,2*%
%TO.N,Net-(R23-Pad2)*%
%TA.AperFunction,SMDPad,CuDef*%
G36*
G01*
X150825000Y-114325000D02*
X151375000Y-114325000D01*
G75*
G02*
X151575000Y-114525000I0J-200000D01*
G01*
X151575000Y-114925000D01*
G75*
G02*
X151375000Y-115125000I-200000J0D01*
G01*
X150825000Y-115125000D01*
G75*
G02*
X150625000Y-114925000I0J200000D01*
G01*
X150625000Y-114525000D01*
G75*
G02*
X150825000Y-114325000I200000J0D01*
G01*
G37*
%TD.AperFunction*%
%TO.P,R23,1*%
%TO.N,/inputCurrent*%
%TA.AperFunction,SMDPad,CuDef*%
G36*
G01*
X150825000Y-112675000D02*
X151375000Y-112675000D01*
G75*
G02*
X151575000Y-112875000I0J-200000D01*
G01*
X151575000Y-113275000D01*
G75*
G02*
X151375000Y-113475000I-200000J0D01*
G01*
X150825000Y-113475000D01*
G75*
G02*
X150625000Y-113275000I0J200000D01*
G01*
X150625000Y-112875000D01*
G75*
G02*
X150825000Y-112675000I200000J0D01*
G01*
G37*
%TD.AperFunction*%
%TD*%
%TO.P,R1,2*%
%TO.N,Net-(J1-Pad1)*%
%TA.AperFunction,SMDPad,CuDef*%
G36*
G01*
X143550000Y-114800000D02*
X146450000Y-114800000D01*
G75*
G02*
X146700000Y-115050000I0J-250000D01*
G01*
X146700000Y-115550000D01*
G75*
G02*
X146450000Y-115800000I-250000J0D01*
G01*
X143550000Y-115800000D01*
G75*
G02*
X143300000Y-115550000I0J250000D01*
G01*
X143300000Y-115050000D01*
G75*
G02*
X143550000Y-114800000I250000J0D01*
G01*
G37*
%TD.AperFunction*%
%TO.P,R1,1*%
%TO.N,VCC*%
%TA.AperFunction,SMDPad,CuDef*%
G36*
G01*
X143550000Y-113300000D02*
X146450000Y-113300000D01*
G75*
G02*
X146700000Y-113550000I0J-250000D01*
G01*
X146700000Y-114050000D01*
G75*
G02*
X146450000Y-114300000I-250000J0D01*
G01*
X143550000Y-114300000D01*
G75*
G02*
X143300000Y-114050000I0J250000D01*
G01*
X143300000Y-113550000D01*
G75*
G02*
X143550000Y-113300000I250000J0D01*
G01*
G37*
%TD.AperFunction*%
%TD*%
%TO.P,C40,2*%
%TO.N,GND*%
%TA.AperFunction,SMDPad,CuDef*%
G36*
G01*
X160350000Y-109225000D02*
X160850000Y-109225000D01*
G75*
G02*
X161075000Y-109450000I0J-225000D01*
G01*
X161075000Y-109900000D01*
G75*
G02*
X160850000Y-110125000I-225000J0D01*
G01*
X160350000Y-110125000D01*
G75*
G02*
X160125000Y-109900000I0J225000D01*
G01*
X160125000Y-109450000D01*
G75*
G02*
X160350000Y-109225000I225000J0D01*
G01*
G37*
%TD.AperFunction*%
%TO.P,C40,1*%
%TO.N,/inputCurrent*%
%TA.AperFunction,SMDPad,CuDef*%
G36*
G01*
X160350000Y-107675000D02*
X160850000Y-107675000D01*
G75*
G02*
X161075000Y-107900000I0J-225000D01*
G01*
X161075000Y-108350000D01*
G75*
G02*
X160850000Y-108575000I-225000J0D01*
G01*
X160350000Y-108575000D01*
G75*
G02*
X160125000Y-108350000I0J225000D01*
G01*
X160125000Y-107900000D01*
G75*
G02*
X160350000Y-107675000I225000J0D01*
G01*
G37*
%TD.AperFunction*%
%TD*%
%TO.P,C7,2*%
%TO.N,GND*%
%TA.AperFunction,SMDPad,CuDef*%
G36*
G01*
X161850000Y-109225000D02*
X162350000Y-109225000D01*
G75*
G02*
X162575000Y-109450000I0J-225000D01*
G01*
X162575000Y-109900000D01*
G75*
G02*
X162350000Y-110125000I-225000J0D01*
G01*
X161850000Y-110125000D01*
G75*
G02*
X161625000Y-109900000I0J225000D01*
G01*
X161625000Y-109450000D01*
G75*
G02*
X161850000Y-109225000I225000J0D01*
G01*
G37*
%TD.AperFunction*%
%TO.P,C7,1*%
%TO.N,/inputCurrent*%
%TA.AperFunction,SMDPad,CuDef*%
G36*
G01*
X161850000Y-107675000D02*
X162350000Y-107675000D01*
G75*
G02*
X162575000Y-107900000I0J-225000D01*
G01*
X162575000Y-108350000D01*
G75*
G02*
X162350000Y-108575000I-225000J0D01*
G01*
X161850000Y-108575000D01*
G75*
G02*
X161625000Y-108350000I0J225000D01*
G01*
X161625000Y-107900000D01*
G75*
G02*
X161850000Y-107675000I225000J0D01*
G01*
G37*
%TD.AperFunction*%
%TD*%
%TO.P,U1,5*%
%TO.N,+3V3*%
X164950000Y-112800000D03*
%TO.P,U1,4*%
%TO.N,Net-(C3-Pad1)*%
X166850000Y-112800000D03*
%TO.P,U1,3*%
%TO.N,+5V*%
X166850000Y-115000000D03*
%TO.P,U1,2*%
%TO.N,GND*%
X165900000Y-115000000D03*
%TO.P,U1,1*%
%TO.N,+5V*%
X164950000Y-115000000D03*
%TD*%
%TO.P,R19,2*%
%TO.N,Net-(C33-Pad2)*%
%TA.AperFunction,SMDPad,CuDef*%
G36*
G01*
X158750000Y-98625000D02*
X158750000Y-99175000D01*
G75*
G02*
X158550000Y-99375000I-200000J0D01*
G01*
X158150000Y-99375000D01*
G75*
G02*
X157950000Y-99175000I0J200000D01*
G01*
X157950000Y-98625000D01*
G75*
G02*
X158150000Y-98425000I200000J0D01*
G01*
X158550000Y-98425000D01*
G75*
G02*
X158750000Y-98625000I0J-200000D01*
G01*
G37*
%TD.AperFunction*%
%TO.P,R19,1*%
%TO.N,Net-(R19-Pad1)*%
%TA.AperFunction,SMDPad,CuDef*%
G36*
G01*
X160400000Y-98625000D02*
X160400000Y-99175000D01*
G75*
G02*
X160200000Y-99375000I-200000J0D01*
G01*
X159800000Y-99375000D01*
G75*
G02*
X159600000Y-99175000I0J200000D01*
G01*
X159600000Y-98625000D01*
G75*
G02*
X159800000Y-98425000I200000J0D01*
G01*
X160200000Y-98425000D01*
G75*
G02*
X160400000Y-98625000I0J-200000D01*
G01*
G37*
%TD.AperFunction*%
%TD*%
%TO.P,R4,2*%
%TO.N,/MCU/Stepper_UART*%
%TA.AperFunction,SMDPad,CuDef*%
G36*
G01*
X157575000Y-108550000D02*
X157025000Y-108550000D01*
G75*
G02*
X156825000Y-108350000I0J200000D01*
G01*
X156825000Y-107950000D01*
G75*
G02*
X157025000Y-107750000I200000J0D01*
G01*
X157575000Y-107750000D01*
G75*
G02*
X157775000Y-107950000I0J-200000D01*
G01*
X157775000Y-108350000D01*
G75*
G02*
X157575000Y-108550000I-200000J0D01*
G01*
G37*
%TD.AperFunction*%
%TO.P,R4,1*%
%TO.N,Net-(R4-Pad1)*%
%TA.AperFunction,SMDPad,CuDef*%
G36*
G01*
X157575000Y-110200000D02*
X157025000Y-110200000D01*
G75*
G02*
X156825000Y-110000000I0J200000D01*
G01*
X156825000Y-109600000D01*
G75*
G02*
X157025000Y-109400000I200000J0D01*
G01*
X157575000Y-109400000D01*
G75*
G02*
X157775000Y-109600000I0J-200000D01*
G01*
X157775000Y-110000000D01*
G75*
G02*
X157575000Y-110200000I-200000J0D01*
G01*
G37*
%TD.AperFunction*%
%TD*%
D11*
%TO.P,J6,2*%
%TO.N,/MCU/tempMotor*%
X136500000Y-114150000D03*
%TO.P,J6,1*%
%TO.N,+3V3*%
%TA.AperFunction,ComponentPad*%
G36*
G01*
X136050000Y-112500000D02*
X136950000Y-112500000D01*
G75*
G02*
X137150000Y-112700000I0J-200000D01*
G01*
X137150000Y-113100000D01*
G75*
G02*
X136950000Y-113300000I-200000J0D01*
G01*
X136050000Y-113300000D01*
G75*
G02*
X135850000Y-113100000I0J200000D01*
G01*
X135850000Y-112700000D01*
G75*
G02*
X136050000Y-112500000I200000J0D01*
G01*
G37*
%TD.AperFunction*%
%TD*%
D12*
%TO.P,J4,4*%
%TO.N,/MCU/I2C2_SCL*%
X152100000Y-94000000D03*
%TO.P,J4,3*%
%TO.N,GND*%
X150850000Y-94000000D03*
%TO.P,J4,2*%
%TO.N,/MCU/I2C2_SDA*%
X149600000Y-94000000D03*
%TO.P,J4,1*%
%TO.N,+3V3*%
%TA.AperFunction,ComponentPad*%
G36*
G01*
X147950000Y-94450000D02*
X147950000Y-93550000D01*
G75*
G02*
X148150000Y-93350000I200000J0D01*
G01*
X148550000Y-93350000D01*
G75*
G02*
X148750000Y-93550000I0J-200000D01*
G01*
X148750000Y-94450000D01*
G75*
G02*
X148550000Y-94650000I-200000J0D01*
G01*
X148150000Y-94650000D01*
G75*
G02*
X147950000Y-94450000I0J200000D01*
G01*
G37*
%TD.AperFunction*%
%TD*%
D13*
%TO.P,H4,1*%
%TO.N,GND*%
X167197056Y-118052944D03*
X165500000Y-117350000D03*
X163802944Y-118052944D03*
X163100000Y-119750000D03*
X163802944Y-121447056D03*
X165500000Y-122150000D03*
X167197056Y-121447056D03*
X167900000Y-119750000D03*
D14*
X165500000Y-119750000D03*
%TD*%
D13*
%TO.P,H3,1*%
%TO.N,GND*%
X141197056Y-118052944D03*
X139500000Y-117350000D03*
X137802944Y-118052944D03*
X137100000Y-119750000D03*
X137802944Y-121447056D03*
X139500000Y-122150000D03*
X141197056Y-121447056D03*
X141900000Y-119750000D03*
D14*
X139500000Y-119750000D03*
%TD*%
D13*
%TO.P,H2,1*%
%TO.N,GND*%
X167197056Y-92052944D03*
X165500000Y-91350000D03*
X163802944Y-92052944D03*
X163100000Y-93750000D03*
X163802944Y-95447056D03*
X165500000Y-96150000D03*
X167197056Y-95447056D03*
X167900000Y-93750000D03*
D14*
X165500000Y-93750000D03*
%TD*%
D13*
%TO.P,H1,1*%
%TO.N,GND*%
X141197056Y-92052944D03*
X139500000Y-91350000D03*
X137802944Y-92052944D03*
X137100000Y-93750000D03*
X137802944Y-95447056D03*
X139500000Y-96150000D03*
X141197056Y-95447056D03*
X141900000Y-93750000D03*
D14*
X139500000Y-93750000D03*
%TD*%
%TO.P,C39,2*%
%TO.N,GND*%
%TA.AperFunction,SMDPad,CuDef*%
G36*
G01*
X153175000Y-110150000D02*
X153175000Y-110650000D01*
G75*
G02*
X152950000Y-110875000I-225000J0D01*
G01*
X152500000Y-110875000D01*
G75*
G02*
X152275000Y-110650000I0J225000D01*
G01*
X152275000Y-110150000D01*
G75*
G02*
X152500000Y-109925000I225000J0D01*
G01*
X152950000Y-109925000D01*
G75*
G02*
X153175000Y-110150000I0J-225000D01*
G01*
G37*
%TD.AperFunction*%
%TO.P,C39,1*%
%TO.N,+3V3*%
%TA.AperFunction,SMDPad,CuDef*%
G36*
G01*
X154725000Y-110150000D02*
X154725000Y-110650000D01*
G75*
G02*
X154500000Y-110875000I-225000J0D01*
G01*
X154050000Y-110875000D01*
G75*
G02*
X153825000Y-110650000I0J225000D01*
G01*
X153825000Y-110150000D01*
G75*
G02*
X154050000Y-109925000I225000J0D01*
G01*
X154500000Y-109925000D01*
G75*
G02*
X154725000Y-110150000I0J-225000D01*
G01*
G37*
%TD.AperFunction*%
%TD*%
%TO.P,C35,2*%
%TO.N,GND*%
%TA.AperFunction,SMDPad,CuDef*%
G36*
G01*
X162950000Y-105025000D02*
X163450000Y-105025000D01*
G75*
G02*
X163675000Y-105250000I0J-225000D01*
G01*
X163675000Y-105700000D01*
G75*
G02*
X163450000Y-105925000I-225000J0D01*
G01*
X162950000Y-105925000D01*
G75*
G02*
X162725000Y-105700000I0J225000D01*
G01*
X162725000Y-105250000D01*
G75*
G02*
X162950000Y-105025000I225000J0D01*
G01*
G37*
%TD.AperFunction*%
%TO.P,C35,1*%
%TO.N,/MCU/~RST*%
%TA.AperFunction,SMDPad,CuDef*%
G36*
G01*
X162950000Y-103475000D02*
X163450000Y-103475000D01*
G75*
G02*
X163675000Y-103700000I0J-225000D01*
G01*
X163675000Y-104150000D01*
G75*
G02*
X163450000Y-104375000I-225000J0D01*
G01*
X162950000Y-104375000D01*
G75*
G02*
X162725000Y-104150000I0J225000D01*
G01*
X162725000Y-103700000D01*
G75*
G02*
X162950000Y-103475000I225000J0D01*
G01*
G37*
%TD.AperFunction*%
%TD*%
%TO.P,C34,2*%
%TO.N,Net-(C34-Pad2)*%
%TA.AperFunction,SMDPad,CuDef*%
G36*
G01*
X161650000Y-96900000D02*
X161150000Y-96900000D01*
G75*
G02*
X160925000Y-96675000I0J225000D01*
G01*
X160925000Y-96225000D01*
G75*
G02*
X161150000Y-96000000I225000J0D01*
G01*
X161650000Y-96000000D01*
G75*
G02*
X161875000Y-96225000I0J-225000D01*
G01*
X161875000Y-96675000D01*
G75*
G02*
X161650000Y-96900000I-225000J0D01*
G01*
G37*
%TD.AperFunction*%
%TO.P,C34,1*%
%TO.N,GND*%
%TA.AperFunction,SMDPad,CuDef*%
G36*
G01*
X161650000Y-98450000D02*
X161150000Y-98450000D01*
G75*
G02*
X160925000Y-98225000I0J225000D01*
G01*
X160925000Y-97775000D01*
G75*
G02*
X161150000Y-97550000I225000J0D01*
G01*
X161650000Y-97550000D01*
G75*
G02*
X161875000Y-97775000I0J-225000D01*
G01*
X161875000Y-98225000D01*
G75*
G02*
X161650000Y-98450000I-225000J0D01*
G01*
G37*
%TD.AperFunction*%
%TD*%
%TO.P,C33,2*%
%TO.N,Net-(C33-Pad2)*%
%TA.AperFunction,SMDPad,CuDef*%
G36*
G01*
X156525000Y-99150000D02*
X156525000Y-98650000D01*
G75*
G02*
X156750000Y-98425000I225000J0D01*
G01*
X157200000Y-98425000D01*
G75*
G02*
X157425000Y-98650000I0J-225000D01*
G01*
X157425000Y-99150000D01*
G75*
G02*
X157200000Y-99375000I-225000J0D01*
G01*
X156750000Y-99375000D01*
G75*
G02*
X156525000Y-99150000I0J225000D01*
G01*
G37*
%TD.AperFunction*%
%TO.P,C33,1*%
%TO.N,GND*%
%TA.AperFunction,SMDPad,CuDef*%
G36*
G01*
X154975000Y-99150000D02*
X154975000Y-98650000D01*
G75*
G02*
X155200000Y-98425000I225000J0D01*
G01*
X155650000Y-98425000D01*
G75*
G02*
X155875000Y-98650000I0J-225000D01*
G01*
X155875000Y-99150000D01*
G75*
G02*
X155650000Y-99375000I-225000J0D01*
G01*
X155200000Y-99375000D01*
G75*
G02*
X154975000Y-99150000I0J225000D01*
G01*
G37*
%TD.AperFunction*%
%TD*%
%TO.P,C30,2*%
%TO.N,GND*%
%TA.AperFunction,SMDPad,CuDef*%
G36*
G01*
X163850000Y-101250000D02*
X163850000Y-101750000D01*
G75*
G02*
X163625000Y-101975000I-225000J0D01*
G01*
X163175000Y-101975000D01*
G75*
G02*
X162950000Y-101750000I0J225000D01*
G01*
X162950000Y-101250000D01*
G75*
G02*
X163175000Y-101025000I225000J0D01*
G01*
X163625000Y-101025000D01*
G75*
G02*
X163850000Y-101250000I0J-225000D01*
G01*
G37*
%TD.AperFunction*%
%TO.P,C30,1*%
%TO.N,+3V3*%
%TA.AperFunction,SMDPad,CuDef*%
G36*
G01*
X165400000Y-101250000D02*
X165400000Y-101750000D01*
G75*
G02*
X165175000Y-101975000I-225000J0D01*
G01*
X164725000Y-101975000D01*
G75*
G02*
X164500000Y-101750000I0J225000D01*
G01*
X164500000Y-101250000D01*
G75*
G02*
X164725000Y-101025000I225000J0D01*
G01*
X165175000Y-101025000D01*
G75*
G02*
X165400000Y-101250000I0J-225000D01*
G01*
G37*
%TD.AperFunction*%
%TD*%
%TO.P,C28,2*%
%TO.N,GND*%
%TA.AperFunction,SMDPad,CuDef*%
G36*
G01*
X163900000Y-99750000D02*
X163900000Y-100250000D01*
G75*
G02*
X163675000Y-100475000I-225000J0D01*
G01*
X163225000Y-100475000D01*
G75*
G02*
X163000000Y-100250000I0J225000D01*
G01*
X163000000Y-99750000D01*
G75*
G02*
X163225000Y-99525000I225000J0D01*
G01*
X163675000Y-99525000D01*
G75*
G02*
X163900000Y-99750000I0J-225000D01*
G01*
G37*
%TD.AperFunction*%
%TO.P,C28,1*%
%TO.N,+3V3*%
%TA.AperFunction,SMDPad,CuDef*%
G36*
G01*
X165450000Y-99750000D02*
X165450000Y-100250000D01*
G75*
G02*
X165225000Y-100475000I-225000J0D01*
G01*
X164775000Y-100475000D01*
G75*
G02*
X164550000Y-100250000I0J225000D01*
G01*
X164550000Y-99750000D01*
G75*
G02*
X164775000Y-99525000I225000J0D01*
G01*
X165225000Y-99525000D01*
G75*
G02*
X165450000Y-99750000I0J-225000D01*
G01*
G37*
%TD.AperFunction*%
%TD*%
%TO.P,C27,2*%
%TO.N,+3V3*%
%TA.AperFunction,SMDPad,CuDef*%
G36*
G01*
X168650000Y-109325000D02*
X169150000Y-109325000D01*
G75*
G02*
X169375000Y-109550000I0J-225000D01*
G01*
X169375000Y-110000000D01*
G75*
G02*
X169150000Y-110225000I-225000J0D01*
G01*
X168650000Y-110225000D01*
G75*
G02*
X168425000Y-110000000I0J225000D01*
G01*
X168425000Y-109550000D01*
G75*
G02*
X168650000Y-109325000I225000J0D01*
G01*
G37*
%TD.AperFunction*%
%TO.P,C27,1*%
%TO.N,GND*%
%TA.AperFunction,SMDPad,CuDef*%
G36*
G01*
X168650000Y-107775000D02*
X169150000Y-107775000D01*
G75*
G02*
X169375000Y-108000000I0J-225000D01*
G01*
X169375000Y-108450000D01*
G75*
G02*
X169150000Y-108675000I-225000J0D01*
G01*
X168650000Y-108675000D01*
G75*
G02*
X168425000Y-108450000I0J225000D01*
G01*
X168425000Y-108000000D01*
G75*
G02*
X168650000Y-107775000I225000J0D01*
G01*
G37*
%TD.AperFunction*%
%TD*%
%TO.P,C26,2*%
%TO.N,+3V3*%
%TA.AperFunction,SMDPad,CuDef*%
G36*
G01*
X169150000Y-104275000D02*
X168650000Y-104275000D01*
G75*
G02*
X168425000Y-104050000I0J225000D01*
G01*
X168425000Y-103600000D01*
G75*
G02*
X168650000Y-103375000I225000J0D01*
G01*
X169150000Y-103375000D01*
G75*
G02*
X169375000Y-103600000I0J-225000D01*
G01*
X169375000Y-104050000D01*
G75*
G02*
X169150000Y-104275000I-225000J0D01*
G01*
G37*
%TD.AperFunction*%
%TO.P,C26,1*%
%TO.N,GND*%
%TA.AperFunction,SMDPad,CuDef*%
G36*
G01*
X169150000Y-105825000D02*
X168650000Y-105825000D01*
G75*
G02*
X168425000Y-105600000I0J225000D01*
G01*
X168425000Y-105150000D01*
G75*
G02*
X168650000Y-104925000I225000J0D01*
G01*
X169150000Y-104925000D01*
G75*
G02*
X169375000Y-105150000I0J-225000D01*
G01*
X169375000Y-105600000D01*
G75*
G02*
X169150000Y-105825000I-225000J0D01*
G01*
G37*
%TD.AperFunction*%
%TD*%
%TO.P,C25,2*%
%TO.N,+3V3*%
%TA.AperFunction,SMDPad,CuDef*%
G36*
G01*
X157950000Y-104375000D02*
X157450000Y-104375000D01*
G75*
G02*
X157225000Y-104150000I0J225000D01*
G01*
X157225000Y-103700000D01*
G75*
G02*
X157450000Y-103475000I225000J0D01*
G01*
X157950000Y-103475000D01*
G75*
G02*
X158175000Y-103700000I0J-225000D01*
G01*
X158175000Y-104150000D01*
G75*
G02*
X157950000Y-104375000I-225000J0D01*
G01*
G37*
%TD.AperFunction*%
%TO.P,C25,1*%
%TO.N,GND*%
%TA.AperFunction,SMDPad,CuDef*%
G36*
G01*
X157950000Y-105925000D02*
X157450000Y-105925000D01*
G75*
G02*
X157225000Y-105700000I0J225000D01*
G01*
X157225000Y-105250000D01*
G75*
G02*
X157450000Y-105025000I225000J0D01*
G01*
X157950000Y-105025000D01*
G75*
G02*
X158175000Y-105250000I0J-225000D01*
G01*
X158175000Y-105700000D01*
G75*
G02*
X157950000Y-105925000I-225000J0D01*
G01*
G37*
%TD.AperFunction*%
%TD*%
%TO.P,C24,2*%
%TO.N,+3V3*%
%TA.AperFunction,SMDPad,CuDef*%
G36*
G01*
X160850000Y-101250000D02*
X160850000Y-101750000D01*
G75*
G02*
X160625000Y-101975000I-225000J0D01*
G01*
X160175000Y-101975000D01*
G75*
G02*
X159950000Y-101750000I0J225000D01*
G01*
X159950000Y-101250000D01*
G75*
G02*
X160175000Y-101025000I225000J0D01*
G01*
X160625000Y-101025000D01*
G75*
G02*
X160850000Y-101250000I0J-225000D01*
G01*
G37*
%TD.AperFunction*%
%TO.P,C24,1*%
%TO.N,GND*%
%TA.AperFunction,SMDPad,CuDef*%
G36*
G01*
X162400000Y-101250000D02*
X162400000Y-101750000D01*
G75*
G02*
X162175000Y-101975000I-225000J0D01*
G01*
X161725000Y-101975000D01*
G75*
G02*
X161500000Y-101750000I0J225000D01*
G01*
X161500000Y-101250000D01*
G75*
G02*
X161725000Y-101025000I225000J0D01*
G01*
X162175000Y-101025000D01*
G75*
G02*
X162400000Y-101250000I0J-225000D01*
G01*
G37*
%TD.AperFunction*%
%TD*%
%TO.P,C23,2*%
%TO.N,+3V3*%
%TA.AperFunction,SMDPad,CuDef*%
G36*
G01*
X160475000Y-112450000D02*
X160475000Y-112950000D01*
G75*
G02*
X160250000Y-113175000I-225000J0D01*
G01*
X159800000Y-113175000D01*
G75*
G02*
X159575000Y-112950000I0J225000D01*
G01*
X159575000Y-112450000D01*
G75*
G02*
X159800000Y-112225000I225000J0D01*
G01*
X160250000Y-112225000D01*
G75*
G02*
X160475000Y-112450000I0J-225000D01*
G01*
G37*
%TD.AperFunction*%
%TO.P,C23,1*%
%TO.N,GND*%
%TA.AperFunction,SMDPad,CuDef*%
G36*
G01*
X162025000Y-112450000D02*
X162025000Y-112950000D01*
G75*
G02*
X161800000Y-113175000I-225000J0D01*
G01*
X161350000Y-113175000D01*
G75*
G02*
X161125000Y-112950000I0J225000D01*
G01*
X161125000Y-112450000D01*
G75*
G02*
X161350000Y-112225000I225000J0D01*
G01*
X161800000Y-112225000D01*
G75*
G02*
X162025000Y-112450000I0J-225000D01*
G01*
G37*
%TD.AperFunction*%
%TD*%
%TO.P,C5,2*%
%TO.N,+3V3*%
%TA.AperFunction,SMDPad,CuDef*%
G36*
G01*
X165750001Y-104600000D02*
X164449999Y-104600000D01*
G75*
G02*
X164200000Y-104350001I0J249999D01*
G01*
X164200000Y-103699999D01*
G75*
G02*
X164449999Y-103450000I249999J0D01*
G01*
X165750001Y-103450000D01*
G75*
G02*
X166000000Y-103699999I0J-249999D01*
G01*
X166000000Y-104350001D01*
G75*
G02*
X165750001Y-104600000I-249999J0D01*
G01*
G37*
%TD.AperFunction*%
%TO.P,C5,1*%
%TO.N,GND*%
%TA.AperFunction,SMDPad,CuDef*%
G36*
G01*
X165750001Y-107550000D02*
X164449999Y-107550000D01*
G75*
G02*
X164200000Y-107300001I0J249999D01*
G01*
X164200000Y-106649999D01*
G75*
G02*
X164449999Y-106400000I249999J0D01*
G01*
X165750001Y-106400000D01*
G75*
G02*
X166000000Y-106649999I0J-249999D01*
G01*
X166000000Y-107300001D01*
G75*
G02*
X165750001Y-107550000I-249999J0D01*
G01*
G37*
%TD.AperFunction*%
%TD*%
D15*
%TO.P,Y1,4*%
%TO.N,GND*%
X159400000Y-97200000D03*
%TO.P,Y1,3*%
%TO.N,Net-(C33-Pad2)*%
X155400000Y-97200000D03*
%TO.P,Y1,2*%
%TO.N,GND*%
X155400000Y-94800000D03*
%TO.P,Y1,1*%
%TO.N,Net-(C34-Pad2)*%
X159400000Y-94800000D03*
%TD*%
D16*
%TO.P,U3,29*%
%TO.N,GND*%
X145800000Y-104100000D03*
D17*
X146800000Y-105100000D03*
X146800000Y-104100000D03*
X146800000Y-103100000D03*
X145800000Y-105100000D03*
X145800000Y-104100000D03*
X145800000Y-103100000D03*
X144800000Y-105100000D03*
X144800000Y-104100000D03*
X144800000Y-103100000D03*
%TD*%
%TO.P,R22,2*%
%TO.N,Net-(D1-Pad1)*%
%TA.AperFunction,SMDPad,CuDef*%
G36*
G01*
X166300000Y-98675000D02*
X166300000Y-98125000D01*
G75*
G02*
X166500000Y-97925000I200000J0D01*
G01*
X166900000Y-97925000D01*
G75*
G02*
X167100000Y-98125000I0J-200000D01*
G01*
X167100000Y-98675000D01*
G75*
G02*
X166900000Y-98875000I-200000J0D01*
G01*
X166500000Y-98875000D01*
G75*
G02*
X166300000Y-98675000I0J200000D01*
G01*
G37*
%TD.AperFunction*%
%TO.P,R22,1*%
%TO.N,/MCU/LED_GREEN*%
%TA.AperFunction,SMDPad,CuDef*%
G36*
G01*
X164650000Y-98675000D02*
X164650000Y-98125000D01*
G75*
G02*
X164850000Y-97925000I200000J0D01*
G01*
X165250000Y-97925000D01*
G75*
G02*
X165450000Y-98125000I0J-200000D01*
G01*
X165450000Y-98675000D01*
G75*
G02*
X165250000Y-98875000I-200000J0D01*
G01*
X164850000Y-98875000D01*
G75*
G02*
X164650000Y-98675000I0J200000D01*
G01*
G37*
%TD.AperFunction*%
%TD*%
%TO.P,R21,2*%
%TO.N,Net-(D1-Pad2)*%
%TA.AperFunction,SMDPad,CuDef*%
G36*
G01*
X169075000Y-100675000D02*
X168525000Y-100675000D01*
G75*
G02*
X168325000Y-100475000I0J200000D01*
G01*
X168325000Y-100075000D01*
G75*
G02*
X168525000Y-99875000I200000J0D01*
G01*
X169075000Y-99875000D01*
G75*
G02*
X169275000Y-100075000I0J-200000D01*
G01*
X169275000Y-100475000D01*
G75*
G02*
X169075000Y-100675000I-200000J0D01*
G01*
G37*
%TD.AperFunction*%
%TO.P,R21,1*%
%TO.N,/MCU/LED_RED*%
%TA.AperFunction,SMDPad,CuDef*%
G36*
G01*
X169075000Y-102325000D02*
X168525000Y-102325000D01*
G75*
G02*
X168325000Y-102125000I0J200000D01*
G01*
X168325000Y-101725000D01*
G75*
G02*
X168525000Y-101525000I200000J0D01*
G01*
X169075000Y-101525000D01*
G75*
G02*
X169275000Y-101725000I0J-200000D01*
G01*
X169275000Y-102125000D01*
G75*
G02*
X169075000Y-102325000I-200000J0D01*
G01*
G37*
%TD.AperFunction*%
%TD*%
%TO.P,R15,2*%
%TO.N,/MCU/I2C1_SCL*%
%TA.AperFunction,SMDPad,CuDef*%
G36*
G01*
X154675000Y-104275000D02*
X154125000Y-104275000D01*
G75*
G02*
X153925000Y-104075000I0J200000D01*
G01*
X153925000Y-103675000D01*
G75*
G02*
X154125000Y-103475000I200000J0D01*
G01*
X154675000Y-103475000D01*
G75*
G02*
X154875000Y-103675000I0J-200000D01*
G01*
X154875000Y-104075000D01*
G75*
G02*
X154675000Y-104275000I-200000J0D01*
G01*
G37*
%TD.AperFunction*%
%TO.P,R15,1*%
%TO.N,+3V3*%
%TA.AperFunction,SMDPad,CuDef*%
G36*
G01*
X154675000Y-105925000D02*
X154125000Y-105925000D01*
G75*
G02*
X153925000Y-105725000I0J200000D01*
G01*
X153925000Y-105325000D01*
G75*
G02*
X154125000Y-105125000I200000J0D01*
G01*
X154675000Y-105125000D01*
G75*
G02*
X154875000Y-105325000I0J-200000D01*
G01*
X154875000Y-105725000D01*
G75*
G02*
X154675000Y-105925000I-200000J0D01*
G01*
G37*
%TD.AperFunction*%
%TD*%
%TO.P,R14,2*%
%TO.N,/MCU/I2C1_SDA*%
%TA.AperFunction,SMDPad,CuDef*%
G36*
G01*
X156175000Y-104275000D02*
X155625000Y-104275000D01*
G75*
G02*
X155425000Y-104075000I0J200000D01*
G01*
X155425000Y-103675000D01*
G75*
G02*
X155625000Y-103475000I200000J0D01*
G01*
X156175000Y-103475000D01*
G75*
G02*
X156375000Y-103675000I0J-200000D01*
G01*
X156375000Y-104075000D01*
G75*
G02*
X156175000Y-104275000I-200000J0D01*
G01*
G37*
%TD.AperFunction*%
%TO.P,R14,1*%
%TO.N,+3V3*%
%TA.AperFunction,SMDPad,CuDef*%
G36*
G01*
X156175000Y-105925000D02*
X155625000Y-105925000D01*
G75*
G02*
X155425000Y-105725000I0J200000D01*
G01*
X155425000Y-105325000D01*
G75*
G02*
X155625000Y-105125000I200000J0D01*
G01*
X156175000Y-105125000D01*
G75*
G02*
X156375000Y-105325000I0J-200000D01*
G01*
X156375000Y-105725000D01*
G75*
G02*
X156175000Y-105925000I-200000J0D01*
G01*
G37*
%TD.AperFunction*%
%TD*%
%TO.P,R13,2*%
%TO.N,/MCU/I2C2_SDA*%
%TA.AperFunction,SMDPad,CuDef*%
G36*
G01*
X145225000Y-93725000D02*
X145775000Y-93725000D01*
G75*
G02*
X145975000Y-93925000I0J-200000D01*
G01*
X145975000Y-94325000D01*
G75*
G02*
X145775000Y-94525000I-200000J0D01*
G01*
X145225000Y-94525000D01*
G75*
G02*
X145025000Y-94325000I0J200000D01*
G01*
X145025000Y-93925000D01*
G75*
G02*
X145225000Y-93725000I200000J0D01*
G01*
G37*
%TD.AperFunction*%
%TO.P,R13,1*%
%TO.N,+3V3*%
%TA.AperFunction,SMDPad,CuDef*%
G36*
G01*
X145225000Y-92075000D02*
X145775000Y-92075000D01*
G75*
G02*
X145975000Y-92275000I0J-200000D01*
G01*
X145975000Y-92675000D01*
G75*
G02*
X145775000Y-92875000I-200000J0D01*
G01*
X145225000Y-92875000D01*
G75*
G02*
X145025000Y-92675000I0J200000D01*
G01*
X145025000Y-92275000D01*
G75*
G02*
X145225000Y-92075000I200000J0D01*
G01*
G37*
%TD.AperFunction*%
%TD*%
%TO.P,R12,2*%
%TO.N,+3V3*%
%TA.AperFunction,SMDPad,CuDef*%
G36*
G01*
X153050000Y-96775000D02*
X153050000Y-96225000D01*
G75*
G02*
X153250000Y-96025000I200000J0D01*
G01*
X153650000Y-96025000D01*
G75*
G02*
X153850000Y-96225000I0J-200000D01*
G01*
X153850000Y-96775000D01*
G75*
G02*
X153650000Y-96975000I-200000J0D01*
G01*
X153250000Y-96975000D01*
G75*
G02*
X153050000Y-96775000I0J200000D01*
G01*
G37*
%TD.AperFunction*%
%TO.P,R12,1*%
%TO.N,/MCU/I2C2_SCL*%
%TA.AperFunction,SMDPad,CuDef*%
G36*
G01*
X151400000Y-96775000D02*
X151400000Y-96225000D01*
G75*
G02*
X151600000Y-96025000I200000J0D01*
G01*
X152000000Y-96025000D01*
G75*
G02*
X152200000Y-96225000I0J-200000D01*
G01*
X152200000Y-96775000D01*
G75*
G02*
X152000000Y-96975000I-200000J0D01*
G01*
X151600000Y-96975000D01*
G75*
G02*
X151400000Y-96775000I0J200000D01*
G01*
G37*
%TD.AperFunction*%
%TD*%
%TO.P,R6,2*%
%TO.N,+3V3*%
%TA.AperFunction,SMDPad,CuDef*%
G36*
G01*
X156075000Y-108575000D02*
X155525000Y-108575000D01*
G75*
G02*
X155325000Y-108375000I0J200000D01*
G01*
X155325000Y-107975000D01*
G75*
G02*
X155525000Y-107775000I200000J0D01*
G01*
X156075000Y-107775000D01*
G75*
G02*
X156275000Y-107975000I0J-200000D01*
G01*
X156275000Y-108375000D01*
G75*
G02*
X156075000Y-108575000I-200000J0D01*
G01*
G37*
%TD.AperFunction*%
%TO.P,R6,1*%
%TO.N,Net-(R4-Pad1)*%
%TA.AperFunction,SMDPad,CuDef*%
G36*
G01*
X156075000Y-110225000D02*
X155525000Y-110225000D01*
G75*
G02*
X155325000Y-110025000I0J200000D01*
G01*
X155325000Y-109625000D01*
G75*
G02*
X155525000Y-109425000I200000J0D01*
G01*
X156075000Y-109425000D01*
G75*
G02*
X156275000Y-109625000I0J-200000D01*
G01*
X156275000Y-110025000D01*
G75*
G02*
X156075000Y-110225000I-200000J0D01*
G01*
G37*
%TD.AperFunction*%
%TD*%
%TO.P,R3,2*%
%TO.N,GND*%
%TA.AperFunction,SMDPad,CuDef*%
G36*
G01*
X148949999Y-114900000D02*
X149850001Y-114900000D01*
G75*
G02*
X150100000Y-115149999I0J-249999D01*
G01*
X150100000Y-115675001D01*
G75*
G02*
X149850001Y-115925000I-249999J0D01*
G01*
X148949999Y-115925000D01*
G75*
G02*
X148700000Y-115675001I0J249999D01*
G01*
X148700000Y-115149999D01*
G75*
G02*
X148949999Y-114900000I249999J0D01*
G01*
G37*
%TD.AperFunction*%
%TO.P,R3,1*%
%TO.N,Net-(C9-Pad2)*%
%TA.AperFunction,SMDPad,CuDef*%
G36*
G01*
X148949999Y-113075000D02*
X149850001Y-113075000D01*
G75*
G02*
X150100000Y-113324999I0J-249999D01*
G01*
X150100000Y-113850001D01*
G75*
G02*
X149850001Y-114100000I-249999J0D01*
G01*
X148949999Y-114100000D01*
G75*
G02*
X148700000Y-113850001I0J249999D01*
G01*
X148700000Y-113324999D01*
G75*
G02*
X148949999Y-113075000I249999J0D01*
G01*
G37*
%TD.AperFunction*%
%TD*%
%TO.P,R2,2*%
%TO.N,Net-(J_CAN1-Pad1)*%
%TA.AperFunction,SMDPad,CuDef*%
G36*
G01*
X153625000Y-115325000D02*
X154175000Y-115325000D01*
G75*
G02*
X154375000Y-115525000I0J-200000D01*
G01*
X154375000Y-115925000D01*
G75*
G02*
X154175000Y-116125000I-200000J0D01*
G01*
X153625000Y-116125000D01*
G75*
G02*
X153425000Y-115925000I0J200000D01*
G01*
X153425000Y-115525000D01*
G75*
G02*
X153625000Y-115325000I200000J0D01*
G01*
G37*
%TD.AperFunction*%
%TO.P,R2,1*%
%TO.N,Net-(J_CAN1-Pad2)*%
%TA.AperFunction,SMDPad,CuDef*%
G36*
G01*
X153625000Y-113675000D02*
X154175000Y-113675000D01*
G75*
G02*
X154375000Y-113875000I0J-200000D01*
G01*
X154375000Y-114275000D01*
G75*
G02*
X154175000Y-114475000I-200000J0D01*
G01*
X153625000Y-114475000D01*
G75*
G02*
X153425000Y-114275000I0J200000D01*
G01*
X153425000Y-113875000D01*
G75*
G02*
X153625000Y-113675000I200000J0D01*
G01*
G37*
%TD.AperFunction*%
%TD*%
D11*
%TO.P,J_SWD1,6*%
%TO.N,GND*%
X160300000Y-116150000D03*
%TO.P,J_SWD1,5*%
%TO.N,/MCU/SWO*%
X160300000Y-117400000D03*
%TO.P,J_SWD1,4*%
%TO.N,/MCU/SWCLK*%
X160300000Y-118650000D03*
%TO.P,J_SWD1,3*%
%TO.N,/MCU/SWDIO*%
X160300000Y-119900000D03*
%TO.P,J_SWD1,2*%
%TO.N,+3V3*%
X160300000Y-121150000D03*
%TO.P,J_SWD1,1*%
%TO.N,/MCU/~RST*%
%TA.AperFunction,ComponentPad*%
G36*
G01*
X160750000Y-122800000D02*
X159850000Y-122800000D01*
G75*
G02*
X159650000Y-122600000I0J200000D01*
G01*
X159650000Y-122200000D01*
G75*
G02*
X159850000Y-122000000I200000J0D01*
G01*
X160750000Y-122000000D01*
G75*
G02*
X160950000Y-122200000I0J-200000D01*
G01*
X160950000Y-122600000D01*
G75*
G02*
X160750000Y-122800000I-200000J0D01*
G01*
G37*
%TD.AperFunction*%
%TD*%
%TO.P,J_CAN2,4*%
%TO.N,+5V*%
X151900000Y-118650000D03*
%TO.P,J_CAN2,3*%
%TO.N,GND*%
X151900000Y-119900000D03*
%TO.P,J_CAN2,2*%
%TO.N,Net-(J_CAN1-Pad2)*%
X151900000Y-121150000D03*
%TO.P,J_CAN2,1*%
%TO.N,Net-(J_CAN1-Pad1)*%
%TA.AperFunction,ComponentPad*%
G36*
G01*
X152350000Y-122800000D02*
X151450000Y-122800000D01*
G75*
G02*
X151250000Y-122600000I0J200000D01*
G01*
X151250000Y-122200000D01*
G75*
G02*
X151450000Y-122000000I200000J0D01*
G01*
X152350000Y-122000000D01*
G75*
G02*
X152550000Y-122200000I0J-200000D01*
G01*
X152550000Y-122600000D01*
G75*
G02*
X152350000Y-122800000I-200000J0D01*
G01*
G37*
%TD.AperFunction*%
%TD*%
%TO.P,J_CAN1,4*%
%TO.N,+5V*%
X156100000Y-118650000D03*
%TO.P,J_CAN1,3*%
%TO.N,GND*%
X156100000Y-119900000D03*
%TO.P,J_CAN1,2*%
%TO.N,Net-(J_CAN1-Pad2)*%
X156100000Y-121150000D03*
%TO.P,J_CAN1,1*%
%TO.N,Net-(J_CAN1-Pad1)*%
%TA.AperFunction,ComponentPad*%
G36*
G01*
X156550000Y-122800000D02*
X155650000Y-122800000D01*
G75*
G02*
X155450000Y-122600000I0J200000D01*
G01*
X155450000Y-122200000D01*
G75*
G02*
X155650000Y-122000000I200000J0D01*
G01*
X156550000Y-122000000D01*
G75*
G02*
X156750000Y-122200000I0J-200000D01*
G01*
X156750000Y-122600000D01*
G75*
G02*
X156550000Y-122800000I-200000J0D01*
G01*
G37*
%TD.AperFunction*%
%TD*%
D18*
%TO.P,J3,4*%
%TO.N,/StepperDriver/coilB_2*%
X137700000Y-100300000D03*
%TO.P,J3,3*%
%TO.N,/StepperDriver/coilB_1*%
X137700000Y-102800000D03*
%TO.P,J3,2*%
%TO.N,/StepperDriver/coilA_1*%
X137700000Y-105300000D03*
%TO.P,J3,1*%
%TO.N,/StepperDriver/coilA_2*%
%TA.AperFunction,ComponentPad*%
G36*
G01*
X138425000Y-108650000D02*
X136975000Y-108650000D01*
G75*
G02*
X136725000Y-108400000I0J250000D01*
G01*
X136725000Y-107200000D01*
G75*
G02*
X136975000Y-106950000I250000J0D01*
G01*
X138425000Y-106950000D01*
G75*
G02*
X138675000Y-107200000I0J-250000D01*
G01*
X138675000Y-108400000D01*
G75*
G02*
X138425000Y-108650000I-250000J0D01*
G01*
G37*
%TD.AperFunction*%
%TD*%
D19*
%TO.P,J2,1*%
%TO.N,GND*%
X146100000Y-122400000D03*
%TD*%
%TO.P,J1,1*%
%TO.N,Net-(J1-Pad1)*%
X146100000Y-118200000D03*
%TD*%
D20*
%TO.P,D1,4*%
%TO.N,GND*%
X168925000Y-97375000D03*
%TO.P,D1,3*%
X168075000Y-97375000D03*
%TO.P,D1,1*%
%TO.N,Net-(D1-Pad1)*%
X168075000Y-98825000D03*
%TO.P,D1,2*%
%TO.N,Net-(D1-Pad2)*%
X168925000Y-98825000D03*
%TD*%
%TO.P,C9,2*%
%TO.N,Net-(C9-Pad2)*%
%TA.AperFunction,SMDPad,CuDef*%
G36*
G01*
X147450000Y-114925000D02*
X147950000Y-114925000D01*
G75*
G02*
X148175000Y-115150000I0J-225000D01*
G01*
X148175000Y-115600000D01*
G75*
G02*
X147950000Y-115825000I-225000J0D01*
G01*
X147450000Y-115825000D01*
G75*
G02*
X147225000Y-115600000I0J225000D01*
G01*
X147225000Y-115150000D01*
G75*
G02*
X147450000Y-114925000I225000J0D01*
G01*
G37*
%TD.AperFunction*%
%TO.P,C9,1*%
%TO.N,VCC*%
%TA.AperFunction,SMDPad,CuDef*%
G36*
G01*
X147450000Y-113375000D02*
X147950000Y-113375000D01*
G75*
G02*
X148175000Y-113600000I0J-225000D01*
G01*
X148175000Y-114050000D01*
G75*
G02*
X147950000Y-114275000I-225000J0D01*
G01*
X147450000Y-114275000D01*
G75*
G02*
X147225000Y-114050000I0J225000D01*
G01*
X147225000Y-113600000D01*
G75*
G02*
X147450000Y-113375000I225000J0D01*
G01*
G37*
%TD.AperFunction*%
%TD*%
%TO.P,C6,2*%
%TO.N,GND*%
%TA.AperFunction,SMDPad,CuDef*%
G36*
G01*
X149100000Y-102000000D02*
X147100000Y-102000000D01*
G75*
G02*
X146850000Y-101750000I0J250000D01*
G01*
X146850000Y-97850000D01*
G75*
G02*
X147100000Y-97600000I250000J0D01*
G01*
X149100000Y-97600000D01*
G75*
G02*
X149350000Y-97850000I0J-250000D01*
G01*
X149350000Y-101750000D01*
G75*
G02*
X149100000Y-102000000I-250000J0D01*
G01*
G37*
%TD.AperFunction*%
%TO.P,C6,1*%
%TO.N,VCC*%
%TA.AperFunction,SMDPad,CuDef*%
G36*
G01*
X149100000Y-110400000D02*
X147100000Y-110400000D01*
G75*
G02*
X146850000Y-110150000I0J250000D01*
G01*
X146850000Y-106250000D01*
G75*
G02*
X147100000Y-106000000I250000J0D01*
G01*
X149100000Y-106000000D01*
G75*
G02*
X149350000Y-106250000I0J-250000D01*
G01*
X149350000Y-110150000D01*
G75*
G02*
X149100000Y-110400000I-250000J0D01*
G01*
G37*
%TD.AperFunction*%
%TD*%
%TO.P,C4,2*%
%TO.N,GND*%
%TA.AperFunction,SMDPad,CuDef*%
G36*
G01*
X163775000Y-110950000D02*
X163775000Y-111450000D01*
G75*
G02*
X163550000Y-111675000I-225000J0D01*
G01*
X163100000Y-111675000D01*
G75*
G02*
X162875000Y-111450000I0J225000D01*
G01*
X162875000Y-110950000D01*
G75*
G02*
X163100000Y-110725000I225000J0D01*
G01*
X163550000Y-110725000D01*
G75*
G02*
X163775000Y-110950000I0J-225000D01*
G01*
G37*
%TD.AperFunction*%
%TO.P,C4,1*%
%TO.N,+3V3*%
%TA.AperFunction,SMDPad,CuDef*%
G36*
G01*
X165325000Y-110950000D02*
X165325000Y-111450000D01*
G75*
G02*
X165100000Y-111675000I-225000J0D01*
G01*
X164650000Y-111675000D01*
G75*
G02*
X164425000Y-111450000I0J225000D01*
G01*
X164425000Y-110950000D01*
G75*
G02*
X164650000Y-110725000I225000J0D01*
G01*
X165100000Y-110725000D01*
G75*
G02*
X165325000Y-110950000I0J-225000D01*
G01*
G37*
%TD.AperFunction*%
%TD*%
%TO.P,C3,2*%
%TO.N,GND*%
%TA.AperFunction,SMDPad,CuDef*%
G36*
G01*
X168250000Y-113750000D02*
X168750000Y-113750000D01*
G75*
G02*
X168975000Y-113975000I0J-225000D01*
G01*
X168975000Y-114425000D01*
G75*
G02*
X168750000Y-114650000I-225000J0D01*
G01*
X168250000Y-114650000D01*
G75*
G02*
X168025000Y-114425000I0J225000D01*
G01*
X168025000Y-113975000D01*
G75*
G02*
X168250000Y-113750000I225000J0D01*
G01*
G37*
%TD.AperFunction*%
%TO.P,C3,1*%
%TO.N,Net-(C3-Pad1)*%
%TA.AperFunction,SMDPad,CuDef*%
G36*
G01*
X168250000Y-112200000D02*
X168750000Y-112200000D01*
G75*
G02*
X168975000Y-112425000I0J-225000D01*
G01*
X168975000Y-112875000D01*
G75*
G02*
X168750000Y-113100000I-225000J0D01*
G01*
X168250000Y-113100000D01*
G75*
G02*
X168025000Y-112875000I0J225000D01*
G01*
X168025000Y-112425000D01*
G75*
G02*
X168250000Y-112200000I225000J0D01*
G01*
G37*
%TD.AperFunction*%
%TD*%
%TO.P,C2,2*%
%TO.N,GND*%
%TA.AperFunction,SMDPad,CuDef*%
G36*
G01*
X163550000Y-113975000D02*
X163050000Y-113975000D01*
G75*
G02*
X162825000Y-113750000I0J225000D01*
G01*
X162825000Y-113300000D01*
G75*
G02*
X163050000Y-113075000I225000J0D01*
G01*
X163550000Y-113075000D01*
G75*
G02*
X163775000Y-113300000I0J-225000D01*
G01*
X163775000Y-113750000D01*
G75*
G02*
X163550000Y-113975000I-225000J0D01*
G01*
G37*
%TD.AperFunction*%
%TO.P,C2,1*%
%TO.N,+5V*%
%TA.AperFunction,SMDPad,CuDef*%
G36*
G01*
X163550000Y-115525000D02*
X163050000Y-115525000D01*
G75*
G02*
X162825000Y-115300000I0J225000D01*
G01*
X162825000Y-114850000D01*
G75*
G02*
X163050000Y-114625000I225000J0D01*
G01*
X163550000Y-114625000D01*
G75*
G02*
X163775000Y-114850000I0J-225000D01*
G01*
X163775000Y-115300000D01*
G75*
G02*
X163550000Y-115525000I-225000J0D01*
G01*
G37*
%TD.AperFunction*%
%TD*%
%TO.P,C1,2*%
%TO.N,GND*%
%TA.AperFunction,SMDPad,CuDef*%
G36*
G01*
X156350000Y-114600000D02*
X155850000Y-114600000D01*
G75*
G02*
X155625000Y-114375000I0J225000D01*
G01*
X155625000Y-113925000D01*
G75*
G02*
X155850000Y-113700000I225000J0D01*
G01*
X156350000Y-113700000D01*
G75*
G02*
X156575000Y-113925000I0J-225000D01*
G01*
X156575000Y-114375000D01*
G75*
G02*
X156350000Y-114600000I-225000J0D01*
G01*
G37*
%TD.AperFunction*%
%TO.P,C1,1*%
%TO.N,+3V3*%
%TA.AperFunction,SMDPad,CuDef*%
G36*
G01*
X156350000Y-116150000D02*
X155850000Y-116150000D01*
G75*
G02*
X155625000Y-115925000I0J225000D01*
G01*
X155625000Y-115475000D01*
G75*
G02*
X155850000Y-115250000I225000J0D01*
G01*
X156350000Y-115250000D01*
G75*
G02*
X156575000Y-115475000I0J-225000D01*
G01*
X156575000Y-115925000D01*
G75*
G02*
X156350000Y-116150000I-225000J0D01*
G01*
G37*
%TD.AperFunction*%
%TD*%
D21*
%TO.N,GND*%
X139400000Y-105500000D03*
X139400000Y-106200000D03*
X139400000Y-106900000D03*
X139400000Y-102700000D03*
X139400000Y-102000000D03*
X139400000Y-101300000D03*
X145400000Y-108000000D03*
X135700000Y-107300000D03*
X135700000Y-100900000D03*
X145900000Y-98000000D03*
X147672545Y-111058665D03*
X151100000Y-100000000D03*
X155000000Y-114500000D03*
X159300000Y-107500000D03*
X159100000Y-118400000D03*
X159100000Y-119600000D03*
X164692872Y-102753125D03*
X167302787Y-103313548D03*
X167200000Y-110300000D03*
X160600000Y-99900000D03*
X162700000Y-99200000D03*
X163300000Y-102700000D03*
X160700000Y-97600000D03*
X154200000Y-99400000D03*
X156699996Y-94800000D03*
X165900000Y-114187798D03*
X162047981Y-111220444D03*
X150200000Y-110571000D03*
X159200000Y-114300000D03*
X158950000Y-104750000D03*
X167500000Y-108100000D03*
X160940452Y-111215651D03*
X150000000Y-106100000D03*
X153200000Y-102300000D03*
X156300000Y-102100000D03*
X155905229Y-106694771D03*
X148900000Y-116600000D03*
X157600000Y-111400000D03*
X166500000Y-106300000D03*
X163300000Y-109900000D03*
%TO.N,+3V3*%
X155000000Y-115700000D03*
X165600000Y-102700000D03*
X167400000Y-104200000D03*
X167541689Y-111082678D03*
X165800000Y-110400000D03*
X164700000Y-110300000D03*
X155500000Y-111471000D03*
X158700000Y-101300000D03*
X157000000Y-102900000D03*
X160070856Y-110970355D03*
X155000000Y-107000000D03*
X154090219Y-107801761D03*
%TO.N,+5V*%
X169204001Y-116604001D03*
X154800000Y-89800000D03*
%TO.N,VCC*%
X143400000Y-106200000D03*
X143100000Y-106800000D03*
X143200000Y-101300000D03*
X143600000Y-102100000D03*
X143600000Y-112000000D03*
X143600000Y-111300000D03*
X143600000Y-110600000D03*
%TO.N,/StepperDriver/coilB_2*%
X144700000Y-99500000D03*
X144600000Y-100400000D03*
%TO.N,/StepperDriver/coilB_1*%
X141500000Y-103600000D03*
X139500000Y-103600000D03*
%TO.N,/StepperDriver/coilA_1*%
X142100000Y-104500000D03*
X140500000Y-104500000D03*
%TO.N,/StepperDriver/coilA_2*%
X144700000Y-107500000D03*
X144700000Y-108400000D03*
%TO.N,/MCU/SWO*%
X159300000Y-108300000D03*
%TO.N,/MCU/SWCLK*%
X156300000Y-111000000D03*
%TO.N,/MCU/SWDIO*%
X160118148Y-114387979D03*
%TO.N,/MCU/~RST*%
X162451724Y-102699775D03*
X162000000Y-104400000D03*
X160400000Y-106100002D03*
X152900000Y-98000000D03*
%TO.N,/StepperDriver/~EN*%
X155300000Y-101829000D03*
X147700000Y-97000000D03*
X148512404Y-95787596D03*
%TO.N,Net-(R4-Pad1)*%
X150100000Y-106941990D03*
%TO.N,/MCU/I2C2_SCL*%
X166900000Y-108800000D03*
%TO.N,/MCU/I2C2_SDA*%
X166448185Y-109640058D03*
%TO.N,/MCU/I2C1_SDA*%
X155900000Y-102800000D03*
%TO.N,/MCU/I2C1_SCL*%
X152700000Y-102929000D03*
%TO.N,Net-(C34-Pad2)*%
X162200000Y-99800000D03*
%TO.N,Net-(R19-Pad1)*%
X161352592Y-99905926D03*
%TO.N,/MCU/tempMotor*%
X154800000Y-113133010D03*
X163874562Y-109333179D03*
X147700000Y-120800000D03*
X143400000Y-123500000D03*
X167487526Y-106928423D03*
%TO.N,/inputCurrent*%
X153400000Y-112700009D03*
X167502410Y-106178568D03*
X163270691Y-108674990D03*
%TO.N,Net-(R23-Pad2)*%
X142400000Y-123175010D03*
X148000000Y-119500000D03*
%TO.N,Net-(J_CAN1-Pad2)*%
X153000000Y-114500000D03*
%TO.N,Net-(J_CAN1-Pad1)*%
X153194778Y-115994778D03*
%TO.N,/MCU/Stepper_UART*%
X159383215Y-106376643D03*
%TO.N,/MCU/LED_RED*%
X167100000Y-100000000D03*
%TO.N,/MCU/LED_GREEN*%
X166200000Y-99900000D03*
%TD*%
D22*
%TO.N,GND*%
X140400000Y-118850000D02*
X139500000Y-119750000D01*
X140600000Y-118650000D02*
X139500000Y-119750000D01*
X141100000Y-112275000D02*
X141100000Y-115300000D01*
X141875000Y-111500000D02*
X141100000Y-112275000D01*
X141100000Y-118150000D02*
X139500000Y-119750000D01*
X141100000Y-115300000D02*
X141100000Y-118150000D01*
X155350000Y-114150000D02*
X155000000Y-114500000D01*
X156100000Y-114150000D02*
X155350000Y-114150000D01*
X163425000Y-101500000D02*
X163439747Y-101500000D01*
X161950000Y-101500000D02*
X161950000Y-101750000D01*
X163400000Y-100050000D02*
X163450000Y-100000000D01*
X160300000Y-97200000D02*
X160700000Y-97600000D01*
X159400000Y-97200000D02*
X160300000Y-97200000D01*
X161000000Y-97600000D02*
X161400000Y-98000000D01*
X160700000Y-97600000D02*
X161000000Y-97600000D01*
X154700000Y-98900000D02*
X154200000Y-99400000D01*
X155450000Y-98900000D02*
X154700000Y-98900000D01*
X155400000Y-94800000D02*
X156699996Y-94800000D01*
D23*
X163740999Y-113965999D02*
X163300000Y-113525000D01*
X165678201Y-113965999D02*
X163740999Y-113965999D01*
X168265999Y-113965999D02*
X168500000Y-114200000D01*
X166121799Y-113965999D02*
X168265999Y-113965999D01*
X165900000Y-114187798D02*
X166121799Y-113965999D01*
X165900000Y-115000000D02*
X165900000Y-114187798D01*
X165678201Y-113965999D02*
X165900000Y-114187798D01*
X161825000Y-112700000D02*
X163325000Y-111200000D01*
X161575000Y-112700000D02*
X161825000Y-112700000D01*
X161975000Y-113100000D02*
X161575000Y-112700000D01*
X162800000Y-113100000D02*
X161975000Y-113100000D01*
X163225000Y-113525000D02*
X162800000Y-113100000D01*
X163300000Y-113525000D02*
X163225000Y-113525000D01*
X161575000Y-111693425D02*
X162047981Y-111220444D01*
X161575000Y-112700000D02*
X161575000Y-111693425D01*
X167200000Y-109925000D02*
X168900000Y-108225000D01*
X167200000Y-110300000D02*
X167200000Y-109925000D01*
X167096530Y-103313548D02*
X167302787Y-103313548D01*
X166595999Y-103814079D02*
X167096530Y-103313548D01*
X166595999Y-104585921D02*
X166595999Y-103814079D01*
X167385078Y-105375000D02*
X166595999Y-104585921D01*
X168900000Y-105375000D02*
X167385078Y-105375000D01*
X163450000Y-101450000D02*
X163400000Y-101500000D01*
X163450000Y-100000000D02*
X163450000Y-101450000D01*
X163439747Y-101500000D02*
X164692872Y-102753125D01*
X163400000Y-101500000D02*
X163439747Y-101500000D01*
X162789922Y-99200000D02*
X162744961Y-99155039D01*
X163125000Y-99200000D02*
X162789922Y-99200000D01*
X163450000Y-99525000D02*
X163125000Y-99200000D01*
X163450000Y-100000000D02*
X163450000Y-99525000D01*
X161950000Y-101500000D02*
X163400000Y-101500000D01*
X163400000Y-102600000D02*
X163300000Y-102700000D01*
X163400000Y-101500000D02*
X163400000Y-102600000D01*
D24*
X168925000Y-97375000D02*
X168075000Y-97375000D01*
X168925000Y-97175000D02*
X165500000Y-93750000D01*
X168925000Y-97375000D02*
X168925000Y-97175000D01*
D23*
X145900000Y-104000000D02*
X145800000Y-104100000D01*
X152700000Y-110375000D02*
X152725000Y-110400000D01*
X152554000Y-110571000D02*
X152725000Y-110400000D01*
X150200000Y-110571000D02*
X152554000Y-110571000D01*
X158225000Y-105475000D02*
X158950000Y-104750000D01*
X157500000Y-105475000D02*
X158225000Y-105475000D01*
X167625000Y-108225000D02*
X167500000Y-108100000D01*
X168900000Y-108225000D02*
X167625000Y-108225000D01*
D24*
X163600000Y-105475000D02*
X163200000Y-105475000D01*
X165100000Y-106975000D02*
X163600000Y-105475000D01*
D23*
X161575000Y-112700000D02*
X161575000Y-111850199D01*
X161575000Y-111850199D02*
X160940452Y-111215651D01*
D24*
X162100000Y-109675000D02*
X160600000Y-109675000D01*
X162100000Y-111168425D02*
X162047981Y-111220444D01*
X162100000Y-109675000D02*
X162100000Y-111168425D01*
D23*
X149400000Y-116100000D02*
X148900000Y-116600000D01*
X149400000Y-115412500D02*
X149400000Y-116100000D01*
X166125000Y-105375000D02*
X167385078Y-105375000D01*
X165100000Y-106400000D02*
X166125000Y-105375000D01*
X165100000Y-106975000D02*
X165100000Y-106400000D01*
D22*
%TO.N,+3V3*%
X139950000Y-112900000D02*
X140150000Y-113100000D01*
X136500000Y-112900000D02*
X139950000Y-112900000D01*
X156100000Y-115700000D02*
X155000000Y-115700000D01*
X164950000Y-100050000D02*
X165000000Y-100000000D01*
X168900000Y-109775000D02*
X168849367Y-109775000D01*
D23*
X164950000Y-111275000D02*
X164875000Y-111200000D01*
X164950000Y-112800000D02*
X164950000Y-111275000D01*
X167424367Y-111200000D02*
X167541689Y-111082678D01*
X164875000Y-111200000D02*
X167424367Y-111200000D01*
X165000000Y-111200000D02*
X165800000Y-110400000D01*
X164875000Y-111200000D02*
X165000000Y-111200000D01*
X164875000Y-110475000D02*
X164700000Y-110300000D01*
X164875000Y-111200000D02*
X164875000Y-110475000D01*
X154250000Y-108150000D02*
X154200000Y-108100000D01*
X154250000Y-109400000D02*
X154250000Y-108150000D01*
X154250000Y-110221000D02*
X155500000Y-111471000D01*
X154250000Y-109400000D02*
X154250000Y-110221000D01*
X167592322Y-111082678D02*
X168900000Y-109775000D01*
X167541689Y-111082678D02*
X167592322Y-111082678D01*
X168525000Y-104200000D02*
X168900000Y-103825000D01*
X167400000Y-104200000D02*
X168525000Y-104200000D01*
X165000000Y-101450000D02*
X164950000Y-101500000D01*
X165000000Y-100000000D02*
X165000000Y-101450000D01*
X165600000Y-102150000D02*
X165600000Y-102700000D01*
X164950000Y-101500000D02*
X165600000Y-102150000D01*
X164404010Y-99224632D02*
X163000000Y-97820622D01*
X164404010Y-99904010D02*
X164404010Y-99224632D01*
X164500000Y-100000000D02*
X164404010Y-99904010D01*
X165000000Y-100000000D02*
X164500000Y-100000000D01*
X163000000Y-96544022D02*
X161800000Y-95344022D01*
X163000000Y-97820622D02*
X163000000Y-96544022D01*
X161800000Y-94792798D02*
X160407202Y-93400000D01*
X161800000Y-95344022D02*
X161800000Y-94792798D01*
X160407202Y-93400000D02*
X156000000Y-93400000D01*
X160200000Y-101300000D02*
X160400000Y-101500000D01*
X158700000Y-101300000D02*
X160200000Y-101300000D01*
X165600000Y-103525000D02*
X165600000Y-102700000D01*
X165100000Y-104025000D02*
X165600000Y-103525000D01*
X157500000Y-103925000D02*
X157500000Y-103400000D01*
X157500000Y-103400000D02*
X157000000Y-102900000D01*
X148350000Y-93350000D02*
X148350000Y-94000000D01*
X148854010Y-92845990D02*
X148350000Y-93350000D01*
X156000000Y-93400000D02*
X155445990Y-92845990D01*
X147025000Y-94000000D02*
X145500000Y-92475000D01*
X148350000Y-94000000D02*
X147025000Y-94000000D01*
D24*
X153450000Y-93141980D02*
X153745990Y-92845990D01*
X153450000Y-96500000D02*
X153450000Y-93141980D01*
D23*
X153745990Y-92845990D02*
X148854010Y-92845990D01*
X155445990Y-92845990D02*
X153745990Y-92845990D01*
X160025000Y-112700000D02*
X160025000Y-111016211D01*
X160025000Y-111016211D02*
X160070856Y-110970355D01*
D24*
X155725000Y-108100000D02*
X155800000Y-108175000D01*
X154600000Y-105725000D02*
X154400000Y-105525000D01*
D23*
X157150010Y-116750010D02*
X156100000Y-115700000D01*
X157150010Y-119150010D02*
X157150010Y-116750010D01*
X159150000Y-121150000D02*
X157150010Y-119150010D01*
X160300000Y-121150000D02*
X159150000Y-121150000D01*
X157079010Y-114720990D02*
X156100000Y-115700000D01*
X157079010Y-113050010D02*
X157079010Y-114720990D01*
X155500000Y-111471000D02*
X157079010Y-113050010D01*
X156824990Y-104800010D02*
X157700000Y-103925000D01*
X155800000Y-108175000D02*
X156824990Y-107150010D01*
X154400000Y-105525000D02*
X155900000Y-105525000D01*
X156575000Y-105525000D02*
X156824990Y-105275010D01*
X155900000Y-105525000D02*
X156575000Y-105525000D01*
X156824990Y-105275010D02*
X156824990Y-104800010D01*
X156824990Y-107150010D02*
X156824990Y-105275010D01*
X155800000Y-107800000D02*
X155800000Y-108175000D01*
X155000000Y-107000000D02*
X155800000Y-107800000D01*
X154250000Y-107961542D02*
X154090219Y-107801761D01*
X154250000Y-108150000D02*
X154250000Y-107961542D01*
D22*
X140200000Y-111625000D02*
X140325000Y-111500000D01*
X140200000Y-113050000D02*
X140200000Y-111625000D01*
X140150000Y-113100000D02*
X140200000Y-113050000D01*
D23*
%TO.N,+5V*%
X168454001Y-116604001D02*
X166850000Y-115000000D01*
X169204001Y-116604001D02*
X168454001Y-116604001D01*
X164950000Y-116030000D02*
X164950000Y-115000000D01*
X164954001Y-116034001D02*
X164950000Y-116030000D01*
X166628201Y-116034001D02*
X164954001Y-116034001D01*
X166850000Y-115812202D02*
X166628201Y-116034001D01*
X166850000Y-115000000D02*
X166850000Y-115812202D01*
X164875000Y-115075000D02*
X164950000Y-115000000D01*
X163300000Y-115075000D02*
X164875000Y-115075000D01*
%TO.N,Net-(C3-Pad1)*%
X168350000Y-112800000D02*
X168500000Y-112650000D01*
X166850000Y-112800000D02*
X168350000Y-112800000D01*
D22*
%TO.N,VCC*%
X144975000Y-113525000D02*
X145000000Y-113550000D01*
X142750000Y-113800000D02*
X145000000Y-113800000D01*
X142050000Y-113100000D02*
X142750000Y-113800000D01*
X147675000Y-113800000D02*
X147700000Y-113825000D01*
X145000000Y-113800000D02*
X147675000Y-113800000D01*
%TO.N,Net-(C9-Pad2)*%
X147700000Y-115287500D02*
X149400000Y-113587500D01*
X147700000Y-115375000D02*
X147700000Y-115287500D01*
D24*
%TO.N,Net-(D1-Pad1)*%
X167125000Y-98825000D02*
X166700000Y-98400000D01*
X168075000Y-98825000D02*
X167125000Y-98825000D01*
%TO.N,Net-(D1-Pad2)*%
X168925000Y-100150000D02*
X168800000Y-100275000D01*
X168925000Y-98825000D02*
X168925000Y-100150000D01*
%TO.N,/MCU/SWO*%
X158570999Y-109029001D02*
X159000001Y-108599999D01*
X158570999Y-116470999D02*
X158570999Y-109029001D01*
X159000001Y-108599999D02*
X159300000Y-108300000D01*
X159500000Y-117400000D02*
X158570999Y-116470999D01*
X160300000Y-117400000D02*
X159500000Y-117400000D01*
%TO.N,/MCU/SWCLK*%
X157800000Y-112500000D02*
X156300000Y-111000000D01*
X157800000Y-116200000D02*
X157800000Y-112500000D01*
X160250000Y-118650000D02*
X157800000Y-116200000D01*
X160300000Y-118650000D02*
X160250000Y-118650000D01*
%TO.N,/MCU/SWDIO*%
X161279010Y-115548841D02*
X160118148Y-114387979D01*
X161279010Y-119720990D02*
X161279010Y-115548841D01*
X161100000Y-119900000D02*
X161279010Y-119720990D01*
X160300000Y-119900000D02*
X161100000Y-119900000D01*
%TO.N,/MCU/~RST*%
X162451724Y-103176724D02*
X163200000Y-103925000D01*
X162451724Y-102699775D02*
X162451724Y-103176724D01*
X162725000Y-104400000D02*
X163200000Y-103925000D01*
X162000000Y-104400000D02*
X162725000Y-104400000D01*
X160396356Y-103925000D02*
X163200000Y-103925000D01*
X154191978Y-100391978D02*
X156863335Y-100391978D01*
X152900000Y-98000000D02*
X152900000Y-99100000D01*
X152900000Y-99100000D02*
X154191978Y-100391978D01*
X156863335Y-100391978D02*
X160396356Y-103925000D01*
X159900000Y-106600002D02*
X160400000Y-106100002D01*
X159900000Y-108900000D02*
X159900000Y-106600002D01*
X159114429Y-109685571D02*
X159900000Y-108900000D01*
X159114429Y-113047919D02*
X159114429Y-109685571D01*
X159866510Y-113800000D02*
X159114429Y-113047919D01*
X161683019Y-115021928D02*
X160461091Y-113800000D01*
X161683019Y-121666981D02*
X161683019Y-115021928D01*
X160950000Y-122400000D02*
X161683019Y-121666981D01*
X160461091Y-113800000D02*
X159866510Y-113800000D01*
X160300000Y-122400000D02*
X160950000Y-122400000D01*
%TO.N,/StepperDriver/~EN*%
X153859922Y-101829000D02*
X151030922Y-99000000D01*
X155300000Y-101829000D02*
X153859922Y-101829000D01*
X151030922Y-98973635D02*
X150500000Y-98442713D01*
X151030922Y-99000000D02*
X151030922Y-98973635D01*
X150500000Y-98442713D02*
X150500000Y-97300000D01*
X150200000Y-97000000D02*
X147700000Y-97000000D01*
X150500000Y-97300000D02*
X150200000Y-97000000D01*
X147700000Y-96600000D02*
X147700000Y-97000000D01*
X148512404Y-95787596D02*
X147700000Y-96600000D01*
%TO.N,Net-(R4-Pad1)*%
X157275000Y-109825000D02*
X157300000Y-109800000D01*
X155800000Y-109825000D02*
X157275000Y-109825000D01*
X153972912Y-106941990D02*
X150100000Y-106941990D01*
X154829001Y-107798079D02*
X153972912Y-106941990D01*
X154829001Y-108854001D02*
X154829001Y-107798079D01*
X155800000Y-109825000D02*
X154829001Y-108854001D01*
%TO.N,/MCU/I2C2_SCL*%
X152100000Y-96800000D02*
X151800000Y-96500000D01*
X151800000Y-94300000D02*
X152100000Y-94000000D01*
X151800000Y-96500000D02*
X151800000Y-94300000D01*
X156798270Y-100795989D02*
X164802281Y-108800000D01*
X151800000Y-98600000D02*
X153995989Y-100795989D01*
X164802281Y-108800000D02*
X166900000Y-108800000D01*
X153995989Y-100795989D02*
X156798270Y-100795989D01*
X151800000Y-96500000D02*
X151800000Y-98600000D01*
%TO.N,/MCU/I2C2_SDA*%
X149600000Y-94800000D02*
X149600000Y-94000000D01*
X149420990Y-94979010D02*
X149600000Y-94800000D01*
X145954010Y-94979010D02*
X149420990Y-94979010D01*
X145500000Y-94525000D02*
X145954010Y-94979010D01*
X145500000Y-94125000D02*
X145500000Y-94525000D01*
X150120990Y-94520990D02*
X149600000Y-94000000D01*
X150120990Y-94551965D02*
X150120990Y-94520990D01*
X150964322Y-95395297D02*
X150120990Y-94551965D01*
X150964322Y-98335678D02*
X150964322Y-95395297D01*
X153828643Y-101200000D02*
X150964322Y-98335678D01*
X165070982Y-109640058D02*
X156630924Y-101200000D01*
X156630924Y-101200000D02*
X153828643Y-101200000D01*
X166448185Y-109640058D02*
X165070982Y-109640058D01*
%TO.N,/MCU/I2C1_SDA*%
X155900000Y-102800000D02*
X155900000Y-103875000D01*
%TO.N,/MCU/I2C1_SCL*%
X153646000Y-103875000D02*
X152700000Y-102929000D01*
X154400000Y-103875000D02*
X153646000Y-103875000D01*
%TO.N,Net-(C34-Pad2)*%
X162204010Y-97254010D02*
X161400000Y-96450000D01*
X162204010Y-98454480D02*
X162204010Y-97254010D01*
X162070999Y-98587491D02*
X162204010Y-98454480D01*
X162070999Y-99501921D02*
X162070999Y-98587491D01*
X162200000Y-99630922D02*
X162070999Y-99501921D01*
X162200000Y-99800000D02*
X162200000Y-99630922D01*
X161050000Y-96450000D02*
X159400000Y-94800000D01*
X161400000Y-96450000D02*
X161050000Y-96450000D01*
%TO.N,Net-(R19-Pad1)*%
X160770930Y-98900000D02*
X160000000Y-98900000D01*
X161352592Y-99481662D02*
X160770930Y-98900000D01*
X161352592Y-99905926D02*
X161352592Y-99481662D01*
%TO.N,Net-(C33-Pad2)*%
X157100000Y-98900000D02*
X155400000Y-97200000D01*
X158350000Y-98900000D02*
X157100000Y-98900000D01*
%TO.N,/MCU/tempMotor*%
X135566990Y-115083010D02*
X135566990Y-121611268D01*
X142900000Y-123804010D02*
X143095990Y-123804010D01*
X143095990Y-123804010D02*
X143400000Y-123500000D01*
X137759732Y-123804010D02*
X142900000Y-123804010D01*
X137677861Y-123722139D02*
X137759732Y-123804010D01*
X135566990Y-121611268D02*
X137677861Y-123722139D01*
X136500000Y-114150000D02*
X135566990Y-115083010D01*
X154587020Y-113345990D02*
X154800000Y-113133010D01*
X153223088Y-113345990D02*
X154587020Y-113345990D01*
X152300000Y-115371356D02*
X152300000Y-114269078D01*
X149650000Y-118021356D02*
X152300000Y-115371356D01*
X152300000Y-114269078D02*
X153223088Y-113345990D01*
X149650000Y-118850000D02*
X149650000Y-118021356D01*
X147700000Y-120800000D02*
X149650000Y-118850000D01*
D22*
%TO.N,Net-(J1-Pad1)*%
X143200000Y-115300000D02*
X146100000Y-118200000D01*
X142050000Y-115300000D02*
X143200000Y-115300000D01*
D24*
%TO.N,/inputCurrent*%
X160600000Y-108125000D02*
X162100000Y-108125000D01*
X153025009Y-113075000D02*
X153400000Y-112700009D01*
X151100000Y-113075000D02*
X153025009Y-113075000D01*
X162100000Y-108125000D02*
X162720701Y-108125000D01*
X162720701Y-108125000D02*
X163270691Y-108674990D01*
%TO.N,Net-(R23-Pad2)*%
X135970999Y-121443921D02*
X137927078Y-123400000D01*
X135970999Y-118056079D02*
X135970999Y-121443921D01*
X138727078Y-115300000D02*
X135970999Y-118056079D01*
X140150000Y-115300000D02*
X138727078Y-115300000D01*
X142175010Y-123400000D02*
X142400000Y-123175010D01*
X137927078Y-123400000D02*
X142175010Y-123400000D01*
X150429010Y-115395990D02*
X151100000Y-114725000D01*
X148000000Y-118958020D02*
X150429010Y-116529010D01*
X148000000Y-119500000D02*
X148000000Y-118958020D01*
X150429010Y-116529010D02*
X150429010Y-115395990D01*
%TO.N,Net-(J_CAN1-Pad2)*%
X153000000Y-114500000D02*
X153000000Y-115300000D01*
X153000000Y-115300000D02*
X150920990Y-117379010D01*
X153000000Y-114500000D02*
X153000000Y-114200000D01*
X153125000Y-114075000D02*
X153900000Y-114075000D01*
X153000000Y-114200000D02*
X153125000Y-114075000D01*
X150920990Y-120170990D02*
X150920990Y-117379010D01*
X151900000Y-121150000D02*
X150920990Y-120170990D01*
%TO.N,Net-(J_CAN1-Pad1)*%
X153464556Y-115725000D02*
X153194778Y-115994778D01*
X151900000Y-122400000D02*
X152550000Y-122400000D01*
X153900000Y-115725000D02*
X153464556Y-115725000D01*
X152550000Y-122400000D02*
X153194778Y-121755222D01*
X153194778Y-121755222D02*
X153194778Y-115994778D01*
%TO.N,/MCU/Stepper_UART*%
X157609858Y-108150000D02*
X157300000Y-108150000D01*
X159383215Y-106376643D02*
X157609858Y-108150000D01*
%TO.N,/MCU/LED_RED*%
X168800000Y-101700000D02*
X168800000Y-101925000D01*
X167100000Y-100000000D02*
X168800000Y-101700000D01*
%TO.N,/MCU/LED_GREEN*%
X165050000Y-98750000D02*
X165050000Y-98400000D01*
X166200000Y-99900000D02*
X165050000Y-98750000D01*
%TD*%
D25*
%TO.N,GND*%
X147993983Y-95510494D02*
X147949885Y-95616958D01*
X147927404Y-95729978D01*
X147927404Y-95845214D01*
X147930434Y-95860449D01*
X147457946Y-96332938D01*
X147444210Y-96344211D01*
X147399223Y-96399028D01*
X147365795Y-96461569D01*
X147359725Y-96481579D01*
X147345210Y-96529428D01*
X147344782Y-96533775D01*
X147327084Y-96545600D01*
X147245600Y-96627084D01*
X147181579Y-96722898D01*
X147137481Y-96829362D01*
X147115000Y-96942382D01*
X147115000Y-97057618D01*
X147137481Y-97170638D01*
X147181579Y-97277102D01*
X147245600Y-97372916D01*
X147327084Y-97454400D01*
X147422898Y-97518421D01*
X147529362Y-97562519D01*
X147642382Y-97585000D01*
X147757618Y-97585000D01*
X147870638Y-97562519D01*
X147977102Y-97518421D01*
X148072916Y-97454400D01*
X148154400Y-97372916D01*
X148163030Y-97360000D01*
X149558509Y-97360000D01*
X149530403Y-105848099D01*
X149509065Y-105836694D01*
X149455601Y-105820476D01*
X149412929Y-105816273D01*
X149397996Y-105804018D01*
X149305263Y-105754451D01*
X149204642Y-105723928D01*
X149100000Y-105713622D01*
X147100000Y-105713622D01*
X146995358Y-105723928D01*
X146894737Y-105754451D01*
X146802004Y-105804018D01*
X146787071Y-105816273D01*
X146744399Y-105820476D01*
X146690935Y-105836694D01*
X146641662Y-105863031D01*
X146598475Y-105898475D01*
X146563031Y-105941662D01*
X146536694Y-105990935D01*
X146520476Y-106044399D01*
X146515000Y-106100000D01*
X146515000Y-109815000D01*
X143300000Y-109815000D01*
X143244399Y-109820476D01*
X143190935Y-109836694D01*
X143141662Y-109863031D01*
X143098475Y-109898475D01*
X143063031Y-109941662D01*
X143036694Y-109990935D01*
X143020476Y-110044399D01*
X143015000Y-110100000D01*
X143015000Y-110415000D01*
X135385282Y-110415000D01*
X135395927Y-107200000D01*
X136438622Y-107200000D01*
X136438622Y-108400000D01*
X136448928Y-108504642D01*
X136479451Y-108605263D01*
X136529018Y-108697996D01*
X136595723Y-108779277D01*
X136677004Y-108845982D01*
X136769737Y-108895549D01*
X136870358Y-108926072D01*
X136975000Y-108936378D01*
X138425000Y-108936378D01*
X138529642Y-108926072D01*
X138630263Y-108895549D01*
X138722996Y-108845982D01*
X138804277Y-108779277D01*
X138870982Y-108697996D01*
X138920549Y-108605263D01*
X138951072Y-108504642D01*
X138961378Y-108400000D01*
X138961378Y-107442382D01*
X144115000Y-107442382D01*
X144115000Y-107557618D01*
X144137481Y-107670638D01*
X144181579Y-107777102D01*
X144245600Y-107872916D01*
X144322684Y-107950000D01*
X144245600Y-108027084D01*
X144181579Y-108122898D01*
X144137481Y-108229362D01*
X144115000Y-108342382D01*
X144115000Y-108457618D01*
X144137481Y-108570638D01*
X144181579Y-108677102D01*
X144245600Y-108772916D01*
X144327084Y-108854400D01*
X144422898Y-108918421D01*
X144529362Y-108962519D01*
X144642382Y-108985000D01*
X144757618Y-108985000D01*
X144870638Y-108962519D01*
X144977102Y-108918421D01*
X145072916Y-108854400D01*
X145154400Y-108772916D01*
X145218421Y-108677102D01*
X145262519Y-108570638D01*
X145285000Y-108457618D01*
X145285000Y-108342382D01*
X145262519Y-108229362D01*
X145218421Y-108122898D01*
X145154400Y-108027084D01*
X145077316Y-107950000D01*
X145154400Y-107872916D01*
X145218421Y-107777102D01*
X145262519Y-107670638D01*
X145285000Y-107557618D01*
X145285000Y-107442382D01*
X145262519Y-107329362D01*
X145218421Y-107222898D01*
X145154400Y-107127084D01*
X145072916Y-107045600D01*
X144977102Y-106981579D01*
X144870638Y-106937481D01*
X144757618Y-106915000D01*
X144642382Y-106915000D01*
X144529362Y-106937481D01*
X144422898Y-106981579D01*
X144327084Y-107045600D01*
X144245600Y-107127084D01*
X144181579Y-107222898D01*
X144137481Y-107329362D01*
X144115000Y-107442382D01*
X138961378Y-107442382D01*
X138961378Y-107200000D01*
X138951072Y-107095358D01*
X138920549Y-106994737D01*
X138870982Y-106902004D01*
X138804277Y-106820723D01*
X138722996Y-106754018D01*
X138701227Y-106742382D01*
X142515000Y-106742382D01*
X142515000Y-106857618D01*
X142537481Y-106970638D01*
X142581579Y-107077102D01*
X142645600Y-107172916D01*
X142727084Y-107254400D01*
X142822898Y-107318421D01*
X142929362Y-107362519D01*
X143042382Y-107385000D01*
X143157618Y-107385000D01*
X143270638Y-107362519D01*
X143377102Y-107318421D01*
X143472916Y-107254400D01*
X143554400Y-107172916D01*
X143618421Y-107077102D01*
X143662519Y-106970638D01*
X143685000Y-106857618D01*
X143685000Y-106742382D01*
X143679866Y-106716574D01*
X143772916Y-106654400D01*
X143854400Y-106572916D01*
X143918421Y-106477102D01*
X143962519Y-106370638D01*
X143985000Y-106257618D01*
X143985000Y-106142382D01*
X143962519Y-106029362D01*
X143918421Y-105922898D01*
X143854400Y-105827084D01*
X143772916Y-105745600D01*
X143677102Y-105681579D01*
X143570638Y-105637481D01*
X143457618Y-105615000D01*
X143342382Y-105615000D01*
X143229362Y-105637481D01*
X143122898Y-105681579D01*
X143027084Y-105745600D01*
X142945600Y-105827084D01*
X142881579Y-105922898D01*
X142837481Y-106029362D01*
X142815000Y-106142382D01*
X142815000Y-106257618D01*
X142820134Y-106283426D01*
X142727084Y-106345600D01*
X142645600Y-106427084D01*
X142581579Y-106522898D01*
X142537481Y-106629362D01*
X142515000Y-106742382D01*
X138701227Y-106742382D01*
X138630263Y-106704451D01*
X138529642Y-106673928D01*
X138425000Y-106663622D01*
X136975000Y-106663622D01*
X136870358Y-106673928D01*
X136769737Y-106704451D01*
X136677004Y-106754018D01*
X136595723Y-106820723D01*
X136529018Y-106902004D01*
X136479451Y-106994737D01*
X136448928Y-107095358D01*
X136438622Y-107200000D01*
X135395927Y-107200000D01*
X135402219Y-105300000D01*
X136434509Y-105300000D01*
X136456423Y-105522499D01*
X136521324Y-105736447D01*
X136626716Y-105933623D01*
X136768551Y-106106449D01*
X136941377Y-106248284D01*
X137138553Y-106353676D01*
X137352501Y-106418577D01*
X137519248Y-106435000D01*
X137880752Y-106435000D01*
X138047499Y-106418577D01*
X138261447Y-106353676D01*
X138458623Y-106248284D01*
X138631449Y-106106449D01*
X138773284Y-105933623D01*
X138878676Y-105736447D01*
X138943577Y-105522499D01*
X138965491Y-105300000D01*
X138943577Y-105077501D01*
X138878676Y-104863553D01*
X138773284Y-104666377D01*
X138631449Y-104493551D01*
X138569100Y-104442382D01*
X139915000Y-104442382D01*
X139915000Y-104557618D01*
X139937481Y-104670638D01*
X139981579Y-104777102D01*
X140045600Y-104872916D01*
X140127084Y-104954400D01*
X140222898Y-105018421D01*
X140329362Y-105062519D01*
X140442382Y-105085000D01*
X140557618Y-105085000D01*
X140670638Y-105062519D01*
X140777102Y-105018421D01*
X140872916Y-104954400D01*
X140954400Y-104872916D01*
X141018421Y-104777102D01*
X141062519Y-104670638D01*
X141085000Y-104557618D01*
X141085000Y-104442382D01*
X141062519Y-104329362D01*
X141018421Y-104222898D01*
X140954400Y-104127084D01*
X140872916Y-104045600D01*
X140777102Y-103981579D01*
X140670638Y-103937481D01*
X140557618Y-103915000D01*
X140442382Y-103915000D01*
X140329362Y-103937481D01*
X140222898Y-103981579D01*
X140127084Y-104045600D01*
X140045600Y-104127084D01*
X139981579Y-104222898D01*
X139937481Y-104329362D01*
X139915000Y-104442382D01*
X138569100Y-104442382D01*
X138458623Y-104351716D01*
X138261447Y-104246324D01*
X138047499Y-104181423D01*
X137880752Y-104165000D01*
X137519248Y-104165000D01*
X137352501Y-104181423D01*
X137138553Y-104246324D01*
X136941377Y-104351716D01*
X136768551Y-104493551D01*
X136626716Y-104666377D01*
X136521324Y-104863553D01*
X136456423Y-105077501D01*
X136434509Y-105300000D01*
X135402219Y-105300000D01*
X135410497Y-102800000D01*
X136434509Y-102800000D01*
X136456423Y-103022499D01*
X136521324Y-103236447D01*
X136626716Y-103433623D01*
X136768551Y-103606449D01*
X136941377Y-103748284D01*
X137138553Y-103853676D01*
X137352501Y-103918577D01*
X137519248Y-103935000D01*
X137880752Y-103935000D01*
X138047499Y-103918577D01*
X138261447Y-103853676D01*
X138458623Y-103748284D01*
X138631449Y-103606449D01*
X138684027Y-103542382D01*
X138915000Y-103542382D01*
X138915000Y-103657618D01*
X138937481Y-103770638D01*
X138981579Y-103877102D01*
X139045600Y-103972916D01*
X139127084Y-104054400D01*
X139222898Y-104118421D01*
X139329362Y-104162519D01*
X139442382Y-104185000D01*
X139557618Y-104185000D01*
X139670638Y-104162519D01*
X139777102Y-104118421D01*
X139872916Y-104054400D01*
X139954400Y-103972916D01*
X140018421Y-103877102D01*
X140062519Y-103770638D01*
X140085000Y-103657618D01*
X140085000Y-103542382D01*
X140915000Y-103542382D01*
X140915000Y-103657618D01*
X140937481Y-103770638D01*
X140981579Y-103877102D01*
X141045600Y-103972916D01*
X141127084Y-104054400D01*
X141222898Y-104118421D01*
X141329362Y-104162519D01*
X141442382Y-104185000D01*
X141557618Y-104185000D01*
X141614456Y-104173694D01*
X141581579Y-104222898D01*
X141537481Y-104329362D01*
X141515000Y-104442382D01*
X141515000Y-104557618D01*
X141537481Y-104670638D01*
X141581579Y-104777102D01*
X141645600Y-104872916D01*
X141727084Y-104954400D01*
X141822898Y-105018421D01*
X141929362Y-105062519D01*
X142042382Y-105085000D01*
X142157618Y-105085000D01*
X142270638Y-105062519D01*
X142377102Y-105018421D01*
X142472916Y-104954400D01*
X142554400Y-104872916D01*
X142618421Y-104777102D01*
X142662519Y-104670638D01*
X142685000Y-104557618D01*
X142685000Y-104442382D01*
X142662519Y-104329362D01*
X142618421Y-104222898D01*
X142554400Y-104127084D01*
X142472916Y-104045600D01*
X142377102Y-103981579D01*
X142270638Y-103937481D01*
X142157618Y-103915000D01*
X142042382Y-103915000D01*
X141985544Y-103926306D01*
X142018421Y-103877102D01*
X142062519Y-103770638D01*
X142085000Y-103657618D01*
X142085000Y-103542382D01*
X142062519Y-103429362D01*
X142018421Y-103322898D01*
X141954400Y-103227084D01*
X141872916Y-103145600D01*
X141777102Y-103081579D01*
X141670638Y-103037481D01*
X141557618Y-103015000D01*
X141442382Y-103015000D01*
X141329362Y-103037481D01*
X141222898Y-103081579D01*
X141127084Y-103145600D01*
X141045600Y-103227084D01*
X140981579Y-103322898D01*
X140937481Y-103429362D01*
X140915000Y-103542382D01*
X140085000Y-103542382D01*
X140062519Y-103429362D01*
X140018421Y-103322898D01*
X139954400Y-103227084D01*
X139872916Y-103145600D01*
X139777102Y-103081579D01*
X139670638Y-103037481D01*
X139557618Y-103015000D01*
X139442382Y-103015000D01*
X139329362Y-103037481D01*
X139222898Y-103081579D01*
X139127084Y-103145600D01*
X139045600Y-103227084D01*
X138981579Y-103322898D01*
X138937481Y-103429362D01*
X138915000Y-103542382D01*
X138684027Y-103542382D01*
X138773284Y-103433623D01*
X138878676Y-103236447D01*
X138943577Y-103022499D01*
X138965491Y-102800000D01*
X138943577Y-102577501D01*
X138878676Y-102363553D01*
X138773284Y-102166377D01*
X138631449Y-101993551D01*
X138458623Y-101851716D01*
X138261447Y-101746324D01*
X138047499Y-101681423D01*
X137880752Y-101665000D01*
X137519248Y-101665000D01*
X137352501Y-101681423D01*
X137138553Y-101746324D01*
X136941377Y-101851716D01*
X136768551Y-101993551D01*
X136626716Y-102166377D01*
X136521324Y-102363553D01*
X136456423Y-102577501D01*
X136434509Y-102800000D01*
X135410497Y-102800000D01*
X135418775Y-100300000D01*
X136434509Y-100300000D01*
X136456423Y-100522499D01*
X136521324Y-100736447D01*
X136626716Y-100933623D01*
X136768551Y-101106449D01*
X136941377Y-101248284D01*
X137138553Y-101353676D01*
X137352501Y-101418577D01*
X137519248Y-101435000D01*
X137880752Y-101435000D01*
X138047499Y-101418577D01*
X138261447Y-101353676D01*
X138458623Y-101248284D01*
X138465814Y-101242382D01*
X142615000Y-101242382D01*
X142615000Y-101357618D01*
X142637481Y-101470638D01*
X142681579Y-101577102D01*
X142745600Y-101672916D01*
X142827084Y-101754400D01*
X142922898Y-101818421D01*
X143029362Y-101862519D01*
X143062442Y-101869099D01*
X143037481Y-101929362D01*
X143015000Y-102042382D01*
X143015000Y-102157618D01*
X143037481Y-102270638D01*
X143081579Y-102377102D01*
X143145600Y-102472916D01*
X143227084Y-102554400D01*
X143322898Y-102618421D01*
X143429362Y-102662519D01*
X143542382Y-102685000D01*
X143657618Y-102685000D01*
X143770638Y-102662519D01*
X143877102Y-102618421D01*
X143972916Y-102554400D01*
X144054400Y-102472916D01*
X144118421Y-102377102D01*
X144162519Y-102270638D01*
X144185000Y-102157618D01*
X144185000Y-102042382D01*
X144162519Y-101929362D01*
X144118421Y-101822898D01*
X144054400Y-101727084D01*
X143972916Y-101645600D01*
X143877102Y-101581579D01*
X143770638Y-101537481D01*
X143737558Y-101530901D01*
X143762519Y-101470638D01*
X143785000Y-101357618D01*
X143785000Y-101242382D01*
X143762519Y-101129362D01*
X143718421Y-101022898D01*
X143654400Y-100927084D01*
X143572916Y-100845600D01*
X143477102Y-100781579D01*
X143370638Y-100737481D01*
X143257618Y-100715000D01*
X143142382Y-100715000D01*
X143029362Y-100737481D01*
X142922898Y-100781579D01*
X142827084Y-100845600D01*
X142745600Y-100927084D01*
X142681579Y-101022898D01*
X142637481Y-101129362D01*
X142615000Y-101242382D01*
X138465814Y-101242382D01*
X138631449Y-101106449D01*
X138773284Y-100933623D01*
X138878676Y-100736447D01*
X138943577Y-100522499D01*
X138961316Y-100342382D01*
X144015000Y-100342382D01*
X144015000Y-100457618D01*
X144037481Y-100570638D01*
X144081579Y-100677102D01*
X144145600Y-100772916D01*
X144227084Y-100854400D01*
X144322898Y-100918421D01*
X144429362Y-100962519D01*
X144542382Y-100985000D01*
X144657618Y-100985000D01*
X144770638Y-100962519D01*
X144877102Y-100918421D01*
X144972916Y-100854400D01*
X145054400Y-100772916D01*
X145118421Y-100677102D01*
X145162519Y-100570638D01*
X145185000Y-100457618D01*
X145185000Y-100342382D01*
X145162519Y-100229362D01*
X145118421Y-100122898D01*
X145054400Y-100027084D01*
X145018246Y-99990930D01*
X145072916Y-99954400D01*
X145154400Y-99872916D01*
X145218421Y-99777102D01*
X145262519Y-99670638D01*
X145285000Y-99557618D01*
X145285000Y-99442382D01*
X145262519Y-99329362D01*
X145218421Y-99222898D01*
X145154400Y-99127084D01*
X145072916Y-99045600D01*
X144977102Y-98981579D01*
X144870638Y-98937481D01*
X144757618Y-98915000D01*
X144642382Y-98915000D01*
X144529362Y-98937481D01*
X144422898Y-98981579D01*
X144327084Y-99045600D01*
X144245600Y-99127084D01*
X144181579Y-99222898D01*
X144137481Y-99329362D01*
X144115000Y-99442382D01*
X144115000Y-99557618D01*
X144137481Y-99670638D01*
X144181579Y-99777102D01*
X144245600Y-99872916D01*
X144281754Y-99909070D01*
X144227084Y-99945600D01*
X144145600Y-100027084D01*
X144081579Y-100122898D01*
X144037481Y-100229362D01*
X144015000Y-100342382D01*
X138961316Y-100342382D01*
X138965491Y-100300000D01*
X138943577Y-100077501D01*
X138878676Y-99863553D01*
X138773284Y-99666377D01*
X138631449Y-99493551D01*
X138458623Y-99351716D01*
X138261447Y-99246324D01*
X138047499Y-99181423D01*
X137880752Y-99165000D01*
X137519248Y-99165000D01*
X137352501Y-99181423D01*
X137138553Y-99246324D01*
X136941377Y-99351716D01*
X136768551Y-99493551D01*
X136626716Y-99666377D01*
X136521324Y-99863553D01*
X136456423Y-100077501D01*
X136434509Y-100300000D01*
X135418775Y-100300000D01*
X135434719Y-95485000D01*
X148011018Y-95485000D01*
X147993983Y-95510494D01*
%TA.AperFunction,Conductor*%
D26*
G36*
X147993983Y-95510494D02*
G01*
X147949885Y-95616958D01*
X147927404Y-95729978D01*
X147927404Y-95845214D01*
X147930434Y-95860449D01*
X147457946Y-96332938D01*
X147444210Y-96344211D01*
X147399223Y-96399028D01*
X147365795Y-96461569D01*
X147359725Y-96481579D01*
X147345210Y-96529428D01*
X147344782Y-96533775D01*
X147327084Y-96545600D01*
X147245600Y-96627084D01*
X147181579Y-96722898D01*
X147137481Y-96829362D01*
X147115000Y-96942382D01*
X147115000Y-97057618D01*
X147137481Y-97170638D01*
X147181579Y-97277102D01*
X147245600Y-97372916D01*
X147327084Y-97454400D01*
X147422898Y-97518421D01*
X147529362Y-97562519D01*
X147642382Y-97585000D01*
X147757618Y-97585000D01*
X147870638Y-97562519D01*
X147977102Y-97518421D01*
X148072916Y-97454400D01*
X148154400Y-97372916D01*
X148163030Y-97360000D01*
X149558509Y-97360000D01*
X149530403Y-105848099D01*
X149509065Y-105836694D01*
X149455601Y-105820476D01*
X149412929Y-105816273D01*
X149397996Y-105804018D01*
X149305263Y-105754451D01*
X149204642Y-105723928D01*
X149100000Y-105713622D01*
X147100000Y-105713622D01*
X146995358Y-105723928D01*
X146894737Y-105754451D01*
X146802004Y-105804018D01*
X146787071Y-105816273D01*
X146744399Y-105820476D01*
X146690935Y-105836694D01*
X146641662Y-105863031D01*
X146598475Y-105898475D01*
X146563031Y-105941662D01*
X146536694Y-105990935D01*
X146520476Y-106044399D01*
X146515000Y-106100000D01*
X146515000Y-109815000D01*
X143300000Y-109815000D01*
X143244399Y-109820476D01*
X143190935Y-109836694D01*
X143141662Y-109863031D01*
X143098475Y-109898475D01*
X143063031Y-109941662D01*
X143036694Y-109990935D01*
X143020476Y-110044399D01*
X143015000Y-110100000D01*
X143015000Y-110415000D01*
X135385282Y-110415000D01*
X135395927Y-107200000D01*
X136438622Y-107200000D01*
X136438622Y-108400000D01*
X136448928Y-108504642D01*
X136479451Y-108605263D01*
X136529018Y-108697996D01*
X136595723Y-108779277D01*
X136677004Y-108845982D01*
X136769737Y-108895549D01*
X136870358Y-108926072D01*
X136975000Y-108936378D01*
X138425000Y-108936378D01*
X138529642Y-108926072D01*
X138630263Y-108895549D01*
X138722996Y-108845982D01*
X138804277Y-108779277D01*
X138870982Y-108697996D01*
X138920549Y-108605263D01*
X138951072Y-108504642D01*
X138961378Y-108400000D01*
X138961378Y-107442382D01*
X144115000Y-107442382D01*
X144115000Y-107557618D01*
X144137481Y-107670638D01*
X144181579Y-107777102D01*
X144245600Y-107872916D01*
X144322684Y-107950000D01*
X144245600Y-108027084D01*
X144181579Y-108122898D01*
X144137481Y-108229362D01*
X144115000Y-108342382D01*
X144115000Y-108457618D01*
X144137481Y-108570638D01*
X144181579Y-108677102D01*
X144245600Y-108772916D01*
X144327084Y-108854400D01*
X144422898Y-108918421D01*
X144529362Y-108962519D01*
X144642382Y-108985000D01*
X144757618Y-108985000D01*
X144870638Y-108962519D01*
X144977102Y-108918421D01*
X145072916Y-108854400D01*
X145154400Y-108772916D01*
X145218421Y-108677102D01*
X145262519Y-108570638D01*
X145285000Y-108457618D01*
X145285000Y-108342382D01*
X145262519Y-108229362D01*
X145218421Y-108122898D01*
X145154400Y-108027084D01*
X145077316Y-107950000D01*
X145154400Y-107872916D01*
X145218421Y-107777102D01*
X145262519Y-107670638D01*
X145285000Y-107557618D01*
X145285000Y-107442382D01*
X145262519Y-107329362D01*
X145218421Y-107222898D01*
X145154400Y-107127084D01*
X145072916Y-107045600D01*
X144977102Y-106981579D01*
X144870638Y-106937481D01*
X144757618Y-106915000D01*
X144642382Y-106915000D01*
X144529362Y-106937481D01*
X144422898Y-106981579D01*
X144327084Y-107045600D01*
X144245600Y-107127084D01*
X144181579Y-107222898D01*
X144137481Y-107329362D01*
X144115000Y-107442382D01*
X138961378Y-107442382D01*
X138961378Y-107200000D01*
X138951072Y-107095358D01*
X138920549Y-106994737D01*
X138870982Y-106902004D01*
X138804277Y-106820723D01*
X138722996Y-106754018D01*
X138701227Y-106742382D01*
X142515000Y-106742382D01*
X142515000Y-106857618D01*
X142537481Y-106970638D01*
X142581579Y-107077102D01*
X142645600Y-107172916D01*
X142727084Y-107254400D01*
X142822898Y-107318421D01*
X142929362Y-107362519D01*
X143042382Y-107385000D01*
X143157618Y-107385000D01*
X143270638Y-107362519D01*
X143377102Y-107318421D01*
X143472916Y-107254400D01*
X143554400Y-107172916D01*
X143618421Y-107077102D01*
X143662519Y-106970638D01*
X143685000Y-106857618D01*
X143685000Y-106742382D01*
X143679866Y-106716574D01*
X143772916Y-106654400D01*
X143854400Y-106572916D01*
X143918421Y-106477102D01*
X143962519Y-106370638D01*
X143985000Y-106257618D01*
X143985000Y-106142382D01*
X143962519Y-106029362D01*
X143918421Y-105922898D01*
X143854400Y-105827084D01*
X143772916Y-105745600D01*
X143677102Y-105681579D01*
X143570638Y-105637481D01*
X143457618Y-105615000D01*
X143342382Y-105615000D01*
X143229362Y-105637481D01*
X143122898Y-105681579D01*
X143027084Y-105745600D01*
X142945600Y-105827084D01*
X142881579Y-105922898D01*
X142837481Y-106029362D01*
X142815000Y-106142382D01*
X142815000Y-106257618D01*
X142820134Y-106283426D01*
X142727084Y-106345600D01*
X142645600Y-106427084D01*
X142581579Y-106522898D01*
X142537481Y-106629362D01*
X142515000Y-106742382D01*
X138701227Y-106742382D01*
X138630263Y-106704451D01*
X138529642Y-106673928D01*
X138425000Y-106663622D01*
X136975000Y-106663622D01*
X136870358Y-106673928D01*
X136769737Y-106704451D01*
X136677004Y-106754018D01*
X136595723Y-106820723D01*
X136529018Y-106902004D01*
X136479451Y-106994737D01*
X136448928Y-107095358D01*
X136438622Y-107200000D01*
X135395927Y-107200000D01*
X135402219Y-105300000D01*
X136434509Y-105300000D01*
X136456423Y-105522499D01*
X136521324Y-105736447D01*
X136626716Y-105933623D01*
X136768551Y-106106449D01*
X136941377Y-106248284D01*
X137138553Y-106353676D01*
X137352501Y-106418577D01*
X137519248Y-106435000D01*
X137880752Y-106435000D01*
X138047499Y-106418577D01*
X138261447Y-106353676D01*
X138458623Y-106248284D01*
X138631449Y-106106449D01*
X138773284Y-105933623D01*
X138878676Y-105736447D01*
X138943577Y-105522499D01*
X138965491Y-105300000D01*
X138943577Y-105077501D01*
X138878676Y-104863553D01*
X138773284Y-104666377D01*
X138631449Y-104493551D01*
X138569100Y-104442382D01*
X139915000Y-104442382D01*
X139915000Y-104557618D01*
X139937481Y-104670638D01*
X139981579Y-104777102D01*
X140045600Y-104872916D01*
X140127084Y-104954400D01*
X140222898Y-105018421D01*
X140329362Y-105062519D01*
X140442382Y-105085000D01*
X140557618Y-105085000D01*
X140670638Y-105062519D01*
X140777102Y-105018421D01*
X140872916Y-104954400D01*
X140954400Y-104872916D01*
X141018421Y-104777102D01*
X141062519Y-104670638D01*
X141085000Y-104557618D01*
X141085000Y-104442382D01*
X141062519Y-104329362D01*
X141018421Y-104222898D01*
X140954400Y-104127084D01*
X140872916Y-104045600D01*
X140777102Y-103981579D01*
X140670638Y-103937481D01*
X140557618Y-103915000D01*
X140442382Y-103915000D01*
X140329362Y-103937481D01*
X140222898Y-103981579D01*
X140127084Y-104045600D01*
X140045600Y-104127084D01*
X139981579Y-104222898D01*
X139937481Y-104329362D01*
X139915000Y-104442382D01*
X138569100Y-104442382D01*
X138458623Y-104351716D01*
X138261447Y-104246324D01*
X138047499Y-104181423D01*
X137880752Y-104165000D01*
X137519248Y-104165000D01*
X137352501Y-104181423D01*
X137138553Y-104246324D01*
X136941377Y-104351716D01*
X136768551Y-104493551D01*
X136626716Y-104666377D01*
X136521324Y-104863553D01*
X136456423Y-105077501D01*
X136434509Y-105300000D01*
X135402219Y-105300000D01*
X135410497Y-102800000D01*
X136434509Y-102800000D01*
X136456423Y-103022499D01*
X136521324Y-103236447D01*
X136626716Y-103433623D01*
X136768551Y-103606449D01*
X136941377Y-103748284D01*
X137138553Y-103853676D01*
X137352501Y-103918577D01*
X137519248Y-103935000D01*
X137880752Y-103935000D01*
X138047499Y-103918577D01*
X138261447Y-103853676D01*
X138458623Y-103748284D01*
X138631449Y-103606449D01*
X138684027Y-103542382D01*
X138915000Y-103542382D01*
X138915000Y-103657618D01*
X138937481Y-103770638D01*
X138981579Y-103877102D01*
X139045600Y-103972916D01*
X139127084Y-104054400D01*
X139222898Y-104118421D01*
X139329362Y-104162519D01*
X139442382Y-104185000D01*
X139557618Y-104185000D01*
X139670638Y-104162519D01*
X139777102Y-104118421D01*
X139872916Y-104054400D01*
X139954400Y-103972916D01*
X140018421Y-103877102D01*
X140062519Y-103770638D01*
X140085000Y-103657618D01*
X140085000Y-103542382D01*
X140915000Y-103542382D01*
X140915000Y-103657618D01*
X140937481Y-103770638D01*
X140981579Y-103877102D01*
X141045600Y-103972916D01*
X141127084Y-104054400D01*
X141222898Y-104118421D01*
X141329362Y-104162519D01*
X141442382Y-104185000D01*
X141557618Y-104185000D01*
X141614456Y-104173694D01*
X141581579Y-104222898D01*
X141537481Y-104329362D01*
X141515000Y-104442382D01*
X141515000Y-104557618D01*
X141537481Y-104670638D01*
X141581579Y-104777102D01*
X141645600Y-104872916D01*
X141727084Y-104954400D01*
X141822898Y-105018421D01*
X141929362Y-105062519D01*
X142042382Y-105085000D01*
X142157618Y-105085000D01*
X142270638Y-105062519D01*
X142377102Y-105018421D01*
X142472916Y-104954400D01*
X142554400Y-104872916D01*
X142618421Y-104777102D01*
X142662519Y-104670638D01*
X142685000Y-104557618D01*
X142685000Y-104442382D01*
X142662519Y-104329362D01*
X142618421Y-104222898D01*
X142554400Y-104127084D01*
X142472916Y-104045600D01*
X142377102Y-103981579D01*
X142270638Y-103937481D01*
X142157618Y-103915000D01*
X142042382Y-103915000D01*
X141985544Y-103926306D01*
X142018421Y-103877102D01*
X142062519Y-103770638D01*
X142085000Y-103657618D01*
X142085000Y-103542382D01*
X142062519Y-103429362D01*
X142018421Y-103322898D01*
X141954400Y-103227084D01*
X141872916Y-103145600D01*
X141777102Y-103081579D01*
X141670638Y-103037481D01*
X141557618Y-103015000D01*
X141442382Y-103015000D01*
X141329362Y-103037481D01*
X141222898Y-103081579D01*
X141127084Y-103145600D01*
X141045600Y-103227084D01*
X140981579Y-103322898D01*
X140937481Y-103429362D01*
X140915000Y-103542382D01*
X140085000Y-103542382D01*
X140062519Y-103429362D01*
X140018421Y-103322898D01*
X139954400Y-103227084D01*
X139872916Y-103145600D01*
X139777102Y-103081579D01*
X139670638Y-103037481D01*
X139557618Y-103015000D01*
X139442382Y-103015000D01*
X139329362Y-103037481D01*
X139222898Y-103081579D01*
X139127084Y-103145600D01*
X139045600Y-103227084D01*
X138981579Y-103322898D01*
X138937481Y-103429362D01*
X138915000Y-103542382D01*
X138684027Y-103542382D01*
X138773284Y-103433623D01*
X138878676Y-103236447D01*
X138943577Y-103022499D01*
X138965491Y-102800000D01*
X138943577Y-102577501D01*
X138878676Y-102363553D01*
X138773284Y-102166377D01*
X138631449Y-101993551D01*
X138458623Y-101851716D01*
X138261447Y-101746324D01*
X138047499Y-101681423D01*
X137880752Y-101665000D01*
X137519248Y-101665000D01*
X137352501Y-101681423D01*
X137138553Y-101746324D01*
X136941377Y-101851716D01*
X136768551Y-101993551D01*
X136626716Y-102166377D01*
X136521324Y-102363553D01*
X136456423Y-102577501D01*
X136434509Y-102800000D01*
X135410497Y-102800000D01*
X135418775Y-100300000D01*
X136434509Y-100300000D01*
X136456423Y-100522499D01*
X136521324Y-100736447D01*
X136626716Y-100933623D01*
X136768551Y-101106449D01*
X136941377Y-101248284D01*
X137138553Y-101353676D01*
X137352501Y-101418577D01*
X137519248Y-101435000D01*
X137880752Y-101435000D01*
X138047499Y-101418577D01*
X138261447Y-101353676D01*
X138458623Y-101248284D01*
X138465814Y-101242382D01*
X142615000Y-101242382D01*
X142615000Y-101357618D01*
X142637481Y-101470638D01*
X142681579Y-101577102D01*
X142745600Y-101672916D01*
X142827084Y-101754400D01*
X142922898Y-101818421D01*
X143029362Y-101862519D01*
X143062442Y-101869099D01*
X143037481Y-101929362D01*
X143015000Y-102042382D01*
X143015000Y-102157618D01*
X143037481Y-102270638D01*
X143081579Y-102377102D01*
X143145600Y-102472916D01*
X143227084Y-102554400D01*
X143322898Y-102618421D01*
X143429362Y-102662519D01*
X143542382Y-102685000D01*
X143657618Y-102685000D01*
X143770638Y-102662519D01*
X143877102Y-102618421D01*
X143972916Y-102554400D01*
X144054400Y-102472916D01*
X144118421Y-102377102D01*
X144162519Y-102270638D01*
X144185000Y-102157618D01*
X144185000Y-102042382D01*
X144162519Y-101929362D01*
X144118421Y-101822898D01*
X144054400Y-101727084D01*
X143972916Y-101645600D01*
X143877102Y-101581579D01*
X143770638Y-101537481D01*
X143737558Y-101530901D01*
X143762519Y-101470638D01*
X143785000Y-101357618D01*
X143785000Y-101242382D01*
X143762519Y-101129362D01*
X143718421Y-101022898D01*
X143654400Y-100927084D01*
X143572916Y-100845600D01*
X143477102Y-100781579D01*
X143370638Y-100737481D01*
X143257618Y-100715000D01*
X143142382Y-100715000D01*
X143029362Y-100737481D01*
X142922898Y-100781579D01*
X142827084Y-100845600D01*
X142745600Y-100927084D01*
X142681579Y-101022898D01*
X142637481Y-101129362D01*
X142615000Y-101242382D01*
X138465814Y-101242382D01*
X138631449Y-101106449D01*
X138773284Y-100933623D01*
X138878676Y-100736447D01*
X138943577Y-100522499D01*
X138961316Y-100342382D01*
X144015000Y-100342382D01*
X144015000Y-100457618D01*
X144037481Y-100570638D01*
X144081579Y-100677102D01*
X144145600Y-100772916D01*
X144227084Y-100854400D01*
X144322898Y-100918421D01*
X144429362Y-100962519D01*
X144542382Y-100985000D01*
X144657618Y-100985000D01*
X144770638Y-100962519D01*
X144877102Y-100918421D01*
X144972916Y-100854400D01*
X145054400Y-100772916D01*
X145118421Y-100677102D01*
X145162519Y-100570638D01*
X145185000Y-100457618D01*
X145185000Y-100342382D01*
X145162519Y-100229362D01*
X145118421Y-100122898D01*
X145054400Y-100027084D01*
X145018246Y-99990930D01*
X145072916Y-99954400D01*
X145154400Y-99872916D01*
X145218421Y-99777102D01*
X145262519Y-99670638D01*
X145285000Y-99557618D01*
X145285000Y-99442382D01*
X145262519Y-99329362D01*
X145218421Y-99222898D01*
X145154400Y-99127084D01*
X145072916Y-99045600D01*
X144977102Y-98981579D01*
X144870638Y-98937481D01*
X144757618Y-98915000D01*
X144642382Y-98915000D01*
X144529362Y-98937481D01*
X144422898Y-98981579D01*
X144327084Y-99045600D01*
X144245600Y-99127084D01*
X144181579Y-99222898D01*
X144137481Y-99329362D01*
X144115000Y-99442382D01*
X144115000Y-99557618D01*
X144137481Y-99670638D01*
X144181579Y-99777102D01*
X144245600Y-99872916D01*
X144281754Y-99909070D01*
X144227084Y-99945600D01*
X144145600Y-100027084D01*
X144081579Y-100122898D01*
X144037481Y-100229362D01*
X144015000Y-100342382D01*
X138961316Y-100342382D01*
X138965491Y-100300000D01*
X138943577Y-100077501D01*
X138878676Y-99863553D01*
X138773284Y-99666377D01*
X138631449Y-99493551D01*
X138458623Y-99351716D01*
X138261447Y-99246324D01*
X138047499Y-99181423D01*
X137880752Y-99165000D01*
X137519248Y-99165000D01*
X137352501Y-99181423D01*
X137138553Y-99246324D01*
X136941377Y-99351716D01*
X136768551Y-99493551D01*
X136626716Y-99666377D01*
X136521324Y-99863553D01*
X136456423Y-100077501D01*
X136434509Y-100300000D01*
X135418775Y-100300000D01*
X135434719Y-95485000D01*
X148011018Y-95485000D01*
X147993983Y-95510494D01*
G37*
%TD.AperFunction*%
%TD*%
D25*
%TO.N,GND*%
X142615000Y-120900000D02*
X142616633Y-120916583D01*
X142621470Y-120932528D01*
X142629325Y-120947223D01*
X142639896Y-120960104D01*
X142652777Y-120970675D01*
X142667472Y-120978530D01*
X142683417Y-120983367D01*
X142700000Y-120985000D01*
X147143430Y-120985000D01*
X147181579Y-121077102D01*
X147245600Y-121172916D01*
X147327084Y-121254400D01*
X147422898Y-121318421D01*
X147515000Y-121356570D01*
X147515000Y-123815000D01*
X143893098Y-123815000D01*
X143918421Y-123777102D01*
X143962519Y-123670638D01*
X143985000Y-123557618D01*
X143985000Y-123442382D01*
X143962519Y-123329362D01*
X143918421Y-123222898D01*
X143854400Y-123127084D01*
X143772916Y-123045600D01*
X143677102Y-122981579D01*
X143570638Y-122937481D01*
X143457618Y-122915000D01*
X143342382Y-122915000D01*
X143229362Y-122937481D01*
X143122898Y-122981579D01*
X143027084Y-123045600D01*
X142980071Y-123092613D01*
X142962519Y-123004372D01*
X142918421Y-122897908D01*
X142854400Y-122802094D01*
X142772916Y-122720610D01*
X142677102Y-122656589D01*
X142570638Y-122612491D01*
X142457618Y-122590010D01*
X142342382Y-122590010D01*
X142229362Y-122612491D01*
X142122898Y-122656589D01*
X142027084Y-122720610D01*
X141945600Y-122802094D01*
X141881579Y-122897908D01*
X141837481Y-123004372D01*
X141830394Y-123040000D01*
X138076194Y-123040000D01*
X136330999Y-121294805D01*
X136330999Y-118205195D01*
X137951195Y-116585000D01*
X142615000Y-116585000D01*
X142615000Y-120900000D01*
%TA.AperFunction,Conductor*%
D26*
G36*
X142615000Y-120900000D02*
G01*
X142616633Y-120916583D01*
X142621470Y-120932528D01*
X142629325Y-120947223D01*
X142639896Y-120960104D01*
X142652777Y-120970675D01*
X142667472Y-120978530D01*
X142683417Y-120983367D01*
X142700000Y-120985000D01*
X147143430Y-120985000D01*
X147181579Y-121077102D01*
X147245600Y-121172916D01*
X147327084Y-121254400D01*
X147422898Y-121318421D01*
X147515000Y-121356570D01*
X147515000Y-123815000D01*
X143893098Y-123815000D01*
X143918421Y-123777102D01*
X143962519Y-123670638D01*
X143985000Y-123557618D01*
X143985000Y-123442382D01*
X143962519Y-123329362D01*
X143918421Y-123222898D01*
X143854400Y-123127084D01*
X143772916Y-123045600D01*
X143677102Y-122981579D01*
X143570638Y-122937481D01*
X143457618Y-122915000D01*
X143342382Y-122915000D01*
X143229362Y-122937481D01*
X143122898Y-122981579D01*
X143027084Y-123045600D01*
X142980071Y-123092613D01*
X142962519Y-123004372D01*
X142918421Y-122897908D01*
X142854400Y-122802094D01*
X142772916Y-122720610D01*
X142677102Y-122656589D01*
X142570638Y-122612491D01*
X142457618Y-122590010D01*
X142342382Y-122590010D01*
X142229362Y-122612491D01*
X142122898Y-122656589D01*
X142027084Y-122720610D01*
X141945600Y-122802094D01*
X141881579Y-122897908D01*
X141837481Y-123004372D01*
X141830394Y-123040000D01*
X138076194Y-123040000D01*
X136330999Y-121294805D01*
X136330999Y-118205195D01*
X137951195Y-116585000D01*
X142615000Y-116585000D01*
X142615000Y-120900000D01*
G37*
%TD.AperFunction*%
%TD*%
D25*
%TO.N,Net-(J1-Pad1)*%
X146615000Y-116700000D02*
X146616633Y-116716583D01*
X146621470Y-116732528D01*
X146629325Y-116747223D01*
X146639896Y-116760104D01*
X146652777Y-116770675D01*
X146667472Y-116778530D01*
X146683417Y-116783367D01*
X146700000Y-116785000D01*
X147515000Y-116785000D01*
X147515000Y-119172880D01*
X147481579Y-119222898D01*
X147437481Y-119329362D01*
X147415000Y-119442382D01*
X147415000Y-119557618D01*
X147437481Y-119670638D01*
X147481579Y-119777102D01*
X147515000Y-119827120D01*
X147515000Y-120243430D01*
X147422898Y-120281579D01*
X147327084Y-120345600D01*
X147257684Y-120415000D01*
X143185000Y-120415000D01*
X143185000Y-114685000D01*
X146615000Y-114685000D01*
X146615000Y-116700000D01*
%TA.AperFunction,Conductor*%
D26*
G36*
X146615000Y-116700000D02*
G01*
X146616633Y-116716583D01*
X146621470Y-116732528D01*
X146629325Y-116747223D01*
X146639896Y-116760104D01*
X146652777Y-116770675D01*
X146667472Y-116778530D01*
X146683417Y-116783367D01*
X146700000Y-116785000D01*
X147515000Y-116785000D01*
X147515000Y-119172880D01*
X147481579Y-119222898D01*
X147437481Y-119329362D01*
X147415000Y-119442382D01*
X147415000Y-119557618D01*
X147437481Y-119670638D01*
X147481579Y-119777102D01*
X147515000Y-119827120D01*
X147515000Y-120243430D01*
X147422898Y-120281579D01*
X147327084Y-120345600D01*
X147257684Y-120415000D01*
X143185000Y-120415000D01*
X143185000Y-114685000D01*
X146615000Y-114685000D01*
X146615000Y-116700000D01*
G37*
%TD.AperFunction*%
%TD*%
D25*
%TO.N,VCC*%
X149315000Y-110771667D02*
X146657500Y-114315000D01*
X143385000Y-114315000D01*
X143385000Y-111001047D01*
X147087545Y-111001047D01*
X147087545Y-111116283D01*
X147110026Y-111229303D01*
X147154124Y-111335767D01*
X147218145Y-111431581D01*
X147299629Y-111513065D01*
X147395443Y-111577086D01*
X147501907Y-111621184D01*
X147614927Y-111643665D01*
X147730163Y-111643665D01*
X147843183Y-111621184D01*
X147949647Y-111577086D01*
X148045461Y-111513065D01*
X148126945Y-111431581D01*
X148190966Y-111335767D01*
X148235064Y-111229303D01*
X148257545Y-111116283D01*
X148257545Y-111001047D01*
X148235064Y-110888027D01*
X148190966Y-110781563D01*
X148126945Y-110685749D01*
X148045461Y-110604265D01*
X147949647Y-110540244D01*
X147843183Y-110496146D01*
X147730163Y-110473665D01*
X147614927Y-110473665D01*
X147501907Y-110496146D01*
X147395443Y-110540244D01*
X147299629Y-110604265D01*
X147218145Y-110685749D01*
X147154124Y-110781563D01*
X147110026Y-110888027D01*
X147087545Y-111001047D01*
X143385000Y-111001047D01*
X143385000Y-110185000D01*
X146800000Y-110185000D01*
X146816583Y-110183367D01*
X146832528Y-110178530D01*
X146847223Y-110170675D01*
X146860104Y-110160104D01*
X146870675Y-110147223D01*
X146878530Y-110132528D01*
X146883367Y-110116583D01*
X146885000Y-110100000D01*
X146885000Y-106185000D01*
X149315000Y-106185000D01*
X149315000Y-110771667D01*
%TA.AperFunction,Conductor*%
D26*
G36*
X149315000Y-110771667D02*
G01*
X146657500Y-114315000D01*
X143385000Y-114315000D01*
X143385000Y-111001047D01*
X147087545Y-111001047D01*
X147087545Y-111116283D01*
X147110026Y-111229303D01*
X147154124Y-111335767D01*
X147218145Y-111431581D01*
X147299629Y-111513065D01*
X147395443Y-111577086D01*
X147501907Y-111621184D01*
X147614927Y-111643665D01*
X147730163Y-111643665D01*
X147843183Y-111621184D01*
X147949647Y-111577086D01*
X148045461Y-111513065D01*
X148126945Y-111431581D01*
X148190966Y-111335767D01*
X148235064Y-111229303D01*
X148257545Y-111116283D01*
X148257545Y-111001047D01*
X148235064Y-110888027D01*
X148190966Y-110781563D01*
X148126945Y-110685749D01*
X148045461Y-110604265D01*
X147949647Y-110540244D01*
X147843183Y-110496146D01*
X147730163Y-110473665D01*
X147614927Y-110473665D01*
X147501907Y-110496146D01*
X147395443Y-110540244D01*
X147299629Y-110604265D01*
X147218145Y-110685749D01*
X147154124Y-110781563D01*
X147110026Y-110888027D01*
X147087545Y-111001047D01*
X143385000Y-111001047D01*
X143385000Y-110185000D01*
X146800000Y-110185000D01*
X146816583Y-110183367D01*
X146832528Y-110178530D01*
X146847223Y-110170675D01*
X146860104Y-110160104D01*
X146870675Y-110147223D01*
X146878530Y-110132528D01*
X146883367Y-110116583D01*
X146885000Y-110100000D01*
X146885000Y-106185000D01*
X149315000Y-106185000D01*
X149315000Y-110771667D01*
G37*
%TD.AperFunction*%
%TD*%
M02*
