%TF.GenerationSoftware,KiCad,Pcbnew,5.1.10-88a1d61d58~88~ubuntu20.04.1*%
%TF.CreationDate,2021-05-10T19:00:39+02:00*%
%TF.ProjectId,StepperServo,53746570-7065-4725-9365-72766f2e6b69,rev?*%
%TF.SameCoordinates,Original*%
%TF.FileFunction,Copper,L3,Inr*%
%TF.FilePolarity,Positive*%
%FSLAX46Y46*%
G04 Gerber Fmt 4.6, Leading zero omitted, Abs format (unit mm)*
G04 Created by KiCad (PCBNEW 5.1.10-88a1d61d58~88~ubuntu20.04.1) date 2021-05-10 19:00:39*
%MOMM*%
%LPD*%
G01*
G04 APERTURE LIST*
%TA.AperFunction,ComponentPad*%
%ADD10O,1.300000X0.800000*%
%TD*%
%TA.AperFunction,ComponentPad*%
%ADD11O,0.800000X1.300000*%
%TD*%
%TA.AperFunction,ComponentPad*%
%ADD12C,0.800000*%
%TD*%
%TA.AperFunction,ComponentPad*%
%ADD13C,6.400000*%
%TD*%
%TA.AperFunction,ComponentPad*%
%ADD14C,0.500000*%
%TD*%
%TA.AperFunction,ComponentPad*%
%ADD15O,1.950000X1.700000*%
%TD*%
%TA.AperFunction,ComponentPad*%
%ADD16C,3.000000*%
%TD*%
%TA.AperFunction,ViaPad*%
%ADD17C,0.600000*%
%TD*%
%TA.AperFunction,Conductor*%
%ADD18C,0.250000*%
%TD*%
%TA.AperFunction,Conductor*%
%ADD19C,0.150000*%
%TD*%
%TA.AperFunction,Conductor*%
%ADD20C,0.170000*%
%TD*%
%TA.AperFunction,Conductor*%
%ADD21C,0.100000*%
%TD*%
G04 APERTURE END LIST*
D10*
%TO.N,/MCU/tempMotor*%
%TO.C,J6*%
X136500000Y-114150000D03*
%TO.N,+3V3*%
%TA.AperFunction,ComponentPad*%
G36*
G01*
X136050000Y-112500000D02*
X136950000Y-112500000D01*
G75*
G02*
X137150000Y-112700000I0J-200000D01*
G01*
X137150000Y-113100000D01*
G75*
G02*
X136950000Y-113300000I-200000J0D01*
G01*
X136050000Y-113300000D01*
G75*
G02*
X135850000Y-113100000I0J200000D01*
G01*
X135850000Y-112700000D01*
G75*
G02*
X136050000Y-112500000I200000J0D01*
G01*
G37*
%TD.AperFunction*%
%TD*%
D11*
%TO.N,/MCU/I2C2_SCL*%
%TO.C,J4*%
X152100000Y-94000000D03*
%TO.N,GND*%
X150850000Y-94000000D03*
%TO.N,/MCU/I2C2_SDA*%
X149600000Y-94000000D03*
%TO.N,+3V3*%
%TA.AperFunction,ComponentPad*%
G36*
G01*
X147950000Y-94450000D02*
X147950000Y-93550000D01*
G75*
G02*
X148150000Y-93350000I200000J0D01*
G01*
X148550000Y-93350000D01*
G75*
G02*
X148750000Y-93550000I0J-200000D01*
G01*
X148750000Y-94450000D01*
G75*
G02*
X148550000Y-94650000I-200000J0D01*
G01*
X148150000Y-94650000D01*
G75*
G02*
X147950000Y-94450000I0J200000D01*
G01*
G37*
%TD.AperFunction*%
%TD*%
D12*
%TO.N,GND*%
%TO.C,H4*%
X167197056Y-118052944D03*
X165500000Y-117350000D03*
X163802944Y-118052944D03*
X163100000Y-119750000D03*
X163802944Y-121447056D03*
X165500000Y-122150000D03*
X167197056Y-121447056D03*
X167900000Y-119750000D03*
D13*
X165500000Y-119750000D03*
%TD*%
D12*
%TO.N,GND*%
%TO.C,H3*%
X141197056Y-118052944D03*
X139500000Y-117350000D03*
X137802944Y-118052944D03*
X137100000Y-119750000D03*
X137802944Y-121447056D03*
X139500000Y-122150000D03*
X141197056Y-121447056D03*
X141900000Y-119750000D03*
D13*
X139500000Y-119750000D03*
%TD*%
D12*
%TO.N,GND*%
%TO.C,H2*%
X167197056Y-92052944D03*
X165500000Y-91350000D03*
X163802944Y-92052944D03*
X163100000Y-93750000D03*
X163802944Y-95447056D03*
X165500000Y-96150000D03*
X167197056Y-95447056D03*
X167900000Y-93750000D03*
D13*
X165500000Y-93750000D03*
%TD*%
D12*
%TO.N,GND*%
%TO.C,H1*%
X141197056Y-92052944D03*
X139500000Y-91350000D03*
X137802944Y-92052944D03*
X137100000Y-93750000D03*
X137802944Y-95447056D03*
X139500000Y-96150000D03*
X141197056Y-95447056D03*
X141900000Y-93750000D03*
D13*
X139500000Y-93750000D03*
%TD*%
D14*
%TO.N,GND*%
%TO.C,U3*%
X146800000Y-105100000D03*
X146800000Y-104100000D03*
X146800000Y-103100000D03*
X145800000Y-105100000D03*
X145800000Y-104100000D03*
X145800000Y-103100000D03*
X144800000Y-105100000D03*
X144800000Y-104100000D03*
X144800000Y-103100000D03*
%TD*%
D10*
%TO.N,GND*%
%TO.C,J_SWD1*%
X160300000Y-116150000D03*
%TO.N,/MCU/SWO*%
X160300000Y-117400000D03*
%TO.N,/MCU/SWCLK*%
X160300000Y-118650000D03*
%TO.N,/MCU/SWDIO*%
X160300000Y-119900000D03*
%TO.N,+3V3*%
X160300000Y-121150000D03*
%TO.N,/MCU/~RST*%
%TA.AperFunction,ComponentPad*%
G36*
G01*
X160750000Y-122800000D02*
X159850000Y-122800000D01*
G75*
G02*
X159650000Y-122600000I0J200000D01*
G01*
X159650000Y-122200000D01*
G75*
G02*
X159850000Y-122000000I200000J0D01*
G01*
X160750000Y-122000000D01*
G75*
G02*
X160950000Y-122200000I0J-200000D01*
G01*
X160950000Y-122600000D01*
G75*
G02*
X160750000Y-122800000I-200000J0D01*
G01*
G37*
%TD.AperFunction*%
%TD*%
%TO.N,+5V*%
%TO.C,J_CAN2*%
X151900000Y-118650000D03*
%TO.N,GND*%
X151900000Y-119900000D03*
%TO.N,Net-(J_CAN1-Pad2)*%
X151900000Y-121150000D03*
%TO.N,Net-(J_CAN1-Pad1)*%
%TA.AperFunction,ComponentPad*%
G36*
G01*
X152350000Y-122800000D02*
X151450000Y-122800000D01*
G75*
G02*
X151250000Y-122600000I0J200000D01*
G01*
X151250000Y-122200000D01*
G75*
G02*
X151450000Y-122000000I200000J0D01*
G01*
X152350000Y-122000000D01*
G75*
G02*
X152550000Y-122200000I0J-200000D01*
G01*
X152550000Y-122600000D01*
G75*
G02*
X152350000Y-122800000I-200000J0D01*
G01*
G37*
%TD.AperFunction*%
%TD*%
%TO.N,+5V*%
%TO.C,J_CAN1*%
X156100000Y-118650000D03*
%TO.N,GND*%
X156100000Y-119900000D03*
%TO.N,Net-(J_CAN1-Pad2)*%
X156100000Y-121150000D03*
%TO.N,Net-(J_CAN1-Pad1)*%
%TA.AperFunction,ComponentPad*%
G36*
G01*
X156550000Y-122800000D02*
X155650000Y-122800000D01*
G75*
G02*
X155450000Y-122600000I0J200000D01*
G01*
X155450000Y-122200000D01*
G75*
G02*
X155650000Y-122000000I200000J0D01*
G01*
X156550000Y-122000000D01*
G75*
G02*
X156750000Y-122200000I0J-200000D01*
G01*
X156750000Y-122600000D01*
G75*
G02*
X156550000Y-122800000I-200000J0D01*
G01*
G37*
%TD.AperFunction*%
%TD*%
D15*
%TO.N,/StepperDriver/coilB_2*%
%TO.C,J3*%
X137700000Y-100300000D03*
%TO.N,/StepperDriver/coilB_1*%
X137700000Y-102800000D03*
%TO.N,/StepperDriver/coilA_1*%
X137700000Y-105300000D03*
%TO.N,/StepperDriver/coilA_2*%
%TA.AperFunction,ComponentPad*%
G36*
G01*
X138425000Y-108650000D02*
X136975000Y-108650000D01*
G75*
G02*
X136725000Y-108400000I0J250000D01*
G01*
X136725000Y-107200000D01*
G75*
G02*
X136975000Y-106950000I250000J0D01*
G01*
X138425000Y-106950000D01*
G75*
G02*
X138675000Y-107200000I0J-250000D01*
G01*
X138675000Y-108400000D01*
G75*
G02*
X138425000Y-108650000I-250000J0D01*
G01*
G37*
%TD.AperFunction*%
%TD*%
D16*
%TO.N,GND*%
%TO.C,J2*%
X146100000Y-122400000D03*
%TD*%
%TO.N,Net-(J1-Pad1)*%
%TO.C,J1*%
X146100000Y-118200000D03*
%TD*%
D17*
%TO.N,GND*%
X139400000Y-105500000D03*
X139400000Y-106200000D03*
X139400000Y-106900000D03*
X139400000Y-102700000D03*
X139400000Y-102000000D03*
X139400000Y-101300000D03*
X145400000Y-108000000D03*
X135700000Y-107300000D03*
X135700000Y-100900000D03*
X145900000Y-98000000D03*
X147672545Y-111058665D03*
X151100000Y-100000000D03*
X155000000Y-114500000D03*
X159300000Y-107500000D03*
X159100000Y-118400000D03*
X159100000Y-119600000D03*
X164692872Y-102753125D03*
X167302787Y-103313548D03*
X167200000Y-110300000D03*
X160600000Y-99900000D03*
X162700000Y-99200000D03*
X163300000Y-102700000D03*
X160700000Y-97600000D03*
X154200000Y-99400000D03*
X156699996Y-94800000D03*
X165900000Y-114187798D03*
X162047981Y-111220444D03*
X150200000Y-110571000D03*
X159200000Y-114300000D03*
X158950000Y-104750000D03*
X167500000Y-108100000D03*
X160940452Y-111215651D03*
X150000000Y-106100000D03*
X153200000Y-102300000D03*
X156300000Y-102100000D03*
X155905229Y-106694771D03*
X148900000Y-116600000D03*
X157600000Y-111400000D03*
X166500000Y-106300000D03*
X163300000Y-109900000D03*
%TO.N,+3V3*%
X155000000Y-115700000D03*
X165600000Y-102700000D03*
X167400000Y-104200000D03*
X167541689Y-111082678D03*
X165800000Y-110400000D03*
X164700000Y-110300000D03*
X155500000Y-111471000D03*
X158700000Y-101300000D03*
X157000000Y-102900000D03*
X160070856Y-110970355D03*
X155000000Y-107000000D03*
X154090219Y-107801761D03*
%TO.N,+5V*%
X169204001Y-116604001D03*
X154800000Y-89800000D03*
%TO.N,VCC*%
X143400000Y-106200000D03*
X143100000Y-106800000D03*
X143200000Y-101300000D03*
X143600000Y-102100000D03*
X143600000Y-112000000D03*
X143600000Y-111300000D03*
X143600000Y-110600000D03*
%TO.N,/StepperDriver/coilB_2*%
X144700000Y-99500000D03*
X144600000Y-100400000D03*
%TO.N,/StepperDriver/coilB_1*%
X141500000Y-103600000D03*
X139500000Y-103600000D03*
%TO.N,/StepperDriver/coilA_1*%
X142100000Y-104500000D03*
X140500000Y-104500000D03*
%TO.N,/StepperDriver/coilA_2*%
X144700000Y-107500000D03*
X144700000Y-108400000D03*
%TO.N,/MCU/SWO*%
X159300000Y-108300000D03*
%TO.N,/MCU/SWCLK*%
X156300000Y-111000000D03*
%TO.N,/MCU/SWDIO*%
X160118148Y-114387979D03*
%TO.N,/MCU/~RST*%
X162451724Y-102699775D03*
X162000000Y-104400000D03*
X160400000Y-106100002D03*
X152900000Y-98000000D03*
%TO.N,/StepperDriver/~EN*%
X155300000Y-101829000D03*
X147700000Y-97000000D03*
X148512404Y-95787596D03*
%TO.N,Net-(R4-Pad1)*%
X150100000Y-106941990D03*
%TO.N,/MCU/I2C2_SCL*%
X166900000Y-108800000D03*
%TO.N,/MCU/I2C2_SDA*%
X166448185Y-109640058D03*
%TO.N,/MCU/I2C1_SDA*%
X155900000Y-102800000D03*
%TO.N,/MCU/I2C1_SCL*%
X152700000Y-102929000D03*
%TO.N,Net-(C34-Pad2)*%
X162200000Y-99800000D03*
%TO.N,Net-(R19-Pad1)*%
X161352592Y-99905926D03*
%TO.N,/MCU/tempMotor*%
X154800000Y-113133010D03*
X163874562Y-109333179D03*
X147700000Y-120800000D03*
X143400000Y-123500000D03*
X167487526Y-106928423D03*
%TO.N,/inputCurrent*%
X153400000Y-112700009D03*
X167502410Y-106178568D03*
X163270691Y-108674990D03*
%TO.N,Net-(R23-Pad2)*%
X142400000Y-123175010D03*
X148000000Y-119500000D03*
%TO.N,Net-(J_CAN1-Pad2)*%
X153000000Y-114500000D03*
%TO.N,Net-(J_CAN1-Pad1)*%
X153194778Y-115994778D03*
%TO.N,/MCU/Stepper_UART*%
X159383215Y-106376643D03*
%TO.N,/MCU/LED_RED*%
X167100000Y-100000000D03*
%TO.N,/MCU/LED_GREEN*%
X166200000Y-99900000D03*
%TD*%
D18*
%TO.N,+5V*%
X169600000Y-116208002D02*
X169204001Y-116604001D01*
X169600000Y-92706998D02*
X169600000Y-116208002D01*
X166493002Y-89600000D02*
X169600000Y-92706998D01*
X155000000Y-89600000D02*
X166493002Y-89600000D01*
X154800000Y-89800000D02*
X155000000Y-89600000D01*
D19*
%TO.N,/MCU/tempMotor*%
X165815949Y-108600000D02*
X167487526Y-106928423D01*
X164607741Y-108600000D02*
X165815949Y-108600000D01*
X163874562Y-109333179D02*
X164607741Y-108600000D01*
%TO.N,/inputCurrent*%
X163774681Y-108171000D02*
X163270691Y-108674990D01*
X166962525Y-107029146D02*
X165820671Y-108171000D01*
X165820671Y-108171000D02*
X163774681Y-108171000D01*
X166962525Y-106676422D02*
X166962525Y-107029146D01*
X167460379Y-106178568D02*
X166962525Y-106676422D01*
X167502410Y-106178568D02*
X167460379Y-106178568D01*
%TO.N,Net-(R23-Pad2)*%
X146929001Y-120570999D02*
X148000000Y-119500000D01*
X145004011Y-120570999D02*
X146929001Y-120570999D01*
X142400000Y-123175010D02*
X145004011Y-120570999D01*
%TD*%
D20*
%TO.N,GND*%
X154237481Y-89629362D02*
X154215000Y-89742382D01*
X154215000Y-89857618D01*
X154237481Y-89970638D01*
X154281579Y-90077102D01*
X154345600Y-90172916D01*
X154427084Y-90254400D01*
X154522898Y-90318421D01*
X154629362Y-90362519D01*
X154742382Y-90385000D01*
X154857618Y-90385000D01*
X154970638Y-90362519D01*
X155077102Y-90318421D01*
X155172916Y-90254400D01*
X155254400Y-90172916D01*
X155318421Y-90077102D01*
X155346215Y-90010000D01*
X166323176Y-90010000D01*
X169190000Y-92876825D01*
X169190001Y-116019001D01*
X169146383Y-116019001D01*
X169033363Y-116041482D01*
X168926899Y-116085580D01*
X168831085Y-116149601D01*
X168749601Y-116231085D01*
X168685580Y-116326899D01*
X168641482Y-116433363D01*
X168619001Y-116546383D01*
X168619001Y-116661619D01*
X168641482Y-116774639D01*
X168685580Y-116881103D01*
X168749601Y-116976917D01*
X168831085Y-117058401D01*
X168926899Y-117122422D01*
X169033363Y-117166520D01*
X169146383Y-117189001D01*
X169261619Y-117189001D01*
X169374639Y-117166520D01*
X169481103Y-117122422D01*
X169576917Y-117058401D01*
X169615000Y-117020318D01*
X169615000Y-123915000D01*
X143812316Y-123915000D01*
X143854400Y-123872916D01*
X143918421Y-123777102D01*
X143962519Y-123670638D01*
X143985000Y-123557618D01*
X143985000Y-123442382D01*
X143962519Y-123329362D01*
X143918421Y-123222898D01*
X143854400Y-123127084D01*
X143772916Y-123045600D01*
X143677102Y-122981579D01*
X143570638Y-122937481D01*
X143457618Y-122915000D01*
X143342382Y-122915000D01*
X143229362Y-122937481D01*
X143122898Y-122981579D01*
X143061567Y-123022559D01*
X145153128Y-120930999D01*
X146911325Y-120930999D01*
X146929001Y-120932740D01*
X146999573Y-120925789D01*
X147067433Y-120905204D01*
X147118985Y-120877650D01*
X147137481Y-120970638D01*
X147181579Y-121077102D01*
X147245600Y-121172916D01*
X147327084Y-121254400D01*
X147422898Y-121318421D01*
X147529362Y-121362519D01*
X147642382Y-121385000D01*
X147757618Y-121385000D01*
X147870638Y-121362519D01*
X147977102Y-121318421D01*
X148072916Y-121254400D01*
X148154400Y-121172916D01*
X148169712Y-121150000D01*
X150961686Y-121150000D01*
X150974912Y-121284283D01*
X151014081Y-121413406D01*
X151077688Y-121532407D01*
X151163289Y-121636711D01*
X151267593Y-121722312D01*
X151300062Y-121739667D01*
X151263871Y-121750645D01*
X151179783Y-121795591D01*
X151106079Y-121856079D01*
X151045591Y-121929783D01*
X151000645Y-122013871D01*
X150972968Y-122105112D01*
X150963622Y-122200000D01*
X150963622Y-122600000D01*
X150972968Y-122694888D01*
X151000645Y-122786129D01*
X151045591Y-122870217D01*
X151106079Y-122943921D01*
X151179783Y-123004409D01*
X151263871Y-123049355D01*
X151355112Y-123077032D01*
X151450000Y-123086378D01*
X152350000Y-123086378D01*
X152444888Y-123077032D01*
X152536129Y-123049355D01*
X152620217Y-123004409D01*
X152693921Y-122943921D01*
X152754409Y-122870217D01*
X152799355Y-122786129D01*
X152827032Y-122694888D01*
X152836378Y-122600000D01*
X152836378Y-122200000D01*
X152827032Y-122105112D01*
X152799355Y-122013871D01*
X152754409Y-121929783D01*
X152693921Y-121856079D01*
X152620217Y-121795591D01*
X152536129Y-121750645D01*
X152499938Y-121739667D01*
X152532407Y-121722312D01*
X152636711Y-121636711D01*
X152722312Y-121532407D01*
X152785919Y-121413406D01*
X152825088Y-121284283D01*
X152838314Y-121150000D01*
X155161686Y-121150000D01*
X155174912Y-121284283D01*
X155214081Y-121413406D01*
X155277688Y-121532407D01*
X155363289Y-121636711D01*
X155467593Y-121722312D01*
X155500062Y-121739667D01*
X155463871Y-121750645D01*
X155379783Y-121795591D01*
X155306079Y-121856079D01*
X155245591Y-121929783D01*
X155200645Y-122013871D01*
X155172968Y-122105112D01*
X155163622Y-122200000D01*
X155163622Y-122600000D01*
X155172968Y-122694888D01*
X155200645Y-122786129D01*
X155245591Y-122870217D01*
X155306079Y-122943921D01*
X155379783Y-123004409D01*
X155463871Y-123049355D01*
X155555112Y-123077032D01*
X155650000Y-123086378D01*
X156550000Y-123086378D01*
X156644888Y-123077032D01*
X156736129Y-123049355D01*
X156820217Y-123004409D01*
X156893921Y-122943921D01*
X156954409Y-122870217D01*
X156999355Y-122786129D01*
X157027032Y-122694888D01*
X157036378Y-122600000D01*
X157036378Y-122200000D01*
X157027032Y-122105112D01*
X156999355Y-122013871D01*
X156954409Y-121929783D01*
X156893921Y-121856079D01*
X156820217Y-121795591D01*
X156736129Y-121750645D01*
X156699938Y-121739667D01*
X156732407Y-121722312D01*
X156836711Y-121636711D01*
X156922312Y-121532407D01*
X156985919Y-121413406D01*
X157025088Y-121284283D01*
X157038314Y-121150000D01*
X157025088Y-121015717D01*
X156985919Y-120886594D01*
X156922312Y-120767593D01*
X156836711Y-120663289D01*
X156732407Y-120577688D01*
X156613406Y-120514081D01*
X156484283Y-120474912D01*
X156383647Y-120465000D01*
X155816353Y-120465000D01*
X155715717Y-120474912D01*
X155586594Y-120514081D01*
X155467593Y-120577688D01*
X155363289Y-120663289D01*
X155277688Y-120767593D01*
X155214081Y-120886594D01*
X155174912Y-121015717D01*
X155161686Y-121150000D01*
X152838314Y-121150000D01*
X152825088Y-121015717D01*
X152785919Y-120886594D01*
X152722312Y-120767593D01*
X152636711Y-120663289D01*
X152532407Y-120577688D01*
X152413406Y-120514081D01*
X152284283Y-120474912D01*
X152183647Y-120465000D01*
X151616353Y-120465000D01*
X151515717Y-120474912D01*
X151386594Y-120514081D01*
X151267593Y-120577688D01*
X151163289Y-120663289D01*
X151077688Y-120767593D01*
X151014081Y-120886594D01*
X150974912Y-121015717D01*
X150961686Y-121150000D01*
X148169712Y-121150000D01*
X148218421Y-121077102D01*
X148262519Y-120970638D01*
X148285000Y-120857618D01*
X148285000Y-120742382D01*
X148262519Y-120629362D01*
X148218421Y-120522898D01*
X148154400Y-120427084D01*
X148072916Y-120345600D01*
X147977102Y-120281579D01*
X147870638Y-120237481D01*
X147788061Y-120221055D01*
X147927147Y-120081970D01*
X147942382Y-120085000D01*
X148057618Y-120085000D01*
X148170638Y-120062519D01*
X148277102Y-120018421D01*
X148372916Y-119954400D01*
X148454400Y-119872916D01*
X148518421Y-119777102D01*
X148562519Y-119670638D01*
X148585000Y-119557618D01*
X148585000Y-119442382D01*
X148562519Y-119329362D01*
X148518421Y-119222898D01*
X148454400Y-119127084D01*
X148372916Y-119045600D01*
X148277102Y-118981579D01*
X148170638Y-118937481D01*
X148057618Y-118915000D01*
X147942382Y-118915000D01*
X147829362Y-118937481D01*
X147722898Y-118981579D01*
X147702755Y-118995038D01*
X147816404Y-118720665D01*
X147830460Y-118650000D01*
X150961686Y-118650000D01*
X150974912Y-118784283D01*
X151014081Y-118913406D01*
X151077688Y-119032407D01*
X151163289Y-119136711D01*
X151267593Y-119222312D01*
X151386594Y-119285919D01*
X151515717Y-119325088D01*
X151616353Y-119335000D01*
X152183647Y-119335000D01*
X152284283Y-119325088D01*
X152413406Y-119285919D01*
X152532407Y-119222312D01*
X152636711Y-119136711D01*
X152722312Y-119032407D01*
X152785919Y-118913406D01*
X152825088Y-118784283D01*
X152838314Y-118650000D01*
X155161686Y-118650000D01*
X155174912Y-118784283D01*
X155214081Y-118913406D01*
X155277688Y-119032407D01*
X155363289Y-119136711D01*
X155467593Y-119222312D01*
X155586594Y-119285919D01*
X155715717Y-119325088D01*
X155816353Y-119335000D01*
X156383647Y-119335000D01*
X156484283Y-119325088D01*
X156613406Y-119285919D01*
X156732407Y-119222312D01*
X156836711Y-119136711D01*
X156922312Y-119032407D01*
X156985919Y-118913406D01*
X157025088Y-118784283D01*
X157038314Y-118650000D01*
X157025088Y-118515717D01*
X156985919Y-118386594D01*
X156922312Y-118267593D01*
X156836711Y-118163289D01*
X156732407Y-118077688D01*
X156613406Y-118014081D01*
X156484283Y-117974912D01*
X156383647Y-117965000D01*
X155816353Y-117965000D01*
X155715717Y-117974912D01*
X155586594Y-118014081D01*
X155467593Y-118077688D01*
X155363289Y-118163289D01*
X155277688Y-118267593D01*
X155214081Y-118386594D01*
X155174912Y-118515717D01*
X155161686Y-118650000D01*
X152838314Y-118650000D01*
X152825088Y-118515717D01*
X152785919Y-118386594D01*
X152722312Y-118267593D01*
X152636711Y-118163289D01*
X152532407Y-118077688D01*
X152413406Y-118014081D01*
X152284283Y-117974912D01*
X152183647Y-117965000D01*
X151616353Y-117965000D01*
X151515717Y-117974912D01*
X151386594Y-118014081D01*
X151267593Y-118077688D01*
X151163289Y-118163289D01*
X151077688Y-118267593D01*
X151014081Y-118386594D01*
X150974912Y-118515717D01*
X150961686Y-118650000D01*
X147830460Y-118650000D01*
X147885000Y-118375807D01*
X147885000Y-118024193D01*
X147816404Y-117679335D01*
X147700700Y-117400000D01*
X159361686Y-117400000D01*
X159374912Y-117534283D01*
X159414081Y-117663406D01*
X159477688Y-117782407D01*
X159563289Y-117886711D01*
X159667593Y-117972312D01*
X159766166Y-118025000D01*
X159667593Y-118077688D01*
X159563289Y-118163289D01*
X159477688Y-118267593D01*
X159414081Y-118386594D01*
X159374912Y-118515717D01*
X159361686Y-118650000D01*
X159374912Y-118784283D01*
X159414081Y-118913406D01*
X159477688Y-119032407D01*
X159563289Y-119136711D01*
X159667593Y-119222312D01*
X159766166Y-119275000D01*
X159667593Y-119327688D01*
X159563289Y-119413289D01*
X159477688Y-119517593D01*
X159414081Y-119636594D01*
X159374912Y-119765717D01*
X159361686Y-119900000D01*
X159374912Y-120034283D01*
X159414081Y-120163406D01*
X159477688Y-120282407D01*
X159563289Y-120386711D01*
X159667593Y-120472312D01*
X159766166Y-120525000D01*
X159667593Y-120577688D01*
X159563289Y-120663289D01*
X159477688Y-120767593D01*
X159414081Y-120886594D01*
X159374912Y-121015717D01*
X159361686Y-121150000D01*
X159374912Y-121284283D01*
X159414081Y-121413406D01*
X159477688Y-121532407D01*
X159563289Y-121636711D01*
X159667593Y-121722312D01*
X159700062Y-121739667D01*
X159663871Y-121750645D01*
X159579783Y-121795591D01*
X159506079Y-121856079D01*
X159445591Y-121929783D01*
X159400645Y-122013871D01*
X159372968Y-122105112D01*
X159363622Y-122200000D01*
X159363622Y-122600000D01*
X159372968Y-122694888D01*
X159400645Y-122786129D01*
X159445591Y-122870217D01*
X159506079Y-122943921D01*
X159579783Y-123004409D01*
X159663871Y-123049355D01*
X159755112Y-123077032D01*
X159850000Y-123086378D01*
X160750000Y-123086378D01*
X160844888Y-123077032D01*
X160936129Y-123049355D01*
X161020217Y-123004409D01*
X161093921Y-122943921D01*
X161154409Y-122870217D01*
X161199355Y-122786129D01*
X161227032Y-122694888D01*
X161236378Y-122600000D01*
X161236378Y-122200000D01*
X161227032Y-122105112D01*
X161199355Y-122013871D01*
X161154409Y-121929783D01*
X161093921Y-121856079D01*
X161020217Y-121795591D01*
X160936129Y-121750645D01*
X160899938Y-121739667D01*
X160932407Y-121722312D01*
X161036711Y-121636711D01*
X161122312Y-121532407D01*
X161185919Y-121413406D01*
X161225088Y-121284283D01*
X161238314Y-121150000D01*
X161225088Y-121015717D01*
X161185919Y-120886594D01*
X161122312Y-120767593D01*
X161036711Y-120663289D01*
X160932407Y-120577688D01*
X160833834Y-120525000D01*
X160932407Y-120472312D01*
X161036711Y-120386711D01*
X161122312Y-120282407D01*
X161185919Y-120163406D01*
X161225088Y-120034283D01*
X161238314Y-119900000D01*
X161225088Y-119765717D01*
X161185919Y-119636594D01*
X161122312Y-119517593D01*
X161036711Y-119413289D01*
X160932407Y-119327688D01*
X160833834Y-119275000D01*
X160932407Y-119222312D01*
X161036711Y-119136711D01*
X161122312Y-119032407D01*
X161185919Y-118913406D01*
X161225088Y-118784283D01*
X161238314Y-118650000D01*
X161225088Y-118515717D01*
X161185919Y-118386594D01*
X161122312Y-118267593D01*
X161036711Y-118163289D01*
X160932407Y-118077688D01*
X160833834Y-118025000D01*
X160932407Y-117972312D01*
X161036711Y-117886711D01*
X161122312Y-117782407D01*
X161185919Y-117663406D01*
X161225088Y-117534283D01*
X161238314Y-117400000D01*
X161225088Y-117265717D01*
X161185919Y-117136594D01*
X161122312Y-117017593D01*
X161036711Y-116913289D01*
X160932407Y-116827688D01*
X160813406Y-116764081D01*
X160684283Y-116724912D01*
X160583647Y-116715000D01*
X160016353Y-116715000D01*
X159915717Y-116724912D01*
X159786594Y-116764081D01*
X159667593Y-116827688D01*
X159563289Y-116913289D01*
X159477688Y-117017593D01*
X159414081Y-117136594D01*
X159374912Y-117265717D01*
X159361686Y-117400000D01*
X147700700Y-117400000D01*
X147681847Y-117354485D01*
X147486500Y-117062129D01*
X147237871Y-116813500D01*
X146945515Y-116618153D01*
X146620665Y-116483596D01*
X146275807Y-116415000D01*
X145924193Y-116415000D01*
X145579335Y-116483596D01*
X145254485Y-116618153D01*
X144962129Y-116813500D01*
X144713500Y-117062129D01*
X144518153Y-117354485D01*
X144383596Y-117679335D01*
X144315000Y-118024193D01*
X144315000Y-118375807D01*
X144383596Y-118720665D01*
X144518153Y-119045515D01*
X144713500Y-119337871D01*
X144962129Y-119586500D01*
X145254485Y-119781847D01*
X145579335Y-119916404D01*
X145924193Y-119985000D01*
X146275807Y-119985000D01*
X146620665Y-119916404D01*
X146945515Y-119781847D01*
X147237871Y-119586500D01*
X147423197Y-119401174D01*
X147415000Y-119442382D01*
X147415000Y-119557618D01*
X147418030Y-119572853D01*
X146779885Y-120210999D01*
X145021690Y-120210999D01*
X145004011Y-120209258D01*
X144933439Y-120216208D01*
X144865578Y-120236794D01*
X144843794Y-120248438D01*
X144803038Y-120270222D01*
X144748221Y-120315209D01*
X144736949Y-120328944D01*
X142472853Y-122593040D01*
X142457618Y-122590010D01*
X142342382Y-122590010D01*
X142229362Y-122612491D01*
X142122898Y-122656589D01*
X142027084Y-122720610D01*
X141945600Y-122802094D01*
X141881579Y-122897908D01*
X141837481Y-123004372D01*
X141815000Y-123117392D01*
X141815000Y-123232628D01*
X141837481Y-123345648D01*
X141881579Y-123452112D01*
X141945600Y-123547926D01*
X142027084Y-123629410D01*
X142122898Y-123693431D01*
X142229362Y-123737529D01*
X142342382Y-123760010D01*
X142457618Y-123760010D01*
X142570638Y-123737529D01*
X142677102Y-123693431D01*
X142772916Y-123629410D01*
X142819929Y-123582397D01*
X142837481Y-123670638D01*
X142881579Y-123777102D01*
X142945600Y-123872916D01*
X142987684Y-123915000D01*
X135385000Y-123915000D01*
X135385000Y-115937160D01*
X152609778Y-115937160D01*
X152609778Y-116052396D01*
X152632259Y-116165416D01*
X152676357Y-116271880D01*
X152740378Y-116367694D01*
X152821862Y-116449178D01*
X152917676Y-116513199D01*
X153024140Y-116557297D01*
X153137160Y-116579778D01*
X153252396Y-116579778D01*
X153365416Y-116557297D01*
X153471880Y-116513199D01*
X153567694Y-116449178D01*
X153649178Y-116367694D01*
X153713199Y-116271880D01*
X153757297Y-116165416D01*
X153779778Y-116052396D01*
X153779778Y-115937160D01*
X153757297Y-115824140D01*
X153713199Y-115717676D01*
X153662890Y-115642382D01*
X154415000Y-115642382D01*
X154415000Y-115757618D01*
X154437481Y-115870638D01*
X154481579Y-115977102D01*
X154545600Y-116072916D01*
X154627084Y-116154400D01*
X154722898Y-116218421D01*
X154829362Y-116262519D01*
X154942382Y-116285000D01*
X155057618Y-116285000D01*
X155170638Y-116262519D01*
X155277102Y-116218421D01*
X155372916Y-116154400D01*
X155454400Y-116072916D01*
X155518421Y-115977102D01*
X155562519Y-115870638D01*
X155585000Y-115757618D01*
X155585000Y-115642382D01*
X155562519Y-115529362D01*
X155518421Y-115422898D01*
X155454400Y-115327084D01*
X155372916Y-115245600D01*
X155277102Y-115181579D01*
X155170638Y-115137481D01*
X155057618Y-115115000D01*
X154942382Y-115115000D01*
X154829362Y-115137481D01*
X154722898Y-115181579D01*
X154627084Y-115245600D01*
X154545600Y-115327084D01*
X154481579Y-115422898D01*
X154437481Y-115529362D01*
X154415000Y-115642382D01*
X153662890Y-115642382D01*
X153649178Y-115621862D01*
X153567694Y-115540378D01*
X153471880Y-115476357D01*
X153365416Y-115432259D01*
X153252396Y-115409778D01*
X153137160Y-115409778D01*
X153024140Y-115432259D01*
X152917676Y-115476357D01*
X152821862Y-115540378D01*
X152740378Y-115621862D01*
X152676357Y-115717676D01*
X152632259Y-115824140D01*
X152609778Y-115937160D01*
X135385000Y-115937160D01*
X135385000Y-114150000D01*
X135561686Y-114150000D01*
X135574912Y-114284283D01*
X135614081Y-114413406D01*
X135677688Y-114532407D01*
X135763289Y-114636711D01*
X135867593Y-114722312D01*
X135986594Y-114785919D01*
X136115717Y-114825088D01*
X136216353Y-114835000D01*
X136783647Y-114835000D01*
X136884283Y-114825088D01*
X137013406Y-114785919D01*
X137132407Y-114722312D01*
X137236711Y-114636711D01*
X137322312Y-114532407D01*
X137370431Y-114442382D01*
X152415000Y-114442382D01*
X152415000Y-114557618D01*
X152437481Y-114670638D01*
X152481579Y-114777102D01*
X152545600Y-114872916D01*
X152627084Y-114954400D01*
X152722898Y-115018421D01*
X152829362Y-115062519D01*
X152942382Y-115085000D01*
X153057618Y-115085000D01*
X153170638Y-115062519D01*
X153277102Y-115018421D01*
X153372916Y-114954400D01*
X153454400Y-114872916D01*
X153518421Y-114777102D01*
X153562519Y-114670638D01*
X153585000Y-114557618D01*
X153585000Y-114442382D01*
X153562718Y-114330361D01*
X159533148Y-114330361D01*
X159533148Y-114445597D01*
X159555629Y-114558617D01*
X159599727Y-114665081D01*
X159663748Y-114760895D01*
X159745232Y-114842379D01*
X159841046Y-114906400D01*
X159947510Y-114950498D01*
X160060530Y-114972979D01*
X160175766Y-114972979D01*
X160288786Y-114950498D01*
X160395250Y-114906400D01*
X160491064Y-114842379D01*
X160572548Y-114760895D01*
X160636569Y-114665081D01*
X160680667Y-114558617D01*
X160703148Y-114445597D01*
X160703148Y-114330361D01*
X160680667Y-114217341D01*
X160636569Y-114110877D01*
X160572548Y-114015063D01*
X160491064Y-113933579D01*
X160395250Y-113869558D01*
X160288786Y-113825460D01*
X160175766Y-113802979D01*
X160060530Y-113802979D01*
X159947510Y-113825460D01*
X159841046Y-113869558D01*
X159745232Y-113933579D01*
X159663748Y-114015063D01*
X159599727Y-114110877D01*
X159555629Y-114217341D01*
X159533148Y-114330361D01*
X153562718Y-114330361D01*
X153562519Y-114329362D01*
X153518421Y-114222898D01*
X153454400Y-114127084D01*
X153372916Y-114045600D01*
X153277102Y-113981579D01*
X153170638Y-113937481D01*
X153057618Y-113915000D01*
X152942382Y-113915000D01*
X152829362Y-113937481D01*
X152722898Y-113981579D01*
X152627084Y-114045600D01*
X152545600Y-114127084D01*
X152481579Y-114222898D01*
X152437481Y-114329362D01*
X152415000Y-114442382D01*
X137370431Y-114442382D01*
X137385919Y-114413406D01*
X137425088Y-114284283D01*
X137438314Y-114150000D01*
X137425088Y-114015717D01*
X137385919Y-113886594D01*
X137322312Y-113767593D01*
X137236711Y-113663289D01*
X137132407Y-113577688D01*
X137099938Y-113560333D01*
X137136129Y-113549355D01*
X137220217Y-113504409D01*
X137293921Y-113443921D01*
X137354409Y-113370217D01*
X137399355Y-113286129D01*
X137427032Y-113194888D01*
X137436378Y-113100000D01*
X137436378Y-112700000D01*
X137430704Y-112642391D01*
X152815000Y-112642391D01*
X152815000Y-112757627D01*
X152837481Y-112870647D01*
X152881579Y-112977111D01*
X152945600Y-113072925D01*
X153027084Y-113154409D01*
X153122898Y-113218430D01*
X153229362Y-113262528D01*
X153342382Y-113285009D01*
X153457618Y-113285009D01*
X153570638Y-113262528D01*
X153677102Y-113218430D01*
X153772916Y-113154409D01*
X153851933Y-113075392D01*
X154215000Y-113075392D01*
X154215000Y-113190628D01*
X154237481Y-113303648D01*
X154281579Y-113410112D01*
X154345600Y-113505926D01*
X154427084Y-113587410D01*
X154522898Y-113651431D01*
X154629362Y-113695529D01*
X154742382Y-113718010D01*
X154857618Y-113718010D01*
X154970638Y-113695529D01*
X155077102Y-113651431D01*
X155172916Y-113587410D01*
X155254400Y-113505926D01*
X155318421Y-113410112D01*
X155362519Y-113303648D01*
X155385000Y-113190628D01*
X155385000Y-113075392D01*
X155362519Y-112962372D01*
X155318421Y-112855908D01*
X155254400Y-112760094D01*
X155172916Y-112678610D01*
X155077102Y-112614589D01*
X154970638Y-112570491D01*
X154857618Y-112548010D01*
X154742382Y-112548010D01*
X154629362Y-112570491D01*
X154522898Y-112614589D01*
X154427084Y-112678610D01*
X154345600Y-112760094D01*
X154281579Y-112855908D01*
X154237481Y-112962372D01*
X154215000Y-113075392D01*
X153851933Y-113075392D01*
X153854400Y-113072925D01*
X153918421Y-112977111D01*
X153962519Y-112870647D01*
X153985000Y-112757627D01*
X153985000Y-112642391D01*
X153962519Y-112529371D01*
X153918421Y-112422907D01*
X153854400Y-112327093D01*
X153772916Y-112245609D01*
X153677102Y-112181588D01*
X153570638Y-112137490D01*
X153457618Y-112115009D01*
X153342382Y-112115009D01*
X153229362Y-112137490D01*
X153122898Y-112181588D01*
X153027084Y-112245609D01*
X152945600Y-112327093D01*
X152881579Y-112422907D01*
X152837481Y-112529371D01*
X152815000Y-112642391D01*
X137430704Y-112642391D01*
X137427032Y-112605112D01*
X137399355Y-112513871D01*
X137354409Y-112429783D01*
X137293921Y-112356079D01*
X137220217Y-112295591D01*
X137136129Y-112250645D01*
X137044888Y-112222968D01*
X136950000Y-112213622D01*
X136050000Y-112213622D01*
X135955112Y-112222968D01*
X135863871Y-112250645D01*
X135779783Y-112295591D01*
X135706079Y-112356079D01*
X135645591Y-112429783D01*
X135600645Y-112513871D01*
X135572968Y-112605112D01*
X135563622Y-112700000D01*
X135563622Y-113100000D01*
X135572968Y-113194888D01*
X135600645Y-113286129D01*
X135645591Y-113370217D01*
X135706079Y-113443921D01*
X135779783Y-113504409D01*
X135863871Y-113549355D01*
X135900062Y-113560333D01*
X135867593Y-113577688D01*
X135763289Y-113663289D01*
X135677688Y-113767593D01*
X135614081Y-113886594D01*
X135574912Y-114015717D01*
X135561686Y-114150000D01*
X135385000Y-114150000D01*
X135385000Y-110542382D01*
X143015000Y-110542382D01*
X143015000Y-110657618D01*
X143037481Y-110770638D01*
X143081579Y-110877102D01*
X143130288Y-110950000D01*
X143081579Y-111022898D01*
X143037481Y-111129362D01*
X143015000Y-111242382D01*
X143015000Y-111357618D01*
X143037481Y-111470638D01*
X143081579Y-111577102D01*
X143130288Y-111650000D01*
X143081579Y-111722898D01*
X143037481Y-111829362D01*
X143015000Y-111942382D01*
X143015000Y-112057618D01*
X143037481Y-112170638D01*
X143081579Y-112277102D01*
X143145600Y-112372916D01*
X143227084Y-112454400D01*
X143322898Y-112518421D01*
X143429362Y-112562519D01*
X143542382Y-112585000D01*
X143657618Y-112585000D01*
X143770638Y-112562519D01*
X143877102Y-112518421D01*
X143972916Y-112454400D01*
X144054400Y-112372916D01*
X144118421Y-112277102D01*
X144162519Y-112170638D01*
X144185000Y-112057618D01*
X144185000Y-111942382D01*
X144162519Y-111829362D01*
X144118421Y-111722898D01*
X144069712Y-111650000D01*
X144118421Y-111577102D01*
X144162519Y-111470638D01*
X144173907Y-111413382D01*
X154915000Y-111413382D01*
X154915000Y-111528618D01*
X154937481Y-111641638D01*
X154981579Y-111748102D01*
X155045600Y-111843916D01*
X155127084Y-111925400D01*
X155222898Y-111989421D01*
X155329362Y-112033519D01*
X155442382Y-112056000D01*
X155557618Y-112056000D01*
X155670638Y-112033519D01*
X155777102Y-111989421D01*
X155872916Y-111925400D01*
X155954400Y-111843916D01*
X156018421Y-111748102D01*
X156062519Y-111641638D01*
X156082147Y-111542962D01*
X156129362Y-111562519D01*
X156242382Y-111585000D01*
X156357618Y-111585000D01*
X156470638Y-111562519D01*
X156577102Y-111518421D01*
X156672916Y-111454400D01*
X156754400Y-111372916D01*
X156818421Y-111277102D01*
X156862519Y-111170638D01*
X156885000Y-111057618D01*
X156885000Y-110942382D01*
X156879104Y-110912737D01*
X159485856Y-110912737D01*
X159485856Y-111027973D01*
X159508337Y-111140993D01*
X159552435Y-111247457D01*
X159616456Y-111343271D01*
X159697940Y-111424755D01*
X159793754Y-111488776D01*
X159900218Y-111532874D01*
X160013238Y-111555355D01*
X160128474Y-111555355D01*
X160241494Y-111532874D01*
X160347958Y-111488776D01*
X160443772Y-111424755D01*
X160525256Y-111343271D01*
X160589277Y-111247457D01*
X160633375Y-111140993D01*
X160655856Y-111027973D01*
X160655856Y-111025060D01*
X166956689Y-111025060D01*
X166956689Y-111140296D01*
X166979170Y-111253316D01*
X167023268Y-111359780D01*
X167087289Y-111455594D01*
X167168773Y-111537078D01*
X167264587Y-111601099D01*
X167371051Y-111645197D01*
X167484071Y-111667678D01*
X167599307Y-111667678D01*
X167712327Y-111645197D01*
X167818791Y-111601099D01*
X167914605Y-111537078D01*
X167996089Y-111455594D01*
X168060110Y-111359780D01*
X168104208Y-111253316D01*
X168126689Y-111140296D01*
X168126689Y-111025060D01*
X168104208Y-110912040D01*
X168060110Y-110805576D01*
X167996089Y-110709762D01*
X167914605Y-110628278D01*
X167818791Y-110564257D01*
X167712327Y-110520159D01*
X167599307Y-110497678D01*
X167484071Y-110497678D01*
X167371051Y-110520159D01*
X167264587Y-110564257D01*
X167168773Y-110628278D01*
X167087289Y-110709762D01*
X167023268Y-110805576D01*
X166979170Y-110912040D01*
X166956689Y-111025060D01*
X160655856Y-111025060D01*
X160655856Y-110912737D01*
X160633375Y-110799717D01*
X160589277Y-110693253D01*
X160525256Y-110597439D01*
X160443772Y-110515955D01*
X160347958Y-110451934D01*
X160241494Y-110407836D01*
X160128474Y-110385355D01*
X160013238Y-110385355D01*
X159900218Y-110407836D01*
X159793754Y-110451934D01*
X159697940Y-110515955D01*
X159616456Y-110597439D01*
X159552435Y-110693253D01*
X159508337Y-110799717D01*
X159485856Y-110912737D01*
X156879104Y-110912737D01*
X156862519Y-110829362D01*
X156818421Y-110722898D01*
X156754400Y-110627084D01*
X156672916Y-110545600D01*
X156577102Y-110481579D01*
X156470638Y-110437481D01*
X156357618Y-110415000D01*
X156242382Y-110415000D01*
X156129362Y-110437481D01*
X156022898Y-110481579D01*
X155927084Y-110545600D01*
X155845600Y-110627084D01*
X155781579Y-110722898D01*
X155737481Y-110829362D01*
X155717853Y-110928038D01*
X155670638Y-110908481D01*
X155557618Y-110886000D01*
X155442382Y-110886000D01*
X155329362Y-110908481D01*
X155222898Y-110952579D01*
X155127084Y-111016600D01*
X155045600Y-111098084D01*
X154981579Y-111193898D01*
X154937481Y-111300362D01*
X154915000Y-111413382D01*
X144173907Y-111413382D01*
X144185000Y-111357618D01*
X144185000Y-111242382D01*
X144162519Y-111129362D01*
X144118421Y-111022898D01*
X144069712Y-110950000D01*
X144118421Y-110877102D01*
X144162519Y-110770638D01*
X144185000Y-110657618D01*
X144185000Y-110542382D01*
X144162519Y-110429362D01*
X144118421Y-110322898D01*
X144054400Y-110227084D01*
X143972916Y-110145600D01*
X143877102Y-110081579D01*
X143770638Y-110037481D01*
X143657618Y-110015000D01*
X143542382Y-110015000D01*
X143429362Y-110037481D01*
X143322898Y-110081579D01*
X143227084Y-110145600D01*
X143145600Y-110227084D01*
X143081579Y-110322898D01*
X143037481Y-110429362D01*
X143015000Y-110542382D01*
X135385000Y-110542382D01*
X135385000Y-107200000D01*
X136438622Y-107200000D01*
X136438622Y-108400000D01*
X136448928Y-108504642D01*
X136479451Y-108605263D01*
X136529018Y-108697996D01*
X136595723Y-108779277D01*
X136677004Y-108845982D01*
X136769737Y-108895549D01*
X136870358Y-108926072D01*
X136975000Y-108936378D01*
X138425000Y-108936378D01*
X138529642Y-108926072D01*
X138630263Y-108895549D01*
X138722996Y-108845982D01*
X138804277Y-108779277D01*
X138870982Y-108697996D01*
X138920549Y-108605263D01*
X138951072Y-108504642D01*
X138961378Y-108400000D01*
X138961378Y-107442382D01*
X144115000Y-107442382D01*
X144115000Y-107557618D01*
X144137481Y-107670638D01*
X144181579Y-107777102D01*
X144245600Y-107872916D01*
X144322684Y-107950000D01*
X144245600Y-108027084D01*
X144181579Y-108122898D01*
X144137481Y-108229362D01*
X144115000Y-108342382D01*
X144115000Y-108457618D01*
X144137481Y-108570638D01*
X144181579Y-108677102D01*
X144245600Y-108772916D01*
X144327084Y-108854400D01*
X144422898Y-108918421D01*
X144529362Y-108962519D01*
X144642382Y-108985000D01*
X144757618Y-108985000D01*
X144870638Y-108962519D01*
X144977102Y-108918421D01*
X145072916Y-108854400D01*
X145154400Y-108772916D01*
X145218421Y-108677102D01*
X145262519Y-108570638D01*
X145285000Y-108457618D01*
X145285000Y-108342382D01*
X145262519Y-108229362D01*
X145218421Y-108122898D01*
X145154400Y-108027084D01*
X145077316Y-107950000D01*
X145154400Y-107872916D01*
X145218421Y-107777102D01*
X145232072Y-107744143D01*
X153505219Y-107744143D01*
X153505219Y-107859379D01*
X153527700Y-107972399D01*
X153571798Y-108078863D01*
X153635819Y-108174677D01*
X153717303Y-108256161D01*
X153813117Y-108320182D01*
X153919581Y-108364280D01*
X154032601Y-108386761D01*
X154147837Y-108386761D01*
X154260857Y-108364280D01*
X154367321Y-108320182D01*
X154463135Y-108256161D01*
X154476914Y-108242382D01*
X158715000Y-108242382D01*
X158715000Y-108357618D01*
X158737481Y-108470638D01*
X158781579Y-108577102D01*
X158845600Y-108672916D01*
X158927084Y-108754400D01*
X159022898Y-108818421D01*
X159129362Y-108862519D01*
X159242382Y-108885000D01*
X159357618Y-108885000D01*
X159470638Y-108862519D01*
X159577102Y-108818421D01*
X159672916Y-108754400D01*
X159754400Y-108672916D01*
X159791513Y-108617372D01*
X162685691Y-108617372D01*
X162685691Y-108732608D01*
X162708172Y-108845628D01*
X162752270Y-108952092D01*
X162816291Y-109047906D01*
X162897775Y-109129390D01*
X162993589Y-109193411D01*
X163100053Y-109237509D01*
X163213073Y-109259990D01*
X163292659Y-109259990D01*
X163289562Y-109275561D01*
X163289562Y-109390797D01*
X163312043Y-109503817D01*
X163356141Y-109610281D01*
X163420162Y-109706095D01*
X163501646Y-109787579D01*
X163597460Y-109851600D01*
X163703924Y-109895698D01*
X163816944Y-109918179D01*
X163932180Y-109918179D01*
X164045200Y-109895698D01*
X164151664Y-109851600D01*
X164247478Y-109787579D01*
X164328962Y-109706095D01*
X164392983Y-109610281D01*
X164437081Y-109503817D01*
X164459562Y-109390797D01*
X164459562Y-109275561D01*
X164456532Y-109260326D01*
X164756858Y-108960000D01*
X165798273Y-108960000D01*
X165815949Y-108961741D01*
X165886521Y-108954790D01*
X165895415Y-108952092D01*
X165954381Y-108934205D01*
X166016922Y-108900777D01*
X166071739Y-108855790D01*
X166083015Y-108842050D01*
X166367021Y-108558044D01*
X166337481Y-108629362D01*
X166315000Y-108742382D01*
X166315000Y-108857618D01*
X166337481Y-108970638D01*
X166373827Y-109058388D01*
X166277547Y-109077539D01*
X166171083Y-109121637D01*
X166075269Y-109185658D01*
X165993785Y-109267142D01*
X165929764Y-109362956D01*
X165885666Y-109469420D01*
X165863185Y-109582440D01*
X165863185Y-109697676D01*
X165885666Y-109810696D01*
X165890127Y-109821466D01*
X165857618Y-109815000D01*
X165742382Y-109815000D01*
X165629362Y-109837481D01*
X165522898Y-109881579D01*
X165427084Y-109945600D01*
X165345600Y-110027084D01*
X165281579Y-110122898D01*
X165267834Y-110156082D01*
X165262519Y-110129362D01*
X165218421Y-110022898D01*
X165154400Y-109927084D01*
X165072916Y-109845600D01*
X164977102Y-109781579D01*
X164870638Y-109737481D01*
X164757618Y-109715000D01*
X164642382Y-109715000D01*
X164529362Y-109737481D01*
X164422898Y-109781579D01*
X164327084Y-109845600D01*
X164245600Y-109927084D01*
X164181579Y-110022898D01*
X164137481Y-110129362D01*
X164115000Y-110242382D01*
X164115000Y-110357618D01*
X164137481Y-110470638D01*
X164181579Y-110577102D01*
X164245600Y-110672916D01*
X164327084Y-110754400D01*
X164422898Y-110818421D01*
X164529362Y-110862519D01*
X164642382Y-110885000D01*
X164757618Y-110885000D01*
X164870638Y-110862519D01*
X164977102Y-110818421D01*
X165072916Y-110754400D01*
X165154400Y-110672916D01*
X165218421Y-110577102D01*
X165232166Y-110543918D01*
X165237481Y-110570638D01*
X165281579Y-110677102D01*
X165345600Y-110772916D01*
X165427084Y-110854400D01*
X165522898Y-110918421D01*
X165629362Y-110962519D01*
X165742382Y-110985000D01*
X165857618Y-110985000D01*
X165970638Y-110962519D01*
X166077102Y-110918421D01*
X166172916Y-110854400D01*
X166254400Y-110772916D01*
X166318421Y-110677102D01*
X166362519Y-110570638D01*
X166385000Y-110457618D01*
X166385000Y-110342382D01*
X166362519Y-110229362D01*
X166358058Y-110218592D01*
X166390567Y-110225058D01*
X166505803Y-110225058D01*
X166618823Y-110202577D01*
X166725287Y-110158479D01*
X166821101Y-110094458D01*
X166902585Y-110012974D01*
X166966606Y-109917160D01*
X167010704Y-109810696D01*
X167033185Y-109697676D01*
X167033185Y-109582440D01*
X167010704Y-109469420D01*
X166974358Y-109381670D01*
X167070638Y-109362519D01*
X167177102Y-109318421D01*
X167272916Y-109254400D01*
X167354400Y-109172916D01*
X167418421Y-109077102D01*
X167462519Y-108970638D01*
X167485000Y-108857618D01*
X167485000Y-108742382D01*
X167462519Y-108629362D01*
X167418421Y-108522898D01*
X167354400Y-108427084D01*
X167272916Y-108345600D01*
X167177102Y-108281579D01*
X167070638Y-108237481D01*
X166957618Y-108215000D01*
X166842382Y-108215000D01*
X166729362Y-108237481D01*
X166658044Y-108267021D01*
X167414673Y-107510393D01*
X167429908Y-107513423D01*
X167545144Y-107513423D01*
X167658164Y-107490942D01*
X167764628Y-107446844D01*
X167860442Y-107382823D01*
X167941926Y-107301339D01*
X168005947Y-107205525D01*
X168050045Y-107099061D01*
X168072526Y-106986041D01*
X168072526Y-106870805D01*
X168050045Y-106757785D01*
X168005947Y-106651321D01*
X167946276Y-106562018D01*
X167956810Y-106551484D01*
X168020831Y-106455670D01*
X168064929Y-106349206D01*
X168087410Y-106236186D01*
X168087410Y-106120950D01*
X168064929Y-106007930D01*
X168020831Y-105901466D01*
X167956810Y-105805652D01*
X167875326Y-105724168D01*
X167779512Y-105660147D01*
X167673048Y-105616049D01*
X167560028Y-105593568D01*
X167444792Y-105593568D01*
X167331772Y-105616049D01*
X167225308Y-105660147D01*
X167129494Y-105724168D01*
X167048010Y-105805652D01*
X166983989Y-105901466D01*
X166939891Y-106007930D01*
X166917410Y-106120950D01*
X166917410Y-106212421D01*
X166720471Y-106409360D01*
X166706735Y-106420633D01*
X166661748Y-106475450D01*
X166628320Y-106537991D01*
X166626012Y-106545600D01*
X166607735Y-106605850D01*
X166600784Y-106676422D01*
X166602525Y-106694098D01*
X166602525Y-106880030D01*
X165671555Y-107811000D01*
X163792356Y-107811000D01*
X163774680Y-107809259D01*
X163704108Y-107816210D01*
X163683523Y-107822455D01*
X163636249Y-107836795D01*
X163573708Y-107870223D01*
X163518891Y-107915210D01*
X163507615Y-107928950D01*
X163343544Y-108093021D01*
X163328309Y-108089990D01*
X163213073Y-108089990D01*
X163100053Y-108112471D01*
X162993589Y-108156569D01*
X162897775Y-108220590D01*
X162816291Y-108302074D01*
X162752270Y-108397888D01*
X162708172Y-108504352D01*
X162685691Y-108617372D01*
X159791513Y-108617372D01*
X159818421Y-108577102D01*
X159862519Y-108470638D01*
X159885000Y-108357618D01*
X159885000Y-108242382D01*
X159862519Y-108129362D01*
X159818421Y-108022898D01*
X159754400Y-107927084D01*
X159672916Y-107845600D01*
X159577102Y-107781579D01*
X159470638Y-107737481D01*
X159357618Y-107715000D01*
X159242382Y-107715000D01*
X159129362Y-107737481D01*
X159022898Y-107781579D01*
X158927084Y-107845600D01*
X158845600Y-107927084D01*
X158781579Y-108022898D01*
X158737481Y-108129362D01*
X158715000Y-108242382D01*
X154476914Y-108242382D01*
X154544619Y-108174677D01*
X154608640Y-108078863D01*
X154652738Y-107972399D01*
X154675219Y-107859379D01*
X154675219Y-107744143D01*
X154652738Y-107631123D01*
X154608640Y-107524659D01*
X154544619Y-107428845D01*
X154463135Y-107347361D01*
X154367321Y-107283340D01*
X154260857Y-107239242D01*
X154147837Y-107216761D01*
X154032601Y-107216761D01*
X153919581Y-107239242D01*
X153813117Y-107283340D01*
X153717303Y-107347361D01*
X153635819Y-107428845D01*
X153571798Y-107524659D01*
X153527700Y-107631123D01*
X153505219Y-107744143D01*
X145232072Y-107744143D01*
X145262519Y-107670638D01*
X145285000Y-107557618D01*
X145285000Y-107442382D01*
X145262519Y-107329362D01*
X145218421Y-107222898D01*
X145154400Y-107127084D01*
X145072916Y-107045600D01*
X144977102Y-106981579D01*
X144870638Y-106937481D01*
X144757618Y-106915000D01*
X144642382Y-106915000D01*
X144529362Y-106937481D01*
X144422898Y-106981579D01*
X144327084Y-107045600D01*
X144245600Y-107127084D01*
X144181579Y-107222898D01*
X144137481Y-107329362D01*
X144115000Y-107442382D01*
X138961378Y-107442382D01*
X138961378Y-107200000D01*
X138951072Y-107095358D01*
X138920549Y-106994737D01*
X138870982Y-106902004D01*
X138804277Y-106820723D01*
X138722996Y-106754018D01*
X138701227Y-106742382D01*
X142515000Y-106742382D01*
X142515000Y-106857618D01*
X142537481Y-106970638D01*
X142581579Y-107077102D01*
X142645600Y-107172916D01*
X142727084Y-107254400D01*
X142822898Y-107318421D01*
X142929362Y-107362519D01*
X143042382Y-107385000D01*
X143157618Y-107385000D01*
X143270638Y-107362519D01*
X143377102Y-107318421D01*
X143472916Y-107254400D01*
X143554400Y-107172916D01*
X143618421Y-107077102D01*
X143662519Y-106970638D01*
X143679678Y-106884372D01*
X149515000Y-106884372D01*
X149515000Y-106999608D01*
X149537481Y-107112628D01*
X149581579Y-107219092D01*
X149645600Y-107314906D01*
X149727084Y-107396390D01*
X149822898Y-107460411D01*
X149929362Y-107504509D01*
X150042382Y-107526990D01*
X150157618Y-107526990D01*
X150270638Y-107504509D01*
X150377102Y-107460411D01*
X150472916Y-107396390D01*
X150554400Y-107314906D01*
X150618421Y-107219092D01*
X150662519Y-107112628D01*
X150685000Y-106999608D01*
X150685000Y-106942382D01*
X154415000Y-106942382D01*
X154415000Y-107057618D01*
X154437481Y-107170638D01*
X154481579Y-107277102D01*
X154545600Y-107372916D01*
X154627084Y-107454400D01*
X154722898Y-107518421D01*
X154829362Y-107562519D01*
X154942382Y-107585000D01*
X155057618Y-107585000D01*
X155170638Y-107562519D01*
X155277102Y-107518421D01*
X155372916Y-107454400D01*
X155454400Y-107372916D01*
X155518421Y-107277102D01*
X155562519Y-107170638D01*
X155585000Y-107057618D01*
X155585000Y-106942382D01*
X155562519Y-106829362D01*
X155518421Y-106722898D01*
X155454400Y-106627084D01*
X155372916Y-106545600D01*
X155277102Y-106481579D01*
X155170638Y-106437481D01*
X155057618Y-106415000D01*
X154942382Y-106415000D01*
X154829362Y-106437481D01*
X154722898Y-106481579D01*
X154627084Y-106545600D01*
X154545600Y-106627084D01*
X154481579Y-106722898D01*
X154437481Y-106829362D01*
X154415000Y-106942382D01*
X150685000Y-106942382D01*
X150685000Y-106884372D01*
X150662519Y-106771352D01*
X150618421Y-106664888D01*
X150554400Y-106569074D01*
X150472916Y-106487590D01*
X150377102Y-106423569D01*
X150270638Y-106379471D01*
X150157618Y-106356990D01*
X150042382Y-106356990D01*
X149929362Y-106379471D01*
X149822898Y-106423569D01*
X149727084Y-106487590D01*
X149645600Y-106569074D01*
X149581579Y-106664888D01*
X149537481Y-106771352D01*
X149515000Y-106884372D01*
X143679678Y-106884372D01*
X143685000Y-106857618D01*
X143685000Y-106742382D01*
X143679866Y-106716574D01*
X143772916Y-106654400D01*
X143854400Y-106572916D01*
X143918421Y-106477102D01*
X143962519Y-106370638D01*
X143972785Y-106319025D01*
X158798215Y-106319025D01*
X158798215Y-106434261D01*
X158820696Y-106547281D01*
X158864794Y-106653745D01*
X158928815Y-106749559D01*
X159010299Y-106831043D01*
X159106113Y-106895064D01*
X159212577Y-106939162D01*
X159325597Y-106961643D01*
X159440833Y-106961643D01*
X159553853Y-106939162D01*
X159660317Y-106895064D01*
X159756131Y-106831043D01*
X159837615Y-106749559D01*
X159901636Y-106653745D01*
X159945734Y-106547281D01*
X159958049Y-106485367D01*
X160027084Y-106554402D01*
X160122898Y-106618423D01*
X160229362Y-106662521D01*
X160342382Y-106685002D01*
X160457618Y-106685002D01*
X160570638Y-106662521D01*
X160677102Y-106618423D01*
X160772916Y-106554402D01*
X160854400Y-106472918D01*
X160918421Y-106377104D01*
X160962519Y-106270640D01*
X160985000Y-106157620D01*
X160985000Y-106042384D01*
X160962519Y-105929364D01*
X160918421Y-105822900D01*
X160854400Y-105727086D01*
X160772916Y-105645602D01*
X160677102Y-105581581D01*
X160570638Y-105537483D01*
X160457618Y-105515002D01*
X160342382Y-105515002D01*
X160229362Y-105537483D01*
X160122898Y-105581581D01*
X160027084Y-105645602D01*
X159945600Y-105727086D01*
X159881579Y-105822900D01*
X159837481Y-105929364D01*
X159825166Y-105991278D01*
X159756131Y-105922243D01*
X159660317Y-105858222D01*
X159553853Y-105814124D01*
X159440833Y-105791643D01*
X159325597Y-105791643D01*
X159212577Y-105814124D01*
X159106113Y-105858222D01*
X159010299Y-105922243D01*
X158928815Y-106003727D01*
X158864794Y-106099541D01*
X158820696Y-106206005D01*
X158798215Y-106319025D01*
X143972785Y-106319025D01*
X143985000Y-106257618D01*
X143985000Y-106142382D01*
X143962519Y-106029362D01*
X143918421Y-105922898D01*
X143854400Y-105827084D01*
X143772916Y-105745600D01*
X143677102Y-105681579D01*
X143570638Y-105637481D01*
X143457618Y-105615000D01*
X143342382Y-105615000D01*
X143229362Y-105637481D01*
X143122898Y-105681579D01*
X143027084Y-105745600D01*
X142945600Y-105827084D01*
X142881579Y-105922898D01*
X142837481Y-106029362D01*
X142815000Y-106142382D01*
X142815000Y-106257618D01*
X142820134Y-106283426D01*
X142727084Y-106345600D01*
X142645600Y-106427084D01*
X142581579Y-106522898D01*
X142537481Y-106629362D01*
X142515000Y-106742382D01*
X138701227Y-106742382D01*
X138630263Y-106704451D01*
X138529642Y-106673928D01*
X138425000Y-106663622D01*
X136975000Y-106663622D01*
X136870358Y-106673928D01*
X136769737Y-106704451D01*
X136677004Y-106754018D01*
X136595723Y-106820723D01*
X136529018Y-106902004D01*
X136479451Y-106994737D01*
X136448928Y-107095358D01*
X136438622Y-107200000D01*
X135385000Y-107200000D01*
X135385000Y-105300000D01*
X136434509Y-105300000D01*
X136456423Y-105522499D01*
X136521324Y-105736447D01*
X136626716Y-105933623D01*
X136768551Y-106106449D01*
X136941377Y-106248284D01*
X137138553Y-106353676D01*
X137352501Y-106418577D01*
X137519248Y-106435000D01*
X137880752Y-106435000D01*
X138047499Y-106418577D01*
X138261447Y-106353676D01*
X138458623Y-106248284D01*
X138631449Y-106106449D01*
X138773284Y-105933623D01*
X138878676Y-105736447D01*
X138943577Y-105522499D01*
X138965491Y-105300000D01*
X138943577Y-105077501D01*
X138878676Y-104863553D01*
X138773284Y-104666377D01*
X138631449Y-104493551D01*
X138569100Y-104442382D01*
X139915000Y-104442382D01*
X139915000Y-104557618D01*
X139937481Y-104670638D01*
X139981579Y-104777102D01*
X140045600Y-104872916D01*
X140127084Y-104954400D01*
X140222898Y-105018421D01*
X140329362Y-105062519D01*
X140442382Y-105085000D01*
X140557618Y-105085000D01*
X140670638Y-105062519D01*
X140777102Y-105018421D01*
X140872916Y-104954400D01*
X140954400Y-104872916D01*
X141018421Y-104777102D01*
X141062519Y-104670638D01*
X141085000Y-104557618D01*
X141085000Y-104442382D01*
X141062519Y-104329362D01*
X141018421Y-104222898D01*
X140954400Y-104127084D01*
X140872916Y-104045600D01*
X140777102Y-103981579D01*
X140670638Y-103937481D01*
X140557618Y-103915000D01*
X140442382Y-103915000D01*
X140329362Y-103937481D01*
X140222898Y-103981579D01*
X140127084Y-104045600D01*
X140045600Y-104127084D01*
X139981579Y-104222898D01*
X139937481Y-104329362D01*
X139915000Y-104442382D01*
X138569100Y-104442382D01*
X138458623Y-104351716D01*
X138261447Y-104246324D01*
X138047499Y-104181423D01*
X137880752Y-104165000D01*
X137519248Y-104165000D01*
X137352501Y-104181423D01*
X137138553Y-104246324D01*
X136941377Y-104351716D01*
X136768551Y-104493551D01*
X136626716Y-104666377D01*
X136521324Y-104863553D01*
X136456423Y-105077501D01*
X136434509Y-105300000D01*
X135385000Y-105300000D01*
X135385000Y-102800000D01*
X136434509Y-102800000D01*
X136456423Y-103022499D01*
X136521324Y-103236447D01*
X136626716Y-103433623D01*
X136768551Y-103606449D01*
X136941377Y-103748284D01*
X137138553Y-103853676D01*
X137352501Y-103918577D01*
X137519248Y-103935000D01*
X137880752Y-103935000D01*
X138047499Y-103918577D01*
X138261447Y-103853676D01*
X138458623Y-103748284D01*
X138631449Y-103606449D01*
X138684027Y-103542382D01*
X138915000Y-103542382D01*
X138915000Y-103657618D01*
X138937481Y-103770638D01*
X138981579Y-103877102D01*
X139045600Y-103972916D01*
X139127084Y-104054400D01*
X139222898Y-104118421D01*
X139329362Y-104162519D01*
X139442382Y-104185000D01*
X139557618Y-104185000D01*
X139670638Y-104162519D01*
X139777102Y-104118421D01*
X139872916Y-104054400D01*
X139954400Y-103972916D01*
X140018421Y-103877102D01*
X140062519Y-103770638D01*
X140085000Y-103657618D01*
X140085000Y-103542382D01*
X140915000Y-103542382D01*
X140915000Y-103657618D01*
X140937481Y-103770638D01*
X140981579Y-103877102D01*
X141045600Y-103972916D01*
X141127084Y-104054400D01*
X141222898Y-104118421D01*
X141329362Y-104162519D01*
X141442382Y-104185000D01*
X141557618Y-104185000D01*
X141614456Y-104173694D01*
X141581579Y-104222898D01*
X141537481Y-104329362D01*
X141515000Y-104442382D01*
X141515000Y-104557618D01*
X141537481Y-104670638D01*
X141581579Y-104777102D01*
X141645600Y-104872916D01*
X141727084Y-104954400D01*
X141822898Y-105018421D01*
X141929362Y-105062519D01*
X142042382Y-105085000D01*
X142157618Y-105085000D01*
X142270638Y-105062519D01*
X142377102Y-105018421D01*
X142472916Y-104954400D01*
X142554400Y-104872916D01*
X142618421Y-104777102D01*
X142662519Y-104670638D01*
X142685000Y-104557618D01*
X142685000Y-104442382D01*
X142665109Y-104342382D01*
X161415000Y-104342382D01*
X161415000Y-104457618D01*
X161437481Y-104570638D01*
X161481579Y-104677102D01*
X161545600Y-104772916D01*
X161627084Y-104854400D01*
X161722898Y-104918421D01*
X161829362Y-104962519D01*
X161942382Y-104985000D01*
X162057618Y-104985000D01*
X162170638Y-104962519D01*
X162277102Y-104918421D01*
X162372916Y-104854400D01*
X162454400Y-104772916D01*
X162518421Y-104677102D01*
X162562519Y-104570638D01*
X162585000Y-104457618D01*
X162585000Y-104342382D01*
X162562519Y-104229362D01*
X162526492Y-104142382D01*
X166815000Y-104142382D01*
X166815000Y-104257618D01*
X166837481Y-104370638D01*
X166881579Y-104477102D01*
X166945600Y-104572916D01*
X167027084Y-104654400D01*
X167122898Y-104718421D01*
X167229362Y-104762519D01*
X167342382Y-104785000D01*
X167457618Y-104785000D01*
X167570638Y-104762519D01*
X167677102Y-104718421D01*
X167772916Y-104654400D01*
X167854400Y-104572916D01*
X167918421Y-104477102D01*
X167962519Y-104370638D01*
X167985000Y-104257618D01*
X167985000Y-104142382D01*
X167962519Y-104029362D01*
X167918421Y-103922898D01*
X167854400Y-103827084D01*
X167772916Y-103745600D01*
X167677102Y-103681579D01*
X167570638Y-103637481D01*
X167457618Y-103615000D01*
X167342382Y-103615000D01*
X167229362Y-103637481D01*
X167122898Y-103681579D01*
X167027084Y-103745600D01*
X166945600Y-103827084D01*
X166881579Y-103922898D01*
X166837481Y-104029362D01*
X166815000Y-104142382D01*
X162526492Y-104142382D01*
X162518421Y-104122898D01*
X162454400Y-104027084D01*
X162372916Y-103945600D01*
X162277102Y-103881579D01*
X162170638Y-103837481D01*
X162057618Y-103815000D01*
X161942382Y-103815000D01*
X161829362Y-103837481D01*
X161722898Y-103881579D01*
X161627084Y-103945600D01*
X161545600Y-104027084D01*
X161481579Y-104122898D01*
X161437481Y-104229362D01*
X161415000Y-104342382D01*
X142665109Y-104342382D01*
X142662519Y-104329362D01*
X142618421Y-104222898D01*
X142554400Y-104127084D01*
X142472916Y-104045600D01*
X142377102Y-103981579D01*
X142270638Y-103937481D01*
X142157618Y-103915000D01*
X142042382Y-103915000D01*
X141985544Y-103926306D01*
X142018421Y-103877102D01*
X142062519Y-103770638D01*
X142085000Y-103657618D01*
X142085000Y-103542382D01*
X142062519Y-103429362D01*
X142018421Y-103322898D01*
X141954400Y-103227084D01*
X141872916Y-103145600D01*
X141777102Y-103081579D01*
X141670638Y-103037481D01*
X141557618Y-103015000D01*
X141442382Y-103015000D01*
X141329362Y-103037481D01*
X141222898Y-103081579D01*
X141127084Y-103145600D01*
X141045600Y-103227084D01*
X140981579Y-103322898D01*
X140937481Y-103429362D01*
X140915000Y-103542382D01*
X140085000Y-103542382D01*
X140062519Y-103429362D01*
X140018421Y-103322898D01*
X139954400Y-103227084D01*
X139872916Y-103145600D01*
X139777102Y-103081579D01*
X139670638Y-103037481D01*
X139557618Y-103015000D01*
X139442382Y-103015000D01*
X139329362Y-103037481D01*
X139222898Y-103081579D01*
X139127084Y-103145600D01*
X139045600Y-103227084D01*
X138981579Y-103322898D01*
X138937481Y-103429362D01*
X138915000Y-103542382D01*
X138684027Y-103542382D01*
X138773284Y-103433623D01*
X138878676Y-103236447D01*
X138943577Y-103022499D01*
X138958460Y-102871382D01*
X152115000Y-102871382D01*
X152115000Y-102986618D01*
X152137481Y-103099638D01*
X152181579Y-103206102D01*
X152245600Y-103301916D01*
X152327084Y-103383400D01*
X152422898Y-103447421D01*
X152529362Y-103491519D01*
X152642382Y-103514000D01*
X152757618Y-103514000D01*
X152870638Y-103491519D01*
X152977102Y-103447421D01*
X153072916Y-103383400D01*
X153154400Y-103301916D01*
X153218421Y-103206102D01*
X153262519Y-103099638D01*
X153285000Y-102986618D01*
X153285000Y-102871382D01*
X153262519Y-102758362D01*
X153218421Y-102651898D01*
X153154400Y-102556084D01*
X153072916Y-102474600D01*
X152977102Y-102410579D01*
X152870638Y-102366481D01*
X152757618Y-102344000D01*
X152642382Y-102344000D01*
X152529362Y-102366481D01*
X152422898Y-102410579D01*
X152327084Y-102474600D01*
X152245600Y-102556084D01*
X152181579Y-102651898D01*
X152137481Y-102758362D01*
X152115000Y-102871382D01*
X138958460Y-102871382D01*
X138965491Y-102800000D01*
X138943577Y-102577501D01*
X138878676Y-102363553D01*
X138773284Y-102166377D01*
X138631449Y-101993551D01*
X138458623Y-101851716D01*
X138261447Y-101746324D01*
X138047499Y-101681423D01*
X137880752Y-101665000D01*
X137519248Y-101665000D01*
X137352501Y-101681423D01*
X137138553Y-101746324D01*
X136941377Y-101851716D01*
X136768551Y-101993551D01*
X136626716Y-102166377D01*
X136521324Y-102363553D01*
X136456423Y-102577501D01*
X136434509Y-102800000D01*
X135385000Y-102800000D01*
X135385000Y-100300000D01*
X136434509Y-100300000D01*
X136456423Y-100522499D01*
X136521324Y-100736447D01*
X136626716Y-100933623D01*
X136768551Y-101106449D01*
X136941377Y-101248284D01*
X137138553Y-101353676D01*
X137352501Y-101418577D01*
X137519248Y-101435000D01*
X137880752Y-101435000D01*
X138047499Y-101418577D01*
X138261447Y-101353676D01*
X138458623Y-101248284D01*
X138465814Y-101242382D01*
X142615000Y-101242382D01*
X142615000Y-101357618D01*
X142637481Y-101470638D01*
X142681579Y-101577102D01*
X142745600Y-101672916D01*
X142827084Y-101754400D01*
X142922898Y-101818421D01*
X143029362Y-101862519D01*
X143062442Y-101869099D01*
X143037481Y-101929362D01*
X143015000Y-102042382D01*
X143015000Y-102157618D01*
X143037481Y-102270638D01*
X143081579Y-102377102D01*
X143145600Y-102472916D01*
X143227084Y-102554400D01*
X143322898Y-102618421D01*
X143429362Y-102662519D01*
X143542382Y-102685000D01*
X143657618Y-102685000D01*
X143770638Y-102662519D01*
X143877102Y-102618421D01*
X143972916Y-102554400D01*
X144054400Y-102472916D01*
X144118421Y-102377102D01*
X144162519Y-102270638D01*
X144185000Y-102157618D01*
X144185000Y-102042382D01*
X144162519Y-101929362D01*
X144118421Y-101822898D01*
X144084000Y-101771382D01*
X154715000Y-101771382D01*
X154715000Y-101886618D01*
X154737481Y-101999638D01*
X154781579Y-102106102D01*
X154845600Y-102201916D01*
X154927084Y-102283400D01*
X155022898Y-102347421D01*
X155129362Y-102391519D01*
X155242382Y-102414000D01*
X155357618Y-102414000D01*
X155470638Y-102391519D01*
X155488608Y-102384076D01*
X155445600Y-102427084D01*
X155381579Y-102522898D01*
X155337481Y-102629362D01*
X155315000Y-102742382D01*
X155315000Y-102857618D01*
X155337481Y-102970638D01*
X155381579Y-103077102D01*
X155445600Y-103172916D01*
X155527084Y-103254400D01*
X155622898Y-103318421D01*
X155729362Y-103362519D01*
X155842382Y-103385000D01*
X155957618Y-103385000D01*
X156070638Y-103362519D01*
X156177102Y-103318421D01*
X156272916Y-103254400D01*
X156354400Y-103172916D01*
X156418421Y-103077102D01*
X156432166Y-103043918D01*
X156437481Y-103070638D01*
X156481579Y-103177102D01*
X156545600Y-103272916D01*
X156627084Y-103354400D01*
X156722898Y-103418421D01*
X156829362Y-103462519D01*
X156942382Y-103485000D01*
X157057618Y-103485000D01*
X157170638Y-103462519D01*
X157277102Y-103418421D01*
X157372916Y-103354400D01*
X157454400Y-103272916D01*
X157518421Y-103177102D01*
X157562519Y-103070638D01*
X157585000Y-102957618D01*
X157585000Y-102842382D01*
X157562519Y-102729362D01*
X157526399Y-102642157D01*
X161866724Y-102642157D01*
X161866724Y-102757393D01*
X161889205Y-102870413D01*
X161933303Y-102976877D01*
X161997324Y-103072691D01*
X162078808Y-103154175D01*
X162174622Y-103218196D01*
X162281086Y-103262294D01*
X162394106Y-103284775D01*
X162509342Y-103284775D01*
X162622362Y-103262294D01*
X162728826Y-103218196D01*
X162824640Y-103154175D01*
X162906124Y-103072691D01*
X162970145Y-102976877D01*
X163014243Y-102870413D01*
X163036724Y-102757393D01*
X163036724Y-102642382D01*
X165015000Y-102642382D01*
X165015000Y-102757618D01*
X165037481Y-102870638D01*
X165081579Y-102977102D01*
X165145600Y-103072916D01*
X165227084Y-103154400D01*
X165322898Y-103218421D01*
X165429362Y-103262519D01*
X165542382Y-103285000D01*
X165657618Y-103285000D01*
X165770638Y-103262519D01*
X165877102Y-103218421D01*
X165972916Y-103154400D01*
X166054400Y-103072916D01*
X166118421Y-102977102D01*
X166162519Y-102870638D01*
X166185000Y-102757618D01*
X166185000Y-102642382D01*
X166162519Y-102529362D01*
X166118421Y-102422898D01*
X166054400Y-102327084D01*
X165972916Y-102245600D01*
X165877102Y-102181579D01*
X165770638Y-102137481D01*
X165657618Y-102115000D01*
X165542382Y-102115000D01*
X165429362Y-102137481D01*
X165322898Y-102181579D01*
X165227084Y-102245600D01*
X165145600Y-102327084D01*
X165081579Y-102422898D01*
X165037481Y-102529362D01*
X165015000Y-102642382D01*
X163036724Y-102642382D01*
X163036724Y-102642157D01*
X163014243Y-102529137D01*
X162970145Y-102422673D01*
X162906124Y-102326859D01*
X162824640Y-102245375D01*
X162728826Y-102181354D01*
X162622362Y-102137256D01*
X162509342Y-102114775D01*
X162394106Y-102114775D01*
X162281086Y-102137256D01*
X162174622Y-102181354D01*
X162078808Y-102245375D01*
X161997324Y-102326859D01*
X161933303Y-102422673D01*
X161889205Y-102529137D01*
X161866724Y-102642157D01*
X157526399Y-102642157D01*
X157518421Y-102622898D01*
X157454400Y-102527084D01*
X157372916Y-102445600D01*
X157277102Y-102381579D01*
X157170638Y-102337481D01*
X157057618Y-102315000D01*
X156942382Y-102315000D01*
X156829362Y-102337481D01*
X156722898Y-102381579D01*
X156627084Y-102445600D01*
X156545600Y-102527084D01*
X156481579Y-102622898D01*
X156467834Y-102656082D01*
X156462519Y-102629362D01*
X156418421Y-102522898D01*
X156354400Y-102427084D01*
X156272916Y-102345600D01*
X156177102Y-102281579D01*
X156070638Y-102237481D01*
X155957618Y-102215000D01*
X155842382Y-102215000D01*
X155729362Y-102237481D01*
X155711392Y-102244924D01*
X155754400Y-102201916D01*
X155818421Y-102106102D01*
X155862519Y-101999638D01*
X155885000Y-101886618D01*
X155885000Y-101771382D01*
X155862519Y-101658362D01*
X155818421Y-101551898D01*
X155754400Y-101456084D01*
X155672916Y-101374600D01*
X155577102Y-101310579D01*
X155470638Y-101266481D01*
X155357618Y-101244000D01*
X155242382Y-101244000D01*
X155129362Y-101266481D01*
X155022898Y-101310579D01*
X154927084Y-101374600D01*
X154845600Y-101456084D01*
X154781579Y-101551898D01*
X154737481Y-101658362D01*
X154715000Y-101771382D01*
X144084000Y-101771382D01*
X144054400Y-101727084D01*
X143972916Y-101645600D01*
X143877102Y-101581579D01*
X143770638Y-101537481D01*
X143737558Y-101530901D01*
X143762519Y-101470638D01*
X143785000Y-101357618D01*
X143785000Y-101242382D01*
X158115000Y-101242382D01*
X158115000Y-101357618D01*
X158137481Y-101470638D01*
X158181579Y-101577102D01*
X158245600Y-101672916D01*
X158327084Y-101754400D01*
X158422898Y-101818421D01*
X158529362Y-101862519D01*
X158642382Y-101885000D01*
X158757618Y-101885000D01*
X158870638Y-101862519D01*
X158977102Y-101818421D01*
X159072916Y-101754400D01*
X159154400Y-101672916D01*
X159218421Y-101577102D01*
X159262519Y-101470638D01*
X159285000Y-101357618D01*
X159285000Y-101242382D01*
X159262519Y-101129362D01*
X159218421Y-101022898D01*
X159154400Y-100927084D01*
X159072916Y-100845600D01*
X158977102Y-100781579D01*
X158870638Y-100737481D01*
X158757618Y-100715000D01*
X158642382Y-100715000D01*
X158529362Y-100737481D01*
X158422898Y-100781579D01*
X158327084Y-100845600D01*
X158245600Y-100927084D01*
X158181579Y-101022898D01*
X158137481Y-101129362D01*
X158115000Y-101242382D01*
X143785000Y-101242382D01*
X143762519Y-101129362D01*
X143718421Y-101022898D01*
X143654400Y-100927084D01*
X143572916Y-100845600D01*
X143477102Y-100781579D01*
X143370638Y-100737481D01*
X143257618Y-100715000D01*
X143142382Y-100715000D01*
X143029362Y-100737481D01*
X142922898Y-100781579D01*
X142827084Y-100845600D01*
X142745600Y-100927084D01*
X142681579Y-101022898D01*
X142637481Y-101129362D01*
X142615000Y-101242382D01*
X138465814Y-101242382D01*
X138631449Y-101106449D01*
X138773284Y-100933623D01*
X138878676Y-100736447D01*
X138943577Y-100522499D01*
X138961316Y-100342382D01*
X144015000Y-100342382D01*
X144015000Y-100457618D01*
X144037481Y-100570638D01*
X144081579Y-100677102D01*
X144145600Y-100772916D01*
X144227084Y-100854400D01*
X144322898Y-100918421D01*
X144429362Y-100962519D01*
X144542382Y-100985000D01*
X144657618Y-100985000D01*
X144770638Y-100962519D01*
X144877102Y-100918421D01*
X144972916Y-100854400D01*
X145054400Y-100772916D01*
X145118421Y-100677102D01*
X145162519Y-100570638D01*
X145185000Y-100457618D01*
X145185000Y-100342382D01*
X145162519Y-100229362D01*
X145118421Y-100122898D01*
X145054400Y-100027084D01*
X145018246Y-99990930D01*
X145072916Y-99954400D01*
X145154400Y-99872916D01*
X145170842Y-99848308D01*
X160767592Y-99848308D01*
X160767592Y-99963544D01*
X160790073Y-100076564D01*
X160834171Y-100183028D01*
X160898192Y-100278842D01*
X160979676Y-100360326D01*
X161075490Y-100424347D01*
X161181954Y-100468445D01*
X161294974Y-100490926D01*
X161410210Y-100490926D01*
X161523230Y-100468445D01*
X161629694Y-100424347D01*
X161725508Y-100360326D01*
X161806992Y-100278842D01*
X161824830Y-100252146D01*
X161827084Y-100254400D01*
X161922898Y-100318421D01*
X162029362Y-100362519D01*
X162142382Y-100385000D01*
X162257618Y-100385000D01*
X162370638Y-100362519D01*
X162477102Y-100318421D01*
X162572916Y-100254400D01*
X162654400Y-100172916D01*
X162718421Y-100077102D01*
X162762519Y-99970638D01*
X162785000Y-99857618D01*
X162785000Y-99842382D01*
X165615000Y-99842382D01*
X165615000Y-99957618D01*
X165637481Y-100070638D01*
X165681579Y-100177102D01*
X165745600Y-100272916D01*
X165827084Y-100354400D01*
X165922898Y-100418421D01*
X166029362Y-100462519D01*
X166142382Y-100485000D01*
X166257618Y-100485000D01*
X166370638Y-100462519D01*
X166477102Y-100418421D01*
X166572916Y-100354400D01*
X166609070Y-100318246D01*
X166645600Y-100372916D01*
X166727084Y-100454400D01*
X166822898Y-100518421D01*
X166929362Y-100562519D01*
X167042382Y-100585000D01*
X167157618Y-100585000D01*
X167270638Y-100562519D01*
X167377102Y-100518421D01*
X167472916Y-100454400D01*
X167554400Y-100372916D01*
X167618421Y-100277102D01*
X167662519Y-100170638D01*
X167685000Y-100057618D01*
X167685000Y-99942382D01*
X167662519Y-99829362D01*
X167618421Y-99722898D01*
X167554400Y-99627084D01*
X167472916Y-99545600D01*
X167377102Y-99481579D01*
X167270638Y-99437481D01*
X167157618Y-99415000D01*
X167042382Y-99415000D01*
X166929362Y-99437481D01*
X166822898Y-99481579D01*
X166727084Y-99545600D01*
X166690930Y-99581754D01*
X166654400Y-99527084D01*
X166572916Y-99445600D01*
X166477102Y-99381579D01*
X166370638Y-99337481D01*
X166257618Y-99315000D01*
X166142382Y-99315000D01*
X166029362Y-99337481D01*
X165922898Y-99381579D01*
X165827084Y-99445600D01*
X165745600Y-99527084D01*
X165681579Y-99622898D01*
X165637481Y-99729362D01*
X165615000Y-99842382D01*
X162785000Y-99842382D01*
X162785000Y-99742382D01*
X162762519Y-99629362D01*
X162718421Y-99522898D01*
X162654400Y-99427084D01*
X162572916Y-99345600D01*
X162477102Y-99281579D01*
X162370638Y-99237481D01*
X162257618Y-99215000D01*
X162142382Y-99215000D01*
X162029362Y-99237481D01*
X161922898Y-99281579D01*
X161827084Y-99345600D01*
X161745600Y-99427084D01*
X161727762Y-99453780D01*
X161725508Y-99451526D01*
X161629694Y-99387505D01*
X161523230Y-99343407D01*
X161410210Y-99320926D01*
X161294974Y-99320926D01*
X161181954Y-99343407D01*
X161075490Y-99387505D01*
X160979676Y-99451526D01*
X160898192Y-99533010D01*
X160834171Y-99628824D01*
X160790073Y-99735288D01*
X160767592Y-99848308D01*
X145170842Y-99848308D01*
X145218421Y-99777102D01*
X145262519Y-99670638D01*
X145285000Y-99557618D01*
X145285000Y-99442382D01*
X145262519Y-99329362D01*
X145218421Y-99222898D01*
X145154400Y-99127084D01*
X145072916Y-99045600D01*
X144977102Y-98981579D01*
X144870638Y-98937481D01*
X144757618Y-98915000D01*
X144642382Y-98915000D01*
X144529362Y-98937481D01*
X144422898Y-98981579D01*
X144327084Y-99045600D01*
X144245600Y-99127084D01*
X144181579Y-99222898D01*
X144137481Y-99329362D01*
X144115000Y-99442382D01*
X144115000Y-99557618D01*
X144137481Y-99670638D01*
X144181579Y-99777102D01*
X144245600Y-99872916D01*
X144281754Y-99909070D01*
X144227084Y-99945600D01*
X144145600Y-100027084D01*
X144081579Y-100122898D01*
X144037481Y-100229362D01*
X144015000Y-100342382D01*
X138961316Y-100342382D01*
X138965491Y-100300000D01*
X138943577Y-100077501D01*
X138878676Y-99863553D01*
X138773284Y-99666377D01*
X138631449Y-99493551D01*
X138458623Y-99351716D01*
X138261447Y-99246324D01*
X138047499Y-99181423D01*
X137880752Y-99165000D01*
X137519248Y-99165000D01*
X137352501Y-99181423D01*
X137138553Y-99246324D01*
X136941377Y-99351716D01*
X136768551Y-99493551D01*
X136626716Y-99666377D01*
X136521324Y-99863553D01*
X136456423Y-100077501D01*
X136434509Y-100300000D01*
X135385000Y-100300000D01*
X135385000Y-97942382D01*
X152315000Y-97942382D01*
X152315000Y-98057618D01*
X152337481Y-98170638D01*
X152381579Y-98277102D01*
X152445600Y-98372916D01*
X152527084Y-98454400D01*
X152622898Y-98518421D01*
X152729362Y-98562519D01*
X152842382Y-98585000D01*
X152957618Y-98585000D01*
X153070638Y-98562519D01*
X153177102Y-98518421D01*
X153272916Y-98454400D01*
X153354400Y-98372916D01*
X153418421Y-98277102D01*
X153462519Y-98170638D01*
X153485000Y-98057618D01*
X153485000Y-97942382D01*
X153462519Y-97829362D01*
X153418421Y-97722898D01*
X153354400Y-97627084D01*
X153272916Y-97545600D01*
X153177102Y-97481579D01*
X153070638Y-97437481D01*
X152957618Y-97415000D01*
X152842382Y-97415000D01*
X152729362Y-97437481D01*
X152622898Y-97481579D01*
X152527084Y-97545600D01*
X152445600Y-97627084D01*
X152381579Y-97722898D01*
X152337481Y-97829362D01*
X152315000Y-97942382D01*
X135385000Y-97942382D01*
X135385000Y-96942382D01*
X147115000Y-96942382D01*
X147115000Y-97057618D01*
X147137481Y-97170638D01*
X147181579Y-97277102D01*
X147245600Y-97372916D01*
X147327084Y-97454400D01*
X147422898Y-97518421D01*
X147529362Y-97562519D01*
X147642382Y-97585000D01*
X147757618Y-97585000D01*
X147870638Y-97562519D01*
X147977102Y-97518421D01*
X148072916Y-97454400D01*
X148154400Y-97372916D01*
X148218421Y-97277102D01*
X148262519Y-97170638D01*
X148285000Y-97057618D01*
X148285000Y-96942382D01*
X148262519Y-96829362D01*
X148218421Y-96722898D01*
X148154400Y-96627084D01*
X148072916Y-96545600D01*
X147977102Y-96481579D01*
X147870638Y-96437481D01*
X147757618Y-96415000D01*
X147642382Y-96415000D01*
X147529362Y-96437481D01*
X147422898Y-96481579D01*
X147327084Y-96545600D01*
X147245600Y-96627084D01*
X147181579Y-96722898D01*
X147137481Y-96829362D01*
X147115000Y-96942382D01*
X135385000Y-96942382D01*
X135385000Y-95729978D01*
X147927404Y-95729978D01*
X147927404Y-95845214D01*
X147949885Y-95958234D01*
X147993983Y-96064698D01*
X148058004Y-96160512D01*
X148139488Y-96241996D01*
X148235302Y-96306017D01*
X148341766Y-96350115D01*
X148454786Y-96372596D01*
X148570022Y-96372596D01*
X148683042Y-96350115D01*
X148789506Y-96306017D01*
X148885320Y-96241996D01*
X148966804Y-96160512D01*
X149030825Y-96064698D01*
X149074923Y-95958234D01*
X149097404Y-95845214D01*
X149097404Y-95729978D01*
X149074923Y-95616958D01*
X149030825Y-95510494D01*
X148966804Y-95414680D01*
X148885320Y-95333196D01*
X148789506Y-95269175D01*
X148683042Y-95225077D01*
X148570022Y-95202596D01*
X148454786Y-95202596D01*
X148341766Y-95225077D01*
X148235302Y-95269175D01*
X148139488Y-95333196D01*
X148058004Y-95414680D01*
X147993983Y-95510494D01*
X147949885Y-95616958D01*
X147927404Y-95729978D01*
X135385000Y-95729978D01*
X135385000Y-93550000D01*
X147663622Y-93550000D01*
X147663622Y-94450000D01*
X147672968Y-94544888D01*
X147700645Y-94636129D01*
X147745591Y-94720217D01*
X147806079Y-94793921D01*
X147879783Y-94854409D01*
X147963871Y-94899355D01*
X148055112Y-94927032D01*
X148150000Y-94936378D01*
X148550000Y-94936378D01*
X148644888Y-94927032D01*
X148736129Y-94899355D01*
X148820217Y-94854409D01*
X148893921Y-94793921D01*
X148954409Y-94720217D01*
X148999355Y-94636129D01*
X149010333Y-94599938D01*
X149027688Y-94632407D01*
X149113290Y-94736711D01*
X149217594Y-94822312D01*
X149336595Y-94885919D01*
X149465718Y-94925088D01*
X149600000Y-94938314D01*
X149734283Y-94925088D01*
X149863406Y-94885919D01*
X149982407Y-94822312D01*
X150086711Y-94736711D01*
X150172312Y-94632407D01*
X150235919Y-94513406D01*
X150275088Y-94384283D01*
X150285000Y-94283647D01*
X150285000Y-93716354D01*
X151415000Y-93716354D01*
X151415000Y-94283647D01*
X151424912Y-94384283D01*
X151464081Y-94513406D01*
X151527688Y-94632407D01*
X151613290Y-94736711D01*
X151717594Y-94822312D01*
X151836595Y-94885919D01*
X151965718Y-94925088D01*
X152100000Y-94938314D01*
X152234283Y-94925088D01*
X152363406Y-94885919D01*
X152482407Y-94822312D01*
X152586711Y-94736711D01*
X152672312Y-94632407D01*
X152735919Y-94513406D01*
X152775088Y-94384283D01*
X152785000Y-94283647D01*
X152785000Y-93716353D01*
X152775088Y-93615717D01*
X152735919Y-93486594D01*
X152672312Y-93367593D01*
X152586710Y-93263289D01*
X152482406Y-93177688D01*
X152363405Y-93114081D01*
X152234282Y-93074912D01*
X152100000Y-93061686D01*
X151965717Y-93074912D01*
X151836594Y-93114081D01*
X151717593Y-93177688D01*
X151613289Y-93263290D01*
X151527688Y-93367594D01*
X151464081Y-93486595D01*
X151424912Y-93615718D01*
X151415000Y-93716354D01*
X150285000Y-93716354D01*
X150285000Y-93716353D01*
X150275088Y-93615717D01*
X150235919Y-93486594D01*
X150172312Y-93367593D01*
X150086710Y-93263289D01*
X149982406Y-93177688D01*
X149863405Y-93114081D01*
X149734282Y-93074912D01*
X149600000Y-93061686D01*
X149465717Y-93074912D01*
X149336594Y-93114081D01*
X149217593Y-93177688D01*
X149113289Y-93263290D01*
X149027688Y-93367594D01*
X149010333Y-93400063D01*
X148999355Y-93363871D01*
X148954409Y-93279783D01*
X148893921Y-93206079D01*
X148820217Y-93145591D01*
X148736129Y-93100645D01*
X148644888Y-93072968D01*
X148550000Y-93063622D01*
X148150000Y-93063622D01*
X148055112Y-93072968D01*
X147963871Y-93100645D01*
X147879783Y-93145591D01*
X147806079Y-93206079D01*
X147745591Y-93279783D01*
X147700645Y-93363871D01*
X147672968Y-93455112D01*
X147663622Y-93550000D01*
X135385000Y-93550000D01*
X135385000Y-89585000D01*
X154255856Y-89585000D01*
X154237481Y-89629362D01*
%TA.AperFunction,Conductor*%
D21*
G36*
X154237481Y-89629362D02*
G01*
X154215000Y-89742382D01*
X154215000Y-89857618D01*
X154237481Y-89970638D01*
X154281579Y-90077102D01*
X154345600Y-90172916D01*
X154427084Y-90254400D01*
X154522898Y-90318421D01*
X154629362Y-90362519D01*
X154742382Y-90385000D01*
X154857618Y-90385000D01*
X154970638Y-90362519D01*
X155077102Y-90318421D01*
X155172916Y-90254400D01*
X155254400Y-90172916D01*
X155318421Y-90077102D01*
X155346215Y-90010000D01*
X166323176Y-90010000D01*
X169190000Y-92876825D01*
X169190001Y-116019001D01*
X169146383Y-116019001D01*
X169033363Y-116041482D01*
X168926899Y-116085580D01*
X168831085Y-116149601D01*
X168749601Y-116231085D01*
X168685580Y-116326899D01*
X168641482Y-116433363D01*
X168619001Y-116546383D01*
X168619001Y-116661619D01*
X168641482Y-116774639D01*
X168685580Y-116881103D01*
X168749601Y-116976917D01*
X168831085Y-117058401D01*
X168926899Y-117122422D01*
X169033363Y-117166520D01*
X169146383Y-117189001D01*
X169261619Y-117189001D01*
X169374639Y-117166520D01*
X169481103Y-117122422D01*
X169576917Y-117058401D01*
X169615000Y-117020318D01*
X169615000Y-123915000D01*
X143812316Y-123915000D01*
X143854400Y-123872916D01*
X143918421Y-123777102D01*
X143962519Y-123670638D01*
X143985000Y-123557618D01*
X143985000Y-123442382D01*
X143962519Y-123329362D01*
X143918421Y-123222898D01*
X143854400Y-123127084D01*
X143772916Y-123045600D01*
X143677102Y-122981579D01*
X143570638Y-122937481D01*
X143457618Y-122915000D01*
X143342382Y-122915000D01*
X143229362Y-122937481D01*
X143122898Y-122981579D01*
X143061567Y-123022559D01*
X145153128Y-120930999D01*
X146911325Y-120930999D01*
X146929001Y-120932740D01*
X146999573Y-120925789D01*
X147067433Y-120905204D01*
X147118985Y-120877650D01*
X147137481Y-120970638D01*
X147181579Y-121077102D01*
X147245600Y-121172916D01*
X147327084Y-121254400D01*
X147422898Y-121318421D01*
X147529362Y-121362519D01*
X147642382Y-121385000D01*
X147757618Y-121385000D01*
X147870638Y-121362519D01*
X147977102Y-121318421D01*
X148072916Y-121254400D01*
X148154400Y-121172916D01*
X148169712Y-121150000D01*
X150961686Y-121150000D01*
X150974912Y-121284283D01*
X151014081Y-121413406D01*
X151077688Y-121532407D01*
X151163289Y-121636711D01*
X151267593Y-121722312D01*
X151300062Y-121739667D01*
X151263871Y-121750645D01*
X151179783Y-121795591D01*
X151106079Y-121856079D01*
X151045591Y-121929783D01*
X151000645Y-122013871D01*
X150972968Y-122105112D01*
X150963622Y-122200000D01*
X150963622Y-122600000D01*
X150972968Y-122694888D01*
X151000645Y-122786129D01*
X151045591Y-122870217D01*
X151106079Y-122943921D01*
X151179783Y-123004409D01*
X151263871Y-123049355D01*
X151355112Y-123077032D01*
X151450000Y-123086378D01*
X152350000Y-123086378D01*
X152444888Y-123077032D01*
X152536129Y-123049355D01*
X152620217Y-123004409D01*
X152693921Y-122943921D01*
X152754409Y-122870217D01*
X152799355Y-122786129D01*
X152827032Y-122694888D01*
X152836378Y-122600000D01*
X152836378Y-122200000D01*
X152827032Y-122105112D01*
X152799355Y-122013871D01*
X152754409Y-121929783D01*
X152693921Y-121856079D01*
X152620217Y-121795591D01*
X152536129Y-121750645D01*
X152499938Y-121739667D01*
X152532407Y-121722312D01*
X152636711Y-121636711D01*
X152722312Y-121532407D01*
X152785919Y-121413406D01*
X152825088Y-121284283D01*
X152838314Y-121150000D01*
X155161686Y-121150000D01*
X155174912Y-121284283D01*
X155214081Y-121413406D01*
X155277688Y-121532407D01*
X155363289Y-121636711D01*
X155467593Y-121722312D01*
X155500062Y-121739667D01*
X155463871Y-121750645D01*
X155379783Y-121795591D01*
X155306079Y-121856079D01*
X155245591Y-121929783D01*
X155200645Y-122013871D01*
X155172968Y-122105112D01*
X155163622Y-122200000D01*
X155163622Y-122600000D01*
X155172968Y-122694888D01*
X155200645Y-122786129D01*
X155245591Y-122870217D01*
X155306079Y-122943921D01*
X155379783Y-123004409D01*
X155463871Y-123049355D01*
X155555112Y-123077032D01*
X155650000Y-123086378D01*
X156550000Y-123086378D01*
X156644888Y-123077032D01*
X156736129Y-123049355D01*
X156820217Y-123004409D01*
X156893921Y-122943921D01*
X156954409Y-122870217D01*
X156999355Y-122786129D01*
X157027032Y-122694888D01*
X157036378Y-122600000D01*
X157036378Y-122200000D01*
X157027032Y-122105112D01*
X156999355Y-122013871D01*
X156954409Y-121929783D01*
X156893921Y-121856079D01*
X156820217Y-121795591D01*
X156736129Y-121750645D01*
X156699938Y-121739667D01*
X156732407Y-121722312D01*
X156836711Y-121636711D01*
X156922312Y-121532407D01*
X156985919Y-121413406D01*
X157025088Y-121284283D01*
X157038314Y-121150000D01*
X157025088Y-121015717D01*
X156985919Y-120886594D01*
X156922312Y-120767593D01*
X156836711Y-120663289D01*
X156732407Y-120577688D01*
X156613406Y-120514081D01*
X156484283Y-120474912D01*
X156383647Y-120465000D01*
X155816353Y-120465000D01*
X155715717Y-120474912D01*
X155586594Y-120514081D01*
X155467593Y-120577688D01*
X155363289Y-120663289D01*
X155277688Y-120767593D01*
X155214081Y-120886594D01*
X155174912Y-121015717D01*
X155161686Y-121150000D01*
X152838314Y-121150000D01*
X152825088Y-121015717D01*
X152785919Y-120886594D01*
X152722312Y-120767593D01*
X152636711Y-120663289D01*
X152532407Y-120577688D01*
X152413406Y-120514081D01*
X152284283Y-120474912D01*
X152183647Y-120465000D01*
X151616353Y-120465000D01*
X151515717Y-120474912D01*
X151386594Y-120514081D01*
X151267593Y-120577688D01*
X151163289Y-120663289D01*
X151077688Y-120767593D01*
X151014081Y-120886594D01*
X150974912Y-121015717D01*
X150961686Y-121150000D01*
X148169712Y-121150000D01*
X148218421Y-121077102D01*
X148262519Y-120970638D01*
X148285000Y-120857618D01*
X148285000Y-120742382D01*
X148262519Y-120629362D01*
X148218421Y-120522898D01*
X148154400Y-120427084D01*
X148072916Y-120345600D01*
X147977102Y-120281579D01*
X147870638Y-120237481D01*
X147788061Y-120221055D01*
X147927147Y-120081970D01*
X147942382Y-120085000D01*
X148057618Y-120085000D01*
X148170638Y-120062519D01*
X148277102Y-120018421D01*
X148372916Y-119954400D01*
X148454400Y-119872916D01*
X148518421Y-119777102D01*
X148562519Y-119670638D01*
X148585000Y-119557618D01*
X148585000Y-119442382D01*
X148562519Y-119329362D01*
X148518421Y-119222898D01*
X148454400Y-119127084D01*
X148372916Y-119045600D01*
X148277102Y-118981579D01*
X148170638Y-118937481D01*
X148057618Y-118915000D01*
X147942382Y-118915000D01*
X147829362Y-118937481D01*
X147722898Y-118981579D01*
X147702755Y-118995038D01*
X147816404Y-118720665D01*
X147830460Y-118650000D01*
X150961686Y-118650000D01*
X150974912Y-118784283D01*
X151014081Y-118913406D01*
X151077688Y-119032407D01*
X151163289Y-119136711D01*
X151267593Y-119222312D01*
X151386594Y-119285919D01*
X151515717Y-119325088D01*
X151616353Y-119335000D01*
X152183647Y-119335000D01*
X152284283Y-119325088D01*
X152413406Y-119285919D01*
X152532407Y-119222312D01*
X152636711Y-119136711D01*
X152722312Y-119032407D01*
X152785919Y-118913406D01*
X152825088Y-118784283D01*
X152838314Y-118650000D01*
X155161686Y-118650000D01*
X155174912Y-118784283D01*
X155214081Y-118913406D01*
X155277688Y-119032407D01*
X155363289Y-119136711D01*
X155467593Y-119222312D01*
X155586594Y-119285919D01*
X155715717Y-119325088D01*
X155816353Y-119335000D01*
X156383647Y-119335000D01*
X156484283Y-119325088D01*
X156613406Y-119285919D01*
X156732407Y-119222312D01*
X156836711Y-119136711D01*
X156922312Y-119032407D01*
X156985919Y-118913406D01*
X157025088Y-118784283D01*
X157038314Y-118650000D01*
X157025088Y-118515717D01*
X156985919Y-118386594D01*
X156922312Y-118267593D01*
X156836711Y-118163289D01*
X156732407Y-118077688D01*
X156613406Y-118014081D01*
X156484283Y-117974912D01*
X156383647Y-117965000D01*
X155816353Y-117965000D01*
X155715717Y-117974912D01*
X155586594Y-118014081D01*
X155467593Y-118077688D01*
X155363289Y-118163289D01*
X155277688Y-118267593D01*
X155214081Y-118386594D01*
X155174912Y-118515717D01*
X155161686Y-118650000D01*
X152838314Y-118650000D01*
X152825088Y-118515717D01*
X152785919Y-118386594D01*
X152722312Y-118267593D01*
X152636711Y-118163289D01*
X152532407Y-118077688D01*
X152413406Y-118014081D01*
X152284283Y-117974912D01*
X152183647Y-117965000D01*
X151616353Y-117965000D01*
X151515717Y-117974912D01*
X151386594Y-118014081D01*
X151267593Y-118077688D01*
X151163289Y-118163289D01*
X151077688Y-118267593D01*
X151014081Y-118386594D01*
X150974912Y-118515717D01*
X150961686Y-118650000D01*
X147830460Y-118650000D01*
X147885000Y-118375807D01*
X147885000Y-118024193D01*
X147816404Y-117679335D01*
X147700700Y-117400000D01*
X159361686Y-117400000D01*
X159374912Y-117534283D01*
X159414081Y-117663406D01*
X159477688Y-117782407D01*
X159563289Y-117886711D01*
X159667593Y-117972312D01*
X159766166Y-118025000D01*
X159667593Y-118077688D01*
X159563289Y-118163289D01*
X159477688Y-118267593D01*
X159414081Y-118386594D01*
X159374912Y-118515717D01*
X159361686Y-118650000D01*
X159374912Y-118784283D01*
X159414081Y-118913406D01*
X159477688Y-119032407D01*
X159563289Y-119136711D01*
X159667593Y-119222312D01*
X159766166Y-119275000D01*
X159667593Y-119327688D01*
X159563289Y-119413289D01*
X159477688Y-119517593D01*
X159414081Y-119636594D01*
X159374912Y-119765717D01*
X159361686Y-119900000D01*
X159374912Y-120034283D01*
X159414081Y-120163406D01*
X159477688Y-120282407D01*
X159563289Y-120386711D01*
X159667593Y-120472312D01*
X159766166Y-120525000D01*
X159667593Y-120577688D01*
X159563289Y-120663289D01*
X159477688Y-120767593D01*
X159414081Y-120886594D01*
X159374912Y-121015717D01*
X159361686Y-121150000D01*
X159374912Y-121284283D01*
X159414081Y-121413406D01*
X159477688Y-121532407D01*
X159563289Y-121636711D01*
X159667593Y-121722312D01*
X159700062Y-121739667D01*
X159663871Y-121750645D01*
X159579783Y-121795591D01*
X159506079Y-121856079D01*
X159445591Y-121929783D01*
X159400645Y-122013871D01*
X159372968Y-122105112D01*
X159363622Y-122200000D01*
X159363622Y-122600000D01*
X159372968Y-122694888D01*
X159400645Y-122786129D01*
X159445591Y-122870217D01*
X159506079Y-122943921D01*
X159579783Y-123004409D01*
X159663871Y-123049355D01*
X159755112Y-123077032D01*
X159850000Y-123086378D01*
X160750000Y-123086378D01*
X160844888Y-123077032D01*
X160936129Y-123049355D01*
X161020217Y-123004409D01*
X161093921Y-122943921D01*
X161154409Y-122870217D01*
X161199355Y-122786129D01*
X161227032Y-122694888D01*
X161236378Y-122600000D01*
X161236378Y-122200000D01*
X161227032Y-122105112D01*
X161199355Y-122013871D01*
X161154409Y-121929783D01*
X161093921Y-121856079D01*
X161020217Y-121795591D01*
X160936129Y-121750645D01*
X160899938Y-121739667D01*
X160932407Y-121722312D01*
X161036711Y-121636711D01*
X161122312Y-121532407D01*
X161185919Y-121413406D01*
X161225088Y-121284283D01*
X161238314Y-121150000D01*
X161225088Y-121015717D01*
X161185919Y-120886594D01*
X161122312Y-120767593D01*
X161036711Y-120663289D01*
X160932407Y-120577688D01*
X160833834Y-120525000D01*
X160932407Y-120472312D01*
X161036711Y-120386711D01*
X161122312Y-120282407D01*
X161185919Y-120163406D01*
X161225088Y-120034283D01*
X161238314Y-119900000D01*
X161225088Y-119765717D01*
X161185919Y-119636594D01*
X161122312Y-119517593D01*
X161036711Y-119413289D01*
X160932407Y-119327688D01*
X160833834Y-119275000D01*
X160932407Y-119222312D01*
X161036711Y-119136711D01*
X161122312Y-119032407D01*
X161185919Y-118913406D01*
X161225088Y-118784283D01*
X161238314Y-118650000D01*
X161225088Y-118515717D01*
X161185919Y-118386594D01*
X161122312Y-118267593D01*
X161036711Y-118163289D01*
X160932407Y-118077688D01*
X160833834Y-118025000D01*
X160932407Y-117972312D01*
X161036711Y-117886711D01*
X161122312Y-117782407D01*
X161185919Y-117663406D01*
X161225088Y-117534283D01*
X161238314Y-117400000D01*
X161225088Y-117265717D01*
X161185919Y-117136594D01*
X161122312Y-117017593D01*
X161036711Y-116913289D01*
X160932407Y-116827688D01*
X160813406Y-116764081D01*
X160684283Y-116724912D01*
X160583647Y-116715000D01*
X160016353Y-116715000D01*
X159915717Y-116724912D01*
X159786594Y-116764081D01*
X159667593Y-116827688D01*
X159563289Y-116913289D01*
X159477688Y-117017593D01*
X159414081Y-117136594D01*
X159374912Y-117265717D01*
X159361686Y-117400000D01*
X147700700Y-117400000D01*
X147681847Y-117354485D01*
X147486500Y-117062129D01*
X147237871Y-116813500D01*
X146945515Y-116618153D01*
X146620665Y-116483596D01*
X146275807Y-116415000D01*
X145924193Y-116415000D01*
X145579335Y-116483596D01*
X145254485Y-116618153D01*
X144962129Y-116813500D01*
X144713500Y-117062129D01*
X144518153Y-117354485D01*
X144383596Y-117679335D01*
X144315000Y-118024193D01*
X144315000Y-118375807D01*
X144383596Y-118720665D01*
X144518153Y-119045515D01*
X144713500Y-119337871D01*
X144962129Y-119586500D01*
X145254485Y-119781847D01*
X145579335Y-119916404D01*
X145924193Y-119985000D01*
X146275807Y-119985000D01*
X146620665Y-119916404D01*
X146945515Y-119781847D01*
X147237871Y-119586500D01*
X147423197Y-119401174D01*
X147415000Y-119442382D01*
X147415000Y-119557618D01*
X147418030Y-119572853D01*
X146779885Y-120210999D01*
X145021690Y-120210999D01*
X145004011Y-120209258D01*
X144933439Y-120216208D01*
X144865578Y-120236794D01*
X144843794Y-120248438D01*
X144803038Y-120270222D01*
X144748221Y-120315209D01*
X144736949Y-120328944D01*
X142472853Y-122593040D01*
X142457618Y-122590010D01*
X142342382Y-122590010D01*
X142229362Y-122612491D01*
X142122898Y-122656589D01*
X142027084Y-122720610D01*
X141945600Y-122802094D01*
X141881579Y-122897908D01*
X141837481Y-123004372D01*
X141815000Y-123117392D01*
X141815000Y-123232628D01*
X141837481Y-123345648D01*
X141881579Y-123452112D01*
X141945600Y-123547926D01*
X142027084Y-123629410D01*
X142122898Y-123693431D01*
X142229362Y-123737529D01*
X142342382Y-123760010D01*
X142457618Y-123760010D01*
X142570638Y-123737529D01*
X142677102Y-123693431D01*
X142772916Y-123629410D01*
X142819929Y-123582397D01*
X142837481Y-123670638D01*
X142881579Y-123777102D01*
X142945600Y-123872916D01*
X142987684Y-123915000D01*
X135385000Y-123915000D01*
X135385000Y-115937160D01*
X152609778Y-115937160D01*
X152609778Y-116052396D01*
X152632259Y-116165416D01*
X152676357Y-116271880D01*
X152740378Y-116367694D01*
X152821862Y-116449178D01*
X152917676Y-116513199D01*
X153024140Y-116557297D01*
X153137160Y-116579778D01*
X153252396Y-116579778D01*
X153365416Y-116557297D01*
X153471880Y-116513199D01*
X153567694Y-116449178D01*
X153649178Y-116367694D01*
X153713199Y-116271880D01*
X153757297Y-116165416D01*
X153779778Y-116052396D01*
X153779778Y-115937160D01*
X153757297Y-115824140D01*
X153713199Y-115717676D01*
X153662890Y-115642382D01*
X154415000Y-115642382D01*
X154415000Y-115757618D01*
X154437481Y-115870638D01*
X154481579Y-115977102D01*
X154545600Y-116072916D01*
X154627084Y-116154400D01*
X154722898Y-116218421D01*
X154829362Y-116262519D01*
X154942382Y-116285000D01*
X155057618Y-116285000D01*
X155170638Y-116262519D01*
X155277102Y-116218421D01*
X155372916Y-116154400D01*
X155454400Y-116072916D01*
X155518421Y-115977102D01*
X155562519Y-115870638D01*
X155585000Y-115757618D01*
X155585000Y-115642382D01*
X155562519Y-115529362D01*
X155518421Y-115422898D01*
X155454400Y-115327084D01*
X155372916Y-115245600D01*
X155277102Y-115181579D01*
X155170638Y-115137481D01*
X155057618Y-115115000D01*
X154942382Y-115115000D01*
X154829362Y-115137481D01*
X154722898Y-115181579D01*
X154627084Y-115245600D01*
X154545600Y-115327084D01*
X154481579Y-115422898D01*
X154437481Y-115529362D01*
X154415000Y-115642382D01*
X153662890Y-115642382D01*
X153649178Y-115621862D01*
X153567694Y-115540378D01*
X153471880Y-115476357D01*
X153365416Y-115432259D01*
X153252396Y-115409778D01*
X153137160Y-115409778D01*
X153024140Y-115432259D01*
X152917676Y-115476357D01*
X152821862Y-115540378D01*
X152740378Y-115621862D01*
X152676357Y-115717676D01*
X152632259Y-115824140D01*
X152609778Y-115937160D01*
X135385000Y-115937160D01*
X135385000Y-114150000D01*
X135561686Y-114150000D01*
X135574912Y-114284283D01*
X135614081Y-114413406D01*
X135677688Y-114532407D01*
X135763289Y-114636711D01*
X135867593Y-114722312D01*
X135986594Y-114785919D01*
X136115717Y-114825088D01*
X136216353Y-114835000D01*
X136783647Y-114835000D01*
X136884283Y-114825088D01*
X137013406Y-114785919D01*
X137132407Y-114722312D01*
X137236711Y-114636711D01*
X137322312Y-114532407D01*
X137370431Y-114442382D01*
X152415000Y-114442382D01*
X152415000Y-114557618D01*
X152437481Y-114670638D01*
X152481579Y-114777102D01*
X152545600Y-114872916D01*
X152627084Y-114954400D01*
X152722898Y-115018421D01*
X152829362Y-115062519D01*
X152942382Y-115085000D01*
X153057618Y-115085000D01*
X153170638Y-115062519D01*
X153277102Y-115018421D01*
X153372916Y-114954400D01*
X153454400Y-114872916D01*
X153518421Y-114777102D01*
X153562519Y-114670638D01*
X153585000Y-114557618D01*
X153585000Y-114442382D01*
X153562718Y-114330361D01*
X159533148Y-114330361D01*
X159533148Y-114445597D01*
X159555629Y-114558617D01*
X159599727Y-114665081D01*
X159663748Y-114760895D01*
X159745232Y-114842379D01*
X159841046Y-114906400D01*
X159947510Y-114950498D01*
X160060530Y-114972979D01*
X160175766Y-114972979D01*
X160288786Y-114950498D01*
X160395250Y-114906400D01*
X160491064Y-114842379D01*
X160572548Y-114760895D01*
X160636569Y-114665081D01*
X160680667Y-114558617D01*
X160703148Y-114445597D01*
X160703148Y-114330361D01*
X160680667Y-114217341D01*
X160636569Y-114110877D01*
X160572548Y-114015063D01*
X160491064Y-113933579D01*
X160395250Y-113869558D01*
X160288786Y-113825460D01*
X160175766Y-113802979D01*
X160060530Y-113802979D01*
X159947510Y-113825460D01*
X159841046Y-113869558D01*
X159745232Y-113933579D01*
X159663748Y-114015063D01*
X159599727Y-114110877D01*
X159555629Y-114217341D01*
X159533148Y-114330361D01*
X153562718Y-114330361D01*
X153562519Y-114329362D01*
X153518421Y-114222898D01*
X153454400Y-114127084D01*
X153372916Y-114045600D01*
X153277102Y-113981579D01*
X153170638Y-113937481D01*
X153057618Y-113915000D01*
X152942382Y-113915000D01*
X152829362Y-113937481D01*
X152722898Y-113981579D01*
X152627084Y-114045600D01*
X152545600Y-114127084D01*
X152481579Y-114222898D01*
X152437481Y-114329362D01*
X152415000Y-114442382D01*
X137370431Y-114442382D01*
X137385919Y-114413406D01*
X137425088Y-114284283D01*
X137438314Y-114150000D01*
X137425088Y-114015717D01*
X137385919Y-113886594D01*
X137322312Y-113767593D01*
X137236711Y-113663289D01*
X137132407Y-113577688D01*
X137099938Y-113560333D01*
X137136129Y-113549355D01*
X137220217Y-113504409D01*
X137293921Y-113443921D01*
X137354409Y-113370217D01*
X137399355Y-113286129D01*
X137427032Y-113194888D01*
X137436378Y-113100000D01*
X137436378Y-112700000D01*
X137430704Y-112642391D01*
X152815000Y-112642391D01*
X152815000Y-112757627D01*
X152837481Y-112870647D01*
X152881579Y-112977111D01*
X152945600Y-113072925D01*
X153027084Y-113154409D01*
X153122898Y-113218430D01*
X153229362Y-113262528D01*
X153342382Y-113285009D01*
X153457618Y-113285009D01*
X153570638Y-113262528D01*
X153677102Y-113218430D01*
X153772916Y-113154409D01*
X153851933Y-113075392D01*
X154215000Y-113075392D01*
X154215000Y-113190628D01*
X154237481Y-113303648D01*
X154281579Y-113410112D01*
X154345600Y-113505926D01*
X154427084Y-113587410D01*
X154522898Y-113651431D01*
X154629362Y-113695529D01*
X154742382Y-113718010D01*
X154857618Y-113718010D01*
X154970638Y-113695529D01*
X155077102Y-113651431D01*
X155172916Y-113587410D01*
X155254400Y-113505926D01*
X155318421Y-113410112D01*
X155362519Y-113303648D01*
X155385000Y-113190628D01*
X155385000Y-113075392D01*
X155362519Y-112962372D01*
X155318421Y-112855908D01*
X155254400Y-112760094D01*
X155172916Y-112678610D01*
X155077102Y-112614589D01*
X154970638Y-112570491D01*
X154857618Y-112548010D01*
X154742382Y-112548010D01*
X154629362Y-112570491D01*
X154522898Y-112614589D01*
X154427084Y-112678610D01*
X154345600Y-112760094D01*
X154281579Y-112855908D01*
X154237481Y-112962372D01*
X154215000Y-113075392D01*
X153851933Y-113075392D01*
X153854400Y-113072925D01*
X153918421Y-112977111D01*
X153962519Y-112870647D01*
X153985000Y-112757627D01*
X153985000Y-112642391D01*
X153962519Y-112529371D01*
X153918421Y-112422907D01*
X153854400Y-112327093D01*
X153772916Y-112245609D01*
X153677102Y-112181588D01*
X153570638Y-112137490D01*
X153457618Y-112115009D01*
X153342382Y-112115009D01*
X153229362Y-112137490D01*
X153122898Y-112181588D01*
X153027084Y-112245609D01*
X152945600Y-112327093D01*
X152881579Y-112422907D01*
X152837481Y-112529371D01*
X152815000Y-112642391D01*
X137430704Y-112642391D01*
X137427032Y-112605112D01*
X137399355Y-112513871D01*
X137354409Y-112429783D01*
X137293921Y-112356079D01*
X137220217Y-112295591D01*
X137136129Y-112250645D01*
X137044888Y-112222968D01*
X136950000Y-112213622D01*
X136050000Y-112213622D01*
X135955112Y-112222968D01*
X135863871Y-112250645D01*
X135779783Y-112295591D01*
X135706079Y-112356079D01*
X135645591Y-112429783D01*
X135600645Y-112513871D01*
X135572968Y-112605112D01*
X135563622Y-112700000D01*
X135563622Y-113100000D01*
X135572968Y-113194888D01*
X135600645Y-113286129D01*
X135645591Y-113370217D01*
X135706079Y-113443921D01*
X135779783Y-113504409D01*
X135863871Y-113549355D01*
X135900062Y-113560333D01*
X135867593Y-113577688D01*
X135763289Y-113663289D01*
X135677688Y-113767593D01*
X135614081Y-113886594D01*
X135574912Y-114015717D01*
X135561686Y-114150000D01*
X135385000Y-114150000D01*
X135385000Y-110542382D01*
X143015000Y-110542382D01*
X143015000Y-110657618D01*
X143037481Y-110770638D01*
X143081579Y-110877102D01*
X143130288Y-110950000D01*
X143081579Y-111022898D01*
X143037481Y-111129362D01*
X143015000Y-111242382D01*
X143015000Y-111357618D01*
X143037481Y-111470638D01*
X143081579Y-111577102D01*
X143130288Y-111650000D01*
X143081579Y-111722898D01*
X143037481Y-111829362D01*
X143015000Y-111942382D01*
X143015000Y-112057618D01*
X143037481Y-112170638D01*
X143081579Y-112277102D01*
X143145600Y-112372916D01*
X143227084Y-112454400D01*
X143322898Y-112518421D01*
X143429362Y-112562519D01*
X143542382Y-112585000D01*
X143657618Y-112585000D01*
X143770638Y-112562519D01*
X143877102Y-112518421D01*
X143972916Y-112454400D01*
X144054400Y-112372916D01*
X144118421Y-112277102D01*
X144162519Y-112170638D01*
X144185000Y-112057618D01*
X144185000Y-111942382D01*
X144162519Y-111829362D01*
X144118421Y-111722898D01*
X144069712Y-111650000D01*
X144118421Y-111577102D01*
X144162519Y-111470638D01*
X144173907Y-111413382D01*
X154915000Y-111413382D01*
X154915000Y-111528618D01*
X154937481Y-111641638D01*
X154981579Y-111748102D01*
X155045600Y-111843916D01*
X155127084Y-111925400D01*
X155222898Y-111989421D01*
X155329362Y-112033519D01*
X155442382Y-112056000D01*
X155557618Y-112056000D01*
X155670638Y-112033519D01*
X155777102Y-111989421D01*
X155872916Y-111925400D01*
X155954400Y-111843916D01*
X156018421Y-111748102D01*
X156062519Y-111641638D01*
X156082147Y-111542962D01*
X156129362Y-111562519D01*
X156242382Y-111585000D01*
X156357618Y-111585000D01*
X156470638Y-111562519D01*
X156577102Y-111518421D01*
X156672916Y-111454400D01*
X156754400Y-111372916D01*
X156818421Y-111277102D01*
X156862519Y-111170638D01*
X156885000Y-111057618D01*
X156885000Y-110942382D01*
X156879104Y-110912737D01*
X159485856Y-110912737D01*
X159485856Y-111027973D01*
X159508337Y-111140993D01*
X159552435Y-111247457D01*
X159616456Y-111343271D01*
X159697940Y-111424755D01*
X159793754Y-111488776D01*
X159900218Y-111532874D01*
X160013238Y-111555355D01*
X160128474Y-111555355D01*
X160241494Y-111532874D01*
X160347958Y-111488776D01*
X160443772Y-111424755D01*
X160525256Y-111343271D01*
X160589277Y-111247457D01*
X160633375Y-111140993D01*
X160655856Y-111027973D01*
X160655856Y-111025060D01*
X166956689Y-111025060D01*
X166956689Y-111140296D01*
X166979170Y-111253316D01*
X167023268Y-111359780D01*
X167087289Y-111455594D01*
X167168773Y-111537078D01*
X167264587Y-111601099D01*
X167371051Y-111645197D01*
X167484071Y-111667678D01*
X167599307Y-111667678D01*
X167712327Y-111645197D01*
X167818791Y-111601099D01*
X167914605Y-111537078D01*
X167996089Y-111455594D01*
X168060110Y-111359780D01*
X168104208Y-111253316D01*
X168126689Y-111140296D01*
X168126689Y-111025060D01*
X168104208Y-110912040D01*
X168060110Y-110805576D01*
X167996089Y-110709762D01*
X167914605Y-110628278D01*
X167818791Y-110564257D01*
X167712327Y-110520159D01*
X167599307Y-110497678D01*
X167484071Y-110497678D01*
X167371051Y-110520159D01*
X167264587Y-110564257D01*
X167168773Y-110628278D01*
X167087289Y-110709762D01*
X167023268Y-110805576D01*
X166979170Y-110912040D01*
X166956689Y-111025060D01*
X160655856Y-111025060D01*
X160655856Y-110912737D01*
X160633375Y-110799717D01*
X160589277Y-110693253D01*
X160525256Y-110597439D01*
X160443772Y-110515955D01*
X160347958Y-110451934D01*
X160241494Y-110407836D01*
X160128474Y-110385355D01*
X160013238Y-110385355D01*
X159900218Y-110407836D01*
X159793754Y-110451934D01*
X159697940Y-110515955D01*
X159616456Y-110597439D01*
X159552435Y-110693253D01*
X159508337Y-110799717D01*
X159485856Y-110912737D01*
X156879104Y-110912737D01*
X156862519Y-110829362D01*
X156818421Y-110722898D01*
X156754400Y-110627084D01*
X156672916Y-110545600D01*
X156577102Y-110481579D01*
X156470638Y-110437481D01*
X156357618Y-110415000D01*
X156242382Y-110415000D01*
X156129362Y-110437481D01*
X156022898Y-110481579D01*
X155927084Y-110545600D01*
X155845600Y-110627084D01*
X155781579Y-110722898D01*
X155737481Y-110829362D01*
X155717853Y-110928038D01*
X155670638Y-110908481D01*
X155557618Y-110886000D01*
X155442382Y-110886000D01*
X155329362Y-110908481D01*
X155222898Y-110952579D01*
X155127084Y-111016600D01*
X155045600Y-111098084D01*
X154981579Y-111193898D01*
X154937481Y-111300362D01*
X154915000Y-111413382D01*
X144173907Y-111413382D01*
X144185000Y-111357618D01*
X144185000Y-111242382D01*
X144162519Y-111129362D01*
X144118421Y-111022898D01*
X144069712Y-110950000D01*
X144118421Y-110877102D01*
X144162519Y-110770638D01*
X144185000Y-110657618D01*
X144185000Y-110542382D01*
X144162519Y-110429362D01*
X144118421Y-110322898D01*
X144054400Y-110227084D01*
X143972916Y-110145600D01*
X143877102Y-110081579D01*
X143770638Y-110037481D01*
X143657618Y-110015000D01*
X143542382Y-110015000D01*
X143429362Y-110037481D01*
X143322898Y-110081579D01*
X143227084Y-110145600D01*
X143145600Y-110227084D01*
X143081579Y-110322898D01*
X143037481Y-110429362D01*
X143015000Y-110542382D01*
X135385000Y-110542382D01*
X135385000Y-107200000D01*
X136438622Y-107200000D01*
X136438622Y-108400000D01*
X136448928Y-108504642D01*
X136479451Y-108605263D01*
X136529018Y-108697996D01*
X136595723Y-108779277D01*
X136677004Y-108845982D01*
X136769737Y-108895549D01*
X136870358Y-108926072D01*
X136975000Y-108936378D01*
X138425000Y-108936378D01*
X138529642Y-108926072D01*
X138630263Y-108895549D01*
X138722996Y-108845982D01*
X138804277Y-108779277D01*
X138870982Y-108697996D01*
X138920549Y-108605263D01*
X138951072Y-108504642D01*
X138961378Y-108400000D01*
X138961378Y-107442382D01*
X144115000Y-107442382D01*
X144115000Y-107557618D01*
X144137481Y-107670638D01*
X144181579Y-107777102D01*
X144245600Y-107872916D01*
X144322684Y-107950000D01*
X144245600Y-108027084D01*
X144181579Y-108122898D01*
X144137481Y-108229362D01*
X144115000Y-108342382D01*
X144115000Y-108457618D01*
X144137481Y-108570638D01*
X144181579Y-108677102D01*
X144245600Y-108772916D01*
X144327084Y-108854400D01*
X144422898Y-108918421D01*
X144529362Y-108962519D01*
X144642382Y-108985000D01*
X144757618Y-108985000D01*
X144870638Y-108962519D01*
X144977102Y-108918421D01*
X145072916Y-108854400D01*
X145154400Y-108772916D01*
X145218421Y-108677102D01*
X145262519Y-108570638D01*
X145285000Y-108457618D01*
X145285000Y-108342382D01*
X145262519Y-108229362D01*
X145218421Y-108122898D01*
X145154400Y-108027084D01*
X145077316Y-107950000D01*
X145154400Y-107872916D01*
X145218421Y-107777102D01*
X145232072Y-107744143D01*
X153505219Y-107744143D01*
X153505219Y-107859379D01*
X153527700Y-107972399D01*
X153571798Y-108078863D01*
X153635819Y-108174677D01*
X153717303Y-108256161D01*
X153813117Y-108320182D01*
X153919581Y-108364280D01*
X154032601Y-108386761D01*
X154147837Y-108386761D01*
X154260857Y-108364280D01*
X154367321Y-108320182D01*
X154463135Y-108256161D01*
X154476914Y-108242382D01*
X158715000Y-108242382D01*
X158715000Y-108357618D01*
X158737481Y-108470638D01*
X158781579Y-108577102D01*
X158845600Y-108672916D01*
X158927084Y-108754400D01*
X159022898Y-108818421D01*
X159129362Y-108862519D01*
X159242382Y-108885000D01*
X159357618Y-108885000D01*
X159470638Y-108862519D01*
X159577102Y-108818421D01*
X159672916Y-108754400D01*
X159754400Y-108672916D01*
X159791513Y-108617372D01*
X162685691Y-108617372D01*
X162685691Y-108732608D01*
X162708172Y-108845628D01*
X162752270Y-108952092D01*
X162816291Y-109047906D01*
X162897775Y-109129390D01*
X162993589Y-109193411D01*
X163100053Y-109237509D01*
X163213073Y-109259990D01*
X163292659Y-109259990D01*
X163289562Y-109275561D01*
X163289562Y-109390797D01*
X163312043Y-109503817D01*
X163356141Y-109610281D01*
X163420162Y-109706095D01*
X163501646Y-109787579D01*
X163597460Y-109851600D01*
X163703924Y-109895698D01*
X163816944Y-109918179D01*
X163932180Y-109918179D01*
X164045200Y-109895698D01*
X164151664Y-109851600D01*
X164247478Y-109787579D01*
X164328962Y-109706095D01*
X164392983Y-109610281D01*
X164437081Y-109503817D01*
X164459562Y-109390797D01*
X164459562Y-109275561D01*
X164456532Y-109260326D01*
X164756858Y-108960000D01*
X165798273Y-108960000D01*
X165815949Y-108961741D01*
X165886521Y-108954790D01*
X165895415Y-108952092D01*
X165954381Y-108934205D01*
X166016922Y-108900777D01*
X166071739Y-108855790D01*
X166083015Y-108842050D01*
X166367021Y-108558044D01*
X166337481Y-108629362D01*
X166315000Y-108742382D01*
X166315000Y-108857618D01*
X166337481Y-108970638D01*
X166373827Y-109058388D01*
X166277547Y-109077539D01*
X166171083Y-109121637D01*
X166075269Y-109185658D01*
X165993785Y-109267142D01*
X165929764Y-109362956D01*
X165885666Y-109469420D01*
X165863185Y-109582440D01*
X165863185Y-109697676D01*
X165885666Y-109810696D01*
X165890127Y-109821466D01*
X165857618Y-109815000D01*
X165742382Y-109815000D01*
X165629362Y-109837481D01*
X165522898Y-109881579D01*
X165427084Y-109945600D01*
X165345600Y-110027084D01*
X165281579Y-110122898D01*
X165267834Y-110156082D01*
X165262519Y-110129362D01*
X165218421Y-110022898D01*
X165154400Y-109927084D01*
X165072916Y-109845600D01*
X164977102Y-109781579D01*
X164870638Y-109737481D01*
X164757618Y-109715000D01*
X164642382Y-109715000D01*
X164529362Y-109737481D01*
X164422898Y-109781579D01*
X164327084Y-109845600D01*
X164245600Y-109927084D01*
X164181579Y-110022898D01*
X164137481Y-110129362D01*
X164115000Y-110242382D01*
X164115000Y-110357618D01*
X164137481Y-110470638D01*
X164181579Y-110577102D01*
X164245600Y-110672916D01*
X164327084Y-110754400D01*
X164422898Y-110818421D01*
X164529362Y-110862519D01*
X164642382Y-110885000D01*
X164757618Y-110885000D01*
X164870638Y-110862519D01*
X164977102Y-110818421D01*
X165072916Y-110754400D01*
X165154400Y-110672916D01*
X165218421Y-110577102D01*
X165232166Y-110543918D01*
X165237481Y-110570638D01*
X165281579Y-110677102D01*
X165345600Y-110772916D01*
X165427084Y-110854400D01*
X165522898Y-110918421D01*
X165629362Y-110962519D01*
X165742382Y-110985000D01*
X165857618Y-110985000D01*
X165970638Y-110962519D01*
X166077102Y-110918421D01*
X166172916Y-110854400D01*
X166254400Y-110772916D01*
X166318421Y-110677102D01*
X166362519Y-110570638D01*
X166385000Y-110457618D01*
X166385000Y-110342382D01*
X166362519Y-110229362D01*
X166358058Y-110218592D01*
X166390567Y-110225058D01*
X166505803Y-110225058D01*
X166618823Y-110202577D01*
X166725287Y-110158479D01*
X166821101Y-110094458D01*
X166902585Y-110012974D01*
X166966606Y-109917160D01*
X167010704Y-109810696D01*
X167033185Y-109697676D01*
X167033185Y-109582440D01*
X167010704Y-109469420D01*
X166974358Y-109381670D01*
X167070638Y-109362519D01*
X167177102Y-109318421D01*
X167272916Y-109254400D01*
X167354400Y-109172916D01*
X167418421Y-109077102D01*
X167462519Y-108970638D01*
X167485000Y-108857618D01*
X167485000Y-108742382D01*
X167462519Y-108629362D01*
X167418421Y-108522898D01*
X167354400Y-108427084D01*
X167272916Y-108345600D01*
X167177102Y-108281579D01*
X167070638Y-108237481D01*
X166957618Y-108215000D01*
X166842382Y-108215000D01*
X166729362Y-108237481D01*
X166658044Y-108267021D01*
X167414673Y-107510393D01*
X167429908Y-107513423D01*
X167545144Y-107513423D01*
X167658164Y-107490942D01*
X167764628Y-107446844D01*
X167860442Y-107382823D01*
X167941926Y-107301339D01*
X168005947Y-107205525D01*
X168050045Y-107099061D01*
X168072526Y-106986041D01*
X168072526Y-106870805D01*
X168050045Y-106757785D01*
X168005947Y-106651321D01*
X167946276Y-106562018D01*
X167956810Y-106551484D01*
X168020831Y-106455670D01*
X168064929Y-106349206D01*
X168087410Y-106236186D01*
X168087410Y-106120950D01*
X168064929Y-106007930D01*
X168020831Y-105901466D01*
X167956810Y-105805652D01*
X167875326Y-105724168D01*
X167779512Y-105660147D01*
X167673048Y-105616049D01*
X167560028Y-105593568D01*
X167444792Y-105593568D01*
X167331772Y-105616049D01*
X167225308Y-105660147D01*
X167129494Y-105724168D01*
X167048010Y-105805652D01*
X166983989Y-105901466D01*
X166939891Y-106007930D01*
X166917410Y-106120950D01*
X166917410Y-106212421D01*
X166720471Y-106409360D01*
X166706735Y-106420633D01*
X166661748Y-106475450D01*
X166628320Y-106537991D01*
X166626012Y-106545600D01*
X166607735Y-106605850D01*
X166600784Y-106676422D01*
X166602525Y-106694098D01*
X166602525Y-106880030D01*
X165671555Y-107811000D01*
X163792356Y-107811000D01*
X163774680Y-107809259D01*
X163704108Y-107816210D01*
X163683523Y-107822455D01*
X163636249Y-107836795D01*
X163573708Y-107870223D01*
X163518891Y-107915210D01*
X163507615Y-107928950D01*
X163343544Y-108093021D01*
X163328309Y-108089990D01*
X163213073Y-108089990D01*
X163100053Y-108112471D01*
X162993589Y-108156569D01*
X162897775Y-108220590D01*
X162816291Y-108302074D01*
X162752270Y-108397888D01*
X162708172Y-108504352D01*
X162685691Y-108617372D01*
X159791513Y-108617372D01*
X159818421Y-108577102D01*
X159862519Y-108470638D01*
X159885000Y-108357618D01*
X159885000Y-108242382D01*
X159862519Y-108129362D01*
X159818421Y-108022898D01*
X159754400Y-107927084D01*
X159672916Y-107845600D01*
X159577102Y-107781579D01*
X159470638Y-107737481D01*
X159357618Y-107715000D01*
X159242382Y-107715000D01*
X159129362Y-107737481D01*
X159022898Y-107781579D01*
X158927084Y-107845600D01*
X158845600Y-107927084D01*
X158781579Y-108022898D01*
X158737481Y-108129362D01*
X158715000Y-108242382D01*
X154476914Y-108242382D01*
X154544619Y-108174677D01*
X154608640Y-108078863D01*
X154652738Y-107972399D01*
X154675219Y-107859379D01*
X154675219Y-107744143D01*
X154652738Y-107631123D01*
X154608640Y-107524659D01*
X154544619Y-107428845D01*
X154463135Y-107347361D01*
X154367321Y-107283340D01*
X154260857Y-107239242D01*
X154147837Y-107216761D01*
X154032601Y-107216761D01*
X153919581Y-107239242D01*
X153813117Y-107283340D01*
X153717303Y-107347361D01*
X153635819Y-107428845D01*
X153571798Y-107524659D01*
X153527700Y-107631123D01*
X153505219Y-107744143D01*
X145232072Y-107744143D01*
X145262519Y-107670638D01*
X145285000Y-107557618D01*
X145285000Y-107442382D01*
X145262519Y-107329362D01*
X145218421Y-107222898D01*
X145154400Y-107127084D01*
X145072916Y-107045600D01*
X144977102Y-106981579D01*
X144870638Y-106937481D01*
X144757618Y-106915000D01*
X144642382Y-106915000D01*
X144529362Y-106937481D01*
X144422898Y-106981579D01*
X144327084Y-107045600D01*
X144245600Y-107127084D01*
X144181579Y-107222898D01*
X144137481Y-107329362D01*
X144115000Y-107442382D01*
X138961378Y-107442382D01*
X138961378Y-107200000D01*
X138951072Y-107095358D01*
X138920549Y-106994737D01*
X138870982Y-106902004D01*
X138804277Y-106820723D01*
X138722996Y-106754018D01*
X138701227Y-106742382D01*
X142515000Y-106742382D01*
X142515000Y-106857618D01*
X142537481Y-106970638D01*
X142581579Y-107077102D01*
X142645600Y-107172916D01*
X142727084Y-107254400D01*
X142822898Y-107318421D01*
X142929362Y-107362519D01*
X143042382Y-107385000D01*
X143157618Y-107385000D01*
X143270638Y-107362519D01*
X143377102Y-107318421D01*
X143472916Y-107254400D01*
X143554400Y-107172916D01*
X143618421Y-107077102D01*
X143662519Y-106970638D01*
X143679678Y-106884372D01*
X149515000Y-106884372D01*
X149515000Y-106999608D01*
X149537481Y-107112628D01*
X149581579Y-107219092D01*
X149645600Y-107314906D01*
X149727084Y-107396390D01*
X149822898Y-107460411D01*
X149929362Y-107504509D01*
X150042382Y-107526990D01*
X150157618Y-107526990D01*
X150270638Y-107504509D01*
X150377102Y-107460411D01*
X150472916Y-107396390D01*
X150554400Y-107314906D01*
X150618421Y-107219092D01*
X150662519Y-107112628D01*
X150685000Y-106999608D01*
X150685000Y-106942382D01*
X154415000Y-106942382D01*
X154415000Y-107057618D01*
X154437481Y-107170638D01*
X154481579Y-107277102D01*
X154545600Y-107372916D01*
X154627084Y-107454400D01*
X154722898Y-107518421D01*
X154829362Y-107562519D01*
X154942382Y-107585000D01*
X155057618Y-107585000D01*
X155170638Y-107562519D01*
X155277102Y-107518421D01*
X155372916Y-107454400D01*
X155454400Y-107372916D01*
X155518421Y-107277102D01*
X155562519Y-107170638D01*
X155585000Y-107057618D01*
X155585000Y-106942382D01*
X155562519Y-106829362D01*
X155518421Y-106722898D01*
X155454400Y-106627084D01*
X155372916Y-106545600D01*
X155277102Y-106481579D01*
X155170638Y-106437481D01*
X155057618Y-106415000D01*
X154942382Y-106415000D01*
X154829362Y-106437481D01*
X154722898Y-106481579D01*
X154627084Y-106545600D01*
X154545600Y-106627084D01*
X154481579Y-106722898D01*
X154437481Y-106829362D01*
X154415000Y-106942382D01*
X150685000Y-106942382D01*
X150685000Y-106884372D01*
X150662519Y-106771352D01*
X150618421Y-106664888D01*
X150554400Y-106569074D01*
X150472916Y-106487590D01*
X150377102Y-106423569D01*
X150270638Y-106379471D01*
X150157618Y-106356990D01*
X150042382Y-106356990D01*
X149929362Y-106379471D01*
X149822898Y-106423569D01*
X149727084Y-106487590D01*
X149645600Y-106569074D01*
X149581579Y-106664888D01*
X149537481Y-106771352D01*
X149515000Y-106884372D01*
X143679678Y-106884372D01*
X143685000Y-106857618D01*
X143685000Y-106742382D01*
X143679866Y-106716574D01*
X143772916Y-106654400D01*
X143854400Y-106572916D01*
X143918421Y-106477102D01*
X143962519Y-106370638D01*
X143972785Y-106319025D01*
X158798215Y-106319025D01*
X158798215Y-106434261D01*
X158820696Y-106547281D01*
X158864794Y-106653745D01*
X158928815Y-106749559D01*
X159010299Y-106831043D01*
X159106113Y-106895064D01*
X159212577Y-106939162D01*
X159325597Y-106961643D01*
X159440833Y-106961643D01*
X159553853Y-106939162D01*
X159660317Y-106895064D01*
X159756131Y-106831043D01*
X159837615Y-106749559D01*
X159901636Y-106653745D01*
X159945734Y-106547281D01*
X159958049Y-106485367D01*
X160027084Y-106554402D01*
X160122898Y-106618423D01*
X160229362Y-106662521D01*
X160342382Y-106685002D01*
X160457618Y-106685002D01*
X160570638Y-106662521D01*
X160677102Y-106618423D01*
X160772916Y-106554402D01*
X160854400Y-106472918D01*
X160918421Y-106377104D01*
X160962519Y-106270640D01*
X160985000Y-106157620D01*
X160985000Y-106042384D01*
X160962519Y-105929364D01*
X160918421Y-105822900D01*
X160854400Y-105727086D01*
X160772916Y-105645602D01*
X160677102Y-105581581D01*
X160570638Y-105537483D01*
X160457618Y-105515002D01*
X160342382Y-105515002D01*
X160229362Y-105537483D01*
X160122898Y-105581581D01*
X160027084Y-105645602D01*
X159945600Y-105727086D01*
X159881579Y-105822900D01*
X159837481Y-105929364D01*
X159825166Y-105991278D01*
X159756131Y-105922243D01*
X159660317Y-105858222D01*
X159553853Y-105814124D01*
X159440833Y-105791643D01*
X159325597Y-105791643D01*
X159212577Y-105814124D01*
X159106113Y-105858222D01*
X159010299Y-105922243D01*
X158928815Y-106003727D01*
X158864794Y-106099541D01*
X158820696Y-106206005D01*
X158798215Y-106319025D01*
X143972785Y-106319025D01*
X143985000Y-106257618D01*
X143985000Y-106142382D01*
X143962519Y-106029362D01*
X143918421Y-105922898D01*
X143854400Y-105827084D01*
X143772916Y-105745600D01*
X143677102Y-105681579D01*
X143570638Y-105637481D01*
X143457618Y-105615000D01*
X143342382Y-105615000D01*
X143229362Y-105637481D01*
X143122898Y-105681579D01*
X143027084Y-105745600D01*
X142945600Y-105827084D01*
X142881579Y-105922898D01*
X142837481Y-106029362D01*
X142815000Y-106142382D01*
X142815000Y-106257618D01*
X142820134Y-106283426D01*
X142727084Y-106345600D01*
X142645600Y-106427084D01*
X142581579Y-106522898D01*
X142537481Y-106629362D01*
X142515000Y-106742382D01*
X138701227Y-106742382D01*
X138630263Y-106704451D01*
X138529642Y-106673928D01*
X138425000Y-106663622D01*
X136975000Y-106663622D01*
X136870358Y-106673928D01*
X136769737Y-106704451D01*
X136677004Y-106754018D01*
X136595723Y-106820723D01*
X136529018Y-106902004D01*
X136479451Y-106994737D01*
X136448928Y-107095358D01*
X136438622Y-107200000D01*
X135385000Y-107200000D01*
X135385000Y-105300000D01*
X136434509Y-105300000D01*
X136456423Y-105522499D01*
X136521324Y-105736447D01*
X136626716Y-105933623D01*
X136768551Y-106106449D01*
X136941377Y-106248284D01*
X137138553Y-106353676D01*
X137352501Y-106418577D01*
X137519248Y-106435000D01*
X137880752Y-106435000D01*
X138047499Y-106418577D01*
X138261447Y-106353676D01*
X138458623Y-106248284D01*
X138631449Y-106106449D01*
X138773284Y-105933623D01*
X138878676Y-105736447D01*
X138943577Y-105522499D01*
X138965491Y-105300000D01*
X138943577Y-105077501D01*
X138878676Y-104863553D01*
X138773284Y-104666377D01*
X138631449Y-104493551D01*
X138569100Y-104442382D01*
X139915000Y-104442382D01*
X139915000Y-104557618D01*
X139937481Y-104670638D01*
X139981579Y-104777102D01*
X140045600Y-104872916D01*
X140127084Y-104954400D01*
X140222898Y-105018421D01*
X140329362Y-105062519D01*
X140442382Y-105085000D01*
X140557618Y-105085000D01*
X140670638Y-105062519D01*
X140777102Y-105018421D01*
X140872916Y-104954400D01*
X140954400Y-104872916D01*
X141018421Y-104777102D01*
X141062519Y-104670638D01*
X141085000Y-104557618D01*
X141085000Y-104442382D01*
X141062519Y-104329362D01*
X141018421Y-104222898D01*
X140954400Y-104127084D01*
X140872916Y-104045600D01*
X140777102Y-103981579D01*
X140670638Y-103937481D01*
X140557618Y-103915000D01*
X140442382Y-103915000D01*
X140329362Y-103937481D01*
X140222898Y-103981579D01*
X140127084Y-104045600D01*
X140045600Y-104127084D01*
X139981579Y-104222898D01*
X139937481Y-104329362D01*
X139915000Y-104442382D01*
X138569100Y-104442382D01*
X138458623Y-104351716D01*
X138261447Y-104246324D01*
X138047499Y-104181423D01*
X137880752Y-104165000D01*
X137519248Y-104165000D01*
X137352501Y-104181423D01*
X137138553Y-104246324D01*
X136941377Y-104351716D01*
X136768551Y-104493551D01*
X136626716Y-104666377D01*
X136521324Y-104863553D01*
X136456423Y-105077501D01*
X136434509Y-105300000D01*
X135385000Y-105300000D01*
X135385000Y-102800000D01*
X136434509Y-102800000D01*
X136456423Y-103022499D01*
X136521324Y-103236447D01*
X136626716Y-103433623D01*
X136768551Y-103606449D01*
X136941377Y-103748284D01*
X137138553Y-103853676D01*
X137352501Y-103918577D01*
X137519248Y-103935000D01*
X137880752Y-103935000D01*
X138047499Y-103918577D01*
X138261447Y-103853676D01*
X138458623Y-103748284D01*
X138631449Y-103606449D01*
X138684027Y-103542382D01*
X138915000Y-103542382D01*
X138915000Y-103657618D01*
X138937481Y-103770638D01*
X138981579Y-103877102D01*
X139045600Y-103972916D01*
X139127084Y-104054400D01*
X139222898Y-104118421D01*
X139329362Y-104162519D01*
X139442382Y-104185000D01*
X139557618Y-104185000D01*
X139670638Y-104162519D01*
X139777102Y-104118421D01*
X139872916Y-104054400D01*
X139954400Y-103972916D01*
X140018421Y-103877102D01*
X140062519Y-103770638D01*
X140085000Y-103657618D01*
X140085000Y-103542382D01*
X140915000Y-103542382D01*
X140915000Y-103657618D01*
X140937481Y-103770638D01*
X140981579Y-103877102D01*
X141045600Y-103972916D01*
X141127084Y-104054400D01*
X141222898Y-104118421D01*
X141329362Y-104162519D01*
X141442382Y-104185000D01*
X141557618Y-104185000D01*
X141614456Y-104173694D01*
X141581579Y-104222898D01*
X141537481Y-104329362D01*
X141515000Y-104442382D01*
X141515000Y-104557618D01*
X141537481Y-104670638D01*
X141581579Y-104777102D01*
X141645600Y-104872916D01*
X141727084Y-104954400D01*
X141822898Y-105018421D01*
X141929362Y-105062519D01*
X142042382Y-105085000D01*
X142157618Y-105085000D01*
X142270638Y-105062519D01*
X142377102Y-105018421D01*
X142472916Y-104954400D01*
X142554400Y-104872916D01*
X142618421Y-104777102D01*
X142662519Y-104670638D01*
X142685000Y-104557618D01*
X142685000Y-104442382D01*
X142665109Y-104342382D01*
X161415000Y-104342382D01*
X161415000Y-104457618D01*
X161437481Y-104570638D01*
X161481579Y-104677102D01*
X161545600Y-104772916D01*
X161627084Y-104854400D01*
X161722898Y-104918421D01*
X161829362Y-104962519D01*
X161942382Y-104985000D01*
X162057618Y-104985000D01*
X162170638Y-104962519D01*
X162277102Y-104918421D01*
X162372916Y-104854400D01*
X162454400Y-104772916D01*
X162518421Y-104677102D01*
X162562519Y-104570638D01*
X162585000Y-104457618D01*
X162585000Y-104342382D01*
X162562519Y-104229362D01*
X162526492Y-104142382D01*
X166815000Y-104142382D01*
X166815000Y-104257618D01*
X166837481Y-104370638D01*
X166881579Y-104477102D01*
X166945600Y-104572916D01*
X167027084Y-104654400D01*
X167122898Y-104718421D01*
X167229362Y-104762519D01*
X167342382Y-104785000D01*
X167457618Y-104785000D01*
X167570638Y-104762519D01*
X167677102Y-104718421D01*
X167772916Y-104654400D01*
X167854400Y-104572916D01*
X167918421Y-104477102D01*
X167962519Y-104370638D01*
X167985000Y-104257618D01*
X167985000Y-104142382D01*
X167962519Y-104029362D01*
X167918421Y-103922898D01*
X167854400Y-103827084D01*
X167772916Y-103745600D01*
X167677102Y-103681579D01*
X167570638Y-103637481D01*
X167457618Y-103615000D01*
X167342382Y-103615000D01*
X167229362Y-103637481D01*
X167122898Y-103681579D01*
X167027084Y-103745600D01*
X166945600Y-103827084D01*
X166881579Y-103922898D01*
X166837481Y-104029362D01*
X166815000Y-104142382D01*
X162526492Y-104142382D01*
X162518421Y-104122898D01*
X162454400Y-104027084D01*
X162372916Y-103945600D01*
X162277102Y-103881579D01*
X162170638Y-103837481D01*
X162057618Y-103815000D01*
X161942382Y-103815000D01*
X161829362Y-103837481D01*
X161722898Y-103881579D01*
X161627084Y-103945600D01*
X161545600Y-104027084D01*
X161481579Y-104122898D01*
X161437481Y-104229362D01*
X161415000Y-104342382D01*
X142665109Y-104342382D01*
X142662519Y-104329362D01*
X142618421Y-104222898D01*
X142554400Y-104127084D01*
X142472916Y-104045600D01*
X142377102Y-103981579D01*
X142270638Y-103937481D01*
X142157618Y-103915000D01*
X142042382Y-103915000D01*
X141985544Y-103926306D01*
X142018421Y-103877102D01*
X142062519Y-103770638D01*
X142085000Y-103657618D01*
X142085000Y-103542382D01*
X142062519Y-103429362D01*
X142018421Y-103322898D01*
X141954400Y-103227084D01*
X141872916Y-103145600D01*
X141777102Y-103081579D01*
X141670638Y-103037481D01*
X141557618Y-103015000D01*
X141442382Y-103015000D01*
X141329362Y-103037481D01*
X141222898Y-103081579D01*
X141127084Y-103145600D01*
X141045600Y-103227084D01*
X140981579Y-103322898D01*
X140937481Y-103429362D01*
X140915000Y-103542382D01*
X140085000Y-103542382D01*
X140062519Y-103429362D01*
X140018421Y-103322898D01*
X139954400Y-103227084D01*
X139872916Y-103145600D01*
X139777102Y-103081579D01*
X139670638Y-103037481D01*
X139557618Y-103015000D01*
X139442382Y-103015000D01*
X139329362Y-103037481D01*
X139222898Y-103081579D01*
X139127084Y-103145600D01*
X139045600Y-103227084D01*
X138981579Y-103322898D01*
X138937481Y-103429362D01*
X138915000Y-103542382D01*
X138684027Y-103542382D01*
X138773284Y-103433623D01*
X138878676Y-103236447D01*
X138943577Y-103022499D01*
X138958460Y-102871382D01*
X152115000Y-102871382D01*
X152115000Y-102986618D01*
X152137481Y-103099638D01*
X152181579Y-103206102D01*
X152245600Y-103301916D01*
X152327084Y-103383400D01*
X152422898Y-103447421D01*
X152529362Y-103491519D01*
X152642382Y-103514000D01*
X152757618Y-103514000D01*
X152870638Y-103491519D01*
X152977102Y-103447421D01*
X153072916Y-103383400D01*
X153154400Y-103301916D01*
X153218421Y-103206102D01*
X153262519Y-103099638D01*
X153285000Y-102986618D01*
X153285000Y-102871382D01*
X153262519Y-102758362D01*
X153218421Y-102651898D01*
X153154400Y-102556084D01*
X153072916Y-102474600D01*
X152977102Y-102410579D01*
X152870638Y-102366481D01*
X152757618Y-102344000D01*
X152642382Y-102344000D01*
X152529362Y-102366481D01*
X152422898Y-102410579D01*
X152327084Y-102474600D01*
X152245600Y-102556084D01*
X152181579Y-102651898D01*
X152137481Y-102758362D01*
X152115000Y-102871382D01*
X138958460Y-102871382D01*
X138965491Y-102800000D01*
X138943577Y-102577501D01*
X138878676Y-102363553D01*
X138773284Y-102166377D01*
X138631449Y-101993551D01*
X138458623Y-101851716D01*
X138261447Y-101746324D01*
X138047499Y-101681423D01*
X137880752Y-101665000D01*
X137519248Y-101665000D01*
X137352501Y-101681423D01*
X137138553Y-101746324D01*
X136941377Y-101851716D01*
X136768551Y-101993551D01*
X136626716Y-102166377D01*
X136521324Y-102363553D01*
X136456423Y-102577501D01*
X136434509Y-102800000D01*
X135385000Y-102800000D01*
X135385000Y-100300000D01*
X136434509Y-100300000D01*
X136456423Y-100522499D01*
X136521324Y-100736447D01*
X136626716Y-100933623D01*
X136768551Y-101106449D01*
X136941377Y-101248284D01*
X137138553Y-101353676D01*
X137352501Y-101418577D01*
X137519248Y-101435000D01*
X137880752Y-101435000D01*
X138047499Y-101418577D01*
X138261447Y-101353676D01*
X138458623Y-101248284D01*
X138465814Y-101242382D01*
X142615000Y-101242382D01*
X142615000Y-101357618D01*
X142637481Y-101470638D01*
X142681579Y-101577102D01*
X142745600Y-101672916D01*
X142827084Y-101754400D01*
X142922898Y-101818421D01*
X143029362Y-101862519D01*
X143062442Y-101869099D01*
X143037481Y-101929362D01*
X143015000Y-102042382D01*
X143015000Y-102157618D01*
X143037481Y-102270638D01*
X143081579Y-102377102D01*
X143145600Y-102472916D01*
X143227084Y-102554400D01*
X143322898Y-102618421D01*
X143429362Y-102662519D01*
X143542382Y-102685000D01*
X143657618Y-102685000D01*
X143770638Y-102662519D01*
X143877102Y-102618421D01*
X143972916Y-102554400D01*
X144054400Y-102472916D01*
X144118421Y-102377102D01*
X144162519Y-102270638D01*
X144185000Y-102157618D01*
X144185000Y-102042382D01*
X144162519Y-101929362D01*
X144118421Y-101822898D01*
X144084000Y-101771382D01*
X154715000Y-101771382D01*
X154715000Y-101886618D01*
X154737481Y-101999638D01*
X154781579Y-102106102D01*
X154845600Y-102201916D01*
X154927084Y-102283400D01*
X155022898Y-102347421D01*
X155129362Y-102391519D01*
X155242382Y-102414000D01*
X155357618Y-102414000D01*
X155470638Y-102391519D01*
X155488608Y-102384076D01*
X155445600Y-102427084D01*
X155381579Y-102522898D01*
X155337481Y-102629362D01*
X155315000Y-102742382D01*
X155315000Y-102857618D01*
X155337481Y-102970638D01*
X155381579Y-103077102D01*
X155445600Y-103172916D01*
X155527084Y-103254400D01*
X155622898Y-103318421D01*
X155729362Y-103362519D01*
X155842382Y-103385000D01*
X155957618Y-103385000D01*
X156070638Y-103362519D01*
X156177102Y-103318421D01*
X156272916Y-103254400D01*
X156354400Y-103172916D01*
X156418421Y-103077102D01*
X156432166Y-103043918D01*
X156437481Y-103070638D01*
X156481579Y-103177102D01*
X156545600Y-103272916D01*
X156627084Y-103354400D01*
X156722898Y-103418421D01*
X156829362Y-103462519D01*
X156942382Y-103485000D01*
X157057618Y-103485000D01*
X157170638Y-103462519D01*
X157277102Y-103418421D01*
X157372916Y-103354400D01*
X157454400Y-103272916D01*
X157518421Y-103177102D01*
X157562519Y-103070638D01*
X157585000Y-102957618D01*
X157585000Y-102842382D01*
X157562519Y-102729362D01*
X157526399Y-102642157D01*
X161866724Y-102642157D01*
X161866724Y-102757393D01*
X161889205Y-102870413D01*
X161933303Y-102976877D01*
X161997324Y-103072691D01*
X162078808Y-103154175D01*
X162174622Y-103218196D01*
X162281086Y-103262294D01*
X162394106Y-103284775D01*
X162509342Y-103284775D01*
X162622362Y-103262294D01*
X162728826Y-103218196D01*
X162824640Y-103154175D01*
X162906124Y-103072691D01*
X162970145Y-102976877D01*
X163014243Y-102870413D01*
X163036724Y-102757393D01*
X163036724Y-102642382D01*
X165015000Y-102642382D01*
X165015000Y-102757618D01*
X165037481Y-102870638D01*
X165081579Y-102977102D01*
X165145600Y-103072916D01*
X165227084Y-103154400D01*
X165322898Y-103218421D01*
X165429362Y-103262519D01*
X165542382Y-103285000D01*
X165657618Y-103285000D01*
X165770638Y-103262519D01*
X165877102Y-103218421D01*
X165972916Y-103154400D01*
X166054400Y-103072916D01*
X166118421Y-102977102D01*
X166162519Y-102870638D01*
X166185000Y-102757618D01*
X166185000Y-102642382D01*
X166162519Y-102529362D01*
X166118421Y-102422898D01*
X166054400Y-102327084D01*
X165972916Y-102245600D01*
X165877102Y-102181579D01*
X165770638Y-102137481D01*
X165657618Y-102115000D01*
X165542382Y-102115000D01*
X165429362Y-102137481D01*
X165322898Y-102181579D01*
X165227084Y-102245600D01*
X165145600Y-102327084D01*
X165081579Y-102422898D01*
X165037481Y-102529362D01*
X165015000Y-102642382D01*
X163036724Y-102642382D01*
X163036724Y-102642157D01*
X163014243Y-102529137D01*
X162970145Y-102422673D01*
X162906124Y-102326859D01*
X162824640Y-102245375D01*
X162728826Y-102181354D01*
X162622362Y-102137256D01*
X162509342Y-102114775D01*
X162394106Y-102114775D01*
X162281086Y-102137256D01*
X162174622Y-102181354D01*
X162078808Y-102245375D01*
X161997324Y-102326859D01*
X161933303Y-102422673D01*
X161889205Y-102529137D01*
X161866724Y-102642157D01*
X157526399Y-102642157D01*
X157518421Y-102622898D01*
X157454400Y-102527084D01*
X157372916Y-102445600D01*
X157277102Y-102381579D01*
X157170638Y-102337481D01*
X157057618Y-102315000D01*
X156942382Y-102315000D01*
X156829362Y-102337481D01*
X156722898Y-102381579D01*
X156627084Y-102445600D01*
X156545600Y-102527084D01*
X156481579Y-102622898D01*
X156467834Y-102656082D01*
X156462519Y-102629362D01*
X156418421Y-102522898D01*
X156354400Y-102427084D01*
X156272916Y-102345600D01*
X156177102Y-102281579D01*
X156070638Y-102237481D01*
X155957618Y-102215000D01*
X155842382Y-102215000D01*
X155729362Y-102237481D01*
X155711392Y-102244924D01*
X155754400Y-102201916D01*
X155818421Y-102106102D01*
X155862519Y-101999638D01*
X155885000Y-101886618D01*
X155885000Y-101771382D01*
X155862519Y-101658362D01*
X155818421Y-101551898D01*
X155754400Y-101456084D01*
X155672916Y-101374600D01*
X155577102Y-101310579D01*
X155470638Y-101266481D01*
X155357618Y-101244000D01*
X155242382Y-101244000D01*
X155129362Y-101266481D01*
X155022898Y-101310579D01*
X154927084Y-101374600D01*
X154845600Y-101456084D01*
X154781579Y-101551898D01*
X154737481Y-101658362D01*
X154715000Y-101771382D01*
X144084000Y-101771382D01*
X144054400Y-101727084D01*
X143972916Y-101645600D01*
X143877102Y-101581579D01*
X143770638Y-101537481D01*
X143737558Y-101530901D01*
X143762519Y-101470638D01*
X143785000Y-101357618D01*
X143785000Y-101242382D01*
X158115000Y-101242382D01*
X158115000Y-101357618D01*
X158137481Y-101470638D01*
X158181579Y-101577102D01*
X158245600Y-101672916D01*
X158327084Y-101754400D01*
X158422898Y-101818421D01*
X158529362Y-101862519D01*
X158642382Y-101885000D01*
X158757618Y-101885000D01*
X158870638Y-101862519D01*
X158977102Y-101818421D01*
X159072916Y-101754400D01*
X159154400Y-101672916D01*
X159218421Y-101577102D01*
X159262519Y-101470638D01*
X159285000Y-101357618D01*
X159285000Y-101242382D01*
X159262519Y-101129362D01*
X159218421Y-101022898D01*
X159154400Y-100927084D01*
X159072916Y-100845600D01*
X158977102Y-100781579D01*
X158870638Y-100737481D01*
X158757618Y-100715000D01*
X158642382Y-100715000D01*
X158529362Y-100737481D01*
X158422898Y-100781579D01*
X158327084Y-100845600D01*
X158245600Y-100927084D01*
X158181579Y-101022898D01*
X158137481Y-101129362D01*
X158115000Y-101242382D01*
X143785000Y-101242382D01*
X143762519Y-101129362D01*
X143718421Y-101022898D01*
X143654400Y-100927084D01*
X143572916Y-100845600D01*
X143477102Y-100781579D01*
X143370638Y-100737481D01*
X143257618Y-100715000D01*
X143142382Y-100715000D01*
X143029362Y-100737481D01*
X142922898Y-100781579D01*
X142827084Y-100845600D01*
X142745600Y-100927084D01*
X142681579Y-101022898D01*
X142637481Y-101129362D01*
X142615000Y-101242382D01*
X138465814Y-101242382D01*
X138631449Y-101106449D01*
X138773284Y-100933623D01*
X138878676Y-100736447D01*
X138943577Y-100522499D01*
X138961316Y-100342382D01*
X144015000Y-100342382D01*
X144015000Y-100457618D01*
X144037481Y-100570638D01*
X144081579Y-100677102D01*
X144145600Y-100772916D01*
X144227084Y-100854400D01*
X144322898Y-100918421D01*
X144429362Y-100962519D01*
X144542382Y-100985000D01*
X144657618Y-100985000D01*
X144770638Y-100962519D01*
X144877102Y-100918421D01*
X144972916Y-100854400D01*
X145054400Y-100772916D01*
X145118421Y-100677102D01*
X145162519Y-100570638D01*
X145185000Y-100457618D01*
X145185000Y-100342382D01*
X145162519Y-100229362D01*
X145118421Y-100122898D01*
X145054400Y-100027084D01*
X145018246Y-99990930D01*
X145072916Y-99954400D01*
X145154400Y-99872916D01*
X145170842Y-99848308D01*
X160767592Y-99848308D01*
X160767592Y-99963544D01*
X160790073Y-100076564D01*
X160834171Y-100183028D01*
X160898192Y-100278842D01*
X160979676Y-100360326D01*
X161075490Y-100424347D01*
X161181954Y-100468445D01*
X161294974Y-100490926D01*
X161410210Y-100490926D01*
X161523230Y-100468445D01*
X161629694Y-100424347D01*
X161725508Y-100360326D01*
X161806992Y-100278842D01*
X161824830Y-100252146D01*
X161827084Y-100254400D01*
X161922898Y-100318421D01*
X162029362Y-100362519D01*
X162142382Y-100385000D01*
X162257618Y-100385000D01*
X162370638Y-100362519D01*
X162477102Y-100318421D01*
X162572916Y-100254400D01*
X162654400Y-100172916D01*
X162718421Y-100077102D01*
X162762519Y-99970638D01*
X162785000Y-99857618D01*
X162785000Y-99842382D01*
X165615000Y-99842382D01*
X165615000Y-99957618D01*
X165637481Y-100070638D01*
X165681579Y-100177102D01*
X165745600Y-100272916D01*
X165827084Y-100354400D01*
X165922898Y-100418421D01*
X166029362Y-100462519D01*
X166142382Y-100485000D01*
X166257618Y-100485000D01*
X166370638Y-100462519D01*
X166477102Y-100418421D01*
X166572916Y-100354400D01*
X166609070Y-100318246D01*
X166645600Y-100372916D01*
X166727084Y-100454400D01*
X166822898Y-100518421D01*
X166929362Y-100562519D01*
X167042382Y-100585000D01*
X167157618Y-100585000D01*
X167270638Y-100562519D01*
X167377102Y-100518421D01*
X167472916Y-100454400D01*
X167554400Y-100372916D01*
X167618421Y-100277102D01*
X167662519Y-100170638D01*
X167685000Y-100057618D01*
X167685000Y-99942382D01*
X167662519Y-99829362D01*
X167618421Y-99722898D01*
X167554400Y-99627084D01*
X167472916Y-99545600D01*
X167377102Y-99481579D01*
X167270638Y-99437481D01*
X167157618Y-99415000D01*
X167042382Y-99415000D01*
X166929362Y-99437481D01*
X166822898Y-99481579D01*
X166727084Y-99545600D01*
X166690930Y-99581754D01*
X166654400Y-99527084D01*
X166572916Y-99445600D01*
X166477102Y-99381579D01*
X166370638Y-99337481D01*
X166257618Y-99315000D01*
X166142382Y-99315000D01*
X166029362Y-99337481D01*
X165922898Y-99381579D01*
X165827084Y-99445600D01*
X165745600Y-99527084D01*
X165681579Y-99622898D01*
X165637481Y-99729362D01*
X165615000Y-99842382D01*
X162785000Y-99842382D01*
X162785000Y-99742382D01*
X162762519Y-99629362D01*
X162718421Y-99522898D01*
X162654400Y-99427084D01*
X162572916Y-99345600D01*
X162477102Y-99281579D01*
X162370638Y-99237481D01*
X162257618Y-99215000D01*
X162142382Y-99215000D01*
X162029362Y-99237481D01*
X161922898Y-99281579D01*
X161827084Y-99345600D01*
X161745600Y-99427084D01*
X161727762Y-99453780D01*
X161725508Y-99451526D01*
X161629694Y-99387505D01*
X161523230Y-99343407D01*
X161410210Y-99320926D01*
X161294974Y-99320926D01*
X161181954Y-99343407D01*
X161075490Y-99387505D01*
X160979676Y-99451526D01*
X160898192Y-99533010D01*
X160834171Y-99628824D01*
X160790073Y-99735288D01*
X160767592Y-99848308D01*
X145170842Y-99848308D01*
X145218421Y-99777102D01*
X145262519Y-99670638D01*
X145285000Y-99557618D01*
X145285000Y-99442382D01*
X145262519Y-99329362D01*
X145218421Y-99222898D01*
X145154400Y-99127084D01*
X145072916Y-99045600D01*
X144977102Y-98981579D01*
X144870638Y-98937481D01*
X144757618Y-98915000D01*
X144642382Y-98915000D01*
X144529362Y-98937481D01*
X144422898Y-98981579D01*
X144327084Y-99045600D01*
X144245600Y-99127084D01*
X144181579Y-99222898D01*
X144137481Y-99329362D01*
X144115000Y-99442382D01*
X144115000Y-99557618D01*
X144137481Y-99670638D01*
X144181579Y-99777102D01*
X144245600Y-99872916D01*
X144281754Y-99909070D01*
X144227084Y-99945600D01*
X144145600Y-100027084D01*
X144081579Y-100122898D01*
X144037481Y-100229362D01*
X144015000Y-100342382D01*
X138961316Y-100342382D01*
X138965491Y-100300000D01*
X138943577Y-100077501D01*
X138878676Y-99863553D01*
X138773284Y-99666377D01*
X138631449Y-99493551D01*
X138458623Y-99351716D01*
X138261447Y-99246324D01*
X138047499Y-99181423D01*
X137880752Y-99165000D01*
X137519248Y-99165000D01*
X137352501Y-99181423D01*
X137138553Y-99246324D01*
X136941377Y-99351716D01*
X136768551Y-99493551D01*
X136626716Y-99666377D01*
X136521324Y-99863553D01*
X136456423Y-100077501D01*
X136434509Y-100300000D01*
X135385000Y-100300000D01*
X135385000Y-97942382D01*
X152315000Y-97942382D01*
X152315000Y-98057618D01*
X152337481Y-98170638D01*
X152381579Y-98277102D01*
X152445600Y-98372916D01*
X152527084Y-98454400D01*
X152622898Y-98518421D01*
X152729362Y-98562519D01*
X152842382Y-98585000D01*
X152957618Y-98585000D01*
X153070638Y-98562519D01*
X153177102Y-98518421D01*
X153272916Y-98454400D01*
X153354400Y-98372916D01*
X153418421Y-98277102D01*
X153462519Y-98170638D01*
X153485000Y-98057618D01*
X153485000Y-97942382D01*
X153462519Y-97829362D01*
X153418421Y-97722898D01*
X153354400Y-97627084D01*
X153272916Y-97545600D01*
X153177102Y-97481579D01*
X153070638Y-97437481D01*
X152957618Y-97415000D01*
X152842382Y-97415000D01*
X152729362Y-97437481D01*
X152622898Y-97481579D01*
X152527084Y-97545600D01*
X152445600Y-97627084D01*
X152381579Y-97722898D01*
X152337481Y-97829362D01*
X152315000Y-97942382D01*
X135385000Y-97942382D01*
X135385000Y-96942382D01*
X147115000Y-96942382D01*
X147115000Y-97057618D01*
X147137481Y-97170638D01*
X147181579Y-97277102D01*
X147245600Y-97372916D01*
X147327084Y-97454400D01*
X147422898Y-97518421D01*
X147529362Y-97562519D01*
X147642382Y-97585000D01*
X147757618Y-97585000D01*
X147870638Y-97562519D01*
X147977102Y-97518421D01*
X148072916Y-97454400D01*
X148154400Y-97372916D01*
X148218421Y-97277102D01*
X148262519Y-97170638D01*
X148285000Y-97057618D01*
X148285000Y-96942382D01*
X148262519Y-96829362D01*
X148218421Y-96722898D01*
X148154400Y-96627084D01*
X148072916Y-96545600D01*
X147977102Y-96481579D01*
X147870638Y-96437481D01*
X147757618Y-96415000D01*
X147642382Y-96415000D01*
X147529362Y-96437481D01*
X147422898Y-96481579D01*
X147327084Y-96545600D01*
X147245600Y-96627084D01*
X147181579Y-96722898D01*
X147137481Y-96829362D01*
X147115000Y-96942382D01*
X135385000Y-96942382D01*
X135385000Y-95729978D01*
X147927404Y-95729978D01*
X147927404Y-95845214D01*
X147949885Y-95958234D01*
X147993983Y-96064698D01*
X148058004Y-96160512D01*
X148139488Y-96241996D01*
X148235302Y-96306017D01*
X148341766Y-96350115D01*
X148454786Y-96372596D01*
X148570022Y-96372596D01*
X148683042Y-96350115D01*
X148789506Y-96306017D01*
X148885320Y-96241996D01*
X148966804Y-96160512D01*
X149030825Y-96064698D01*
X149074923Y-95958234D01*
X149097404Y-95845214D01*
X149097404Y-95729978D01*
X149074923Y-95616958D01*
X149030825Y-95510494D01*
X148966804Y-95414680D01*
X148885320Y-95333196D01*
X148789506Y-95269175D01*
X148683042Y-95225077D01*
X148570022Y-95202596D01*
X148454786Y-95202596D01*
X148341766Y-95225077D01*
X148235302Y-95269175D01*
X148139488Y-95333196D01*
X148058004Y-95414680D01*
X147993983Y-95510494D01*
X147949885Y-95616958D01*
X147927404Y-95729978D01*
X135385000Y-95729978D01*
X135385000Y-93550000D01*
X147663622Y-93550000D01*
X147663622Y-94450000D01*
X147672968Y-94544888D01*
X147700645Y-94636129D01*
X147745591Y-94720217D01*
X147806079Y-94793921D01*
X147879783Y-94854409D01*
X147963871Y-94899355D01*
X148055112Y-94927032D01*
X148150000Y-94936378D01*
X148550000Y-94936378D01*
X148644888Y-94927032D01*
X148736129Y-94899355D01*
X148820217Y-94854409D01*
X148893921Y-94793921D01*
X148954409Y-94720217D01*
X148999355Y-94636129D01*
X149010333Y-94599938D01*
X149027688Y-94632407D01*
X149113290Y-94736711D01*
X149217594Y-94822312D01*
X149336595Y-94885919D01*
X149465718Y-94925088D01*
X149600000Y-94938314D01*
X149734283Y-94925088D01*
X149863406Y-94885919D01*
X149982407Y-94822312D01*
X150086711Y-94736711D01*
X150172312Y-94632407D01*
X150235919Y-94513406D01*
X150275088Y-94384283D01*
X150285000Y-94283647D01*
X150285000Y-93716354D01*
X151415000Y-93716354D01*
X151415000Y-94283647D01*
X151424912Y-94384283D01*
X151464081Y-94513406D01*
X151527688Y-94632407D01*
X151613290Y-94736711D01*
X151717594Y-94822312D01*
X151836595Y-94885919D01*
X151965718Y-94925088D01*
X152100000Y-94938314D01*
X152234283Y-94925088D01*
X152363406Y-94885919D01*
X152482407Y-94822312D01*
X152586711Y-94736711D01*
X152672312Y-94632407D01*
X152735919Y-94513406D01*
X152775088Y-94384283D01*
X152785000Y-94283647D01*
X152785000Y-93716353D01*
X152775088Y-93615717D01*
X152735919Y-93486594D01*
X152672312Y-93367593D01*
X152586710Y-93263289D01*
X152482406Y-93177688D01*
X152363405Y-93114081D01*
X152234282Y-93074912D01*
X152100000Y-93061686D01*
X151965717Y-93074912D01*
X151836594Y-93114081D01*
X151717593Y-93177688D01*
X151613289Y-93263290D01*
X151527688Y-93367594D01*
X151464081Y-93486595D01*
X151424912Y-93615718D01*
X151415000Y-93716354D01*
X150285000Y-93716354D01*
X150285000Y-93716353D01*
X150275088Y-93615717D01*
X150235919Y-93486594D01*
X150172312Y-93367593D01*
X150086710Y-93263289D01*
X149982406Y-93177688D01*
X149863405Y-93114081D01*
X149734282Y-93074912D01*
X149600000Y-93061686D01*
X149465717Y-93074912D01*
X149336594Y-93114081D01*
X149217593Y-93177688D01*
X149113289Y-93263290D01*
X149027688Y-93367594D01*
X149010333Y-93400063D01*
X148999355Y-93363871D01*
X148954409Y-93279783D01*
X148893921Y-93206079D01*
X148820217Y-93145591D01*
X148736129Y-93100645D01*
X148644888Y-93072968D01*
X148550000Y-93063622D01*
X148150000Y-93063622D01*
X148055112Y-93072968D01*
X147963871Y-93100645D01*
X147879783Y-93145591D01*
X147806079Y-93206079D01*
X147745591Y-93279783D01*
X147700645Y-93363871D01*
X147672968Y-93455112D01*
X147663622Y-93550000D01*
X135385000Y-93550000D01*
X135385000Y-89585000D01*
X154255856Y-89585000D01*
X154237481Y-89629362D01*
G37*
%TD.AperFunction*%
%TD*%
M02*
